G04 #@! TF.GenerationSoftware,KiCad,Pcbnew,8.0.1*
G04 #@! TF.CreationDate,2024-03-30T15:42:24-03:00*
G04 #@! TF.ProjectId,Sombrero_MSX_Goa'uld,536f6d62-7265-4726-9f5f-4d53585f476f,rev?*
G04 #@! TF.SameCoordinates,Original*
G04 #@! TF.FileFunction,Legend,Top*
G04 #@! TF.FilePolarity,Positive*
%FSLAX46Y46*%
G04 Gerber Fmt 4.6, Leading zero omitted, Abs format (unit mm)*
G04 Created by KiCad (PCBNEW 8.0.1) date 2024-03-30 15:42:24*
%MOMM*%
%LPD*%
G01*
G04 APERTURE LIST*
G04 Aperture macros list*
%AMRoundRect*
0 Rectangle with rounded corners*
0 $1 Rounding radius*
0 $2 $3 $4 $5 $6 $7 $8 $9 X,Y pos of 4 corners*
0 Add a 4 corners polygon primitive as box body*
4,1,4,$2,$3,$4,$5,$6,$7,$8,$9,$2,$3,0*
0 Add four circle primitives for the rounded corners*
1,1,$1+$1,$2,$3*
1,1,$1+$1,$4,$5*
1,1,$1+$1,$6,$7*
1,1,$1+$1,$8,$9*
0 Add four rect primitives between the rounded corners*
20,1,$1+$1,$2,$3,$4,$5,0*
20,1,$1+$1,$4,$5,$6,$7,0*
20,1,$1+$1,$6,$7,$8,$9,0*
20,1,$1+$1,$8,$9,$2,$3,0*%
G04 Aperture macros list end*
%ADD10C,0.150000*%
%ADD11C,0.100000*%
%ADD12C,0.120000*%
%ADD13C,0.152400*%
%ADD14C,0.127000*%
%ADD15C,0.200000*%
%ADD16C,1.400000*%
%ADD17RoundRect,0.102000X0.901700X0.266700X-0.901700X0.266700X-0.901700X-0.266700X0.901700X-0.266700X0*%
%ADD18RoundRect,0.102000X-0.901700X-0.266700X0.901700X-0.266700X0.901700X0.266700X-0.901700X0.266700X0*%
%ADD19C,1.320800*%
%ADD20RoundRect,0.102000X0.266700X-0.901700X0.266700X0.901700X-0.266700X0.901700X-0.266700X-0.901700X0*%
%ADD21RoundRect,0.102000X-2.200000X-0.950000X2.200000X-0.950000X2.200000X0.950000X-2.200000X0.950000X0*%
G04 APERTURE END LIST*
D10*
X210274819Y-74421904D02*
X211084342Y-74421904D01*
X211084342Y-74421904D02*
X211179580Y-74374285D01*
X211179580Y-74374285D02*
X211227200Y-74326666D01*
X211227200Y-74326666D02*
X211274819Y-74231428D01*
X211274819Y-74231428D02*
X211274819Y-74040952D01*
X211274819Y-74040952D02*
X211227200Y-73945714D01*
X211227200Y-73945714D02*
X211179580Y-73898095D01*
X211179580Y-73898095D02*
X211084342Y-73850476D01*
X211084342Y-73850476D02*
X210274819Y-73850476D01*
X210274819Y-72945714D02*
X210274819Y-73136190D01*
X210274819Y-73136190D02*
X210322438Y-73231428D01*
X210322438Y-73231428D02*
X210370057Y-73279047D01*
X210370057Y-73279047D02*
X210512914Y-73374285D01*
X210512914Y-73374285D02*
X210703390Y-73421904D01*
X210703390Y-73421904D02*
X211084342Y-73421904D01*
X211084342Y-73421904D02*
X211179580Y-73374285D01*
X211179580Y-73374285D02*
X211227200Y-73326666D01*
X211227200Y-73326666D02*
X211274819Y-73231428D01*
X211274819Y-73231428D02*
X211274819Y-73040952D01*
X211274819Y-73040952D02*
X211227200Y-72945714D01*
X211227200Y-72945714D02*
X211179580Y-72898095D01*
X211179580Y-72898095D02*
X211084342Y-72850476D01*
X211084342Y-72850476D02*
X210846247Y-72850476D01*
X210846247Y-72850476D02*
X210751009Y-72898095D01*
X210751009Y-72898095D02*
X210703390Y-72945714D01*
X210703390Y-72945714D02*
X210655771Y-73040952D01*
X210655771Y-73040952D02*
X210655771Y-73231428D01*
X210655771Y-73231428D02*
X210703390Y-73326666D01*
X210703390Y-73326666D02*
X210751009Y-73374285D01*
X210751009Y-73374285D02*
X210846247Y-73421904D01*
X195090130Y-110361240D02*
X195090130Y-111691352D01*
X195090130Y-111691352D02*
X195168372Y-111847836D01*
X195168372Y-111847836D02*
X195246614Y-111926078D01*
X195246614Y-111926078D02*
X195403097Y-112004319D01*
X195403097Y-112004319D02*
X195716065Y-112004319D01*
X195716065Y-112004319D02*
X195872548Y-111926078D01*
X195872548Y-111926078D02*
X195950790Y-111847836D01*
X195950790Y-111847836D02*
X196029032Y-111691352D01*
X196029032Y-111691352D02*
X196029032Y-110361240D01*
X196654967Y-110361240D02*
X197672111Y-110361240D01*
X197672111Y-110361240D02*
X197124418Y-110987175D01*
X197124418Y-110987175D02*
X197359144Y-110987175D01*
X197359144Y-110987175D02*
X197515628Y-111065417D01*
X197515628Y-111065417D02*
X197593869Y-111143659D01*
X197593869Y-111143659D02*
X197672111Y-111300143D01*
X197672111Y-111300143D02*
X197672111Y-111691352D01*
X197672111Y-111691352D02*
X197593869Y-111847836D01*
X197593869Y-111847836D02*
X197515628Y-111926078D01*
X197515628Y-111926078D02*
X197359144Y-112004319D01*
X197359144Y-112004319D02*
X196889693Y-112004319D01*
X196889693Y-112004319D02*
X196733209Y-111926078D01*
X196733209Y-111926078D02*
X196654967Y-111847836D01*
X198900130Y-75309240D02*
X198900130Y-76639352D01*
X198900130Y-76639352D02*
X198978372Y-76795836D01*
X198978372Y-76795836D02*
X199056614Y-76874078D01*
X199056614Y-76874078D02*
X199213097Y-76952319D01*
X199213097Y-76952319D02*
X199526065Y-76952319D01*
X199526065Y-76952319D02*
X199682548Y-76874078D01*
X199682548Y-76874078D02*
X199760790Y-76795836D01*
X199760790Y-76795836D02*
X199839032Y-76639352D01*
X199839032Y-76639352D02*
X199839032Y-75309240D01*
X201482111Y-76952319D02*
X200543209Y-76952319D01*
X201012660Y-76952319D02*
X201012660Y-75309240D01*
X201012660Y-75309240D02*
X200856176Y-75543966D01*
X200856176Y-75543966D02*
X200699693Y-75700450D01*
X200699693Y-75700450D02*
X200543209Y-75778692D01*
D11*
X201850666Y-70831419D02*
X201850666Y-71545704D01*
X201850666Y-71545704D02*
X201803047Y-71688561D01*
X201803047Y-71688561D02*
X201707809Y-71783800D01*
X201707809Y-71783800D02*
X201564952Y-71831419D01*
X201564952Y-71831419D02*
X201469714Y-71831419D01*
X202850666Y-71831419D02*
X202279238Y-71831419D01*
X202564952Y-71831419D02*
X202564952Y-70831419D01*
X202564952Y-70831419D02*
X202469714Y-70974276D01*
X202469714Y-70974276D02*
X202374476Y-71069514D01*
X202374476Y-71069514D02*
X202279238Y-71117133D01*
X185877419Y-111926666D02*
X185401228Y-112259999D01*
X185877419Y-112498094D02*
X184877419Y-112498094D01*
X184877419Y-112498094D02*
X184877419Y-112117142D01*
X184877419Y-112117142D02*
X184925038Y-112021904D01*
X184925038Y-112021904D02*
X184972657Y-111974285D01*
X184972657Y-111974285D02*
X185067895Y-111926666D01*
X185067895Y-111926666D02*
X185210752Y-111926666D01*
X185210752Y-111926666D02*
X185305990Y-111974285D01*
X185305990Y-111974285D02*
X185353609Y-112021904D01*
X185353609Y-112021904D02*
X185401228Y-112117142D01*
X185401228Y-112117142D02*
X185401228Y-112498094D01*
X185877419Y-110974285D02*
X185877419Y-111545713D01*
X185877419Y-111259999D02*
X184877419Y-111259999D01*
X184877419Y-111259999D02*
X185020276Y-111355237D01*
X185020276Y-111355237D02*
X185115514Y-111450475D01*
X185115514Y-111450475D02*
X185163133Y-111545713D01*
X203430094Y-124002580D02*
X203430094Y-125002580D01*
X203430094Y-125002580D02*
X203191999Y-125002580D01*
X203191999Y-125002580D02*
X203049142Y-124954961D01*
X203049142Y-124954961D02*
X202953904Y-124859723D01*
X202953904Y-124859723D02*
X202906285Y-124764485D01*
X202906285Y-124764485D02*
X202858666Y-124574009D01*
X202858666Y-124574009D02*
X202858666Y-124431152D01*
X202858666Y-124431152D02*
X202906285Y-124240676D01*
X202906285Y-124240676D02*
X202953904Y-124145438D01*
X202953904Y-124145438D02*
X203049142Y-124050200D01*
X203049142Y-124050200D02*
X203191999Y-124002580D01*
X203191999Y-124002580D02*
X203430094Y-124002580D01*
X201906285Y-124002580D02*
X202477713Y-124002580D01*
X202191999Y-124002580D02*
X202191999Y-125002580D01*
X202191999Y-125002580D02*
X202287237Y-124859723D01*
X202287237Y-124859723D02*
X202382475Y-124764485D01*
X202382475Y-124764485D02*
X202477713Y-124716866D01*
D10*
X185037240Y-131553869D02*
X186367352Y-131553869D01*
X186367352Y-131553869D02*
X186523836Y-131475627D01*
X186523836Y-131475627D02*
X186602078Y-131397386D01*
X186602078Y-131397386D02*
X186680319Y-131240902D01*
X186680319Y-131240902D02*
X186680319Y-130927934D01*
X186680319Y-130927934D02*
X186602078Y-130771451D01*
X186602078Y-130771451D02*
X186523836Y-130693209D01*
X186523836Y-130693209D02*
X186367352Y-130614967D01*
X186367352Y-130614967D02*
X185037240Y-130614967D01*
X185584933Y-129128372D02*
X186680319Y-129128372D01*
X184958999Y-129519581D02*
X186132626Y-129910790D01*
X186132626Y-129910790D02*
X186132626Y-128893646D01*
X206938333Y-128629580D02*
X206890714Y-128677200D01*
X206890714Y-128677200D02*
X206747857Y-128724819D01*
X206747857Y-128724819D02*
X206652619Y-128724819D01*
X206652619Y-128724819D02*
X206509762Y-128677200D01*
X206509762Y-128677200D02*
X206414524Y-128581961D01*
X206414524Y-128581961D02*
X206366905Y-128486723D01*
X206366905Y-128486723D02*
X206319286Y-128296247D01*
X206319286Y-128296247D02*
X206319286Y-128153390D01*
X206319286Y-128153390D02*
X206366905Y-127962914D01*
X206366905Y-127962914D02*
X206414524Y-127867676D01*
X206414524Y-127867676D02*
X206509762Y-127772438D01*
X206509762Y-127772438D02*
X206652619Y-127724819D01*
X206652619Y-127724819D02*
X206747857Y-127724819D01*
X206747857Y-127724819D02*
X206890714Y-127772438D01*
X206890714Y-127772438D02*
X206938333Y-127820057D01*
X207890714Y-128724819D02*
X207319286Y-128724819D01*
X207605000Y-128724819D02*
X207605000Y-127724819D01*
X207605000Y-127724819D02*
X207509762Y-127867676D01*
X207509762Y-127867676D02*
X207414524Y-127962914D01*
X207414524Y-127962914D02*
X207319286Y-128010533D01*
D12*
X186520000Y-72270000D02*
X186520000Y-124460000D01*
X186520000Y-124460000D02*
X209720000Y-124460000D01*
D11*
X186690000Y-123190000D02*
X209550000Y-123190000D01*
D12*
X189520000Y-72330000D02*
X189520000Y-123190000D01*
X190500000Y-124460000D02*
X190500000Y-127000000D01*
X190500000Y-127000000D02*
X205740000Y-127000000D01*
X195580000Y-71120000D02*
X200660000Y-71120000D01*
X195580000Y-72330000D02*
X195580000Y-71120000D01*
X200660000Y-71120000D02*
X200660000Y-72263000D01*
X204470000Y-72330000D02*
X189520000Y-72330000D01*
X205740000Y-127000000D02*
X205740000Y-124460000D01*
X206720000Y-72330000D02*
X201660000Y-72330000D01*
X206720000Y-123190000D02*
X206720000Y-72330000D01*
X209720000Y-72270000D02*
X186520000Y-72270000D01*
X209720000Y-124460000D02*
X209720000Y-72270000D01*
D13*
X194310000Y-99542600D02*
X194310000Y-99745800D01*
X194310000Y-112344200D02*
X194310000Y-112547400D01*
X194310000Y-112547400D02*
X197815200Y-112547400D01*
X197815200Y-112547400D02*
X198424800Y-112547400D01*
X198424800Y-112547400D02*
X201930000Y-112547400D01*
X201930000Y-99542600D02*
X194310000Y-99542600D01*
X201930000Y-99745800D02*
X201930000Y-99542600D01*
X201930000Y-112547400D02*
X201930000Y-112344200D01*
X197815200Y-112547400D02*
G75*
G02*
X198424800Y-112547400I304800J0D01*
G01*
X194310000Y-74777600D02*
X194310000Y-74980800D01*
X194310000Y-87579200D02*
X194310000Y-87782400D01*
X194310000Y-87782400D02*
X201930000Y-87782400D01*
X197815200Y-74777600D02*
X194310000Y-74777600D01*
X198424800Y-74777600D02*
X197815200Y-74777600D01*
X201930000Y-74777600D02*
X198424800Y-74777600D01*
X201930000Y-74980800D02*
X201930000Y-74777600D01*
X201930000Y-87782400D02*
X201930000Y-87579200D01*
X198424800Y-74777600D02*
G75*
G02*
X197815200Y-74777600I-304800J0D01*
G01*
X191389000Y-72390000D02*
X191389000Y-123190000D01*
X191389000Y-72390000D02*
X196977000Y-72390000D01*
X204851000Y-72390000D02*
X199009000Y-72390000D01*
X204851000Y-123190000D02*
X191389000Y-123190000D01*
X204851000Y-123190000D02*
X204851000Y-72390000D01*
X199009000Y-72390000D02*
G75*
G02*
X196977000Y-72390000I-1016000J0D01*
G01*
D11*
X197485000Y-123825000D02*
X198755000Y-124460000D01*
X197485000Y-124460000D02*
X196215000Y-124460000D01*
X197485000Y-125095000D02*
X197485000Y-123825000D01*
X198755000Y-124460000D02*
X197485000Y-125095000D01*
X198755000Y-124460000D02*
X200025000Y-124460000D01*
X198755000Y-125095000D02*
X198755000Y-123825000D01*
D13*
X184632600Y-128574800D02*
X184632600Y-132080000D01*
X184632600Y-132080000D02*
X184632600Y-132689600D01*
X184632600Y-132689600D02*
X184632600Y-136194800D01*
X184632600Y-136194800D02*
X184835800Y-136194800D01*
X184835800Y-128574800D02*
X184632600Y-128574800D01*
X197434200Y-136194800D02*
X197637400Y-136194800D01*
X197637400Y-128574800D02*
X197434200Y-128574800D01*
X197637400Y-136194800D02*
X197637400Y-128574800D01*
X184632600Y-132080000D02*
G75*
G02*
X184632600Y-132689600I0J-304800D01*
G01*
D14*
X202590000Y-129230000D02*
X204890000Y-126930000D01*
X202590000Y-130780000D02*
X202590000Y-129230000D01*
X202590000Y-134930000D02*
X202590000Y-133380000D01*
X204890000Y-126930000D02*
X212890000Y-126930000D01*
X204890000Y-137230000D02*
X202590000Y-134930000D01*
X212890000Y-126930000D02*
X212890000Y-130780000D01*
X212890000Y-133380000D02*
X212890000Y-137230000D01*
X212890000Y-137230000D02*
X204890000Y-137230000D01*
D15*
X201740000Y-130380000D02*
G75*
G02*
X201540000Y-130380000I-100000J0D01*
G01*
X201540000Y-130380000D02*
G75*
G02*
X201740000Y-130380000I100000J0D01*
G01*
%LPC*%
D16*
X187960000Y-73660000D03*
X187960000Y-76200000D03*
X187960000Y-78740000D03*
X187960000Y-81280000D03*
X187960000Y-83820000D03*
X187960000Y-86360000D03*
X187960000Y-88900000D03*
X187960000Y-91440000D03*
X187960000Y-93980000D03*
X187960000Y-96520000D03*
X187960000Y-99060000D03*
X187960000Y-101600000D03*
X187960000Y-104140000D03*
X187960000Y-106680000D03*
X187960000Y-109220000D03*
X187960000Y-111760000D03*
X187960000Y-114300000D03*
X187960000Y-116840000D03*
X187960000Y-119380000D03*
X187960000Y-121920000D03*
X208280000Y-121920000D03*
X208280000Y-119380000D03*
X208280000Y-116840000D03*
X208280000Y-114300000D03*
X208280000Y-111760000D03*
X208280000Y-109220000D03*
X208280000Y-106680000D03*
X208280000Y-104140000D03*
X208280000Y-101600000D03*
X208280000Y-99060000D03*
X208280000Y-96520000D03*
X208280000Y-93980000D03*
X208280000Y-91440000D03*
X208280000Y-88900000D03*
X208280000Y-86360000D03*
X208280000Y-83820000D03*
X208280000Y-81280000D03*
X208280000Y-78740000D03*
X208280000Y-76200000D03*
X208280000Y-73660000D03*
D17*
X202895200Y-111760000D03*
X202895200Y-110490000D03*
X202895200Y-109220000D03*
X202895200Y-107950000D03*
X202895200Y-106680000D03*
X202895200Y-105410000D03*
X202895200Y-104140000D03*
X202895200Y-102870000D03*
X202895200Y-101600000D03*
X202895200Y-100330000D03*
X193344800Y-100330000D03*
X193344800Y-101600000D03*
X193344800Y-102870000D03*
X193344800Y-104140000D03*
X193344800Y-105410000D03*
X193344800Y-106680000D03*
X193344800Y-107950000D03*
X193344800Y-109220000D03*
X193344800Y-110490000D03*
X193344800Y-111760000D03*
D18*
X193344800Y-75565000D03*
X193344800Y-76835000D03*
X193344800Y-78105000D03*
X193344800Y-79375000D03*
X193344800Y-80645000D03*
X193344800Y-81915000D03*
X193344800Y-83185000D03*
X193344800Y-84455000D03*
X193344800Y-85725000D03*
X193344800Y-86995000D03*
X202895200Y-86995000D03*
X202895200Y-85725000D03*
X202895200Y-84455000D03*
X202895200Y-83185000D03*
X202895200Y-81915000D03*
X202895200Y-80645000D03*
X202895200Y-79375000D03*
X202895200Y-78105000D03*
X202895200Y-76835000D03*
X202895200Y-75565000D03*
D16*
X190500000Y-73660000D03*
X190500000Y-76200000D03*
X190500000Y-78740000D03*
X190500000Y-81280000D03*
X190500000Y-83820000D03*
X190500000Y-86360000D03*
X190500000Y-88900000D03*
X190500000Y-91440000D03*
X190500000Y-93980000D03*
X190500000Y-96520000D03*
X190500000Y-99060000D03*
X190500000Y-101600000D03*
X190500000Y-104140000D03*
X190500000Y-106680000D03*
X190500000Y-109220000D03*
X190500000Y-111760000D03*
X190500000Y-114300000D03*
X190500000Y-116840000D03*
X190500000Y-119380000D03*
X190500000Y-121920000D03*
X205740000Y-121920000D03*
X205740000Y-119380000D03*
X205740000Y-116840000D03*
X205740000Y-114300000D03*
X205740000Y-111760000D03*
X205740000Y-109220000D03*
X205740000Y-106680000D03*
X205740000Y-104140000D03*
X205740000Y-101600000D03*
X205740000Y-99060000D03*
X205740000Y-96520000D03*
X205740000Y-93980000D03*
X205740000Y-91440000D03*
X205740000Y-88900000D03*
X205740000Y-86360000D03*
X205740000Y-83820000D03*
X205740000Y-81280000D03*
X205740000Y-78740000D03*
X205740000Y-76200000D03*
X205740000Y-73660000D03*
D19*
X185420000Y-119380000D03*
X185420000Y-104140000D03*
X205740000Y-124460000D03*
X190500000Y-124460000D03*
D20*
X185420000Y-137160000D03*
X186690000Y-137160000D03*
X187960000Y-137160000D03*
X189230000Y-137160000D03*
X190500000Y-137160000D03*
X191770000Y-137160000D03*
X193040000Y-137160000D03*
X194310000Y-137160000D03*
X195580000Y-137160000D03*
X196850000Y-137160000D03*
X196850000Y-127609600D03*
X195580000Y-127609600D03*
X194310000Y-127609600D03*
X193040000Y-127609600D03*
X191770000Y-127609600D03*
X190500000Y-127609600D03*
X189230000Y-127609600D03*
X187960000Y-127609600D03*
X186690000Y-127609600D03*
X185420000Y-127609600D03*
D21*
X203390000Y-132080000D03*
X212090000Y-132080000D03*
%LPD*%
M02*
