M48
; DRILL file {KiCad 8.0.1} date 2024-03-30T15:42:20-0300
; FORMAT={-:-/ absolute / inch / decimal}
; #@! TF.CreationDate,2024-03-30T15:42:20-03:00
; #@! TF.GenerationSoftware,Kicad,Pcbnew,8.0.1
; #@! TF.FileFunction,Plated,1,2,PTH
FMAT,2
INCH
; #@! TA.AperFunction,Plated,PTH,ViaDrill
T1C0.0157
; #@! TA.AperFunction,Plated,PTH,ComponentDrill
T2C0.0320
; #@! TA.AperFunction,Plated,PTH,ComponentDrill
T3C0.0354
%
G90
G05
T1
X7.26Y-4.9418
X7.3039Y-3.4588
X7.3212Y-4.868
X7.3471Y-3.2234
X7.3898Y-3.35
X7.443Y-5.1965
X7.4443Y-5.0835
X7.5Y-5.3397
X7.5192Y-5.1656
X7.5315Y-5.1193
X7.5523Y-4.2217
X7.6131Y-4.9645
X7.6407Y-4.8093
X7.6721Y-3.9891
X7.6731Y-4.3489
X7.6841Y-4.6714
X7.687Y-3.371
X7.697Y-3.331
X7.7168Y-4.3187
X7.7478Y-3.528
X7.7913Y-3.921
X7.803Y-4.3041
X7.8185Y-4.4678
X7.824Y-3.0731
X7.8571Y-3.3381
X7.8592Y-3.1698
X7.8849Y-3.997
X7.8991Y-3.1795
X7.9087Y-3.25
X7.9101Y-4.6439
X7.9121Y-3.6703
X7.9161Y-4.6932
X7.9251Y-4.414
X7.9261Y-3.7533
X7.9271Y-3.075
X7.9276Y-4.1667
X7.9288Y-4.0815
X7.9334Y-3.0
X7.9555Y-5.1262
X8.0097Y-3.8333
X8.0475Y-3.662
X8.048Y-3.5179
T2
X7.3Y-4.1
X7.3Y-4.7
X7.5Y-4.9
X8.1Y-4.9
T3
X7.4Y-2.9
X7.4Y-3.0
X7.4Y-3.1
X7.4Y-3.2
X7.4Y-3.3
X7.4Y-3.4
X7.4Y-3.5
X7.4Y-3.6
X7.4Y-3.7
X7.4Y-3.8
X7.4Y-3.9
X7.4Y-4.0
X7.4Y-4.1
X7.4Y-4.2
X7.4Y-4.3
X7.4Y-4.4
X7.4Y-4.5
X7.4Y-4.6
X7.4Y-4.7
X7.4Y-4.8
X7.5Y-2.9
X7.5Y-3.0
X7.5Y-3.1
X7.5Y-3.2
X7.5Y-3.3
X7.5Y-3.4
X7.5Y-3.5
X7.5Y-3.6
X7.5Y-3.7
X7.5Y-3.8
X7.5Y-3.9
X7.5Y-4.0
X7.5Y-4.1
X7.5Y-4.2
X7.5Y-4.3
X7.5Y-4.4
X7.5Y-4.5
X7.5Y-4.6
X7.5Y-4.7
X7.5Y-4.8
X8.1Y-2.9
X8.1Y-3.0
X8.1Y-3.1
X8.1Y-3.2
X8.1Y-3.3
X8.1Y-3.4
X8.1Y-3.5
X8.1Y-3.6
X8.1Y-3.7
X8.1Y-3.8
X8.1Y-3.9
X8.1Y-4.0
X8.1Y-4.1
X8.1Y-4.2
X8.1Y-4.3
X8.1Y-4.4
X8.1Y-4.5
X8.1Y-4.6
X8.1Y-4.7
X8.1Y-4.8
X8.2Y-2.9
X8.2Y-3.0
X8.2Y-3.1
X8.2Y-3.2
X8.2Y-3.3
X8.2Y-3.4
X8.2Y-3.5
X8.2Y-3.6
X8.2Y-3.7
X8.2Y-3.8
X8.2Y-3.9
X8.2Y-4.0
X8.2Y-4.1
X8.2Y-4.2
X8.2Y-4.3
X8.2Y-4.4
X8.2Y-4.5
X8.2Y-4.6
X8.2Y-4.7
X8.2Y-4.8
M30
