G04 #@! TF.GenerationSoftware,KiCad,Pcbnew,8.0.1*
G04 #@! TF.CreationDate,2024-03-30T15:42:24-03:00*
G04 #@! TF.ProjectId,Sombrero_MSX_Goa'uld,536f6d62-7265-4726-9f5f-4d53585f476f,rev?*
G04 #@! TF.SameCoordinates,Original*
G04 #@! TF.FileFunction,Soldermask,Top*
G04 #@! TF.FilePolarity,Negative*
%FSLAX46Y46*%
G04 Gerber Fmt 4.6, Leading zero omitted, Abs format (unit mm)*
G04 Created by KiCad (PCBNEW 8.0.1) date 2024-03-30 15:42:24*
%MOMM*%
%LPD*%
G01*
G04 APERTURE LIST*
G04 Aperture macros list*
%AMRoundRect*
0 Rectangle with rounded corners*
0 $1 Rounding radius*
0 $2 $3 $4 $5 $6 $7 $8 $9 X,Y pos of 4 corners*
0 Add a 4 corners polygon primitive as box body*
4,1,4,$2,$3,$4,$5,$6,$7,$8,$9,$2,$3,0*
0 Add four circle primitives for the rounded corners*
1,1,$1+$1,$2,$3*
1,1,$1+$1,$4,$5*
1,1,$1+$1,$6,$7*
1,1,$1+$1,$8,$9*
0 Add four rect primitives between the rounded corners*
20,1,$1+$1,$2,$3,$4,$5,0*
20,1,$1+$1,$4,$5,$6,$7,0*
20,1,$1+$1,$6,$7,$8,$9,0*
20,1,$1+$1,$8,$9,$2,$3,0*%
G04 Aperture macros list end*
%ADD10C,1.400000*%
%ADD11RoundRect,0.102000X0.901700X0.266700X-0.901700X0.266700X-0.901700X-0.266700X0.901700X-0.266700X0*%
%ADD12RoundRect,0.102000X-0.901700X-0.266700X0.901700X-0.266700X0.901700X0.266700X-0.901700X0.266700X0*%
%ADD13C,1.320800*%
%ADD14RoundRect,0.102000X0.266700X-0.901700X0.266700X0.901700X-0.266700X0.901700X-0.266700X-0.901700X0*%
%ADD15RoundRect,0.102000X-2.200000X-0.950000X2.200000X-0.950000X2.200000X0.950000X-2.200000X0.950000X0*%
G04 APERTURE END LIST*
D10*
X187960000Y-73660000D03*
X187960000Y-76200000D03*
X187960000Y-78740000D03*
X187960000Y-81280000D03*
X187960000Y-83820000D03*
X187960000Y-86360000D03*
X187960000Y-88900000D03*
X187960000Y-91440000D03*
X187960000Y-93980000D03*
X187960000Y-96520000D03*
X187960000Y-99060000D03*
X187960000Y-101600000D03*
X187960000Y-104140000D03*
X187960000Y-106680000D03*
X187960000Y-109220000D03*
X187960000Y-111760000D03*
X187960000Y-114300000D03*
X187960000Y-116840000D03*
X187960000Y-119380000D03*
X187960000Y-121920000D03*
X208280000Y-121920000D03*
X208280000Y-119380000D03*
X208280000Y-116840000D03*
X208280000Y-114300000D03*
X208280000Y-111760000D03*
X208280000Y-109220000D03*
X208280000Y-106680000D03*
X208280000Y-104140000D03*
X208280000Y-101600000D03*
X208280000Y-99060000D03*
X208280000Y-96520000D03*
X208280000Y-93980000D03*
X208280000Y-91440000D03*
X208280000Y-88900000D03*
X208280000Y-86360000D03*
X208280000Y-83820000D03*
X208280000Y-81280000D03*
X208280000Y-78740000D03*
X208280000Y-76200000D03*
X208280000Y-73660000D03*
D11*
X202895200Y-111760000D03*
X202895200Y-110490000D03*
X202895200Y-109220000D03*
X202895200Y-107950000D03*
X202895200Y-106680000D03*
X202895200Y-105410000D03*
X202895200Y-104140000D03*
X202895200Y-102870000D03*
X202895200Y-101600000D03*
X202895200Y-100330000D03*
X193344800Y-100330000D03*
X193344800Y-101600000D03*
X193344800Y-102870000D03*
X193344800Y-104140000D03*
X193344800Y-105410000D03*
X193344800Y-106680000D03*
X193344800Y-107950000D03*
X193344800Y-109220000D03*
X193344800Y-110490000D03*
X193344800Y-111760000D03*
D12*
X193344800Y-75565000D03*
X193344800Y-76835000D03*
X193344800Y-78105000D03*
X193344800Y-79375000D03*
X193344800Y-80645000D03*
X193344800Y-81915000D03*
X193344800Y-83185000D03*
X193344800Y-84455000D03*
X193344800Y-85725000D03*
X193344800Y-86995000D03*
X202895200Y-86995000D03*
X202895200Y-85725000D03*
X202895200Y-84455000D03*
X202895200Y-83185000D03*
X202895200Y-81915000D03*
X202895200Y-80645000D03*
X202895200Y-79375000D03*
X202895200Y-78105000D03*
X202895200Y-76835000D03*
X202895200Y-75565000D03*
D10*
X190500000Y-73660000D03*
X190500000Y-76200000D03*
X190500000Y-78740000D03*
X190500000Y-81280000D03*
X190500000Y-83820000D03*
X190500000Y-86360000D03*
X190500000Y-88900000D03*
X190500000Y-91440000D03*
X190500000Y-93980000D03*
X190500000Y-96520000D03*
X190500000Y-99060000D03*
X190500000Y-101600000D03*
X190500000Y-104140000D03*
X190500000Y-106680000D03*
X190500000Y-109220000D03*
X190500000Y-111760000D03*
X190500000Y-114300000D03*
X190500000Y-116840000D03*
X190500000Y-119380000D03*
X190500000Y-121920000D03*
X205740000Y-121920000D03*
X205740000Y-119380000D03*
X205740000Y-116840000D03*
X205740000Y-114300000D03*
X205740000Y-111760000D03*
X205740000Y-109220000D03*
X205740000Y-106680000D03*
X205740000Y-104140000D03*
X205740000Y-101600000D03*
X205740000Y-99060000D03*
X205740000Y-96520000D03*
X205740000Y-93980000D03*
X205740000Y-91440000D03*
X205740000Y-88900000D03*
X205740000Y-86360000D03*
X205740000Y-83820000D03*
X205740000Y-81280000D03*
X205740000Y-78740000D03*
X205740000Y-76200000D03*
X205740000Y-73660000D03*
D13*
X185420000Y-119380000D03*
X185420000Y-104140000D03*
X205740000Y-124460000D03*
X190500000Y-124460000D03*
D14*
X185420000Y-137160000D03*
X186690000Y-137160000D03*
X187960000Y-137160000D03*
X189230000Y-137160000D03*
X190500000Y-137160000D03*
X191770000Y-137160000D03*
X193040000Y-137160000D03*
X194310000Y-137160000D03*
X195580000Y-137160000D03*
X196850000Y-137160000D03*
X196850000Y-127609600D03*
X195580000Y-127609600D03*
X194310000Y-127609600D03*
X193040000Y-127609600D03*
X191770000Y-127609600D03*
X190500000Y-127609600D03*
X189230000Y-127609600D03*
X187960000Y-127609600D03*
X186690000Y-127609600D03*
X185420000Y-127609600D03*
D15*
X203390000Y-132080000D03*
X212090000Y-132080000D03*
M02*
