G04 #@! TF.GenerationSoftware,KiCad,Pcbnew,8.0.1*
G04 #@! TF.CreationDate,2024-03-30T15:42:24-03:00*
G04 #@! TF.ProjectId,Sombrero_MSX_Goa'uld,536f6d62-7265-4726-9f5f-4d53585f476f,rev?*
G04 #@! TF.SameCoordinates,Original*
G04 #@! TF.FileFunction,Paste,Top*
G04 #@! TF.FilePolarity,Positive*
%FSLAX46Y46*%
G04 Gerber Fmt 4.6, Leading zero omitted, Abs format (unit mm)*
G04 Created by KiCad (PCBNEW 8.0.1) date 2024-03-30 15:42:24*
%MOMM*%
%LPD*%
G01*
G04 APERTURE LIST*
%ADD10R,1.803400X0.533400*%
%ADD11R,0.533400X1.803400*%
%ADD12R,4.400000X1.900000*%
G04 APERTURE END LIST*
D10*
X202895200Y-111760000D03*
X202895200Y-110490000D03*
X202895200Y-109220000D03*
X202895200Y-107950000D03*
X202895200Y-106680000D03*
X202895200Y-105410000D03*
X202895200Y-104140000D03*
X202895200Y-102870000D03*
X202895200Y-101600000D03*
X202895200Y-100330000D03*
X193344800Y-100330000D03*
X193344800Y-101600000D03*
X193344800Y-102870000D03*
X193344800Y-104140000D03*
X193344800Y-105410000D03*
X193344800Y-106680000D03*
X193344800Y-107950000D03*
X193344800Y-109220000D03*
X193344800Y-110490000D03*
X193344800Y-111760000D03*
X193344800Y-75565000D03*
X193344800Y-76835000D03*
X193344800Y-78105000D03*
X193344800Y-79375000D03*
X193344800Y-80645000D03*
X193344800Y-81915000D03*
X193344800Y-83185000D03*
X193344800Y-84455000D03*
X193344800Y-85725000D03*
X193344800Y-86995000D03*
X202895200Y-86995000D03*
X202895200Y-85725000D03*
X202895200Y-84455000D03*
X202895200Y-83185000D03*
X202895200Y-81915000D03*
X202895200Y-80645000D03*
X202895200Y-79375000D03*
X202895200Y-78105000D03*
X202895200Y-76835000D03*
X202895200Y-75565000D03*
D11*
X185420000Y-137160000D03*
X186690000Y-137160000D03*
X187960000Y-137160000D03*
X189230000Y-137160000D03*
X190500000Y-137160000D03*
X191770000Y-137160000D03*
X193040000Y-137160000D03*
X194310000Y-137160000D03*
X195580000Y-137160000D03*
X196850000Y-137160000D03*
X196850000Y-127609600D03*
X195580000Y-127609600D03*
X194310000Y-127609600D03*
X193040000Y-127609600D03*
X191770000Y-127609600D03*
X190500000Y-127609600D03*
X189230000Y-127609600D03*
X187960000Y-127609600D03*
X186690000Y-127609600D03*
X185420000Y-127609600D03*
D12*
X203390000Y-132080000D03*
X212090000Y-132080000D03*
M02*
