G04 #@! TF.GenerationSoftware,KiCad,Pcbnew,8.0.1*
G04 #@! TF.CreationDate,2024-03-30T15:42:24-03:00*
G04 #@! TF.ProjectId,Sombrero_MSX_Goa'uld,536f6d62-7265-4726-9f5f-4d53585f476f,rev?*
G04 #@! TF.SameCoordinates,Original*
G04 #@! TF.FileFunction,Copper,L1,Top*
G04 #@! TF.FilePolarity,Positive*
%FSLAX46Y46*%
G04 Gerber Fmt 4.6, Leading zero omitted, Abs format (unit mm)*
G04 Created by KiCad (PCBNEW 8.0.1) date 2024-03-30 15:42:24*
%MOMM*%
%LPD*%
G01*
G04 APERTURE LIST*
G04 #@! TA.AperFunction,ComponentPad*
%ADD10C,1.400000*%
G04 #@! TD*
G04 #@! TA.AperFunction,SMDPad,CuDef*
%ADD11R,1.803400X0.533400*%
G04 #@! TD*
G04 #@! TA.AperFunction,ComponentPad*
%ADD12C,1.320800*%
G04 #@! TD*
G04 #@! TA.AperFunction,SMDPad,CuDef*
%ADD13R,0.533400X1.803400*%
G04 #@! TD*
G04 #@! TA.AperFunction,SMDPad,CuDef*
%ADD14R,4.400000X1.900000*%
G04 #@! TD*
G04 #@! TA.AperFunction,ViaPad*
%ADD15C,0.800000*%
G04 #@! TD*
G04 #@! TA.AperFunction,Conductor*
%ADD16C,0.450000*%
G04 #@! TD*
G04 #@! TA.AperFunction,Conductor*
%ADD17C,0.300000*%
G04 #@! TD*
G04 APERTURE END LIST*
D10*
X187960000Y-73660000D03*
X187960000Y-76200000D03*
X187960000Y-78740000D03*
X187960000Y-81280000D03*
X187960000Y-83820000D03*
X187960000Y-86360000D03*
X187960000Y-88900000D03*
X187960000Y-91440000D03*
X187960000Y-93980000D03*
X187960000Y-96520000D03*
X187960000Y-99060000D03*
X187960000Y-101600000D03*
X187960000Y-104140000D03*
X187960000Y-106680000D03*
X187960000Y-109220000D03*
X187960000Y-111760000D03*
X187960000Y-114300000D03*
X187960000Y-116840000D03*
X187960000Y-119380000D03*
X187960000Y-121920000D03*
X208280000Y-121920000D03*
X208280000Y-119380000D03*
X208280000Y-116840000D03*
X208280000Y-114300000D03*
X208280000Y-111760000D03*
X208280000Y-109220000D03*
X208280000Y-106680000D03*
X208280000Y-104140000D03*
X208280000Y-101600000D03*
X208280000Y-99060000D03*
X208280000Y-96520000D03*
X208280000Y-93980000D03*
X208280000Y-91440000D03*
X208280000Y-88900000D03*
X208280000Y-86360000D03*
X208280000Y-83820000D03*
X208280000Y-81280000D03*
X208280000Y-78740000D03*
X208280000Y-76200000D03*
X208280000Y-73660000D03*
D11*
X202895200Y-111760000D03*
X202895200Y-110490000D03*
X202895200Y-109220000D03*
X202895200Y-107950000D03*
X202895200Y-106680000D03*
X202895200Y-105410000D03*
X202895200Y-104140000D03*
X202895200Y-102870000D03*
X202895200Y-101600000D03*
X202895200Y-100330000D03*
X193344800Y-100330000D03*
X193344800Y-101600000D03*
X193344800Y-102870000D03*
X193344800Y-104140000D03*
X193344800Y-105410000D03*
X193344800Y-106680000D03*
X193344800Y-107950000D03*
X193344800Y-109220000D03*
X193344800Y-110490000D03*
X193344800Y-111760000D03*
X193344800Y-75565000D03*
X193344800Y-76835000D03*
X193344800Y-78105000D03*
X193344800Y-79375000D03*
X193344800Y-80645000D03*
X193344800Y-81915000D03*
X193344800Y-83185000D03*
X193344800Y-84455000D03*
X193344800Y-85725000D03*
X193344800Y-86995000D03*
X202895200Y-86995000D03*
X202895200Y-85725000D03*
X202895200Y-84455000D03*
X202895200Y-83185000D03*
X202895200Y-81915000D03*
X202895200Y-80645000D03*
X202895200Y-79375000D03*
X202895200Y-78105000D03*
X202895200Y-76835000D03*
X202895200Y-75565000D03*
D10*
X190500000Y-73660000D03*
X190500000Y-76200000D03*
X190500000Y-78740000D03*
X190500000Y-81280000D03*
X190500000Y-83820000D03*
X190500000Y-86360000D03*
X190500000Y-88900000D03*
X190500000Y-91440000D03*
X190500000Y-93980000D03*
X190500000Y-96520000D03*
X190500000Y-99060000D03*
X190500000Y-101600000D03*
X190500000Y-104140000D03*
X190500000Y-106680000D03*
X190500000Y-109220000D03*
X190500000Y-111760000D03*
X190500000Y-114300000D03*
X190500000Y-116840000D03*
X190500000Y-119380000D03*
X190500000Y-121920000D03*
X205740000Y-121920000D03*
X205740000Y-119380000D03*
X205740000Y-116840000D03*
X205740000Y-114300000D03*
X205740000Y-111760000D03*
X205740000Y-109220000D03*
X205740000Y-106680000D03*
X205740000Y-104140000D03*
X205740000Y-101600000D03*
X205740000Y-99060000D03*
X205740000Y-96520000D03*
X205740000Y-93980000D03*
X205740000Y-91440000D03*
X205740000Y-88900000D03*
X205740000Y-86360000D03*
X205740000Y-83820000D03*
X205740000Y-81280000D03*
X205740000Y-78740000D03*
X205740000Y-76200000D03*
X205740000Y-73660000D03*
D12*
X185420000Y-119380000D03*
X185420000Y-104140000D03*
X205740000Y-124460000D03*
X190500000Y-124460000D03*
D13*
X185420000Y-137160000D03*
X186690000Y-137160000D03*
X187960000Y-137160000D03*
X189230000Y-137160000D03*
X190500000Y-137160000D03*
X191770000Y-137160000D03*
X193040000Y-137160000D03*
X194310000Y-137160000D03*
X195580000Y-137160000D03*
X196850000Y-137160000D03*
X196850000Y-127609600D03*
X195580000Y-127609600D03*
X194310000Y-127609600D03*
X193040000Y-127609600D03*
X191770000Y-127609600D03*
X190500000Y-127609600D03*
X189230000Y-127609600D03*
X187960000Y-127609600D03*
X186690000Y-127609600D03*
X185420000Y-127609600D03*
D14*
X203390000Y-132080000D03*
X212090000Y-132080000D03*
D15*
X193371800Y-126097200D03*
X194896200Y-110462000D03*
X201321700Y-95333600D03*
X195177100Y-118654600D03*
X194073300Y-122155400D03*
X196006600Y-109695000D03*
X189052400Y-131991900D03*
X195502700Y-84608500D03*
X195249500Y-85622200D03*
X201067700Y-119206200D03*
X200917800Y-117955700D03*
X187699700Y-85090000D03*
X190988000Y-131206700D03*
X201361000Y-105835000D03*
X201391300Y-103670700D03*
X200277300Y-101524100D03*
X196794700Y-89612300D03*
X201507100Y-76200800D03*
X198730300Y-78056500D03*
X199569800Y-84787300D03*
X204406900Y-93014000D03*
X199622800Y-80512900D03*
X200635900Y-80758100D03*
X201297700Y-112116400D03*
X200881700Y-82549800D03*
X186615500Y-81875200D03*
X204418500Y-89354000D03*
X200966700Y-93225600D03*
X203446400Y-97365900D03*
X202069200Y-130205800D03*
X190500000Y-135627500D03*
X185957300Y-123647100D03*
X201347200Y-78104700D03*
X191300100Y-130030400D03*
X184405000Y-125522300D03*
X185519200Y-87852300D03*
X198195500Y-109323900D03*
X197900000Y-99593500D03*
X198589200Y-113482400D03*
X189086200Y-129121800D03*
X194870500Y-101322700D03*
X191827500Y-107231500D03*
D16*
X185420000Y-124665800D02*
X185130400Y-124376200D01*
X193344800Y-111760000D02*
X194673400Y-111760000D01*
X194673400Y-114655500D02*
X193210500Y-116118400D01*
X185130400Y-124376200D02*
X185130400Y-119669600D01*
X193210500Y-116118400D02*
X193210500Y-125935900D01*
X185420000Y-119380000D02*
X187960000Y-119380000D01*
X185420000Y-126281000D02*
X185420000Y-124665800D01*
X185420000Y-127609600D02*
X185420000Y-126281000D01*
X194673400Y-111760000D02*
X194673400Y-114655500D01*
X193210500Y-125935900D02*
X193371800Y-126097200D01*
X185130400Y-119669600D02*
X185420000Y-119380000D01*
X185420000Y-137160000D02*
X185420000Y-127609600D01*
X192016200Y-73569700D02*
X192016200Y-75565000D01*
X196850000Y-135831400D02*
X195580000Y-135831400D01*
X193344800Y-110490000D02*
X194673400Y-110490000D01*
X186690000Y-126945300D02*
X186690000Y-126281000D01*
X187210200Y-128938200D02*
X194103400Y-135831400D01*
X204470000Y-100330000D02*
X202895200Y-100330000D01*
X209872900Y-77792900D02*
X209872900Y-99036700D01*
X191523100Y-87488100D02*
X189977400Y-87488100D01*
X193344800Y-86995000D02*
X194673400Y-86995000D01*
X202895200Y-100330000D02*
X201566600Y-100330000D01*
X186690000Y-128938200D02*
X187210200Y-128938200D01*
X212090000Y-132080000D02*
X212090000Y-130703100D01*
X201566600Y-100330000D02*
X201566600Y-95578500D01*
X208579600Y-100330000D02*
X207010000Y-100330000D01*
X208280000Y-76200000D02*
X209872900Y-77792900D01*
X207010000Y-100330000D02*
X205740000Y-101600000D01*
X194310000Y-136495700D02*
X194310000Y-135831400D01*
X189354800Y-86865500D02*
X189354800Y-73177000D01*
X194103400Y-135831400D02*
X194310000Y-135831400D01*
X195580000Y-136495700D02*
X195580000Y-135831400D01*
X193344800Y-75565000D02*
X192016200Y-75565000D01*
X186690000Y-127609600D02*
X186690000Y-128938200D01*
X212090000Y-113030000D02*
X208280000Y-109220000D01*
X195340000Y-110905800D02*
X194896200Y-110462000D01*
X194701400Y-110462000D02*
X194896200Y-110462000D01*
X189354800Y-73177000D02*
X190032400Y-72499400D01*
X195177100Y-118654600D02*
X195340000Y-118491700D01*
X195340000Y-118491700D02*
X195340000Y-110905800D01*
X186690000Y-126281000D02*
X187960000Y-125011000D01*
X190032400Y-72499400D02*
X190945900Y-72499400D01*
X186690000Y-126945300D02*
X186690000Y-127609600D01*
X189977400Y-87488100D02*
X189354800Y-86865500D01*
X193344800Y-86995000D02*
X192016200Y-86995000D01*
X190945900Y-72499400D02*
X192016200Y-73569700D01*
X195580000Y-136495700D02*
X194310000Y-136495700D01*
X209872900Y-99036700D02*
X208579600Y-100330000D01*
X212090000Y-130703100D02*
X212090000Y-113030000D01*
X201321700Y-95333600D02*
X194673400Y-88685300D01*
X192016200Y-86995000D02*
X191523100Y-87488100D01*
X194673400Y-88685300D02*
X194673400Y-86995000D01*
X194310000Y-137160000D02*
X194310000Y-136495700D01*
X195580000Y-137160000D02*
X195580000Y-136495700D01*
X196850000Y-137160000D02*
X196850000Y-135831400D01*
X201566600Y-95578500D02*
X201321700Y-95333600D01*
X194673400Y-110490000D02*
X194701400Y-110462000D01*
X205740000Y-101600000D02*
X204470000Y-100330000D01*
X187960000Y-125011000D02*
X187960000Y-121920000D01*
X194073300Y-122155400D02*
X196006600Y-120222100D01*
X196006600Y-120222100D02*
X196006600Y-109695000D01*
D17*
X189230000Y-135906400D02*
X189052400Y-135728800D01*
X189052400Y-135728800D02*
X189052400Y-131991900D01*
X189230000Y-137160000D02*
X189230000Y-135906400D01*
X205740000Y-112062500D02*
X205740000Y-111760000D01*
X191770000Y-137160000D02*
X191770000Y-138413600D01*
X199813800Y-136587900D02*
X199813800Y-117988700D01*
X197486200Y-138915500D02*
X199813800Y-136587900D01*
X199813800Y-117988700D02*
X205740000Y-112062500D01*
X191770000Y-138413600D02*
X192271900Y-138915500D01*
X192271900Y-138915500D02*
X197486200Y-138915500D01*
X196547900Y-80054500D02*
X194598400Y-78105000D01*
X208618700Y-95427000D02*
X208222700Y-95427000D01*
X206818500Y-94022800D02*
X206818500Y-93517700D01*
X200323300Y-84475900D02*
X196547900Y-80700500D01*
X206818500Y-93517700D02*
X205792700Y-92491900D01*
X209293300Y-98046700D02*
X209293300Y-96101600D01*
X205284000Y-92491900D02*
X200323300Y-87531200D01*
X193344800Y-78105000D02*
X194598400Y-78105000D01*
X208222700Y-95427000D02*
X206818500Y-94022800D01*
X205792700Y-92491900D02*
X205284000Y-92491900D01*
X209293300Y-96101600D02*
X208618700Y-95427000D01*
X208280000Y-99060000D02*
X209293300Y-98046700D01*
X200323300Y-87531200D02*
X200323300Y-84475900D01*
X196547900Y-80700500D02*
X196547900Y-80054500D01*
X192261500Y-81291200D02*
X192091200Y-81120900D01*
X204250400Y-95435200D02*
X197258500Y-88443300D01*
X197258500Y-84103600D02*
X194446100Y-81291200D01*
X205740000Y-99060000D02*
X204250400Y-97570400D01*
X204250400Y-97570400D02*
X204250400Y-95435200D01*
X193344800Y-76835000D02*
X192091200Y-76835000D01*
X197258500Y-88443300D02*
X197258500Y-84103600D01*
X194446100Y-81291200D02*
X192261500Y-81291200D01*
X192091200Y-81120900D02*
X192091200Y-76835000D01*
X205304400Y-95031900D02*
X198348200Y-88075700D01*
X194598400Y-79915300D02*
X194598400Y-79375000D01*
X198348200Y-88075700D02*
X198348200Y-83665100D01*
X206791900Y-95031900D02*
X205304400Y-95031900D01*
X198348200Y-83665100D02*
X194598400Y-79915300D01*
X208280000Y-96520000D02*
X206791900Y-95031900D01*
X193344800Y-79375000D02*
X194598400Y-79375000D01*
X195502700Y-84089300D02*
X195502700Y-84608500D01*
X194598400Y-83185000D02*
X195502700Y-84089300D01*
X193344800Y-83185000D02*
X194598400Y-83185000D01*
X194598400Y-84971100D02*
X194598400Y-84455000D01*
X195249500Y-85622200D02*
X194598400Y-84971100D01*
X193344800Y-84455000D02*
X194598400Y-84455000D01*
X201045500Y-133403900D02*
X200823300Y-133181700D01*
X205765500Y-133403900D02*
X201045500Y-133403900D01*
X206776700Y-132392700D02*
X205765500Y-133403900D01*
X200823300Y-119450600D02*
X201067700Y-119206200D01*
X205740000Y-121920000D02*
X206776700Y-122956700D01*
X206776700Y-122956700D02*
X206776700Y-132392700D01*
X200823300Y-133181700D02*
X200823300Y-119450600D01*
X208703500Y-118307700D02*
X209345400Y-118949600D01*
X200315700Y-118557800D02*
X200917800Y-117955700D01*
X200850500Y-133954900D02*
X200315700Y-133420100D01*
X209345400Y-130570200D02*
X205960700Y-133954900D01*
X205960700Y-133954900D02*
X200850500Y-133954900D01*
X200315700Y-133420100D02*
X200315700Y-118557800D01*
X209345400Y-118949600D02*
X209345400Y-130570200D01*
X205740000Y-119380000D02*
X206812300Y-118307700D01*
X206812300Y-118307700D02*
X208703500Y-118307700D01*
X199311900Y-136380100D02*
X199311900Y-117778900D01*
X197278400Y-138413600D02*
X199311900Y-136380100D01*
X199311900Y-117778900D02*
X204639900Y-112450900D01*
X193040000Y-137160000D02*
X193040000Y-138413600D01*
X204639900Y-110320100D02*
X205740000Y-109220000D01*
X204639900Y-112450900D02*
X204639900Y-110320100D01*
X193040000Y-138413600D02*
X197278400Y-138413600D01*
X184949200Y-138413600D02*
X186690000Y-138413600D01*
X187218300Y-85090000D02*
X183585000Y-88723300D01*
X187699700Y-85090000D02*
X187218300Y-85090000D01*
X186690000Y-137160000D02*
X186690000Y-138413600D01*
X183585000Y-88723300D02*
X183585000Y-137049400D01*
X183585000Y-137049400D02*
X184949200Y-138413600D01*
X194928600Y-126356000D02*
X194928600Y-128696000D01*
X198623300Y-122661300D02*
X194928600Y-126356000D01*
X198623300Y-115598500D02*
X198623300Y-122661300D01*
X201860900Y-110490000D02*
X200031600Y-112319300D01*
X192417900Y-131206700D02*
X190988000Y-131206700D01*
X200031600Y-114190200D02*
X198623300Y-115598500D01*
X202895200Y-110490000D02*
X201860900Y-110490000D01*
X194928600Y-128696000D02*
X192417900Y-131206700D01*
X200031600Y-112319300D02*
X200031600Y-114190200D01*
X202895200Y-109220000D02*
X201641600Y-109220000D01*
X191148100Y-108571900D02*
X200993500Y-108571900D01*
X190500000Y-109220000D02*
X191148100Y-108571900D01*
X200993500Y-108571900D02*
X201641600Y-109220000D01*
X190500000Y-101691300D02*
X192297300Y-103488600D01*
X190500000Y-101600000D02*
X190500000Y-101691300D01*
X196617900Y-103488600D02*
X201079300Y-107950000D01*
X192297300Y-103488600D02*
X196617900Y-103488600D01*
X201079300Y-107950000D02*
X202895200Y-107950000D01*
X201641600Y-106115600D02*
X201361000Y-105835000D01*
X202895200Y-106680000D02*
X201641600Y-106680000D01*
X201641600Y-106680000D02*
X201641600Y-106115600D01*
X204148800Y-102457500D02*
X203942700Y-102251400D01*
X203942700Y-102251400D02*
X200723400Y-102251400D01*
X200723400Y-102251400D02*
X200636900Y-102337900D01*
X199494800Y-97894800D02*
X190500000Y-88900000D01*
X202895200Y-105410000D02*
X204148800Y-105410000D01*
X204148800Y-105410000D02*
X204148800Y-102457500D01*
X200636900Y-102337900D02*
X199994400Y-102337900D01*
X199494800Y-101838300D02*
X199494800Y-97894800D01*
X199994400Y-102337900D02*
X199494800Y-101838300D01*
X202895200Y-104140000D02*
X201641600Y-104140000D01*
X201641600Y-104140000D02*
X201391300Y-103889700D01*
X201391300Y-103889700D02*
X201391300Y-103670700D01*
X202895200Y-102870000D02*
X201641600Y-102870000D01*
X199317200Y-102870000D02*
X201641600Y-102870000D01*
X192967200Y-96520000D02*
X199317200Y-102870000D01*
X190500000Y-96520000D02*
X192967200Y-96520000D01*
X201565700Y-101524100D02*
X201641600Y-101600000D01*
X200277300Y-101524100D02*
X201565700Y-101524100D01*
X202895200Y-101600000D02*
X201641600Y-101600000D01*
X197846300Y-88301600D02*
X197846300Y-83892900D01*
X193344800Y-80645000D02*
X194598400Y-80645000D01*
X197846300Y-83892900D02*
X194598400Y-80645000D01*
X205740000Y-96195300D02*
X197846300Y-88301600D01*
X205740000Y-96520000D02*
X205740000Y-96195300D01*
X196256200Y-89073800D02*
X196256200Y-84092500D01*
X194078700Y-81915000D02*
X193344800Y-81915000D01*
X196794700Y-89612300D02*
X196256200Y-89073800D01*
X196256200Y-84092500D02*
X194078700Y-81915000D01*
X205374500Y-91440000D02*
X200825200Y-86890700D01*
X205740000Y-91440000D02*
X205374500Y-91440000D01*
X199578400Y-82951300D02*
X199578300Y-82951300D01*
X200825200Y-84268100D02*
X199578400Y-83021300D01*
X191984200Y-76216400D02*
X191570700Y-76629900D01*
X199578400Y-83021300D02*
X199578400Y-82951300D01*
X191570700Y-85204500D02*
X192091200Y-85725000D01*
X197051300Y-78864000D02*
X194403700Y-76216400D01*
X193344800Y-85725000D02*
X192091200Y-85725000D01*
X191570700Y-76629900D02*
X191570700Y-85204500D01*
X199578300Y-82951300D02*
X197051300Y-80424300D01*
X197051300Y-80424300D02*
X197051300Y-78864000D01*
X200825200Y-86890700D02*
X200825200Y-84268100D01*
X194403700Y-76216400D02*
X191984200Y-76216400D01*
X202895200Y-85725000D02*
X204148800Y-85725000D01*
X204148800Y-87308800D02*
X205740000Y-88900000D01*
X204148800Y-85725000D02*
X204148800Y-87308800D01*
X205740000Y-86360000D02*
X205740000Y-85333200D01*
X203334800Y-81915000D02*
X202895200Y-81915000D01*
X204148800Y-82729000D02*
X203334800Y-81915000D01*
X205740000Y-85333200D02*
X204148800Y-83742000D01*
X204148800Y-83742000D02*
X204148800Y-82729000D01*
X204148800Y-81519200D02*
X204148800Y-80645000D01*
X205740000Y-83820000D02*
X205740000Y-83110400D01*
X202895200Y-80645000D02*
X204148800Y-80645000D01*
X205740000Y-83110400D02*
X204148800Y-81519200D01*
X201641600Y-76335300D02*
X201507100Y-76200800D01*
X202895200Y-76835000D02*
X201641600Y-76835000D01*
X201641600Y-76835000D02*
X201641600Y-76335300D01*
X198730300Y-78056500D02*
X199622800Y-78949000D01*
X199569800Y-88176900D02*
X199569800Y-84787300D01*
X204406900Y-93014000D02*
X199569800Y-88176900D01*
X199622800Y-78949000D02*
X199622800Y-80512900D01*
X205740000Y-73660000D02*
X202983500Y-73660000D01*
X200563600Y-76079900D02*
X200563600Y-80685800D01*
X202983500Y-73660000D02*
X200563600Y-76079900D01*
X200563600Y-80685800D02*
X200635900Y-80758100D01*
X201641600Y-111760000D02*
X201641600Y-111772500D01*
X202895200Y-111760000D02*
X201641600Y-111760000D01*
X185420000Y-114300000D02*
X187960000Y-116840000D01*
X185420000Y-104140000D02*
X185420000Y-114300000D01*
X201641600Y-111772500D02*
X201297700Y-112116400D01*
X194627100Y-75726200D02*
X194627100Y-75168400D01*
X200080300Y-82743500D02*
X198903900Y-81567100D01*
X201641600Y-86995000D02*
X201641600Y-84374800D01*
X191362900Y-71904200D02*
X189715800Y-71904200D01*
X198903800Y-81567100D02*
X198276800Y-80940100D01*
X198276800Y-79375900D02*
X194627100Y-75726200D01*
X189715800Y-71904200D02*
X187960000Y-73660000D01*
X200080300Y-82813500D02*
X200080300Y-82743500D01*
X201641600Y-84374800D02*
X200080300Y-82813500D01*
X198903900Y-81567100D02*
X198903800Y-81567100D01*
X198276800Y-80940100D02*
X198276800Y-79375900D01*
X194627100Y-75168400D02*
X191362900Y-71904200D01*
X202895200Y-86995000D02*
X201641600Y-86995000D01*
X204688100Y-84994300D02*
X204688100Y-86798300D01*
X205657300Y-87767500D02*
X207147500Y-87767500D01*
X204688100Y-86798300D02*
X205657300Y-87767500D01*
X204148800Y-84455000D02*
X204688100Y-84994300D01*
X202895200Y-84455000D02*
X204148800Y-84455000D01*
X207147500Y-87767500D02*
X208280000Y-88900000D01*
X205054400Y-89989900D02*
X204418500Y-89354000D01*
X195129000Y-75518400D02*
X198778700Y-79168100D01*
X186615500Y-81875200D02*
X186615500Y-73566500D01*
X202895200Y-83185000D02*
X201641600Y-83185000D01*
X191577800Y-71390900D02*
X195129000Y-74942100D01*
X186615500Y-73566500D02*
X188791100Y-71390900D01*
X208644400Y-89989900D02*
X205054400Y-89989900D01*
X201641600Y-83185000D02*
X201006400Y-82549800D01*
X200596300Y-82549800D02*
X200881700Y-82549800D01*
X209293300Y-89341000D02*
X208644400Y-89989900D01*
X188791100Y-71390900D02*
X191577800Y-71390900D01*
X209293300Y-87373300D02*
X209293300Y-89341000D01*
X201006400Y-82549800D02*
X200881700Y-82549800D01*
X195129000Y-74942100D02*
X195129000Y-75518400D01*
X208280000Y-86360000D02*
X209293300Y-87373300D01*
X198778800Y-80732300D02*
X200596300Y-82549800D01*
X198778700Y-80732300D02*
X198778800Y-80732300D01*
X198778700Y-79168100D02*
X198778700Y-80732300D01*
X203446400Y-95705300D02*
X200966700Y-93225600D01*
X204576700Y-79802900D02*
X204148800Y-79375000D01*
X202895200Y-79375000D02*
X204148800Y-79375000D01*
X203446400Y-97365900D02*
X203446400Y-95705300D01*
X207047200Y-82587200D02*
X207047200Y-81085700D01*
X205764400Y-79802900D02*
X204576700Y-79802900D01*
X208280000Y-83820000D02*
X207047200Y-82587200D01*
X207047200Y-81085700D02*
X205764400Y-79802900D01*
X205740000Y-114300000D02*
X202069200Y-117970800D01*
X202069200Y-117970800D02*
X202069200Y-130205800D01*
X190500000Y-135906400D02*
X190500000Y-135627500D01*
X190500000Y-137160000D02*
X190500000Y-135906400D01*
X186038600Y-123728400D02*
X186038600Y-131116300D01*
X185957300Y-123647100D02*
X186038600Y-123728400D01*
X187960000Y-133037700D02*
X187960000Y-137160000D01*
X186038600Y-131116300D02*
X187960000Y-133037700D01*
X207168700Y-77628700D02*
X208280000Y-78740000D01*
X201641300Y-78104700D02*
X201641600Y-78105000D01*
X204148800Y-78105000D02*
X204625100Y-77628700D01*
X202895200Y-78105000D02*
X201641600Y-78105000D01*
X204625100Y-77628700D02*
X207168700Y-77628700D01*
X201347200Y-78104700D02*
X201641300Y-78104700D01*
X202895200Y-78105000D02*
X204148800Y-78105000D01*
D16*
X204223800Y-75565000D02*
X204858800Y-74930000D01*
X207038000Y-115542000D02*
X207038000Y-108912600D01*
X207010000Y-74930000D02*
X208280000Y-73660000D01*
X208597900Y-107950000D02*
X210525700Y-106022200D01*
X210525700Y-106022200D02*
X210525700Y-75905700D01*
X205740000Y-116840000D02*
X207038000Y-115542000D01*
X210525700Y-75905700D02*
X208280000Y-73660000D01*
X203390000Y-126810000D02*
X203390000Y-130703100D01*
X204603700Y-117976300D02*
X205740000Y-116840000D01*
X207038000Y-108912600D02*
X208000600Y-107950000D01*
X204858800Y-74930000D02*
X207010000Y-74930000D01*
X205740000Y-124460000D02*
X204603700Y-123323700D01*
X205740000Y-124460000D02*
X203390000Y-126810000D01*
X203390000Y-132080000D02*
X203390000Y-130703100D01*
X202895200Y-75565000D02*
X204223800Y-75565000D01*
X208000600Y-107950000D02*
X208597900Y-107950000D01*
X204603700Y-123323700D02*
X204603700Y-117976300D01*
D17*
X184405000Y-94995000D02*
X187960000Y-91440000D01*
X191770000Y-128863200D02*
X191300100Y-129333100D01*
X184405000Y-125522300D02*
X184405000Y-94995000D01*
X191300100Y-129333100D02*
X191300100Y-130030400D01*
X191770000Y-127609600D02*
X191770000Y-128863200D01*
X186938800Y-95001200D02*
X187960000Y-93980000D01*
X189230000Y-127609600D02*
X189230000Y-116659300D01*
X189230000Y-116659300D02*
X188140700Y-115570000D01*
X187734500Y-115570000D02*
X186938800Y-114774300D01*
X188140700Y-115570000D02*
X187734500Y-115570000D01*
X186938800Y-114774300D02*
X186938800Y-95001200D01*
X186566900Y-88900000D02*
X187960000Y-88900000D01*
X185519200Y-87852300D02*
X186566900Y-88900000D01*
X190727000Y-90170000D02*
X190209400Y-90170000D01*
X198195500Y-113088700D02*
X198589200Y-113482400D01*
X197900000Y-97343000D02*
X190727000Y-90170000D01*
X189029700Y-88990300D02*
X189029700Y-87429700D01*
X189029700Y-87429700D02*
X187960000Y-86360000D01*
X198195500Y-109323900D02*
X198195500Y-113088700D01*
X197900000Y-99593500D02*
X197900000Y-97343000D01*
X190209400Y-90170000D02*
X189029700Y-88990300D01*
X187960000Y-127609600D02*
X187960000Y-128863200D01*
X188827600Y-128863200D02*
X189086200Y-129121800D01*
X187960000Y-128863200D02*
X188827600Y-128863200D01*
X203959500Y-109871400D02*
X204677900Y-109153000D01*
X207031300Y-106938200D02*
X207031300Y-105388700D01*
X204677900Y-109153000D02*
X204677900Y-108776500D01*
X205504400Y-107950000D02*
X206019500Y-107950000D01*
X198120200Y-115391900D02*
X199529700Y-113982400D01*
X201753300Y-109871400D02*
X203959500Y-109871400D01*
X206019500Y-107950000D02*
X207031300Y-106938200D01*
X199529700Y-113982400D02*
X199529700Y-112095000D01*
X199529700Y-112095000D02*
X201753300Y-109871400D01*
X204677900Y-108776500D02*
X205504400Y-107950000D01*
X194310000Y-123430900D02*
X198120200Y-119620700D01*
X194310000Y-127609600D02*
X194310000Y-123430900D01*
X198120200Y-119620700D02*
X198120200Y-115391900D01*
X207031300Y-105388700D02*
X208280000Y-104140000D01*
X192091200Y-100330000D02*
X192091200Y-99154800D01*
X190726400Y-97790000D02*
X189230000Y-97790000D01*
X189230000Y-97790000D02*
X187960000Y-96520000D01*
X192091200Y-99154800D02*
X190726400Y-97790000D01*
X193344800Y-100330000D02*
X192091200Y-100330000D01*
X194598400Y-101600000D02*
X194598400Y-101594800D01*
X193344800Y-101600000D02*
X194598400Y-101600000D01*
X194598400Y-101594800D02*
X194870500Y-101322700D01*
X189024300Y-100535700D02*
X187960000Y-101600000D01*
X191820700Y-101329500D02*
X191026900Y-100535700D01*
X192919100Y-102870000D02*
X191820700Y-101771600D01*
X191820700Y-101771600D02*
X191820700Y-101329500D01*
X191026900Y-100535700D02*
X189024300Y-100535700D01*
X193344800Y-102870000D02*
X192919100Y-102870000D01*
X193344800Y-104140000D02*
X192091200Y-104140000D01*
X187960000Y-104140000D02*
X189071300Y-103028700D01*
X189071300Y-103028700D02*
X190979900Y-103028700D01*
X190979900Y-103028700D02*
X192091200Y-104140000D01*
X189230000Y-105410000D02*
X187960000Y-106680000D01*
X193344800Y-105410000D02*
X189230000Y-105410000D01*
X193344800Y-106680000D02*
X192091200Y-106680000D01*
X192091200Y-106680000D02*
X192091200Y-106967800D01*
X192091200Y-106967800D02*
X191827500Y-107231500D01*
X189387300Y-108833300D02*
X190197800Y-108022800D01*
X193272000Y-108022800D02*
X193344800Y-107950000D01*
X187960000Y-111760000D02*
X189387300Y-110332700D01*
X189387300Y-110332700D02*
X189387300Y-108833300D01*
X190197800Y-108022800D02*
X193272000Y-108022800D01*
X189210000Y-111561100D02*
X189210000Y-113050000D01*
X189210000Y-113050000D02*
X187960000Y-114300000D01*
X190998200Y-110313000D02*
X190458100Y-110313000D01*
X193344800Y-109220000D02*
X192091200Y-109220000D01*
X190458100Y-110313000D02*
X189210000Y-111561100D01*
X192091200Y-109220000D02*
X190998200Y-110313000D01*
M02*
