G04 #@! TF.GenerationSoftware,KiCad,Pcbnew,8.0.6*
G04 #@! TF.CreationDate,2024-10-21T20:58:37-03:00*
G04 #@! TF.ProjectId,MSX_Goauld_Rev4_1,4d53585f-476f-4617-956c-645f52657634,rev?*
G04 #@! TF.SameCoordinates,Original*
G04 #@! TF.FileFunction,Copper,L2,Inr*
G04 #@! TF.FilePolarity,Positive*
%FSLAX46Y46*%
G04 Gerber Fmt 4.6, Leading zero omitted, Abs format (unit mm)*
G04 Created by KiCad (PCBNEW 8.0.6) date 2024-10-21 20:58:37*
%MOMM*%
%LPD*%
G01*
G04 APERTURE LIST*
G04 #@! TA.AperFunction,ComponentPad*
%ADD10C,1.320800*%
G04 #@! TD*
G04 #@! TA.AperFunction,ComponentPad*
%ADD11C,1.500000*%
G04 #@! TD*
G04 #@! TA.AperFunction,ViaPad*
%ADD12C,0.800000*%
G04 #@! TD*
G04 #@! TA.AperFunction,Conductor*
%ADD13C,0.450000*%
G04 #@! TD*
G04 #@! TA.AperFunction,Conductor*
%ADD14C,0.200000*%
G04 #@! TD*
G04 APERTURE END LIST*
D10*
X178059000Y-124206000D03*
X178059000Y-121666000D03*
X178059000Y-119126000D03*
X178059000Y-116586000D03*
X178059000Y-114046000D03*
X178059000Y-111506000D03*
X178059000Y-108966000D03*
X178059000Y-106426000D03*
X178059000Y-103886000D03*
X178059000Y-101346000D03*
X178059000Y-98806000D03*
X178059000Y-96266000D03*
X178059000Y-93726000D03*
X178059000Y-91186000D03*
X178059000Y-88646000D03*
X178059000Y-86106000D03*
X178059000Y-83566000D03*
X178059000Y-81026000D03*
X178059000Y-78486000D03*
X178059000Y-75946000D03*
X157739000Y-75946000D03*
X157739000Y-78486000D03*
X157739000Y-81026000D03*
X157739000Y-83566000D03*
X157739000Y-86106000D03*
X157739000Y-88646000D03*
X157739000Y-91186000D03*
X157739000Y-93726000D03*
X157739000Y-96266000D03*
X157739000Y-98806000D03*
X157739000Y-101346000D03*
X157739000Y-103886000D03*
X157739000Y-106426000D03*
X157739000Y-108966000D03*
X157739000Y-111506000D03*
X157739000Y-114046000D03*
X157739000Y-116586000D03*
X157739000Y-119126000D03*
X157739000Y-121666000D03*
X157739000Y-124206000D03*
D11*
X153670000Y-104902000D03*
X153670000Y-107442000D03*
X153670000Y-109982000D03*
X160274000Y-77302900D03*
X160274000Y-79842900D03*
X160274000Y-82382900D03*
X160274000Y-84922900D03*
X160274000Y-87462900D03*
X160274000Y-90002900D03*
X160274000Y-92542900D03*
X160274000Y-95082900D03*
X160274000Y-97622900D03*
X160274000Y-100162900D03*
X160274000Y-102702900D03*
X160274000Y-105242900D03*
X160274000Y-107782900D03*
X160274000Y-110322900D03*
X160274000Y-112862900D03*
X160274000Y-115402900D03*
X160274000Y-117942900D03*
X160274000Y-120482900D03*
X160274000Y-123022900D03*
X160274000Y-125562900D03*
X175514000Y-125562900D03*
X175514000Y-123022900D03*
X175514000Y-120482900D03*
X175514000Y-117942900D03*
X175514000Y-115402900D03*
X175514000Y-112862900D03*
X175514000Y-110322900D03*
X175514000Y-107782900D03*
X175514000Y-105242900D03*
X175514000Y-102702900D03*
X175514000Y-100162900D03*
X175514000Y-97622900D03*
X175514000Y-95082900D03*
X175514000Y-92542900D03*
X175514000Y-90002900D03*
X175514000Y-87462900D03*
X175514000Y-84922900D03*
X175514000Y-82382900D03*
X175514000Y-79842900D03*
X175514000Y-77302900D03*
D12*
X154623000Y-90424000D03*
X172529100Y-102950500D03*
X165920800Y-106807900D03*
X170140900Y-96083400D03*
X163317900Y-97756400D03*
X164592000Y-103738100D03*
X166916300Y-123080800D03*
X156512642Y-117650642D03*
X162052000Y-94488000D03*
X171635000Y-107231300D03*
X172521900Y-111346700D03*
X163379800Y-86086600D03*
X163733000Y-99819200D03*
X167073400Y-94856900D03*
X169150400Y-108876200D03*
X163374200Y-87088400D03*
X164106300Y-114895400D03*
X166840100Y-100115200D03*
X172499100Y-108408600D03*
X169107900Y-97424000D03*
X163390600Y-92849200D03*
X172535800Y-112754400D03*
X162182700Y-91150200D03*
X172189700Y-94622600D03*
X163393200Y-123057700D03*
X162677300Y-92141700D03*
X170529600Y-104785300D03*
X162631300Y-124130600D03*
X172974700Y-96378800D03*
X173741200Y-97138700D03*
X172604200Y-100752500D03*
X167781100Y-101452000D03*
X156018000Y-103886000D03*
X169237600Y-123804000D03*
X169339900Y-121321700D03*
X170538800Y-103727600D03*
X167997100Y-112176200D03*
X169498000Y-112652800D03*
X163248700Y-111477900D03*
X167269100Y-113085600D03*
X163614375Y-102250325D03*
X164358900Y-107078000D03*
X166731100Y-104406300D03*
X169484100Y-110428100D03*
X167185500Y-102643300D03*
X164741600Y-96057100D03*
X172656900Y-88171200D03*
X165706300Y-83388900D03*
X161744725Y-99037275D03*
D13*
X158242000Y-89916000D02*
X159004000Y-89154000D01*
X159004000Y-87371000D02*
X157739000Y-86106000D01*
X155422391Y-89916000D02*
X158242000Y-89916000D01*
X159004000Y-89154000D02*
X159004000Y-87371000D01*
X154623000Y-90424000D02*
X154914391Y-90424000D01*
X154914391Y-90424000D02*
X155422391Y-89916000D01*
X158297200Y-79756000D02*
X157217850Y-79756000D01*
X172974000Y-75946000D02*
X167801600Y-81118400D01*
X167801600Y-83292600D02*
X163162900Y-78654000D01*
X164301500Y-105188600D02*
X165920800Y-106807900D01*
X164301500Y-104394000D02*
X164301500Y-105188600D01*
X156613800Y-87520800D02*
X157739000Y-88646000D01*
X157217850Y-79756000D02*
X156613800Y-80360050D01*
X178059000Y-75946000D02*
X172974000Y-75946000D01*
X156613800Y-80360050D02*
X156613800Y-87520800D01*
X170140900Y-96081800D02*
X170140900Y-96083400D01*
X164301500Y-104028600D02*
X164592000Y-103738100D01*
X159399200Y-78654000D02*
X158297200Y-79756000D01*
X164301500Y-104394000D02*
X164301500Y-104028600D01*
X167801600Y-81118400D02*
X167801600Y-83292600D01*
X163162900Y-78654000D02*
X159399200Y-78654000D01*
X167801600Y-83292600D02*
X169940700Y-85431800D01*
X169940700Y-95881600D02*
X170140900Y-96081800D01*
X169940700Y-85431800D02*
X169940700Y-95881600D01*
X160274000Y-102702900D02*
X160274000Y-102324100D01*
X162052000Y-94488000D02*
X162052000Y-94996000D01*
X159004000Y-97028000D02*
X159004000Y-101432900D01*
X159584100Y-96447900D02*
X159004000Y-97028000D01*
X162052000Y-94996000D02*
X160600100Y-96447900D01*
X159004000Y-101432900D02*
X160274000Y-102702900D01*
X160600100Y-96447900D02*
X159584100Y-96447900D01*
X175514000Y-120482900D02*
X160274000Y-120482900D01*
D14*
X173237100Y-104937700D02*
X171825800Y-103526400D01*
X173237100Y-110631500D02*
X173237100Y-104937700D01*
X172521900Y-111346700D02*
X173237100Y-110631500D01*
X173071000Y-94790300D02*
X173071000Y-92445900D01*
X171825800Y-96035500D02*
X173071000Y-94790300D01*
X173071000Y-92445900D02*
X175514000Y-90002900D01*
X171825800Y-103526400D02*
X171825800Y-96035500D01*
X164034000Y-95518400D02*
X164034000Y-99518200D01*
X164034000Y-99518200D02*
X163733000Y-99819200D01*
X164122500Y-95429900D02*
X164034000Y-95518400D01*
X160274000Y-87462900D02*
X164122500Y-91311400D01*
X164122500Y-91311400D02*
X164122500Y-95429900D01*
X167073400Y-91779800D02*
X167073400Y-94856900D01*
X162672500Y-87378900D02*
X167073400Y-91779800D01*
X162672500Y-84781400D02*
X162672500Y-87378900D01*
X160274000Y-82382900D02*
X162672500Y-84781400D01*
X178524700Y-122636300D02*
X177617800Y-122636300D01*
X178230200Y-97536000D02*
X179080300Y-98386100D01*
X175514000Y-95082900D02*
X177967100Y-97536000D01*
X177967100Y-97536000D02*
X178230200Y-97536000D01*
X175946900Y-119405700D02*
X168616600Y-119405700D01*
X168616600Y-119405700D02*
X164106300Y-114895400D01*
X176606400Y-121624900D02*
X176606400Y-120065200D01*
X179080300Y-98386100D02*
X179080300Y-122080700D01*
X176606400Y-120065200D02*
X175946900Y-119405700D01*
X179080300Y-122080700D02*
X178524700Y-122636300D01*
X177617800Y-122636300D02*
X176606400Y-121624900D01*
X161325700Y-85974600D02*
X161325700Y-87581000D01*
X161325700Y-87581000D02*
X165169900Y-91425200D01*
X165169900Y-91425200D02*
X165169900Y-94832300D01*
X166840100Y-96502500D02*
X166840100Y-100115200D01*
X165169900Y-94832300D02*
X166840100Y-96502500D01*
X160274000Y-84922900D02*
X161325700Y-85974600D01*
X160274000Y-99471500D02*
X160274000Y-100162900D01*
X163390600Y-92849200D02*
X163390600Y-96354900D01*
X163390600Y-96354900D02*
X160274000Y-99471500D01*
X174462300Y-110827900D02*
X172535800Y-112754400D01*
X174462300Y-93594600D02*
X174462300Y-110827900D01*
X175514000Y-92542900D02*
X174462300Y-93594600D01*
X160790000Y-92542900D02*
X162182700Y-91150200D01*
X160274000Y-92542900D02*
X160790000Y-92542900D01*
X175514000Y-77302900D02*
X171953300Y-80863600D01*
X171953300Y-94386200D02*
X172189700Y-94622600D01*
X171953300Y-80863600D02*
X171953300Y-94386200D01*
X159863600Y-121568000D02*
X159209900Y-120914300D01*
X161903500Y-121568000D02*
X159863600Y-121568000D01*
X159209900Y-116467000D02*
X160274000Y-115402900D01*
X159209900Y-120914300D02*
X159209900Y-116467000D01*
X163393200Y-123057700D02*
X161903500Y-121568000D01*
X162752000Y-93800700D02*
X162677300Y-93726000D01*
X162677300Y-93726000D02*
X162677300Y-92141700D01*
X160274000Y-97622900D02*
X162752000Y-95144900D01*
X162752000Y-95144900D02*
X162752000Y-93800700D01*
X172738300Y-113963700D02*
X171644300Y-112869700D01*
X168931600Y-102602500D02*
X167781100Y-101452000D01*
X171644300Y-110234900D02*
X168931600Y-107522200D01*
X177045200Y-109979800D02*
X177045200Y-112820700D01*
X178059000Y-108966000D02*
X177045200Y-109979800D01*
X177045200Y-112820700D02*
X175902200Y-113963700D01*
X171644300Y-112869700D02*
X171644300Y-110234900D01*
X175902200Y-113963700D02*
X172738300Y-113963700D01*
X168931600Y-107522200D02*
X168931600Y-102602500D01*
X154759600Y-94944900D02*
X154759600Y-105229600D01*
X157912100Y-120244200D02*
X159638300Y-121970400D01*
X162317600Y-124842600D02*
X162940400Y-124842600D01*
X157448000Y-120244200D02*
X157912100Y-120244200D01*
X155978500Y-93726000D02*
X154759600Y-94944900D01*
X161423600Y-122672700D02*
X161423600Y-123948600D01*
X160721300Y-121970400D02*
X161423600Y-122672700D01*
X166461300Y-121321700D02*
X169339900Y-121321700D01*
X161423600Y-123948600D02*
X162317600Y-124842600D01*
X162940400Y-124842600D02*
X166461300Y-121321700D01*
X157739000Y-93726000D02*
X155978500Y-93726000D01*
X154759600Y-105229600D02*
X155702000Y-106172000D01*
X155702000Y-118498200D02*
X157448000Y-120244200D01*
X155702000Y-106172000D02*
X155702000Y-118498200D01*
X159638300Y-121970400D02*
X160721300Y-121970400D01*
X157739000Y-119126000D02*
X158754700Y-118110300D01*
X167170100Y-114179000D02*
X167997100Y-113352000D01*
X158754700Y-115408300D02*
X159984000Y-114179000D01*
X158754700Y-118110300D02*
X158754700Y-115408300D01*
X167997100Y-113352000D02*
X167997100Y-112176200D01*
X159984000Y-114179000D02*
X167170100Y-114179000D01*
X159830800Y-111409400D02*
X161010400Y-111409400D01*
X166950900Y-112229300D02*
X167715200Y-111465000D01*
X157739000Y-108966000D02*
X157739000Y-109317600D01*
X167715200Y-111465000D02*
X168310200Y-111465000D01*
X161830300Y-112229300D02*
X166950900Y-112229300D01*
X157739000Y-109317600D02*
X159830800Y-111409400D01*
X161010400Y-111409400D02*
X161830300Y-112229300D01*
X168310200Y-111465000D02*
X169498000Y-112652800D01*
X157739000Y-106782600D02*
X157739000Y-106426000D01*
X160150900Y-109194500D02*
X157739000Y-106782600D01*
X160965300Y-109194500D02*
X160150900Y-109194500D01*
X163248700Y-111477900D02*
X160965300Y-109194500D01*
X157739000Y-111506000D02*
X158044200Y-111811200D01*
X161984100Y-113085600D02*
X167269100Y-113085600D01*
X160709700Y-111811200D02*
X161984100Y-113085600D01*
X158044200Y-111811200D02*
X160709700Y-111811200D01*
X156759300Y-102325700D02*
X156759300Y-104351500D01*
X163793800Y-106512900D02*
X164358900Y-107078000D01*
X157739000Y-101346000D02*
X156759300Y-102325700D01*
X157705400Y-105297600D02*
X157978000Y-105297600D01*
X157978000Y-105297600D02*
X159193300Y-106512900D01*
X156759300Y-104351500D02*
X157705400Y-105297600D01*
X159193300Y-106512900D02*
X163793800Y-106512900D01*
X162533600Y-103886000D02*
X163394700Y-103024900D01*
X165349700Y-103024900D02*
X166731100Y-104406300D01*
X157739000Y-103886000D02*
X162533600Y-103886000D01*
X163394700Y-103024900D02*
X165349700Y-103024900D01*
X168355900Y-103813700D02*
X167185500Y-102643300D01*
X168355900Y-109299900D02*
X168355900Y-103813700D01*
X169484100Y-110428100D02*
X168355900Y-109299900D01*
X178059000Y-120882400D02*
X176175900Y-118999300D01*
X171730500Y-113704100D02*
X167455500Y-109429100D01*
X171730500Y-115674000D02*
X171730500Y-113704100D01*
X167455500Y-104018300D02*
X164741700Y-101304500D01*
X167455500Y-109429100D02*
X167455500Y-104018300D01*
X164741700Y-101304500D02*
X164741700Y-96057100D01*
X175055800Y-118999300D02*
X171730500Y-115674000D01*
X164741700Y-96057100D02*
X164741600Y-96057100D01*
X176175900Y-118999300D02*
X175055800Y-118999300D01*
X178059000Y-121666000D02*
X178059000Y-120882400D01*
X178059000Y-93726000D02*
X176630900Y-92297900D01*
X176630900Y-89589100D02*
X175774700Y-88732900D01*
X173218600Y-88732900D02*
X172656900Y-88171200D01*
X175774700Y-88732900D02*
X173218600Y-88732900D01*
X176630900Y-92297900D02*
X176630900Y-89589100D01*
M02*
