G04 #@! TF.GenerationSoftware,KiCad,Pcbnew,8.0.6*
G04 #@! TF.CreationDate,2024-10-21T20:58:37-03:00*
G04 #@! TF.ProjectId,MSX_Goauld_Rev4_1,4d53585f-476f-4617-956c-645f52657634,rev?*
G04 #@! TF.SameCoordinates,Original*
G04 #@! TF.FileFunction,Soldermask,Top*
G04 #@! TF.FilePolarity,Negative*
%FSLAX46Y46*%
G04 Gerber Fmt 4.6, Leading zero omitted, Abs format (unit mm)*
G04 Created by KiCad (PCBNEW 8.0.6) date 2024-10-21 20:58:37*
%MOMM*%
%LPD*%
G01*
G04 APERTURE LIST*
G04 Aperture macros list*
%AMFreePoly0*
4,1,6,1.000000,0.000000,0.500000,-0.750000,-0.500000,-0.750000,-0.500000,0.750000,0.500000,0.750000,1.000000,0.000000,1.000000,0.000000,$1*%
%AMFreePoly1*
4,1,6,0.500000,-0.750000,-0.650000,-0.750000,-0.150000,0.000000,-0.650000,0.750000,0.500000,0.750000,0.500000,-0.750000,0.500000,-0.750000,$1*%
G04 Aperture macros list end*
%ADD10FreePoly0,270.000000*%
%ADD11FreePoly1,270.000000*%
%ADD12R,1.400000X1.200000*%
%ADD13C,1.320800*%
%ADD14R,0.860000X0.810000*%
%ADD15O,1.740000X0.360000*%
%ADD16C,1.500000*%
%ADD17R,0.810000X0.860000*%
G04 APERTURE END LIST*
D10*
X154686000Y-123227000D03*
D11*
X154686000Y-124677000D03*
D12*
X154686000Y-121334000D03*
X154686000Y-117934000D03*
D13*
X178059000Y-124206000D03*
X178059000Y-121666000D03*
X178059000Y-119126000D03*
X178059000Y-116586000D03*
X178059000Y-114046000D03*
X178059000Y-111506000D03*
X178059000Y-108966000D03*
X178059000Y-106426000D03*
X178059000Y-103886000D03*
X178059000Y-101346000D03*
X178059000Y-98806000D03*
X178059000Y-96266000D03*
X178059000Y-93726000D03*
X178059000Y-91186000D03*
X178059000Y-88646000D03*
X178059000Y-86106000D03*
X178059000Y-83566000D03*
X178059000Y-81026000D03*
X178059000Y-78486000D03*
X178059000Y-75946000D03*
X157739000Y-75946000D03*
X157739000Y-78486000D03*
X157739000Y-81026000D03*
X157739000Y-83566000D03*
X157739000Y-86106000D03*
X157739000Y-88646000D03*
X157739000Y-91186000D03*
X157739000Y-93726000D03*
X157739000Y-96266000D03*
X157739000Y-98806000D03*
X157739000Y-101346000D03*
X157739000Y-103886000D03*
X157739000Y-106426000D03*
X157739000Y-108966000D03*
X157739000Y-111506000D03*
X157739000Y-114046000D03*
X157739000Y-116586000D03*
X157739000Y-119126000D03*
X157739000Y-121666000D03*
X157739000Y-124206000D03*
D14*
X172974000Y-105803000D03*
X172974000Y-107303000D03*
D15*
X165278000Y-108068000D03*
X165278000Y-108718000D03*
X165278000Y-109368000D03*
X165278000Y-110018000D03*
X165278000Y-110678000D03*
X165278000Y-111328000D03*
X165278000Y-111978000D03*
X165278000Y-112628000D03*
X165278000Y-113278000D03*
X165278000Y-113928000D03*
X171018000Y-113928000D03*
X171018000Y-113278000D03*
X171018000Y-112628000D03*
X171018000Y-111978000D03*
X171018000Y-111328000D03*
X171018000Y-110678000D03*
X171018000Y-110018000D03*
X171018000Y-109368000D03*
X171018000Y-108718000D03*
X171018000Y-108068000D03*
X171018000Y-102752000D03*
X171018000Y-102102000D03*
X171018000Y-101452000D03*
X171018000Y-100802000D03*
X171018000Y-100142000D03*
X171018000Y-99492000D03*
X171018000Y-98842000D03*
X171018000Y-98192000D03*
X171018000Y-97542000D03*
X171018000Y-96892000D03*
X165278000Y-96892000D03*
X165278000Y-97542000D03*
X165278000Y-98192000D03*
X165278000Y-98842000D03*
X165278000Y-99492000D03*
X165278000Y-100142000D03*
X165278000Y-100802000D03*
X165278000Y-101452000D03*
X165278000Y-102102000D03*
X165278000Y-102752000D03*
D16*
X153670000Y-104902000D03*
X153670000Y-107442000D03*
X153670000Y-109982000D03*
D17*
X169430000Y-82550000D03*
X170930000Y-82550000D03*
D16*
X160274000Y-77302900D03*
X160274000Y-79842900D03*
X160274000Y-82382900D03*
X160274000Y-84922900D03*
X160274000Y-87462900D03*
X160274000Y-90002900D03*
X160274000Y-92542900D03*
X160274000Y-95082900D03*
X160274000Y-97622900D03*
X160274000Y-100162900D03*
X160274000Y-102702900D03*
X160274000Y-105242900D03*
X160274000Y-107782900D03*
X160274000Y-110322900D03*
X160274000Y-112862900D03*
X160274000Y-115402900D03*
X160274000Y-117942900D03*
X160274000Y-120482900D03*
X160274000Y-123022900D03*
X160274000Y-125562900D03*
X175514000Y-125562900D03*
X175514000Y-123022900D03*
X175514000Y-120482900D03*
X175514000Y-117942900D03*
X175514000Y-115402900D03*
X175514000Y-112862900D03*
X175514000Y-110322900D03*
X175514000Y-107782900D03*
X175514000Y-105242900D03*
X175514000Y-102702900D03*
X175514000Y-100162900D03*
X175514000Y-97622900D03*
X175514000Y-95082900D03*
X175514000Y-92542900D03*
X175514000Y-90002900D03*
X175514000Y-87462900D03*
X175514000Y-84922900D03*
X175514000Y-82382900D03*
X175514000Y-79842900D03*
X175514000Y-77302900D03*
D14*
X163195000Y-104878000D03*
X163195000Y-103378000D03*
D15*
X165278000Y-84192000D03*
X165278000Y-84842000D03*
X165278000Y-85492000D03*
X165278000Y-86142000D03*
X165278000Y-86802000D03*
X165278000Y-87452000D03*
X165278000Y-88102000D03*
X165278000Y-88752000D03*
X165278000Y-89402000D03*
X165278000Y-90052000D03*
X171018000Y-90052000D03*
X171018000Y-89402000D03*
X171018000Y-88752000D03*
X171018000Y-88102000D03*
X171018000Y-87452000D03*
X171018000Y-86802000D03*
X171018000Y-86142000D03*
X171018000Y-85492000D03*
X171018000Y-84842000D03*
X171018000Y-84192000D03*
M02*
