G04 #@! TF.GenerationSoftware,KiCad,Pcbnew,8.0.6*
G04 #@! TF.CreationDate,2024-10-21T20:58:37-03:00*
G04 #@! TF.ProjectId,MSX_Goauld_Rev4_1,4d53585f-476f-4617-956c-645f52657634,rev?*
G04 #@! TF.SameCoordinates,Original*
G04 #@! TF.FileFunction,Paste,Bot*
G04 #@! TF.FilePolarity,Positive*
%FSLAX46Y46*%
G04 Gerber Fmt 4.6, Leading zero omitted, Abs format (unit mm)*
G04 Created by KiCad (PCBNEW 8.0.6) date 2024-10-21 20:58:37*
%MOMM*%
%LPD*%
G01*
G04 APERTURE LIST*
%ADD10R,1.500000X1.600000*%
%ADD11R,0.810000X0.860000*%
%ADD12O,1.740000X0.360000*%
%ADD13R,0.860000X0.810000*%
%ADD14R,0.900000X0.400000*%
G04 APERTURE END LIST*
D10*
X155710000Y-83326000D03*
X155710000Y-85866000D03*
X153510000Y-85866000D03*
X153510000Y-83326000D03*
D11*
X169152000Y-126238000D03*
X167652000Y-126238000D03*
D12*
X171018000Y-96892000D03*
X171018000Y-97542000D03*
X171018000Y-98192000D03*
X171018000Y-98842000D03*
X171018000Y-99502000D03*
X171018000Y-100152000D03*
X171018000Y-100802000D03*
X171018000Y-101452000D03*
X171018000Y-102102000D03*
X171018000Y-102752000D03*
X165278000Y-102752000D03*
X165278000Y-102102000D03*
X165278000Y-101452000D03*
X165278000Y-100802000D03*
X165278000Y-100152000D03*
X165278000Y-99502000D03*
X165278000Y-98842000D03*
X165278000Y-98192000D03*
X165278000Y-97542000D03*
X165278000Y-96892000D03*
X165278000Y-125104000D03*
X165278000Y-124454000D03*
X165278000Y-123804000D03*
X165278000Y-123154000D03*
X165278000Y-122494000D03*
X165278000Y-121844000D03*
X165278000Y-121194000D03*
X165278000Y-120544000D03*
X165278000Y-119894000D03*
X165278000Y-119244000D03*
X171018000Y-119244000D03*
X171018000Y-119894000D03*
X171018000Y-120544000D03*
X171018000Y-121194000D03*
X171018000Y-121844000D03*
X171018000Y-122494000D03*
X171018000Y-123154000D03*
X171018000Y-123804000D03*
X171018000Y-124454000D03*
X171018000Y-125104000D03*
D13*
X162052000Y-97536000D03*
X162052000Y-96036000D03*
D14*
X153836000Y-99752000D03*
X153836000Y-98952000D03*
X153836000Y-98152000D03*
X153836000Y-97352000D03*
X155536000Y-97352000D03*
X155536000Y-98152000D03*
X155536000Y-98952000D03*
X155536000Y-99752000D03*
X154090000Y-114484000D03*
X154090000Y-113684000D03*
X154090000Y-112884000D03*
X154090000Y-112084000D03*
X155790000Y-112084000D03*
X155790000Y-112884000D03*
X155790000Y-113684000D03*
X155790000Y-114484000D03*
D13*
X173228000Y-80022000D03*
X173228000Y-81522000D03*
M02*
