G04 #@! TF.GenerationSoftware,KiCad,Pcbnew,8.0.6*
G04 #@! TF.CreationDate,2024-10-21T20:58:37-03:00*
G04 #@! TF.ProjectId,MSX_Goauld_Rev4_1,4d53585f-476f-4617-956c-645f52657634,rev?*
G04 #@! TF.SameCoordinates,Original*
G04 #@! TF.FileFunction,Paste,Top*
G04 #@! TF.FilePolarity,Positive*
%FSLAX46Y46*%
G04 Gerber Fmt 4.6, Leading zero omitted, Abs format (unit mm)*
G04 Created by KiCad (PCBNEW 8.0.6) date 2024-10-21 20:58:37*
%MOMM*%
%LPD*%
G01*
G04 APERTURE LIST*
%ADD10R,1.400000X1.200000*%
%ADD11R,0.860000X0.810000*%
%ADD12O,1.740000X0.360000*%
%ADD13R,0.810000X0.860000*%
G04 APERTURE END LIST*
D10*
X154686000Y-121334000D03*
X154686000Y-117934000D03*
D11*
X172974000Y-105803000D03*
X172974000Y-107303000D03*
D12*
X165278000Y-108068000D03*
X165278000Y-108718000D03*
X165278000Y-109368000D03*
X165278000Y-110018000D03*
X165278000Y-110678000D03*
X165278000Y-111328000D03*
X165278000Y-111978000D03*
X165278000Y-112628000D03*
X165278000Y-113278000D03*
X165278000Y-113928000D03*
X171018000Y-113928000D03*
X171018000Y-113278000D03*
X171018000Y-112628000D03*
X171018000Y-111978000D03*
X171018000Y-111328000D03*
X171018000Y-110678000D03*
X171018000Y-110018000D03*
X171018000Y-109368000D03*
X171018000Y-108718000D03*
X171018000Y-108068000D03*
X171018000Y-102752000D03*
X171018000Y-102102000D03*
X171018000Y-101452000D03*
X171018000Y-100802000D03*
X171018000Y-100142000D03*
X171018000Y-99492000D03*
X171018000Y-98842000D03*
X171018000Y-98192000D03*
X171018000Y-97542000D03*
X171018000Y-96892000D03*
X165278000Y-96892000D03*
X165278000Y-97542000D03*
X165278000Y-98192000D03*
X165278000Y-98842000D03*
X165278000Y-99492000D03*
X165278000Y-100142000D03*
X165278000Y-100802000D03*
X165278000Y-101452000D03*
X165278000Y-102102000D03*
X165278000Y-102752000D03*
D13*
X169430000Y-82550000D03*
X170930000Y-82550000D03*
D11*
X163195000Y-104878000D03*
X163195000Y-103378000D03*
D12*
X165278000Y-84192000D03*
X165278000Y-84842000D03*
X165278000Y-85492000D03*
X165278000Y-86142000D03*
X165278000Y-86802000D03*
X165278000Y-87452000D03*
X165278000Y-88102000D03*
X165278000Y-88752000D03*
X165278000Y-89402000D03*
X165278000Y-90052000D03*
X171018000Y-90052000D03*
X171018000Y-89402000D03*
X171018000Y-88752000D03*
X171018000Y-88102000D03*
X171018000Y-87452000D03*
X171018000Y-86802000D03*
X171018000Y-86142000D03*
X171018000Y-85492000D03*
X171018000Y-84842000D03*
X171018000Y-84192000D03*
M02*
