G04 #@! TF.GenerationSoftware,KiCad,Pcbnew,8.0.6*
G04 #@! TF.CreationDate,2024-10-21T20:58:37-03:00*
G04 #@! TF.ProjectId,MSX_Goauld_Rev4_1,4d53585f-476f-4617-956c-645f52657634,rev?*
G04 #@! TF.SameCoordinates,Original*
G04 #@! TF.FileFunction,Legend,Top*
G04 #@! TF.FilePolarity,Positive*
%FSLAX46Y46*%
G04 Gerber Fmt 4.6, Leading zero omitted, Abs format (unit mm)*
G04 Created by KiCad (PCBNEW 8.0.6) date 2024-10-21 20:58:37*
%MOMM*%
%LPD*%
G01*
G04 APERTURE LIST*
G04 Aperture macros list*
%AMFreePoly0*
4,1,6,1.000000,0.000000,0.500000,-0.750000,-0.500000,-0.750000,-0.500000,0.750000,0.500000,0.750000,1.000000,0.000000,1.000000,0.000000,$1*%
%AMFreePoly1*
4,1,6,0.500000,-0.750000,-0.650000,-0.750000,-0.150000,0.000000,-0.650000,0.750000,0.500000,0.750000,0.500000,-0.750000,0.500000,-0.750000,$1*%
G04 Aperture macros list end*
%ADD10C,0.100000*%
%ADD11C,0.150000*%
%ADD12C,0.120000*%
%ADD13C,0.250000*%
%ADD14C,0.300000*%
%ADD15C,0.152400*%
%ADD16FreePoly0,270.000000*%
%ADD17FreePoly1,270.000000*%
%ADD18R,1.400000X1.200000*%
%ADD19C,1.320800*%
%ADD20R,0.860000X0.810000*%
%ADD21O,1.740000X0.360000*%
%ADD22C,1.500000*%
%ADD23R,0.810000X0.860000*%
G04 APERTURE END LIST*
D10*
X153424095Y-125872419D02*
X153424095Y-126681942D01*
X153424095Y-126681942D02*
X153471714Y-126777180D01*
X153471714Y-126777180D02*
X153519333Y-126824800D01*
X153519333Y-126824800D02*
X153614571Y-126872419D01*
X153614571Y-126872419D02*
X153805047Y-126872419D01*
X153805047Y-126872419D02*
X153900285Y-126824800D01*
X153900285Y-126824800D02*
X153947904Y-126777180D01*
X153947904Y-126777180D02*
X153995523Y-126681942D01*
X153995523Y-126681942D02*
X153995523Y-125872419D01*
X154424095Y-126824800D02*
X154566952Y-126872419D01*
X154566952Y-126872419D02*
X154805047Y-126872419D01*
X154805047Y-126872419D02*
X154900285Y-126824800D01*
X154900285Y-126824800D02*
X154947904Y-126777180D01*
X154947904Y-126777180D02*
X154995523Y-126681942D01*
X154995523Y-126681942D02*
X154995523Y-126586704D01*
X154995523Y-126586704D02*
X154947904Y-126491466D01*
X154947904Y-126491466D02*
X154900285Y-126443847D01*
X154900285Y-126443847D02*
X154805047Y-126396228D01*
X154805047Y-126396228D02*
X154614571Y-126348609D01*
X154614571Y-126348609D02*
X154519333Y-126300990D01*
X154519333Y-126300990D02*
X154471714Y-126253371D01*
X154471714Y-126253371D02*
X154424095Y-126158133D01*
X154424095Y-126158133D02*
X154424095Y-126062895D01*
X154424095Y-126062895D02*
X154471714Y-125967657D01*
X154471714Y-125967657D02*
X154519333Y-125920038D01*
X154519333Y-125920038D02*
X154614571Y-125872419D01*
X154614571Y-125872419D02*
X154852666Y-125872419D01*
X154852666Y-125872419D02*
X154995523Y-125920038D01*
X155757428Y-126348609D02*
X155900285Y-126396228D01*
X155900285Y-126396228D02*
X155947904Y-126443847D01*
X155947904Y-126443847D02*
X155995523Y-126539085D01*
X155995523Y-126539085D02*
X155995523Y-126681942D01*
X155995523Y-126681942D02*
X155947904Y-126777180D01*
X155947904Y-126777180D02*
X155900285Y-126824800D01*
X155900285Y-126824800D02*
X155805047Y-126872419D01*
X155805047Y-126872419D02*
X155424095Y-126872419D01*
X155424095Y-126872419D02*
X155424095Y-125872419D01*
X155424095Y-125872419D02*
X155757428Y-125872419D01*
X155757428Y-125872419D02*
X155852666Y-125920038D01*
X155852666Y-125920038D02*
X155900285Y-125967657D01*
X155900285Y-125967657D02*
X155947904Y-126062895D01*
X155947904Y-126062895D02*
X155947904Y-126158133D01*
X155947904Y-126158133D02*
X155900285Y-126253371D01*
X155900285Y-126253371D02*
X155852666Y-126300990D01*
X155852666Y-126300990D02*
X155757428Y-126348609D01*
X155757428Y-126348609D02*
X155424095Y-126348609D01*
X155773237Y-73787580D02*
X155773237Y-74787580D01*
X155773237Y-74311390D02*
X155201809Y-74311390D01*
X155201809Y-73787580D02*
X155201809Y-74787580D01*
X154725618Y-73787580D02*
X154725618Y-74787580D01*
X154725618Y-74787580D02*
X154487523Y-74787580D01*
X154487523Y-74787580D02*
X154344666Y-74739961D01*
X154344666Y-74739961D02*
X154249428Y-74644723D01*
X154249428Y-74644723D02*
X154201809Y-74549485D01*
X154201809Y-74549485D02*
X154154190Y-74359009D01*
X154154190Y-74359009D02*
X154154190Y-74216152D01*
X154154190Y-74216152D02*
X154201809Y-74025676D01*
X154201809Y-74025676D02*
X154249428Y-73930438D01*
X154249428Y-73930438D02*
X154344666Y-73835200D01*
X154344666Y-73835200D02*
X154487523Y-73787580D01*
X154487523Y-73787580D02*
X154725618Y-73787580D01*
X153725618Y-73787580D02*
X153725618Y-74787580D01*
X153725618Y-74787580D02*
X153392285Y-74073295D01*
X153392285Y-74073295D02*
X153058952Y-74787580D01*
X153058952Y-74787580D02*
X153058952Y-73787580D01*
X152582761Y-73787580D02*
X152582761Y-74787580D01*
X181305419Y-125377619D02*
X180305419Y-125377619D01*
X180305419Y-125377619D02*
X181019704Y-125044286D01*
X181019704Y-125044286D02*
X180305419Y-124710953D01*
X180305419Y-124710953D02*
X181305419Y-124710953D01*
X181257800Y-124282381D02*
X181305419Y-124139524D01*
X181305419Y-124139524D02*
X181305419Y-123901429D01*
X181305419Y-123901429D02*
X181257800Y-123806191D01*
X181257800Y-123806191D02*
X181210180Y-123758572D01*
X181210180Y-123758572D02*
X181114942Y-123710953D01*
X181114942Y-123710953D02*
X181019704Y-123710953D01*
X181019704Y-123710953D02*
X180924466Y-123758572D01*
X180924466Y-123758572D02*
X180876847Y-123806191D01*
X180876847Y-123806191D02*
X180829228Y-123901429D01*
X180829228Y-123901429D02*
X180781609Y-124091905D01*
X180781609Y-124091905D02*
X180733990Y-124187143D01*
X180733990Y-124187143D02*
X180686371Y-124234762D01*
X180686371Y-124234762D02*
X180591133Y-124282381D01*
X180591133Y-124282381D02*
X180495895Y-124282381D01*
X180495895Y-124282381D02*
X180400657Y-124234762D01*
X180400657Y-124234762D02*
X180353038Y-124187143D01*
X180353038Y-124187143D02*
X180305419Y-124091905D01*
X180305419Y-124091905D02*
X180305419Y-123853810D01*
X180305419Y-123853810D02*
X180353038Y-123710953D01*
X180305419Y-123377619D02*
X181305419Y-122710953D01*
X180305419Y-122710953D02*
X181305419Y-123377619D01*
X180353038Y-121044286D02*
X180305419Y-121139524D01*
X180305419Y-121139524D02*
X180305419Y-121282381D01*
X180305419Y-121282381D02*
X180353038Y-121425238D01*
X180353038Y-121425238D02*
X180448276Y-121520476D01*
X180448276Y-121520476D02*
X180543514Y-121568095D01*
X180543514Y-121568095D02*
X180733990Y-121615714D01*
X180733990Y-121615714D02*
X180876847Y-121615714D01*
X180876847Y-121615714D02*
X181067323Y-121568095D01*
X181067323Y-121568095D02*
X181162561Y-121520476D01*
X181162561Y-121520476D02*
X181257800Y-121425238D01*
X181257800Y-121425238D02*
X181305419Y-121282381D01*
X181305419Y-121282381D02*
X181305419Y-121187143D01*
X181305419Y-121187143D02*
X181257800Y-121044286D01*
X181257800Y-121044286D02*
X181210180Y-120996667D01*
X181210180Y-120996667D02*
X180876847Y-120996667D01*
X180876847Y-120996667D02*
X180876847Y-121187143D01*
X180305419Y-120377619D02*
X180305419Y-120187143D01*
X180305419Y-120187143D02*
X180353038Y-120091905D01*
X180353038Y-120091905D02*
X180448276Y-119996667D01*
X180448276Y-119996667D02*
X180638752Y-119949048D01*
X180638752Y-119949048D02*
X180972085Y-119949048D01*
X180972085Y-119949048D02*
X181162561Y-119996667D01*
X181162561Y-119996667D02*
X181257800Y-120091905D01*
X181257800Y-120091905D02*
X181305419Y-120187143D01*
X181305419Y-120187143D02*
X181305419Y-120377619D01*
X181305419Y-120377619D02*
X181257800Y-120472857D01*
X181257800Y-120472857D02*
X181162561Y-120568095D01*
X181162561Y-120568095D02*
X180972085Y-120615714D01*
X180972085Y-120615714D02*
X180638752Y-120615714D01*
X180638752Y-120615714D02*
X180448276Y-120568095D01*
X180448276Y-120568095D02*
X180353038Y-120472857D01*
X180353038Y-120472857D02*
X180305419Y-120377619D01*
X181019704Y-119568095D02*
X181019704Y-119091905D01*
X181305419Y-119663333D02*
X180305419Y-119330000D01*
X180305419Y-119330000D02*
X181305419Y-118996667D01*
X180305419Y-118615714D02*
X180495895Y-118710952D01*
X180305419Y-118187143D02*
X181114942Y-118187143D01*
X181114942Y-118187143D02*
X181210180Y-118139524D01*
X181210180Y-118139524D02*
X181257800Y-118091905D01*
X181257800Y-118091905D02*
X181305419Y-117996667D01*
X181305419Y-117996667D02*
X181305419Y-117806191D01*
X181305419Y-117806191D02*
X181257800Y-117710953D01*
X181257800Y-117710953D02*
X181210180Y-117663334D01*
X181210180Y-117663334D02*
X181114942Y-117615715D01*
X181114942Y-117615715D02*
X180305419Y-117615715D01*
X181305419Y-116663334D02*
X181305419Y-117139524D01*
X181305419Y-117139524D02*
X180305419Y-117139524D01*
X181305419Y-116330000D02*
X180305419Y-116330000D01*
X180305419Y-116330000D02*
X180305419Y-116091905D01*
X180305419Y-116091905D02*
X180353038Y-115949048D01*
X180353038Y-115949048D02*
X180448276Y-115853810D01*
X180448276Y-115853810D02*
X180543514Y-115806191D01*
X180543514Y-115806191D02*
X180733990Y-115758572D01*
X180733990Y-115758572D02*
X180876847Y-115758572D01*
X180876847Y-115758572D02*
X181067323Y-115806191D01*
X181067323Y-115806191D02*
X181162561Y-115853810D01*
X181162561Y-115853810D02*
X181257800Y-115949048D01*
X181257800Y-115949048D02*
X181305419Y-116091905D01*
X181305419Y-116091905D02*
X181305419Y-116330000D01*
X181305419Y-113996667D02*
X180829228Y-114330000D01*
X181305419Y-114568095D02*
X180305419Y-114568095D01*
X180305419Y-114568095D02*
X180305419Y-114187143D01*
X180305419Y-114187143D02*
X180353038Y-114091905D01*
X180353038Y-114091905D02*
X180400657Y-114044286D01*
X180400657Y-114044286D02*
X180495895Y-113996667D01*
X180495895Y-113996667D02*
X180638752Y-113996667D01*
X180638752Y-113996667D02*
X180733990Y-114044286D01*
X180733990Y-114044286D02*
X180781609Y-114091905D01*
X180781609Y-114091905D02*
X180829228Y-114187143D01*
X180829228Y-114187143D02*
X180829228Y-114568095D01*
X180781609Y-113568095D02*
X180781609Y-113234762D01*
X181305419Y-113091905D02*
X181305419Y-113568095D01*
X181305419Y-113568095D02*
X180305419Y-113568095D01*
X180305419Y-113568095D02*
X180305419Y-113091905D01*
X180305419Y-112806190D02*
X181305419Y-112472857D01*
X181305419Y-112472857D02*
X180305419Y-112139524D01*
X180638752Y-110615714D02*
X181305419Y-110615714D01*
X180257800Y-110853809D02*
X180972085Y-111091904D01*
X180972085Y-111091904D02*
X180972085Y-110472857D01*
X181210180Y-110091904D02*
X181257800Y-110044285D01*
X181257800Y-110044285D02*
X181305419Y-110091904D01*
X181305419Y-110091904D02*
X181257800Y-110139523D01*
X181257800Y-110139523D02*
X181210180Y-110091904D01*
X181210180Y-110091904D02*
X181305419Y-110091904D01*
X181305419Y-109091905D02*
X181305419Y-109663333D01*
X181305419Y-109377619D02*
X180305419Y-109377619D01*
X180305419Y-109377619D02*
X180448276Y-109472857D01*
X180448276Y-109472857D02*
X180543514Y-109568095D01*
X180543514Y-109568095D02*
X180591133Y-109663333D01*
X180924466Y-107901428D02*
X180924466Y-107139524D01*
X180305419Y-105615714D02*
X181019704Y-105615714D01*
X181019704Y-105615714D02*
X181162561Y-105663333D01*
X181162561Y-105663333D02*
X181257800Y-105758571D01*
X181257800Y-105758571D02*
X181305419Y-105901428D01*
X181305419Y-105901428D02*
X181305419Y-105996666D01*
X181019704Y-105187142D02*
X181019704Y-104710952D01*
X181305419Y-105282380D02*
X180305419Y-104949047D01*
X180305419Y-104949047D02*
X181305419Y-104615714D01*
X180305419Y-104425237D02*
X181305419Y-104091904D01*
X181305419Y-104091904D02*
X180305419Y-103758571D01*
X181305419Y-103425237D02*
X180305419Y-103425237D01*
X180781609Y-102949047D02*
X180781609Y-102615714D01*
X181305419Y-102472857D02*
X181305419Y-102949047D01*
X181305419Y-102949047D02*
X180305419Y-102949047D01*
X180305419Y-102949047D02*
X180305419Y-102472857D01*
X181305419Y-101472857D02*
X180829228Y-101806190D01*
X181305419Y-102044285D02*
X180305419Y-102044285D01*
X180305419Y-102044285D02*
X180305419Y-101663333D01*
X180305419Y-101663333D02*
X180353038Y-101568095D01*
X180353038Y-101568095D02*
X180400657Y-101520476D01*
X180400657Y-101520476D02*
X180495895Y-101472857D01*
X180495895Y-101472857D02*
X180638752Y-101472857D01*
X180638752Y-101472857D02*
X180733990Y-101520476D01*
X180733990Y-101520476D02*
X180781609Y-101568095D01*
X180781609Y-101568095D02*
X180829228Y-101663333D01*
X180829228Y-101663333D02*
X180829228Y-102044285D01*
X181019704Y-100329999D02*
X181019704Y-99853809D01*
X181305419Y-100425237D02*
X180305419Y-100091904D01*
X180305419Y-100091904D02*
X181305419Y-99758571D01*
X180781609Y-99091904D02*
X180829228Y-98949047D01*
X180829228Y-98949047D02*
X180876847Y-98901428D01*
X180876847Y-98901428D02*
X180972085Y-98853809D01*
X180972085Y-98853809D02*
X181114942Y-98853809D01*
X181114942Y-98853809D02*
X181210180Y-98901428D01*
X181210180Y-98901428D02*
X181257800Y-98949047D01*
X181257800Y-98949047D02*
X181305419Y-99044285D01*
X181305419Y-99044285D02*
X181305419Y-99425237D01*
X181305419Y-99425237D02*
X180305419Y-99425237D01*
X180305419Y-99425237D02*
X180305419Y-99091904D01*
X180305419Y-99091904D02*
X180353038Y-98996666D01*
X180353038Y-98996666D02*
X180400657Y-98949047D01*
X180400657Y-98949047D02*
X180495895Y-98901428D01*
X180495895Y-98901428D02*
X180591133Y-98901428D01*
X180591133Y-98901428D02*
X180686371Y-98949047D01*
X180686371Y-98949047D02*
X180733990Y-98996666D01*
X180733990Y-98996666D02*
X180781609Y-99091904D01*
X180781609Y-99091904D02*
X180781609Y-99425237D01*
X181019704Y-98472856D02*
X181019704Y-97996666D01*
X181305419Y-98568094D02*
X180305419Y-98234761D01*
X180305419Y-98234761D02*
X181305419Y-97901428D01*
X181305419Y-97568094D02*
X180305419Y-97568094D01*
X180305419Y-97568094D02*
X180305419Y-97329999D01*
X180305419Y-97329999D02*
X180353038Y-97187142D01*
X180353038Y-97187142D02*
X180448276Y-97091904D01*
X180448276Y-97091904D02*
X180543514Y-97044285D01*
X180543514Y-97044285D02*
X180733990Y-96996666D01*
X180733990Y-96996666D02*
X180876847Y-96996666D01*
X180876847Y-96996666D02*
X181067323Y-97044285D01*
X181067323Y-97044285D02*
X181162561Y-97091904D01*
X181162561Y-97091904D02*
X181257800Y-97187142D01*
X181257800Y-97187142D02*
X181305419Y-97329999D01*
X181305419Y-97329999D02*
X181305419Y-97568094D01*
X181305419Y-96568094D02*
X180305419Y-96568094D01*
X179924466Y-96472856D02*
X180067323Y-96615713D01*
X181019704Y-96139523D02*
X181019704Y-95663333D01*
X181305419Y-96234761D02*
X180305419Y-95901428D01*
X180305419Y-95901428D02*
X181305419Y-95568095D01*
X181257800Y-95187142D02*
X181305419Y-95187142D01*
X181305419Y-95187142D02*
X181400657Y-95234761D01*
X181400657Y-95234761D02*
X181448276Y-95282380D01*
X181210180Y-93425238D02*
X181257800Y-93472857D01*
X181257800Y-93472857D02*
X181305419Y-93615714D01*
X181305419Y-93615714D02*
X181305419Y-93710952D01*
X181305419Y-93710952D02*
X181257800Y-93853809D01*
X181257800Y-93853809D02*
X181162561Y-93949047D01*
X181162561Y-93949047D02*
X181067323Y-93996666D01*
X181067323Y-93996666D02*
X180876847Y-94044285D01*
X180876847Y-94044285D02*
X180733990Y-94044285D01*
X180733990Y-94044285D02*
X180543514Y-93996666D01*
X180543514Y-93996666D02*
X180448276Y-93949047D01*
X180448276Y-93949047D02*
X180353038Y-93853809D01*
X180353038Y-93853809D02*
X180305419Y-93710952D01*
X180305419Y-93710952D02*
X180305419Y-93615714D01*
X180305419Y-93615714D02*
X180353038Y-93472857D01*
X180353038Y-93472857D02*
X180400657Y-93425238D01*
X181305419Y-92996666D02*
X180305419Y-92996666D01*
X180781609Y-92996666D02*
X180781609Y-92425238D01*
X181305419Y-92425238D02*
X180305419Y-92425238D01*
X181019704Y-91996666D02*
X181019704Y-91520476D01*
X181305419Y-92091904D02*
X180305419Y-91758571D01*
X180305419Y-91758571D02*
X181305419Y-91425238D01*
X181305419Y-91091904D02*
X180305419Y-91091904D01*
X180305419Y-91091904D02*
X181305419Y-90520476D01*
X181305419Y-90520476D02*
X180305419Y-90520476D01*
X181305419Y-90044285D02*
X180305419Y-90044285D01*
X180305419Y-90044285D02*
X180305419Y-89806190D01*
X180305419Y-89806190D02*
X180353038Y-89663333D01*
X180353038Y-89663333D02*
X180448276Y-89568095D01*
X180448276Y-89568095D02*
X180543514Y-89520476D01*
X180543514Y-89520476D02*
X180733990Y-89472857D01*
X180733990Y-89472857D02*
X180876847Y-89472857D01*
X180876847Y-89472857D02*
X181067323Y-89520476D01*
X181067323Y-89520476D02*
X181162561Y-89568095D01*
X181162561Y-89568095D02*
X181257800Y-89663333D01*
X181257800Y-89663333D02*
X181305419Y-89806190D01*
X181305419Y-89806190D02*
X181305419Y-90044285D01*
X181305419Y-88568095D02*
X181305419Y-89044285D01*
X181305419Y-89044285D02*
X180305419Y-89044285D01*
X180781609Y-88234761D02*
X180781609Y-87901428D01*
X181305419Y-87758571D02*
X181305419Y-88234761D01*
X181305419Y-88234761D02*
X180305419Y-88234761D01*
X180305419Y-88234761D02*
X180305419Y-87758571D01*
X181305419Y-86758571D02*
X180829228Y-87091904D01*
X181305419Y-87329999D02*
X180305419Y-87329999D01*
X180305419Y-87329999D02*
X180305419Y-86949047D01*
X180305419Y-86949047D02*
X180353038Y-86853809D01*
X180353038Y-86853809D02*
X180400657Y-86806190D01*
X180400657Y-86806190D02*
X180495895Y-86758571D01*
X180495895Y-86758571D02*
X180638752Y-86758571D01*
X180638752Y-86758571D02*
X180733990Y-86806190D01*
X180733990Y-86806190D02*
X180781609Y-86853809D01*
X180781609Y-86853809D02*
X180829228Y-86949047D01*
X180829228Y-86949047D02*
X180829228Y-87329999D01*
X181305419Y-85568094D02*
X180305419Y-85568094D01*
X181305419Y-84996666D02*
X180733990Y-85425237D01*
X180305419Y-84996666D02*
X180876847Y-85568094D01*
X181305419Y-84091904D02*
X181305419Y-84568094D01*
X181305419Y-84568094D02*
X180305419Y-84568094D01*
X180305419Y-83758570D02*
X181114942Y-83758570D01*
X181114942Y-83758570D02*
X181210180Y-83710951D01*
X181210180Y-83710951D02*
X181257800Y-83663332D01*
X181257800Y-83663332D02*
X181305419Y-83568094D01*
X181305419Y-83568094D02*
X181305419Y-83377618D01*
X181305419Y-83377618D02*
X181257800Y-83282380D01*
X181257800Y-83282380D02*
X181210180Y-83234761D01*
X181210180Y-83234761D02*
X181114942Y-83187142D01*
X181114942Y-83187142D02*
X180305419Y-83187142D01*
X179972085Y-83663332D02*
X180019704Y-83615713D01*
X180019704Y-83615713D02*
X180067323Y-83663332D01*
X180067323Y-83663332D02*
X180019704Y-83710951D01*
X180019704Y-83710951D02*
X179972085Y-83663332D01*
X179972085Y-83663332D02*
X180067323Y-83663332D01*
X179972085Y-83282380D02*
X180019704Y-83234761D01*
X180019704Y-83234761D02*
X180067323Y-83282380D01*
X180067323Y-83282380D02*
X180019704Y-83329999D01*
X180019704Y-83329999D02*
X179972085Y-83282380D01*
X179972085Y-83282380D02*
X180067323Y-83282380D01*
X181257800Y-82758570D02*
X181305419Y-82615713D01*
X181305419Y-82615713D02*
X181305419Y-82377618D01*
X181305419Y-82377618D02*
X181257800Y-82282380D01*
X181257800Y-82282380D02*
X181210180Y-82234761D01*
X181210180Y-82234761D02*
X181114942Y-82187142D01*
X181114942Y-82187142D02*
X181019704Y-82187142D01*
X181019704Y-82187142D02*
X180924466Y-82234761D01*
X180924466Y-82234761D02*
X180876847Y-82282380D01*
X180876847Y-82282380D02*
X180829228Y-82377618D01*
X180829228Y-82377618D02*
X180781609Y-82568094D01*
X180781609Y-82568094D02*
X180733990Y-82663332D01*
X180733990Y-82663332D02*
X180686371Y-82710951D01*
X180686371Y-82710951D02*
X180591133Y-82758570D01*
X180591133Y-82758570D02*
X180495895Y-82758570D01*
X180495895Y-82758570D02*
X180400657Y-82710951D01*
X180400657Y-82710951D02*
X180353038Y-82663332D01*
X180353038Y-82663332D02*
X180305419Y-82568094D01*
X180305419Y-82568094D02*
X180305419Y-82329999D01*
X180305419Y-82329999D02*
X180353038Y-82187142D01*
X180781609Y-81758570D02*
X180781609Y-81425237D01*
X181305419Y-81282380D02*
X181305419Y-81758570D01*
X181305419Y-81758570D02*
X180305419Y-81758570D01*
X180305419Y-81758570D02*
X180305419Y-81282380D01*
X181305419Y-80282380D02*
X180829228Y-80615713D01*
X181305419Y-80853808D02*
X180305419Y-80853808D01*
X180305419Y-80853808D02*
X180305419Y-80472856D01*
X180305419Y-80472856D02*
X180353038Y-80377618D01*
X180353038Y-80377618D02*
X180400657Y-80329999D01*
X180400657Y-80329999D02*
X180495895Y-80282380D01*
X180495895Y-80282380D02*
X180638752Y-80282380D01*
X180638752Y-80282380D02*
X180733990Y-80329999D01*
X180733990Y-80329999D02*
X180781609Y-80377618D01*
X180781609Y-80377618D02*
X180829228Y-80472856D01*
X180829228Y-80472856D02*
X180829228Y-80853808D01*
X181257800Y-79806189D02*
X181305419Y-79806189D01*
X181305419Y-79806189D02*
X181400657Y-79853808D01*
X181400657Y-79853808D02*
X181448276Y-79901427D01*
X180400657Y-78663332D02*
X180353038Y-78615713D01*
X180353038Y-78615713D02*
X180305419Y-78520475D01*
X180305419Y-78520475D02*
X180305419Y-78282380D01*
X180305419Y-78282380D02*
X180353038Y-78187142D01*
X180353038Y-78187142D02*
X180400657Y-78139523D01*
X180400657Y-78139523D02*
X180495895Y-78091904D01*
X180495895Y-78091904D02*
X180591133Y-78091904D01*
X180591133Y-78091904D02*
X180733990Y-78139523D01*
X180733990Y-78139523D02*
X181305419Y-78710951D01*
X181305419Y-78710951D02*
X181305419Y-78091904D01*
X180305419Y-77472856D02*
X180305419Y-77377618D01*
X180305419Y-77377618D02*
X180353038Y-77282380D01*
X180353038Y-77282380D02*
X180400657Y-77234761D01*
X180400657Y-77234761D02*
X180495895Y-77187142D01*
X180495895Y-77187142D02*
X180686371Y-77139523D01*
X180686371Y-77139523D02*
X180924466Y-77139523D01*
X180924466Y-77139523D02*
X181114942Y-77187142D01*
X181114942Y-77187142D02*
X181210180Y-77234761D01*
X181210180Y-77234761D02*
X181257800Y-77282380D01*
X181257800Y-77282380D02*
X181305419Y-77377618D01*
X181305419Y-77377618D02*
X181305419Y-77472856D01*
X181305419Y-77472856D02*
X181257800Y-77568094D01*
X181257800Y-77568094D02*
X181210180Y-77615713D01*
X181210180Y-77615713D02*
X181114942Y-77663332D01*
X181114942Y-77663332D02*
X180924466Y-77710951D01*
X180924466Y-77710951D02*
X180686371Y-77710951D01*
X180686371Y-77710951D02*
X180495895Y-77663332D01*
X180495895Y-77663332D02*
X180400657Y-77615713D01*
X180400657Y-77615713D02*
X180353038Y-77568094D01*
X180353038Y-77568094D02*
X180305419Y-77472856D01*
X180400657Y-76758570D02*
X180353038Y-76710951D01*
X180353038Y-76710951D02*
X180305419Y-76615713D01*
X180305419Y-76615713D02*
X180305419Y-76377618D01*
X180305419Y-76377618D02*
X180353038Y-76282380D01*
X180353038Y-76282380D02*
X180400657Y-76234761D01*
X180400657Y-76234761D02*
X180495895Y-76187142D01*
X180495895Y-76187142D02*
X180591133Y-76187142D01*
X180591133Y-76187142D02*
X180733990Y-76234761D01*
X180733990Y-76234761D02*
X181305419Y-76806189D01*
X181305419Y-76806189D02*
X181305419Y-76187142D01*
X180638752Y-75329999D02*
X181305419Y-75329999D01*
X180257800Y-75568094D02*
X180972085Y-75806189D01*
X180972085Y-75806189D02*
X180972085Y-75187142D01*
D11*
X154215180Y-102222493D02*
X153500895Y-102222493D01*
X153500895Y-102222493D02*
X153358038Y-102174874D01*
X153358038Y-102174874D02*
X153262800Y-102079636D01*
X153262800Y-102079636D02*
X153215180Y-101936779D01*
X153215180Y-101936779D02*
X153215180Y-101841541D01*
X154119942Y-102651065D02*
X154167561Y-102698684D01*
X154167561Y-102698684D02*
X154215180Y-102793922D01*
X154215180Y-102793922D02*
X154215180Y-103032017D01*
X154215180Y-103032017D02*
X154167561Y-103127255D01*
X154167561Y-103127255D02*
X154119942Y-103174874D01*
X154119942Y-103174874D02*
X154024704Y-103222493D01*
X154024704Y-103222493D02*
X153929466Y-103222493D01*
X153929466Y-103222493D02*
X153786609Y-103174874D01*
X153786609Y-103174874D02*
X153215180Y-102603446D01*
X153215180Y-102603446D02*
X153215180Y-103222493D01*
X152362819Y-123583506D02*
X153077104Y-123583506D01*
X153077104Y-123583506D02*
X153219961Y-123631125D01*
X153219961Y-123631125D02*
X153315200Y-123726363D01*
X153315200Y-123726363D02*
X153362819Y-123869220D01*
X153362819Y-123869220D02*
X153362819Y-123964458D01*
X152362819Y-123202553D02*
X152362819Y-122583506D01*
X152362819Y-122583506D02*
X152743771Y-122916839D01*
X152743771Y-122916839D02*
X152743771Y-122773982D01*
X152743771Y-122773982D02*
X152791390Y-122678744D01*
X152791390Y-122678744D02*
X152839009Y-122631125D01*
X152839009Y-122631125D02*
X152934247Y-122583506D01*
X152934247Y-122583506D02*
X153172342Y-122583506D01*
X153172342Y-122583506D02*
X153267580Y-122631125D01*
X153267580Y-122631125D02*
X153315200Y-122678744D01*
X153315200Y-122678744D02*
X153362819Y-122773982D01*
X153362819Y-122773982D02*
X153362819Y-123059696D01*
X153362819Y-123059696D02*
X153315200Y-123154934D01*
X153315200Y-123154934D02*
X153267580Y-123202553D01*
X155140819Y-116943094D02*
X154140819Y-116943094D01*
X154140819Y-116943094D02*
X154140819Y-116704999D01*
X154140819Y-116704999D02*
X154188438Y-116562142D01*
X154188438Y-116562142D02*
X154283676Y-116466904D01*
X154283676Y-116466904D02*
X154378914Y-116419285D01*
X154378914Y-116419285D02*
X154569390Y-116371666D01*
X154569390Y-116371666D02*
X154712247Y-116371666D01*
X154712247Y-116371666D02*
X154902723Y-116419285D01*
X154902723Y-116419285D02*
X154997961Y-116466904D01*
X154997961Y-116466904D02*
X155093200Y-116562142D01*
X155093200Y-116562142D02*
X155140819Y-116704999D01*
X155140819Y-116704999D02*
X155140819Y-116943094D01*
X155140819Y-115419285D02*
X155140819Y-115990713D01*
X155140819Y-115704999D02*
X154140819Y-115704999D01*
X154140819Y-115704999D02*
X154283676Y-115800237D01*
X154283676Y-115800237D02*
X154378914Y-115895475D01*
X154378914Y-115895475D02*
X154426533Y-115990713D01*
X173444819Y-125221904D02*
X174254342Y-125221904D01*
X174254342Y-125221904D02*
X174349580Y-125174285D01*
X174349580Y-125174285D02*
X174397200Y-125126666D01*
X174397200Y-125126666D02*
X174444819Y-125031428D01*
X174444819Y-125031428D02*
X174444819Y-124840952D01*
X174444819Y-124840952D02*
X174397200Y-124745714D01*
X174397200Y-124745714D02*
X174349580Y-124698095D01*
X174349580Y-124698095D02*
X174254342Y-124650476D01*
X174254342Y-124650476D02*
X173444819Y-124650476D01*
X173444819Y-123745714D02*
X173444819Y-123936190D01*
X173444819Y-123936190D02*
X173492438Y-124031428D01*
X173492438Y-124031428D02*
X173540057Y-124079047D01*
X173540057Y-124079047D02*
X173682914Y-124174285D01*
X173682914Y-124174285D02*
X173873390Y-124221904D01*
X173873390Y-124221904D02*
X174254342Y-124221904D01*
X174254342Y-124221904D02*
X174349580Y-124174285D01*
X174349580Y-124174285D02*
X174397200Y-124126666D01*
X174397200Y-124126666D02*
X174444819Y-124031428D01*
X174444819Y-124031428D02*
X174444819Y-123840952D01*
X174444819Y-123840952D02*
X174397200Y-123745714D01*
X174397200Y-123745714D02*
X174349580Y-123698095D01*
X174349580Y-123698095D02*
X174254342Y-123650476D01*
X174254342Y-123650476D02*
X174016247Y-123650476D01*
X174016247Y-123650476D02*
X173921009Y-123698095D01*
X173921009Y-123698095D02*
X173873390Y-123745714D01*
X173873390Y-123745714D02*
X173825771Y-123840952D01*
X173825771Y-123840952D02*
X173825771Y-124031428D01*
X173825771Y-124031428D02*
X173873390Y-124126666D01*
X173873390Y-124126666D02*
X173921009Y-124174285D01*
X173921009Y-124174285D02*
X174016247Y-124221904D01*
X173333580Y-104560666D02*
X173381200Y-104608285D01*
X173381200Y-104608285D02*
X173428819Y-104751142D01*
X173428819Y-104751142D02*
X173428819Y-104846380D01*
X173428819Y-104846380D02*
X173381200Y-104989237D01*
X173381200Y-104989237D02*
X173285961Y-105084475D01*
X173285961Y-105084475D02*
X173190723Y-105132094D01*
X173190723Y-105132094D02*
X173000247Y-105179713D01*
X173000247Y-105179713D02*
X172857390Y-105179713D01*
X172857390Y-105179713D02*
X172666914Y-105132094D01*
X172666914Y-105132094D02*
X172571676Y-105084475D01*
X172571676Y-105084475D02*
X172476438Y-104989237D01*
X172476438Y-104989237D02*
X172428819Y-104846380D01*
X172428819Y-104846380D02*
X172428819Y-104751142D01*
X172428819Y-104751142D02*
X172476438Y-104608285D01*
X172476438Y-104608285D02*
X172524057Y-104560666D01*
X172762152Y-103703523D02*
X173428819Y-103703523D01*
X172381200Y-103941618D02*
X173095485Y-104179713D01*
X173095485Y-104179713D02*
X173095485Y-103560666D01*
X166586819Y-109391220D02*
X167396342Y-109391220D01*
X167396342Y-109391220D02*
X167491580Y-109343601D01*
X167491580Y-109343601D02*
X167539200Y-109295982D01*
X167539200Y-109295982D02*
X167586819Y-109200744D01*
X167586819Y-109200744D02*
X167586819Y-109010268D01*
X167586819Y-109010268D02*
X167539200Y-108915030D01*
X167539200Y-108915030D02*
X167491580Y-108867411D01*
X167491580Y-108867411D02*
X167396342Y-108819792D01*
X167396342Y-108819792D02*
X166586819Y-108819792D01*
X167586819Y-107819792D02*
X167586819Y-108391220D01*
X167586819Y-108105506D02*
X166586819Y-108105506D01*
X166586819Y-108105506D02*
X166729676Y-108200744D01*
X166729676Y-108200744D02*
X166824914Y-108295982D01*
X166824914Y-108295982D02*
X166872533Y-108391220D01*
X168618819Y-102787220D02*
X169428342Y-102787220D01*
X169428342Y-102787220D02*
X169523580Y-102739601D01*
X169523580Y-102739601D02*
X169571200Y-102691982D01*
X169571200Y-102691982D02*
X169618819Y-102596744D01*
X169618819Y-102596744D02*
X169618819Y-102406268D01*
X169618819Y-102406268D02*
X169571200Y-102311030D01*
X169571200Y-102311030D02*
X169523580Y-102263411D01*
X169523580Y-102263411D02*
X169428342Y-102215792D01*
X169428342Y-102215792D02*
X168618819Y-102215792D01*
X168714057Y-101787220D02*
X168666438Y-101739601D01*
X168666438Y-101739601D02*
X168618819Y-101644363D01*
X168618819Y-101644363D02*
X168618819Y-101406268D01*
X168618819Y-101406268D02*
X168666438Y-101311030D01*
X168666438Y-101311030D02*
X168714057Y-101263411D01*
X168714057Y-101263411D02*
X168809295Y-101215792D01*
X168809295Y-101215792D02*
X168904533Y-101215792D01*
X168904533Y-101215792D02*
X169047390Y-101263411D01*
X169047390Y-101263411D02*
X169618819Y-101834839D01*
X169618819Y-101834839D02*
X169618819Y-101215792D01*
X167739333Y-82909580D02*
X167691714Y-82957200D01*
X167691714Y-82957200D02*
X167548857Y-83004819D01*
X167548857Y-83004819D02*
X167453619Y-83004819D01*
X167453619Y-83004819D02*
X167310762Y-82957200D01*
X167310762Y-82957200D02*
X167215524Y-82861961D01*
X167215524Y-82861961D02*
X167167905Y-82766723D01*
X167167905Y-82766723D02*
X167120286Y-82576247D01*
X167120286Y-82576247D02*
X167120286Y-82433390D01*
X167120286Y-82433390D02*
X167167905Y-82242914D01*
X167167905Y-82242914D02*
X167215524Y-82147676D01*
X167215524Y-82147676D02*
X167310762Y-82052438D01*
X167310762Y-82052438D02*
X167453619Y-82004819D01*
X167453619Y-82004819D02*
X167548857Y-82004819D01*
X167548857Y-82004819D02*
X167691714Y-82052438D01*
X167691714Y-82052438D02*
X167739333Y-82100057D01*
X168596476Y-82004819D02*
X168406000Y-82004819D01*
X168406000Y-82004819D02*
X168310762Y-82052438D01*
X168310762Y-82052438D02*
X168263143Y-82100057D01*
X168263143Y-82100057D02*
X168167905Y-82242914D01*
X168167905Y-82242914D02*
X168120286Y-82433390D01*
X168120286Y-82433390D02*
X168120286Y-82814342D01*
X168120286Y-82814342D02*
X168167905Y-82909580D01*
X168167905Y-82909580D02*
X168215524Y-82957200D01*
X168215524Y-82957200D02*
X168310762Y-83004819D01*
X168310762Y-83004819D02*
X168501238Y-83004819D01*
X168501238Y-83004819D02*
X168596476Y-82957200D01*
X168596476Y-82957200D02*
X168644095Y-82909580D01*
X168644095Y-82909580D02*
X168691714Y-82814342D01*
X168691714Y-82814342D02*
X168691714Y-82576247D01*
X168691714Y-82576247D02*
X168644095Y-82481009D01*
X168644095Y-82481009D02*
X168596476Y-82433390D01*
X168596476Y-82433390D02*
X168501238Y-82385771D01*
X168501238Y-82385771D02*
X168310762Y-82385771D01*
X168310762Y-82385771D02*
X168215524Y-82433390D01*
X168215524Y-82433390D02*
X168167905Y-82481009D01*
X168167905Y-82481009D02*
X168120286Y-82576247D01*
D10*
X173193419Y-77382233D02*
X173907704Y-77382233D01*
X173907704Y-77382233D02*
X174050561Y-77429852D01*
X174050561Y-77429852D02*
X174145800Y-77525090D01*
X174145800Y-77525090D02*
X174193419Y-77667947D01*
X174193419Y-77667947D02*
X174193419Y-77763185D01*
X174193419Y-76382233D02*
X174193419Y-76953661D01*
X174193419Y-76667947D02*
X173193419Y-76667947D01*
X173193419Y-76667947D02*
X173336276Y-76763185D01*
X173336276Y-76763185D02*
X173431514Y-76858423D01*
X173431514Y-76858423D02*
X173479133Y-76953661D01*
D11*
X163554580Y-106592666D02*
X163602200Y-106640285D01*
X163602200Y-106640285D02*
X163649819Y-106783142D01*
X163649819Y-106783142D02*
X163649819Y-106878380D01*
X163649819Y-106878380D02*
X163602200Y-107021237D01*
X163602200Y-107021237D02*
X163506961Y-107116475D01*
X163506961Y-107116475D02*
X163411723Y-107164094D01*
X163411723Y-107164094D02*
X163221247Y-107211713D01*
X163221247Y-107211713D02*
X163078390Y-107211713D01*
X163078390Y-107211713D02*
X162887914Y-107164094D01*
X162887914Y-107164094D02*
X162792676Y-107116475D01*
X162792676Y-107116475D02*
X162697438Y-107021237D01*
X162697438Y-107021237D02*
X162649819Y-106878380D01*
X162649819Y-106878380D02*
X162649819Y-106783142D01*
X162649819Y-106783142D02*
X162697438Y-106640285D01*
X162697438Y-106640285D02*
X162745057Y-106592666D01*
X162649819Y-105687904D02*
X162649819Y-106164094D01*
X162649819Y-106164094D02*
X163126009Y-106211713D01*
X163126009Y-106211713D02*
X163078390Y-106164094D01*
X163078390Y-106164094D02*
X163030771Y-106068856D01*
X163030771Y-106068856D02*
X163030771Y-105830761D01*
X163030771Y-105830761D02*
X163078390Y-105735523D01*
X163078390Y-105735523D02*
X163126009Y-105687904D01*
X163126009Y-105687904D02*
X163221247Y-105640285D01*
X163221247Y-105640285D02*
X163459342Y-105640285D01*
X163459342Y-105640285D02*
X163554580Y-105687904D01*
X163554580Y-105687904D02*
X163602200Y-105735523D01*
X163602200Y-105735523D02*
X163649819Y-105830761D01*
X163649819Y-105830761D02*
X163649819Y-106068856D01*
X163649819Y-106068856D02*
X163602200Y-106164094D01*
X163602200Y-106164094D02*
X163554580Y-106211713D01*
X167602819Y-85769220D02*
X168412342Y-85769220D01*
X168412342Y-85769220D02*
X168507580Y-85721601D01*
X168507580Y-85721601D02*
X168555200Y-85673982D01*
X168555200Y-85673982D02*
X168602819Y-85578744D01*
X168602819Y-85578744D02*
X168602819Y-85388268D01*
X168602819Y-85388268D02*
X168555200Y-85293030D01*
X168555200Y-85293030D02*
X168507580Y-85245411D01*
X168507580Y-85245411D02*
X168412342Y-85197792D01*
X168412342Y-85197792D02*
X167602819Y-85197792D01*
X167602819Y-84816839D02*
X167602819Y-84197792D01*
X167602819Y-84197792D02*
X167983771Y-84531125D01*
X167983771Y-84531125D02*
X167983771Y-84388268D01*
X167983771Y-84388268D02*
X168031390Y-84293030D01*
X168031390Y-84293030D02*
X168079009Y-84245411D01*
X168079009Y-84245411D02*
X168174247Y-84197792D01*
X168174247Y-84197792D02*
X168412342Y-84197792D01*
X168412342Y-84197792D02*
X168507580Y-84245411D01*
X168507580Y-84245411D02*
X168555200Y-84293030D01*
X168555200Y-84293030D02*
X168602819Y-84388268D01*
X168602819Y-84388268D02*
X168602819Y-84673982D01*
X168602819Y-84673982D02*
X168555200Y-84769220D01*
X168555200Y-84769220D02*
X168507580Y-84816839D01*
D12*
X153686000Y-122552000D02*
X155686000Y-122552000D01*
X153686000Y-125352000D02*
X153686000Y-122552000D01*
X155686000Y-122552000D02*
X155686000Y-125352000D01*
X155686000Y-125352000D02*
X153686000Y-125352000D01*
D13*
X153686000Y-121134000D02*
X153686000Y-118134000D01*
X154178000Y-120142000D02*
X154178000Y-119892000D01*
X154286000Y-119124000D02*
X154686000Y-120144000D01*
X154686000Y-120144000D02*
X155096000Y-119124000D01*
X154686000Y-120396000D02*
X154686000Y-120146000D01*
X154691000Y-119124000D02*
X154691000Y-118874000D01*
X155096000Y-119124000D02*
X154286000Y-119124000D01*
X155194000Y-120142000D02*
X154174000Y-120142000D01*
X155194000Y-120396000D02*
X155194000Y-120146000D01*
X155686000Y-121134000D02*
X155686000Y-118134000D01*
D12*
X156299000Y-73406000D02*
X156299000Y-125596000D01*
X156299000Y-125596000D02*
X179499000Y-125596000D01*
X159299000Y-74676000D02*
X159299000Y-125536000D01*
X159299000Y-125536000D02*
X164359000Y-125536000D01*
X160279000Y-70866000D02*
X160279000Y-73406000D01*
X161549000Y-125536000D02*
X176499000Y-125536000D01*
X165359000Y-126746000D02*
X165359000Y-125603000D01*
X170439000Y-125536000D02*
X170439000Y-126746000D01*
X170439000Y-126746000D02*
X165359000Y-126746000D01*
X175519000Y-70866000D02*
X160279000Y-70866000D01*
X175519000Y-73406000D02*
X175519000Y-70866000D01*
X176499000Y-125536000D02*
X176499000Y-74676000D01*
D10*
X179329000Y-74676000D02*
X156469000Y-74676000D01*
D12*
X179499000Y-73406000D02*
X156299000Y-73406000D01*
X179499000Y-125596000D02*
X179499000Y-73406000D01*
D11*
X166378000Y-107668000D02*
X169918000Y-107668000D01*
X166378000Y-114328000D02*
X166378000Y-107668000D01*
X169918000Y-107668000D02*
X169918000Y-114328000D01*
X169918000Y-114328000D02*
X166378000Y-114328000D01*
D14*
X165428000Y-107438000D02*
G75*
G02*
X165128000Y-107438000I-150000J0D01*
G01*
X165128000Y-107438000D02*
G75*
G02*
X165428000Y-107438000I150000J0D01*
G01*
D11*
X166378000Y-96492000D02*
X169918000Y-96492000D01*
X166378000Y-103152000D02*
X166378000Y-96492000D01*
X169918000Y-96492000D02*
X169918000Y-103152000D01*
X169918000Y-103152000D02*
X166378000Y-103152000D01*
D14*
X171168000Y-103382000D02*
G75*
G02*
X170868000Y-103382000I-150000J0D01*
G01*
X170868000Y-103382000D02*
G75*
G02*
X171168000Y-103382000I150000J0D01*
G01*
D15*
X161163000Y-76032900D02*
X161163000Y-126832900D01*
X161163000Y-76032900D02*
X166751000Y-76032900D01*
X174625000Y-76032900D02*
X168783000Y-76032900D01*
X174625000Y-126832900D02*
X161163000Y-126832900D01*
X174625000Y-126832900D02*
X174625000Y-76032900D01*
X168783000Y-76032900D02*
G75*
G02*
X166751000Y-76032900I-1016000J0D01*
G01*
D11*
X166378000Y-83792000D02*
X169918000Y-83792000D01*
X166378000Y-90452000D02*
X166378000Y-83792000D01*
X169918000Y-83792000D02*
X169918000Y-90452000D01*
X169918000Y-90452000D02*
X166378000Y-90452000D01*
D14*
X165428000Y-83562000D02*
G75*
G02*
X165128000Y-83562000I-150000J0D01*
G01*
X165128000Y-83562000D02*
G75*
G02*
X165428000Y-83562000I150000J0D01*
G01*
%LPC*%
D16*
X154686000Y-123227000D03*
D17*
X154686000Y-124677000D03*
D18*
X154686000Y-121334000D03*
X154686000Y-117934000D03*
D19*
X178059000Y-124206000D03*
X178059000Y-121666000D03*
X178059000Y-119126000D03*
X178059000Y-116586000D03*
X178059000Y-114046000D03*
X178059000Y-111506000D03*
X178059000Y-108966000D03*
X178059000Y-106426000D03*
X178059000Y-103886000D03*
X178059000Y-101346000D03*
X178059000Y-98806000D03*
X178059000Y-96266000D03*
X178059000Y-93726000D03*
X178059000Y-91186000D03*
X178059000Y-88646000D03*
X178059000Y-86106000D03*
X178059000Y-83566000D03*
X178059000Y-81026000D03*
X178059000Y-78486000D03*
X178059000Y-75946000D03*
X157739000Y-75946000D03*
X157739000Y-78486000D03*
X157739000Y-81026000D03*
X157739000Y-83566000D03*
X157739000Y-86106000D03*
X157739000Y-88646000D03*
X157739000Y-91186000D03*
X157739000Y-93726000D03*
X157739000Y-96266000D03*
X157739000Y-98806000D03*
X157739000Y-101346000D03*
X157739000Y-103886000D03*
X157739000Y-106426000D03*
X157739000Y-108966000D03*
X157739000Y-111506000D03*
X157739000Y-114046000D03*
X157739000Y-116586000D03*
X157739000Y-119126000D03*
X157739000Y-121666000D03*
X157739000Y-124206000D03*
D20*
X172974000Y-105803000D03*
X172974000Y-107303000D03*
D21*
X165278000Y-108068000D03*
X165278000Y-108718000D03*
X165278000Y-109368000D03*
X165278000Y-110018000D03*
X165278000Y-110678000D03*
X165278000Y-111328000D03*
X165278000Y-111978000D03*
X165278000Y-112628000D03*
X165278000Y-113278000D03*
X165278000Y-113928000D03*
X171018000Y-113928000D03*
X171018000Y-113278000D03*
X171018000Y-112628000D03*
X171018000Y-111978000D03*
X171018000Y-111328000D03*
X171018000Y-110678000D03*
X171018000Y-110018000D03*
X171018000Y-109368000D03*
X171018000Y-108718000D03*
X171018000Y-108068000D03*
X171018000Y-102752000D03*
X171018000Y-102102000D03*
X171018000Y-101452000D03*
X171018000Y-100802000D03*
X171018000Y-100142000D03*
X171018000Y-99492000D03*
X171018000Y-98842000D03*
X171018000Y-98192000D03*
X171018000Y-97542000D03*
X171018000Y-96892000D03*
X165278000Y-96892000D03*
X165278000Y-97542000D03*
X165278000Y-98192000D03*
X165278000Y-98842000D03*
X165278000Y-99492000D03*
X165278000Y-100142000D03*
X165278000Y-100802000D03*
X165278000Y-101452000D03*
X165278000Y-102102000D03*
X165278000Y-102752000D03*
D22*
X153670000Y-104902000D03*
X153670000Y-107442000D03*
X153670000Y-109982000D03*
D23*
X169430000Y-82550000D03*
X170930000Y-82550000D03*
D22*
X160274000Y-77302900D03*
X160274000Y-79842900D03*
X160274000Y-82382900D03*
X160274000Y-84922900D03*
X160274000Y-87462900D03*
X160274000Y-90002900D03*
X160274000Y-92542900D03*
X160274000Y-95082900D03*
X160274000Y-97622900D03*
X160274000Y-100162900D03*
X160274000Y-102702900D03*
X160274000Y-105242900D03*
X160274000Y-107782900D03*
X160274000Y-110322900D03*
X160274000Y-112862900D03*
X160274000Y-115402900D03*
X160274000Y-117942900D03*
X160274000Y-120482900D03*
X160274000Y-123022900D03*
X160274000Y-125562900D03*
X175514000Y-125562900D03*
X175514000Y-123022900D03*
X175514000Y-120482900D03*
X175514000Y-117942900D03*
X175514000Y-115402900D03*
X175514000Y-112862900D03*
X175514000Y-110322900D03*
X175514000Y-107782900D03*
X175514000Y-105242900D03*
X175514000Y-102702900D03*
X175514000Y-100162900D03*
X175514000Y-97622900D03*
X175514000Y-95082900D03*
X175514000Y-92542900D03*
X175514000Y-90002900D03*
X175514000Y-87462900D03*
X175514000Y-84922900D03*
X175514000Y-82382900D03*
X175514000Y-79842900D03*
X175514000Y-77302900D03*
D20*
X163195000Y-104878000D03*
X163195000Y-103378000D03*
D21*
X165278000Y-84192000D03*
X165278000Y-84842000D03*
X165278000Y-85492000D03*
X165278000Y-86142000D03*
X165278000Y-86802000D03*
X165278000Y-87452000D03*
X165278000Y-88102000D03*
X165278000Y-88752000D03*
X165278000Y-89402000D03*
X165278000Y-90052000D03*
X171018000Y-90052000D03*
X171018000Y-89402000D03*
X171018000Y-88752000D03*
X171018000Y-88102000D03*
X171018000Y-87452000D03*
X171018000Y-86802000D03*
X171018000Y-86142000D03*
X171018000Y-85492000D03*
X171018000Y-84842000D03*
X171018000Y-84192000D03*
%LPD*%
M02*
