G04 #@! TF.GenerationSoftware,KiCad,Pcbnew,8.0.4*
G04 #@! TF.CreationDate,2024-09-05T13:45:58-03:00*
G04 #@! TF.ProjectId,MSX_Goauld_Rev4,4d53585f-476f-4617-956c-645f52657634,rev?*
G04 #@! TF.SameCoordinates,Original*
G04 #@! TF.FileFunction,Copper,L4,Bot*
G04 #@! TF.FilePolarity,Positive*
%FSLAX46Y46*%
G04 Gerber Fmt 4.6, Leading zero omitted, Abs format (unit mm)*
G04 Created by KiCad (PCBNEW 8.0.4) date 2024-09-05 13:45:58*
%MOMM*%
%LPD*%
G01*
G04 APERTURE LIST*
G04 #@! TA.AperFunction,ComponentPad*
%ADD10C,1.320800*%
G04 #@! TD*
G04 #@! TA.AperFunction,ComponentPad*
%ADD11C,1.500000*%
G04 #@! TD*
G04 #@! TA.AperFunction,SMDPad,CuDef*
%ADD12R,1.400000X1.200000*%
G04 #@! TD*
G04 #@! TA.AperFunction,SMDPad,CuDef*
%ADD13R,1.100000X1.100000*%
G04 #@! TD*
G04 #@! TA.AperFunction,SMDPad,CuDef*
%ADD14O,1.740000X0.360000*%
G04 #@! TD*
G04 #@! TA.AperFunction,SMDPad,CuDef*
%ADD15R,1.192000X1.167000*%
G04 #@! TD*
G04 #@! TA.AperFunction,ViaPad*
%ADD16C,0.800000*%
G04 #@! TD*
G04 #@! TA.AperFunction,Conductor*
%ADD17C,0.450000*%
G04 #@! TD*
G04 #@! TA.AperFunction,Conductor*
%ADD18C,0.359800*%
G04 #@! TD*
G04 #@! TA.AperFunction,Conductor*
%ADD19C,0.200000*%
G04 #@! TD*
G04 APERTURE END LIST*
D10*
X178059000Y-124206000D03*
X178059000Y-121666000D03*
X178059000Y-119126000D03*
X178059000Y-116586000D03*
X178059000Y-114046000D03*
X178059000Y-111506000D03*
X178059000Y-108966000D03*
X178059000Y-106426000D03*
X178059000Y-103886000D03*
X178059000Y-101346000D03*
X178059000Y-98806000D03*
X178059000Y-96266000D03*
X178059000Y-93726000D03*
X178059000Y-91186000D03*
X178059000Y-88646000D03*
X178059000Y-86106000D03*
X178059000Y-83566000D03*
X178059000Y-81026000D03*
X178059000Y-78486000D03*
X178059000Y-75946000D03*
X157739000Y-75946000D03*
X157739000Y-78486000D03*
X157739000Y-81026000D03*
X157739000Y-83566000D03*
X157739000Y-86106000D03*
X157739000Y-88646000D03*
X157739000Y-91186000D03*
X157739000Y-93726000D03*
X157739000Y-96266000D03*
X157739000Y-98806000D03*
X157739000Y-101346000D03*
X157739000Y-103886000D03*
X157739000Y-106426000D03*
X157739000Y-108966000D03*
X157739000Y-111506000D03*
X157739000Y-114046000D03*
X157739000Y-116586000D03*
X157739000Y-119126000D03*
X157739000Y-121666000D03*
X157739000Y-124206000D03*
D11*
X160274000Y-77302900D03*
X160274000Y-79842900D03*
X160274000Y-82382900D03*
X160274000Y-84922900D03*
X160274000Y-87462900D03*
X160274000Y-90002900D03*
X160274000Y-92542900D03*
X160274000Y-95082900D03*
X160274000Y-97622900D03*
X160274000Y-100162900D03*
X160274000Y-102702900D03*
X160274000Y-105242900D03*
X160274000Y-107782900D03*
X160274000Y-110322900D03*
X160274000Y-112862900D03*
X160274000Y-115402900D03*
X160274000Y-117942900D03*
X160274000Y-120482900D03*
X160274000Y-123022900D03*
X160274000Y-125562900D03*
X175514000Y-125562900D03*
X175514000Y-123022900D03*
X175514000Y-120482900D03*
X175514000Y-117942900D03*
X175514000Y-115402900D03*
X175514000Y-112862900D03*
X175514000Y-110322900D03*
X175514000Y-107782900D03*
X175514000Y-105242900D03*
X175514000Y-102702900D03*
X175514000Y-100162900D03*
X175514000Y-97622900D03*
X175514000Y-95082900D03*
X175514000Y-92542900D03*
X175514000Y-90002900D03*
X175514000Y-87462900D03*
X175514000Y-84922900D03*
X175514000Y-82382900D03*
X175514000Y-79842900D03*
X175514000Y-77302900D03*
X154990800Y-106821600D03*
X154990800Y-96306000D03*
D12*
X154940000Y-103086000D03*
X154940000Y-99686000D03*
D13*
X155956000Y-86106000D03*
X155956000Y-84582000D03*
D14*
X171018000Y-96892000D03*
X171018000Y-97542000D03*
X171018000Y-98192000D03*
X171018000Y-98842000D03*
X171018000Y-99502000D03*
X171018000Y-100152000D03*
X171018000Y-100802000D03*
X171018000Y-101452000D03*
X171018000Y-102102000D03*
X171018000Y-102752000D03*
X165278000Y-102752000D03*
X165278000Y-102102000D03*
X165278000Y-101452000D03*
X165278000Y-100802000D03*
X165278000Y-100152000D03*
X165278000Y-99502000D03*
X165278000Y-98842000D03*
X165278000Y-98192000D03*
X165278000Y-97542000D03*
X165278000Y-96892000D03*
X165278000Y-125104000D03*
X165278000Y-124454000D03*
X165278000Y-123804000D03*
X165278000Y-123154000D03*
X165278000Y-122494000D03*
X165278000Y-121844000D03*
X165278000Y-121194000D03*
X165278000Y-120544000D03*
X165278000Y-119894000D03*
X165278000Y-119244000D03*
X171018000Y-119244000D03*
X171018000Y-119894000D03*
X171018000Y-120544000D03*
X171018000Y-121194000D03*
X171018000Y-121844000D03*
X171018000Y-122494000D03*
X171018000Y-123154000D03*
X171018000Y-123804000D03*
X171018000Y-124454000D03*
X171018000Y-125104000D03*
D13*
X158242000Y-126238000D03*
X156718000Y-126238000D03*
X180340000Y-78994000D03*
X180340000Y-77470000D03*
D15*
X180340000Y-80264000D03*
X180340000Y-82296000D03*
D16*
X170233700Y-82781300D03*
X155386400Y-82964600D03*
X152400000Y-95001900D03*
X172529100Y-102950500D03*
X165920800Y-106807900D03*
X170140900Y-96083400D03*
X163317900Y-97756400D03*
X164301500Y-103738100D03*
X166916300Y-123080800D03*
X171635000Y-107231300D03*
X172521900Y-111346700D03*
X163379800Y-86086600D03*
X163733000Y-99819200D03*
X167073400Y-94856900D03*
X161723700Y-99014000D03*
X169150400Y-108876200D03*
X163374200Y-87088400D03*
X164106300Y-114895400D03*
X166840100Y-100115200D03*
X172499100Y-108408600D03*
X169107900Y-97424000D03*
X163390600Y-92849200D03*
X172535800Y-112754400D03*
X162182700Y-91150200D03*
X172189700Y-94622600D03*
X163393200Y-123057700D03*
X162677300Y-92141700D03*
X170529600Y-104785300D03*
X162631300Y-124130600D03*
X172974700Y-96378800D03*
X173741200Y-97138700D03*
X172604200Y-100752500D03*
X167781100Y-101452000D03*
X155756300Y-104405600D03*
X169237600Y-123804000D03*
X169339900Y-121321700D03*
X170538800Y-103727600D03*
X167997100Y-112176200D03*
X169498000Y-112652800D03*
X163248700Y-111477900D03*
X167269100Y-113085600D03*
X163217500Y-102304300D03*
X164358900Y-107078000D03*
X166731100Y-104406300D03*
X169484100Y-110428100D03*
X167185500Y-102643300D03*
X164741600Y-96057100D03*
X172656900Y-88171200D03*
X165706300Y-83388900D03*
D17*
X179828700Y-80264000D02*
X180122000Y-79970700D01*
X163815700Y-127214700D02*
X155949700Y-127214700D01*
X165926400Y-125104000D02*
X166574700Y-125104000D01*
X178809300Y-79756000D02*
X179317300Y-80264000D01*
X155949700Y-127214700D02*
X152400000Y-123665000D01*
X155956000Y-83534200D02*
X155386400Y-82964600D01*
X179828700Y-80264000D02*
X179317300Y-80264000D01*
X165278000Y-125104000D02*
X165926400Y-125104000D01*
X174391300Y-78623700D02*
X176075600Y-78623700D01*
X176075600Y-78623700D02*
X177207900Y-79756000D01*
X180340000Y-80264000D02*
X179828700Y-80264000D01*
X170233700Y-82781300D02*
X174391300Y-78623700D01*
X155956000Y-84582000D02*
X155956000Y-83534200D01*
X152400000Y-123665000D02*
X152400000Y-95001900D01*
X166574700Y-125104000D02*
X166831600Y-125360900D01*
X170761100Y-125360900D02*
X171018000Y-125104000D01*
X180340000Y-78994000D02*
X180340000Y-79970700D01*
X165926400Y-125104000D02*
X163815700Y-127214700D01*
X177207900Y-79756000D02*
X178809300Y-79756000D01*
X180122000Y-79970700D02*
X180340000Y-79970700D01*
X166831600Y-125360900D02*
X170761100Y-125360900D01*
D18*
X169825100Y-124409200D02*
X170973200Y-124409200D01*
D17*
X165278000Y-119244000D02*
X165278000Y-119894000D01*
X165278000Y-102102000D02*
X165278000Y-102752000D01*
X171018000Y-96892000D02*
X172314700Y-96892000D01*
X174273000Y-98850300D02*
X174273000Y-101500000D01*
X168534000Y-124698500D02*
X169535800Y-124698500D01*
X176048900Y-101500000D02*
X174273000Y-101500000D01*
D18*
X164085100Y-97586800D02*
X165233200Y-97586800D01*
X171018000Y-102752000D02*
X171643800Y-102752000D01*
X170973200Y-124409200D02*
X171018000Y-124454000D01*
D17*
X176726300Y-104030600D02*
X176726300Y-102177400D01*
X165278000Y-119894000D02*
X165278000Y-120544000D01*
X175514000Y-105242900D02*
X176726300Y-104030600D01*
X170209400Y-96083400D02*
X170140900Y-96083400D01*
X165920800Y-118601200D02*
X165920800Y-106807900D01*
X172314700Y-96892000D02*
X174273000Y-98850300D01*
X166916300Y-123080800D02*
X168534000Y-124698500D01*
X172330600Y-102752000D02*
X172529100Y-102950500D01*
X163317900Y-97756400D02*
X163487500Y-97586800D01*
X165278000Y-102752000D02*
X165278000Y-102761600D01*
X165278000Y-102761600D02*
X164301500Y-103738100D01*
X171643800Y-102752000D02*
X172330600Y-102752000D01*
X169535800Y-124698500D02*
X169825100Y-124409200D01*
X165278000Y-119244000D02*
X165920800Y-118601200D01*
X172822500Y-102950500D02*
X172529100Y-102950500D01*
X176726300Y-102177400D02*
X176048900Y-101500000D01*
D18*
X165233200Y-97586800D02*
X165278000Y-97542000D01*
D17*
X163487500Y-97586800D02*
X164085100Y-97586800D01*
X174273000Y-101500000D02*
X172822500Y-102950500D01*
X171018000Y-96892000D02*
X170209400Y-96083400D01*
X154940000Y-99686000D02*
X154940000Y-96306000D01*
X162676700Y-96892000D02*
X163981300Y-96892000D01*
X158076900Y-102616000D02*
X159097300Y-101595600D01*
X154929600Y-106811200D02*
X154940000Y-106821600D01*
X156602400Y-123791800D02*
X156602400Y-125145700D01*
X160274000Y-120482900D02*
X160274000Y-120674000D01*
X157458200Y-122936000D02*
X156602400Y-123791800D01*
X156718000Y-126238000D02*
X156718000Y-125261300D01*
X156602400Y-125145700D02*
X156718000Y-125261300D01*
X158012000Y-122936000D02*
X157458200Y-122936000D01*
X159097300Y-101595600D02*
X159097300Y-99653700D01*
X154940000Y-103086000D02*
X156066700Y-103086000D01*
X160274000Y-120674000D02*
X158012000Y-122936000D01*
X159769500Y-98981500D02*
X160587200Y-98981500D01*
X154940000Y-103086000D02*
X154929600Y-103096400D01*
X156536700Y-102616000D02*
X158076900Y-102616000D01*
X154929600Y-103096400D02*
X154929600Y-106811200D01*
X156066700Y-103086000D02*
X156536700Y-102616000D01*
X160587200Y-98981500D02*
X162676700Y-96892000D01*
X165278000Y-96892000D02*
X163981300Y-96892000D01*
X159097300Y-99653700D02*
X159769500Y-98981500D01*
D19*
X171018000Y-100152000D02*
X169846300Y-100152000D01*
X169403900Y-105239400D02*
X169403900Y-100594400D01*
X170605300Y-106440800D02*
X169403900Y-105239400D01*
X171855700Y-106440800D02*
X170605300Y-106440800D01*
X175514000Y-110322900D02*
X175514000Y-110099100D01*
X175514000Y-110099100D02*
X171855700Y-106440800D01*
X169403900Y-100594400D02*
X169846300Y-100152000D01*
X166449700Y-121194000D02*
X174780800Y-112862900D01*
X174780800Y-112862900D02*
X175514000Y-112862900D01*
X165278000Y-121194000D02*
X166449700Y-121194000D01*
X168961500Y-100386800D02*
X168961500Y-108687300D01*
X169846300Y-99502000D02*
X168961500Y-100386800D01*
X171018000Y-99502000D02*
X169846300Y-99502000D01*
X168961500Y-108687300D02*
X169150400Y-108876200D01*
X169827900Y-105082500D02*
X170784500Y-106039100D01*
X170784500Y-106039100D02*
X173770200Y-106039100D01*
X169846300Y-100802000D02*
X169827900Y-100820400D01*
X173770200Y-106039100D02*
X175514000Y-107782900D01*
X169827900Y-100820400D02*
X169827900Y-105082500D01*
X171018000Y-100802000D02*
X169846300Y-100802000D01*
X166449700Y-122426600D02*
X166449700Y-122494000D01*
X165278000Y-122494000D02*
X166449700Y-122494000D01*
X175514000Y-117942900D02*
X170933400Y-117942900D01*
X170933400Y-117942900D02*
X166449700Y-122426600D01*
X169728300Y-97424000D02*
X169846300Y-97542000D01*
X171018000Y-97542000D02*
X169846300Y-97542000D01*
X169107900Y-97424000D02*
X169728300Y-97424000D01*
X160274000Y-117942900D02*
X164106300Y-121775200D01*
X164106300Y-121775200D02*
X164106300Y-123154000D01*
X165278000Y-123154000D02*
X164106300Y-123154000D01*
X165278000Y-123804000D02*
X164106300Y-123804000D01*
X164106300Y-123804000D02*
X164106300Y-123770800D01*
X164106300Y-123770800D02*
X163393200Y-123057700D01*
X160590400Y-116672900D02*
X160042100Y-116672900D01*
X168485100Y-100154100D02*
X168485100Y-103649400D01*
X159186700Y-118347000D02*
X160092000Y-119252300D01*
X160092000Y-119252300D02*
X160530800Y-119252300D01*
X167025300Y-105109200D02*
X166619300Y-105109200D01*
X171018000Y-98192000D02*
X169846300Y-98192000D01*
X169846300Y-98192000D02*
X169846300Y-98792900D01*
X159186700Y-117528300D02*
X159186700Y-118347000D01*
X165060600Y-112202700D02*
X160590400Y-116672900D01*
X166619300Y-105109200D02*
X165060600Y-106667900D01*
X161329600Y-120051100D02*
X161329600Y-124507300D01*
X169846300Y-98792900D02*
X168485100Y-100154100D01*
X161329600Y-124507300D02*
X160274000Y-125562900D01*
X165060600Y-106667900D02*
X165060600Y-112202700D01*
X160530800Y-119252300D02*
X161329600Y-120051100D01*
X168485100Y-103649400D02*
X167025300Y-105109200D01*
X160042100Y-116672900D02*
X159186700Y-117528300D01*
X175514000Y-102702900D02*
X173431600Y-104785300D01*
X173431600Y-104785300D02*
X170529600Y-104785300D01*
X165278000Y-121844000D02*
X166449700Y-121844000D01*
X175514000Y-115402900D02*
X172890800Y-115402900D01*
X172890800Y-115402900D02*
X166449700Y-121844000D01*
X164106300Y-124454000D02*
X162954700Y-124454000D01*
X162954700Y-124454000D02*
X162631300Y-124130600D01*
X165278000Y-124454000D02*
X164106300Y-124454000D01*
X172604200Y-99256500D02*
X172189700Y-98842000D01*
X172604200Y-100752500D02*
X172604200Y-99256500D01*
X171018000Y-98842000D02*
X172189700Y-98842000D01*
X174462300Y-96825200D02*
X172978500Y-95341400D01*
X176681300Y-98892900D02*
X175242300Y-98892900D01*
X168218500Y-97009600D02*
X168218500Y-99749600D01*
X167151200Y-100816900D02*
X166464600Y-100816900D01*
X166464600Y-100816900D02*
X166449700Y-100802000D01*
X178153200Y-100076000D02*
X177864400Y-100076000D01*
X169886700Y-95341400D02*
X168218500Y-97009600D01*
X179444500Y-101367300D02*
X178153200Y-100076000D01*
X174462300Y-98112900D02*
X174462300Y-96825200D01*
X178059000Y-111506000D02*
X179444500Y-110120500D01*
X177864400Y-100076000D02*
X176681300Y-98892900D01*
X175242300Y-98892900D02*
X174462300Y-98112900D01*
X179444500Y-110120500D02*
X179444500Y-101367300D01*
X172978500Y-95341400D02*
X169886700Y-95341400D01*
X165278000Y-100802000D02*
X166449700Y-100802000D01*
X168218500Y-99749600D02*
X167151200Y-100816900D01*
X165278000Y-99502000D02*
X166449700Y-99502000D01*
X167268300Y-96177600D02*
X165437400Y-94346700D01*
X160056000Y-83652900D02*
X157739000Y-81335900D01*
X157739000Y-81335900D02*
X157739000Y-81026000D01*
X166449700Y-99502000D02*
X167268300Y-98683400D01*
X160564200Y-83652900D02*
X160056000Y-83652900D01*
X167268300Y-98683400D02*
X167268300Y-96177600D01*
X165437400Y-94346700D02*
X165437400Y-90145200D01*
X161379100Y-84467800D02*
X160564200Y-83652900D01*
X165437400Y-90145200D02*
X161379100Y-86086900D01*
X161379100Y-86086900D02*
X161379100Y-84467800D01*
X165278000Y-98842000D02*
X166449700Y-98842000D01*
X160046400Y-86192900D02*
X159208400Y-85354900D01*
X166449700Y-98842000D02*
X166852500Y-98439200D01*
X157500100Y-82154400D02*
X156760600Y-81414900D01*
X159208400Y-83624400D02*
X157738400Y-82154400D01*
X156760600Y-79464400D02*
X157739000Y-78486000D01*
X164291900Y-89954300D02*
X160530500Y-86192900D01*
X159208400Y-85354900D02*
X159208400Y-83624400D01*
X166852500Y-96427400D02*
X164291900Y-93866800D01*
X164291900Y-93866800D02*
X164291900Y-89954300D01*
X160530500Y-86192900D02*
X160046400Y-86192900D01*
X166852500Y-98439200D02*
X166852500Y-96427400D01*
X156760600Y-81414900D02*
X156760600Y-79464400D01*
X157738400Y-82154400D02*
X157500100Y-82154400D01*
X164548000Y-95329500D02*
X160633000Y-91414500D01*
X166449700Y-98192000D02*
X166449700Y-96692400D01*
X154663900Y-86933600D02*
X154663900Y-79021100D01*
X165086800Y-95329500D02*
X164548000Y-95329500D01*
X157492800Y-89762500D02*
X154663900Y-86933600D01*
X165278000Y-98192000D02*
X166449700Y-98192000D01*
X166449700Y-96692400D02*
X165086800Y-95329500D01*
X159937000Y-91414500D02*
X158285000Y-89762500D01*
X158285000Y-89762500D02*
X157492800Y-89762500D01*
X160633000Y-91414500D02*
X159937000Y-91414500D01*
X154663900Y-79021100D02*
X157739000Y-75946000D01*
X165278000Y-101452000D02*
X167781100Y-101452000D01*
X159223800Y-103972900D02*
X158334500Y-104862200D01*
X158334500Y-104862200D02*
X156212900Y-104862200D01*
X163250400Y-101376400D02*
X163145000Y-101376400D01*
X156212900Y-104862200D02*
X155756300Y-104405600D01*
X163145000Y-101376400D02*
X160548500Y-103972900D01*
X164474800Y-100152000D02*
X163250400Y-101376400D01*
X165278000Y-100152000D02*
X164474800Y-100152000D01*
X160548500Y-103972900D02*
X159223800Y-103972900D01*
X176627600Y-107857400D02*
X176627600Y-118351000D01*
X175765700Y-119212900D02*
X174820800Y-119212900D01*
X174820800Y-119212900D02*
X172189700Y-121844000D01*
X176627600Y-118351000D02*
X175765700Y-119212900D01*
X171018000Y-121844000D02*
X172189700Y-121844000D01*
X178059000Y-106426000D02*
X176627600Y-107857400D01*
X171018000Y-123804000D02*
X169237600Y-123804000D01*
X169846300Y-120544000D02*
X169846300Y-120815300D01*
X171018000Y-120544000D02*
X169846300Y-120544000D01*
X169846300Y-120815300D02*
X169339900Y-121321700D01*
X179032000Y-109382900D02*
X178178900Y-110236000D01*
X177964500Y-110236000D02*
X177063800Y-111136700D01*
X177063800Y-111136700D02*
X177063800Y-120478800D01*
X178178900Y-110236000D02*
X177964500Y-110236000D01*
X172471500Y-123154000D02*
X171018000Y-123154000D01*
X173872600Y-121752900D02*
X172471500Y-123154000D01*
X177063800Y-120478800D02*
X175789700Y-121752900D01*
X179032000Y-104859000D02*
X179032000Y-109382900D01*
X175789700Y-121752900D02*
X173872600Y-121752900D01*
X178059000Y-103886000D02*
X179032000Y-104859000D01*
X160065900Y-108984400D02*
X160598000Y-108984400D01*
X160598000Y-108984400D02*
X163217500Y-106364900D01*
X157739000Y-111506000D02*
X157739000Y-111311300D01*
X157739000Y-111311300D02*
X160065900Y-108984400D01*
X163217500Y-106364900D02*
X163217500Y-102304300D01*
X160734000Y-111375800D02*
X163657100Y-108452700D01*
X157739000Y-113898600D02*
X160261800Y-111375800D01*
X160261800Y-111375800D02*
X160734000Y-111375800D01*
X163657100Y-106171700D02*
X167185500Y-102643300D01*
X163657100Y-108452700D02*
X163657100Y-106171700D01*
X157739000Y-114046000D02*
X157739000Y-113898600D01*
X178694000Y-82296000D02*
X178059000Y-81661000D01*
X178059000Y-81661000D02*
X176237000Y-83483000D01*
X180340000Y-82296000D02*
X178694000Y-82296000D01*
X165800400Y-83483000D02*
X165706300Y-83388900D01*
X176237000Y-83483000D02*
X165800400Y-83483000D01*
X178059000Y-81661000D02*
X178059000Y-81026000D01*
X179075000Y-77470000D02*
X180340000Y-77470000D01*
X178059000Y-78486000D02*
X179075000Y-77470000D01*
X157739000Y-86106000D02*
X155956000Y-86106000D01*
D17*
X157739000Y-124206000D02*
X158242000Y-124709000D01*
X158242000Y-124709000D02*
X158242000Y-126238000D01*
G04 #@! TA.AperFunction,Conductor*
G36*
X181807039Y-73933685D02*
G01*
X181852794Y-73986489D01*
X181864000Y-74038000D01*
X181864000Y-127638000D01*
X181844315Y-127705039D01*
X181791511Y-127750794D01*
X181740000Y-127762000D01*
X164593774Y-127762000D01*
X164526735Y-127742315D01*
X164480980Y-127689511D01*
X164471036Y-127620353D01*
X164500061Y-127556797D01*
X164506093Y-127550319D01*
X165313939Y-126742473D01*
X166162870Y-125893541D01*
X166224191Y-125860058D01*
X166293883Y-125865042D01*
X166338230Y-125893543D01*
X166369116Y-125924429D01*
X166369120Y-125924432D01*
X166487939Y-126003825D01*
X166487952Y-126003832D01*
X166526616Y-126019847D01*
X166619975Y-126058517D01*
X166619980Y-126058519D01*
X166619984Y-126058519D01*
X166619985Y-126058520D01*
X166760142Y-126086400D01*
X166760145Y-126086400D01*
X170832557Y-126086400D01*
X170926851Y-126067642D01*
X170972720Y-126058519D01*
X171104753Y-126003829D01*
X171171966Y-125958919D01*
X171223580Y-125924432D01*
X171327194Y-125820817D01*
X171388515Y-125787334D01*
X171414874Y-125784500D01*
X171775024Y-125784500D01*
X171775025Y-125784499D01*
X171818847Y-125775783D01*
X171906487Y-125758351D01*
X171906490Y-125758349D01*
X171906495Y-125758349D01*
X171975342Y-125729832D01*
X172030332Y-125707055D01*
X172030335Y-125707053D01*
X172030338Y-125707052D01*
X172141794Y-125632579D01*
X172236579Y-125537794D01*
X172311052Y-125426338D01*
X172311053Y-125426335D01*
X172311055Y-125426332D01*
X172344778Y-125344916D01*
X172362349Y-125302495D01*
X172365694Y-125285681D01*
X172388499Y-125171027D01*
X172388500Y-125171024D01*
X172388500Y-125036976D01*
X172388499Y-125036972D01*
X172362351Y-124905512D01*
X172362349Y-124905507D01*
X172362349Y-124905505D01*
X172329332Y-124825795D01*
X172321864Y-124756330D01*
X172329333Y-124730892D01*
X172361869Y-124652343D01*
X172361870Y-124652342D01*
X172365518Y-124634000D01*
X172251736Y-124634000D01*
X172184697Y-124614315D01*
X172164055Y-124597681D01*
X172141797Y-124575423D01*
X172141789Y-124575417D01*
X172114379Y-124557102D01*
X172069573Y-124503490D01*
X172060866Y-124434165D01*
X172091020Y-124371138D01*
X172114379Y-124350898D01*
X172136354Y-124336214D01*
X172141794Y-124332579D01*
X172147680Y-124326693D01*
X172164055Y-124310319D01*
X172225378Y-124276834D01*
X172251736Y-124274000D01*
X172365518Y-124274000D01*
X172365518Y-124273999D01*
X172361870Y-124255657D01*
X172361868Y-124255652D01*
X172329333Y-124177106D01*
X172321864Y-124107637D01*
X172329329Y-124082211D01*
X172362349Y-124002495D01*
X172364483Y-123991771D01*
X172388501Y-123871020D01*
X172388962Y-123866342D01*
X172415125Y-123801556D01*
X172472161Y-123761199D01*
X172512364Y-123754501D01*
X172550554Y-123754501D01*
X172550557Y-123754501D01*
X172703285Y-123713577D01*
X172756975Y-123682579D01*
X172756976Y-123682579D01*
X172840209Y-123634524D01*
X172840208Y-123634524D01*
X172840216Y-123634520D01*
X172952020Y-123522716D01*
X172952020Y-123522714D01*
X172962224Y-123512511D01*
X172962227Y-123512506D01*
X174085017Y-122389719D01*
X174146340Y-122356234D01*
X174172698Y-122353400D01*
X174251777Y-122353400D01*
X174318816Y-122373085D01*
X174364571Y-122425889D01*
X174374515Y-122495047D01*
X174364159Y-122529804D01*
X174334427Y-122593563D01*
X174334422Y-122593577D01*
X174277793Y-122804920D01*
X174277793Y-122804924D01*
X174258723Y-123022897D01*
X174258723Y-123022902D01*
X174261784Y-123057889D01*
X174276056Y-123221027D01*
X174277793Y-123240875D01*
X174277793Y-123240879D01*
X174334422Y-123452222D01*
X174334424Y-123452226D01*
X174334425Y-123452230D01*
X174367292Y-123522713D01*
X174426897Y-123650538D01*
X174426898Y-123650539D01*
X174552402Y-123829777D01*
X174707123Y-123984498D01*
X174846656Y-124082200D01*
X174886361Y-124110002D01*
X175037583Y-124180518D01*
X175090022Y-124226690D01*
X175109174Y-124293884D01*
X175088958Y-124360765D01*
X175037583Y-124405282D01*
X174886361Y-124475798D01*
X174886357Y-124475800D01*
X174707121Y-124601302D01*
X174552402Y-124756021D01*
X174426900Y-124935257D01*
X174426898Y-124935261D01*
X174334426Y-125133568D01*
X174334422Y-125133577D01*
X174277793Y-125344920D01*
X174277793Y-125344924D01*
X174258723Y-125562897D01*
X174258723Y-125562902D01*
X174277793Y-125780875D01*
X174277793Y-125780879D01*
X174334422Y-125992222D01*
X174334424Y-125992226D01*
X174334425Y-125992230D01*
X174347303Y-126019847D01*
X174426897Y-126190538D01*
X174426898Y-126190539D01*
X174552402Y-126369777D01*
X174707123Y-126524498D01*
X174886361Y-126650002D01*
X175084670Y-126742475D01*
X175296023Y-126799107D01*
X175478926Y-126815108D01*
X175513998Y-126818177D01*
X175514000Y-126818177D01*
X175514002Y-126818177D01*
X175542254Y-126815705D01*
X175731977Y-126799107D01*
X175943330Y-126742475D01*
X176141639Y-126650002D01*
X176320877Y-126524498D01*
X176475598Y-126369777D01*
X176601102Y-126190539D01*
X176693575Y-125992230D01*
X176750207Y-125780877D01*
X176769277Y-125562900D01*
X176767080Y-125537793D01*
X176759021Y-125445671D01*
X176750207Y-125344923D01*
X176702356Y-125166342D01*
X176693577Y-125133577D01*
X176693576Y-125133576D01*
X176693575Y-125133570D01*
X176601102Y-124935262D01*
X176601100Y-124935259D01*
X176601099Y-124935257D01*
X176475599Y-124756024D01*
X176450467Y-124730892D01*
X176320877Y-124601302D01*
X176141639Y-124475798D01*
X175990414Y-124405281D01*
X175937977Y-124359110D01*
X175918825Y-124291916D01*
X175939041Y-124225035D01*
X175990414Y-124180518D01*
X176141639Y-124110002D01*
X176320877Y-123984498D01*
X176475598Y-123829777D01*
X176601102Y-123650539D01*
X176693575Y-123452230D01*
X176750207Y-123240877D01*
X176768390Y-123033040D01*
X176769277Y-123022902D01*
X176769277Y-123022897D01*
X176762056Y-122940362D01*
X176750207Y-122804923D01*
X176693575Y-122593570D01*
X176601102Y-122395262D01*
X176601100Y-122395259D01*
X176601099Y-122395257D01*
X176475597Y-122216021D01*
X176413386Y-122153810D01*
X176379901Y-122092487D01*
X176384885Y-122022795D01*
X176413384Y-121978450D01*
X176692162Y-121699672D01*
X176753482Y-121666189D01*
X176823173Y-121671173D01*
X176879107Y-121713044D01*
X176903311Y-121775913D01*
X176912977Y-121880228D01*
X176971855Y-122087159D01*
X176971860Y-122087172D01*
X177067751Y-122279746D01*
X177067753Y-122279749D01*
X177067755Y-122279753D01*
X177197409Y-122451444D01*
X177197412Y-122451446D01*
X177197414Y-122451449D01*
X177356402Y-122596385D01*
X177356404Y-122596386D01*
X177356405Y-122596387D01*
X177539326Y-122709647D01*
X177739944Y-122787367D01*
X177883015Y-122814111D01*
X177945295Y-122845779D01*
X177980568Y-122906092D01*
X177977634Y-122975900D01*
X177937425Y-123033040D01*
X177883015Y-123057888D01*
X177739944Y-123084633D01*
X177660848Y-123115275D01*
X177539328Y-123162352D01*
X177539327Y-123162352D01*
X177356402Y-123275614D01*
X177197414Y-123420550D01*
X177197407Y-123420558D01*
X177067760Y-123592239D01*
X177067751Y-123592253D01*
X176971860Y-123784827D01*
X176971855Y-123784840D01*
X176912977Y-123991771D01*
X176893127Y-124205999D01*
X176893127Y-124206000D01*
X176912977Y-124420228D01*
X176971855Y-124627159D01*
X176971860Y-124627172D01*
X177067751Y-124819746D01*
X177067753Y-124819749D01*
X177067755Y-124819753D01*
X177067758Y-124819757D01*
X177067760Y-124819760D01*
X177110243Y-124876017D01*
X177197409Y-124991444D01*
X177197412Y-124991446D01*
X177197414Y-124991449D01*
X177356402Y-125136385D01*
X177356404Y-125136386D01*
X177356405Y-125136387D01*
X177539326Y-125249647D01*
X177739944Y-125327367D01*
X177951427Y-125366900D01*
X177951429Y-125366900D01*
X178166571Y-125366900D01*
X178166573Y-125366900D01*
X178378056Y-125327367D01*
X178578674Y-125249647D01*
X178761595Y-125136387D01*
X178920591Y-124991444D01*
X179050245Y-124819753D01*
X179146144Y-124627162D01*
X179205022Y-124420229D01*
X179224873Y-124206000D01*
X179215977Y-124110001D01*
X179205022Y-123991771D01*
X179172258Y-123876620D01*
X179146144Y-123784838D01*
X179134373Y-123761199D01*
X179050248Y-123592253D01*
X179050247Y-123592252D01*
X179050245Y-123592247D01*
X178920591Y-123420556D01*
X178920587Y-123420552D01*
X178920585Y-123420550D01*
X178761597Y-123275614D01*
X178705491Y-123240875D01*
X178578674Y-123162353D01*
X178378056Y-123084633D01*
X178234983Y-123057888D01*
X178172704Y-123026221D01*
X178137431Y-122965908D01*
X178140365Y-122896100D01*
X178180574Y-122838960D01*
X178234982Y-122814111D01*
X178378056Y-122787367D01*
X178578674Y-122709647D01*
X178761595Y-122596387D01*
X178920591Y-122451444D01*
X179050245Y-122279753D01*
X179146144Y-122087162D01*
X179205022Y-121880229D01*
X179224873Y-121666000D01*
X179210337Y-121509135D01*
X179205022Y-121451771D01*
X179168013Y-121321700D01*
X179146144Y-121244838D01*
X179111598Y-121175461D01*
X179050248Y-121052253D01*
X179050247Y-121052252D01*
X179050245Y-121052247D01*
X178920591Y-120880556D01*
X178920587Y-120880552D01*
X178920585Y-120880550D01*
X178761597Y-120735614D01*
X178672678Y-120680558D01*
X178578674Y-120622353D01*
X178378056Y-120544633D01*
X178234983Y-120517888D01*
X178172704Y-120486221D01*
X178137431Y-120425908D01*
X178140365Y-120356100D01*
X178180574Y-120298960D01*
X178234982Y-120274111D01*
X178378056Y-120247367D01*
X178578674Y-120169647D01*
X178761595Y-120056387D01*
X178920591Y-119911444D01*
X179050245Y-119739753D01*
X179146144Y-119547162D01*
X179205022Y-119340229D01*
X179224873Y-119126000D01*
X179205022Y-118911771D01*
X179146144Y-118704838D01*
X179141814Y-118696143D01*
X179050248Y-118512253D01*
X179050247Y-118512252D01*
X179050245Y-118512247D01*
X178920591Y-118340556D01*
X178920587Y-118340552D01*
X178920585Y-118340550D01*
X178761597Y-118195614D01*
X178654922Y-118129564D01*
X178578674Y-118082353D01*
X178378056Y-118004633D01*
X178234983Y-117977888D01*
X178172704Y-117946221D01*
X178137431Y-117885908D01*
X178140365Y-117816100D01*
X178180574Y-117758960D01*
X178234982Y-117734111D01*
X178378056Y-117707367D01*
X178578674Y-117629647D01*
X178761595Y-117516387D01*
X178920591Y-117371444D01*
X179050245Y-117199753D01*
X179146144Y-117007162D01*
X179205022Y-116800229D01*
X179224873Y-116586000D01*
X179205022Y-116371771D01*
X179146144Y-116164838D01*
X179079270Y-116030538D01*
X179050248Y-115972253D01*
X179050247Y-115972252D01*
X179050245Y-115972247D01*
X178920591Y-115800556D01*
X178920587Y-115800552D01*
X178920585Y-115800550D01*
X178761597Y-115655614D01*
X178705491Y-115620875D01*
X178578674Y-115542353D01*
X178378056Y-115464633D01*
X178234983Y-115437888D01*
X178172704Y-115406221D01*
X178137431Y-115345908D01*
X178140365Y-115276100D01*
X178180574Y-115218960D01*
X178234982Y-115194111D01*
X178378056Y-115167367D01*
X178578674Y-115089647D01*
X178761595Y-114976387D01*
X178920591Y-114831444D01*
X179050245Y-114659753D01*
X179146144Y-114467162D01*
X179205022Y-114260229D01*
X179224873Y-114046000D01*
X179215977Y-113950001D01*
X179205022Y-113831771D01*
X179174027Y-113722837D01*
X179146144Y-113624838D01*
X179142647Y-113617816D01*
X179050248Y-113432253D01*
X179050247Y-113432252D01*
X179050245Y-113432247D01*
X178920591Y-113260556D01*
X178920587Y-113260552D01*
X178920585Y-113260550D01*
X178761597Y-113115614D01*
X178705491Y-113080875D01*
X178578674Y-113002353D01*
X178378056Y-112924633D01*
X178234983Y-112897888D01*
X178172704Y-112866221D01*
X178137431Y-112805908D01*
X178140365Y-112736100D01*
X178180574Y-112678960D01*
X178234982Y-112654111D01*
X178378056Y-112627367D01*
X178578674Y-112549647D01*
X178761595Y-112436387D01*
X178920591Y-112291444D01*
X179050245Y-112119753D01*
X179146144Y-111927162D01*
X179205022Y-111720229D01*
X179224873Y-111506000D01*
X179205022Y-111291771D01*
X179205020Y-111291764D01*
X179204030Y-111286464D01*
X179211059Y-111216949D01*
X179238235Y-111175998D01*
X179803006Y-110611228D01*
X179803011Y-110611224D01*
X179813214Y-110601020D01*
X179813216Y-110601020D01*
X179925020Y-110489216D01*
X179975399Y-110401957D01*
X180004077Y-110352285D01*
X180045001Y-110199557D01*
X180045001Y-110041443D01*
X180045001Y-110033848D01*
X180045000Y-110033830D01*
X180045000Y-101456359D01*
X180045001Y-101456346D01*
X180045001Y-101288245D01*
X180045001Y-101288243D01*
X180004077Y-101135515D01*
X179955966Y-101052185D01*
X179925020Y-100998584D01*
X179813216Y-100886780D01*
X179813215Y-100886779D01*
X179808885Y-100882449D01*
X179808874Y-100882439D01*
X178801754Y-99875319D01*
X178768269Y-99813996D01*
X178773253Y-99744304D01*
X178805897Y-99696001D01*
X178877261Y-99630944D01*
X178920591Y-99591444D01*
X179050245Y-99419753D01*
X179146144Y-99227162D01*
X179205022Y-99020229D01*
X179224873Y-98806000D01*
X179217687Y-98728455D01*
X179205022Y-98591771D01*
X179197249Y-98564452D01*
X179146144Y-98384838D01*
X179141954Y-98376424D01*
X179050248Y-98192253D01*
X179050245Y-98192248D01*
X179050245Y-98192247D01*
X178920591Y-98020556D01*
X178920587Y-98020552D01*
X178920585Y-98020550D01*
X178761597Y-97875614D01*
X178671045Y-97819547D01*
X178578674Y-97762353D01*
X178378056Y-97684633D01*
X178234983Y-97657888D01*
X178172704Y-97626221D01*
X178137431Y-97565908D01*
X178140365Y-97496100D01*
X178180574Y-97438960D01*
X178234982Y-97414111D01*
X178378056Y-97387367D01*
X178578674Y-97309647D01*
X178761595Y-97196387D01*
X178920591Y-97051444D01*
X179050245Y-96879753D01*
X179146144Y-96687162D01*
X179205022Y-96480229D01*
X179224873Y-96266000D01*
X179222290Y-96238130D01*
X179205022Y-96051771D01*
X179184094Y-95978218D01*
X179146144Y-95844838D01*
X179079270Y-95710538D01*
X179050248Y-95652253D01*
X179050247Y-95652252D01*
X179050245Y-95652247D01*
X179044608Y-95644783D01*
X179009083Y-95597739D01*
X178920591Y-95480556D01*
X178920587Y-95480552D01*
X178920585Y-95480550D01*
X178761597Y-95335614D01*
X178705491Y-95300875D01*
X178578674Y-95222353D01*
X178378056Y-95144633D01*
X178234983Y-95117888D01*
X178172704Y-95086221D01*
X178137431Y-95025908D01*
X178140365Y-94956100D01*
X178180574Y-94898960D01*
X178234982Y-94874111D01*
X178378056Y-94847367D01*
X178578674Y-94769647D01*
X178761595Y-94656387D01*
X178920591Y-94511444D01*
X179050245Y-94339753D01*
X179146144Y-94147162D01*
X179205022Y-93940229D01*
X179224873Y-93726000D01*
X179215977Y-93630001D01*
X179205022Y-93511771D01*
X179158930Y-93349777D01*
X179146144Y-93304838D01*
X179079270Y-93170538D01*
X179050248Y-93112253D01*
X179050247Y-93112252D01*
X179050245Y-93112247D01*
X178920591Y-92940556D01*
X178920587Y-92940552D01*
X178920585Y-92940550D01*
X178761597Y-92795614D01*
X178705491Y-92760875D01*
X178578674Y-92682353D01*
X178378056Y-92604633D01*
X178234983Y-92577888D01*
X178172704Y-92546221D01*
X178137431Y-92485908D01*
X178140365Y-92416100D01*
X178180574Y-92358960D01*
X178234982Y-92334111D01*
X178378056Y-92307367D01*
X178578674Y-92229647D01*
X178761595Y-92116387D01*
X178920591Y-91971444D01*
X179050245Y-91799753D01*
X179146144Y-91607162D01*
X179205022Y-91400229D01*
X179224873Y-91186000D01*
X179215977Y-91090001D01*
X179205022Y-90971771D01*
X179158930Y-90809777D01*
X179146144Y-90764838D01*
X179079270Y-90630538D01*
X179050248Y-90572253D01*
X179050247Y-90572252D01*
X179050245Y-90572247D01*
X178920591Y-90400556D01*
X178920587Y-90400552D01*
X178920585Y-90400550D01*
X178761597Y-90255614D01*
X178721811Y-90230979D01*
X178578674Y-90142353D01*
X178378056Y-90064633D01*
X178234983Y-90037888D01*
X178172704Y-90006221D01*
X178137431Y-89945908D01*
X178140365Y-89876100D01*
X178180574Y-89818960D01*
X178234982Y-89794111D01*
X178378056Y-89767367D01*
X178578674Y-89689647D01*
X178761595Y-89576387D01*
X178920591Y-89431444D01*
X179050245Y-89259753D01*
X179146144Y-89067162D01*
X179205022Y-88860229D01*
X179224873Y-88646000D01*
X179215977Y-88550001D01*
X179205022Y-88431771D01*
X179173447Y-88320799D01*
X179146144Y-88224838D01*
X179119435Y-88171200D01*
X179050248Y-88032253D01*
X179050247Y-88032252D01*
X179050245Y-88032247D01*
X178920591Y-87860556D01*
X178920587Y-87860552D01*
X178920585Y-87860550D01*
X178761597Y-87715614D01*
X178684510Y-87667884D01*
X178578674Y-87602353D01*
X178378056Y-87524633D01*
X178234983Y-87497888D01*
X178172704Y-87466221D01*
X178137431Y-87405908D01*
X178140365Y-87336100D01*
X178180574Y-87278960D01*
X178234982Y-87254111D01*
X178378056Y-87227367D01*
X178578674Y-87149647D01*
X178761595Y-87036387D01*
X178920591Y-86891444D01*
X179050245Y-86719753D01*
X179146144Y-86527162D01*
X179205022Y-86320229D01*
X179224873Y-86106000D01*
X179222039Y-86075421D01*
X179205022Y-85891771D01*
X179182655Y-85813161D01*
X179146144Y-85684838D01*
X179079270Y-85550538D01*
X179050248Y-85492253D01*
X179050247Y-85492252D01*
X179050245Y-85492247D01*
X178920591Y-85320556D01*
X178920587Y-85320552D01*
X178920585Y-85320550D01*
X178761597Y-85175614D01*
X178676622Y-85123000D01*
X178578674Y-85062353D01*
X178378056Y-84984633D01*
X178234983Y-84957888D01*
X178172704Y-84926221D01*
X178137431Y-84865908D01*
X178140365Y-84796100D01*
X178180574Y-84738960D01*
X178234982Y-84714111D01*
X178378056Y-84687367D01*
X178578674Y-84609647D01*
X178761595Y-84496387D01*
X178920591Y-84351444D01*
X179050245Y-84179753D01*
X179146144Y-83987162D01*
X179205022Y-83780229D01*
X179224873Y-83566000D01*
X179205840Y-83360603D01*
X179219255Y-83292036D01*
X179267612Y-83241604D01*
X179335558Y-83225321D01*
X179401520Y-83248358D01*
X179403578Y-83249865D01*
X179501665Y-83323293D01*
X179501668Y-83323295D01*
X179501671Y-83323297D01*
X179636517Y-83373591D01*
X179636516Y-83373591D01*
X179643444Y-83374335D01*
X179696127Y-83380000D01*
X180983872Y-83379999D01*
X181043483Y-83373591D01*
X181178331Y-83323296D01*
X181293546Y-83237046D01*
X181379796Y-83121831D01*
X181430091Y-82986983D01*
X181436500Y-82927373D01*
X181436499Y-81664628D01*
X181430091Y-81605017D01*
X181419277Y-81576024D01*
X181379797Y-81470171D01*
X181379795Y-81470168D01*
X181375014Y-81463781D01*
X181293546Y-81354954D01*
X181293542Y-81354951D01*
X181293064Y-81354312D01*
X181268646Y-81288848D01*
X181283497Y-81220575D01*
X181293064Y-81205688D01*
X181293542Y-81205048D01*
X181293546Y-81205046D01*
X181379796Y-81089831D01*
X181430091Y-80954983D01*
X181436500Y-80895373D01*
X181436499Y-79632628D01*
X181430091Y-79573017D01*
X181430091Y-79573016D01*
X181398317Y-79487826D01*
X181390499Y-79444493D01*
X181390499Y-78396129D01*
X181390498Y-78396123D01*
X181384091Y-78336518D01*
X181361270Y-78275333D01*
X181356286Y-78205641D01*
X181361265Y-78188680D01*
X181384091Y-78127483D01*
X181390500Y-78067873D01*
X181390499Y-76872128D01*
X181384091Y-76812517D01*
X181378307Y-76797010D01*
X181333797Y-76677671D01*
X181333793Y-76677664D01*
X181247547Y-76562455D01*
X181247544Y-76562452D01*
X181132335Y-76476206D01*
X181132328Y-76476202D01*
X180997482Y-76425908D01*
X180997483Y-76425908D01*
X180937883Y-76419501D01*
X180937881Y-76419500D01*
X180937873Y-76419500D01*
X180937864Y-76419500D01*
X179742129Y-76419500D01*
X179742123Y-76419501D01*
X179682516Y-76425908D01*
X179547671Y-76476202D01*
X179547664Y-76476206D01*
X179432455Y-76562452D01*
X179432452Y-76562455D01*
X179346206Y-76677664D01*
X179346202Y-76677671D01*
X179304742Y-76788833D01*
X179262871Y-76844767D01*
X179197407Y-76869184D01*
X179188560Y-76869500D01*
X179161669Y-76869500D01*
X179161653Y-76869499D01*
X179154057Y-76869499D01*
X179064735Y-76869499D01*
X178997696Y-76849814D01*
X178951941Y-76797010D01*
X178941997Y-76727852D01*
X178965781Y-76670772D01*
X179049816Y-76559491D01*
X179049821Y-76559483D01*
X179145674Y-76366984D01*
X179204528Y-76160131D01*
X179224370Y-75946000D01*
X179204528Y-75731868D01*
X179145674Y-75525015D01*
X179049821Y-75332517D01*
X179049813Y-75332504D01*
X179039587Y-75318963D01*
X178465400Y-75893151D01*
X178465400Y-75892496D01*
X178437705Y-75789135D01*
X178384201Y-75696464D01*
X178308536Y-75620799D01*
X178215865Y-75567295D01*
X178112504Y-75539600D01*
X178111848Y-75539600D01*
X178683562Y-74967884D01*
X178578447Y-74902801D01*
X178377916Y-74825116D01*
X178166525Y-74785600D01*
X177951475Y-74785600D01*
X177740083Y-74825116D01*
X177740082Y-74825116D01*
X177539551Y-74902802D01*
X177539548Y-74902803D01*
X177434436Y-74967884D01*
X178006153Y-75539600D01*
X178005496Y-75539600D01*
X177902135Y-75567295D01*
X177809464Y-75620799D01*
X177733799Y-75696464D01*
X177680295Y-75789135D01*
X177652600Y-75892496D01*
X177652600Y-75893153D01*
X177078411Y-75318964D01*
X177068179Y-75332515D01*
X176972325Y-75525015D01*
X176913471Y-75731868D01*
X176893629Y-75946000D01*
X176913471Y-76160131D01*
X176972325Y-76366984D01*
X177068182Y-76559489D01*
X177078410Y-76573034D01*
X177078411Y-76573035D01*
X177652600Y-75998846D01*
X177652600Y-75999504D01*
X177680295Y-76102865D01*
X177733799Y-76195536D01*
X177809464Y-76271201D01*
X177902135Y-76324705D01*
X178005496Y-76352400D01*
X178006153Y-76352400D01*
X177434436Y-76924114D01*
X177539545Y-76989195D01*
X177539551Y-76989197D01*
X177740082Y-77066883D01*
X177884374Y-77093856D01*
X177946655Y-77125524D01*
X177981928Y-77185836D01*
X177978994Y-77255644D01*
X177938786Y-77312785D01*
X177884375Y-77337634D01*
X177812841Y-77351006D01*
X177739944Y-77364633D01*
X177613075Y-77413782D01*
X177539328Y-77442352D01*
X177539327Y-77442352D01*
X177356402Y-77555614D01*
X177197414Y-77700550D01*
X177197407Y-77700558D01*
X177067760Y-77872239D01*
X177067751Y-77872253D01*
X176971860Y-78064827D01*
X176971855Y-78064840D01*
X176934552Y-78195946D01*
X176897272Y-78255039D01*
X176833963Y-78284596D01*
X176764723Y-78275234D01*
X176727605Y-78249692D01*
X176595335Y-78117422D01*
X176561850Y-78056099D01*
X176566834Y-77986407D01*
X176581441Y-77958617D01*
X176601102Y-77930539D01*
X176693575Y-77732230D01*
X176750207Y-77520877D01*
X176768412Y-77312785D01*
X176769277Y-77302902D01*
X176769277Y-77302897D01*
X176764291Y-77245908D01*
X176750207Y-77084923D01*
X176693575Y-76873570D01*
X176601102Y-76675262D01*
X176601100Y-76675259D01*
X176601099Y-76675257D01*
X176475599Y-76496024D01*
X176399075Y-76419500D01*
X176320877Y-76341302D01*
X176182978Y-76244744D01*
X176141638Y-76215797D01*
X176022469Y-76160228D01*
X175943330Y-76123325D01*
X175943326Y-76123324D01*
X175943322Y-76123322D01*
X175731977Y-76066693D01*
X175514002Y-76047623D01*
X175513998Y-76047623D01*
X175368682Y-76060336D01*
X175296023Y-76066693D01*
X175296020Y-76066693D01*
X175084677Y-76123322D01*
X175084668Y-76123326D01*
X174886361Y-76215798D01*
X174886357Y-76215800D01*
X174707121Y-76341302D01*
X174552402Y-76496021D01*
X174426900Y-76675257D01*
X174426898Y-76675261D01*
X174334426Y-76873568D01*
X174334422Y-76873577D01*
X174277793Y-77084920D01*
X174277793Y-77084923D01*
X174275870Y-77106900D01*
X174258723Y-77302897D01*
X174258723Y-77302902D01*
X174277793Y-77520875D01*
X174277793Y-77520879D01*
X174334422Y-77732222D01*
X174334424Y-77732226D01*
X174334425Y-77732230D01*
X174337237Y-77738260D01*
X174347729Y-77807338D01*
X174319209Y-77871122D01*
X174260733Y-77909361D01*
X174249047Y-77912282D01*
X174179685Y-77926079D01*
X174179679Y-77926081D01*
X174047648Y-77980770D01*
X173928817Y-78060169D01*
X170125828Y-81863158D01*
X170064505Y-81896643D01*
X170063929Y-81896767D01*
X169953896Y-81920156D01*
X169953892Y-81920157D01*
X169780970Y-81997148D01*
X169780965Y-81997151D01*
X169627829Y-82108411D01*
X169501166Y-82249085D01*
X169406521Y-82413015D01*
X169406518Y-82413022D01*
X169369239Y-82527756D01*
X169348026Y-82593044D01*
X169332491Y-82740853D01*
X169329274Y-82771462D01*
X169302689Y-82836076D01*
X169245392Y-82876061D01*
X169205953Y-82882500D01*
X166517286Y-82882500D01*
X166450247Y-82862815D01*
X166425136Y-82841472D01*
X166366493Y-82776343D01*
X166312171Y-82716012D01*
X166312170Y-82716011D01*
X166159034Y-82604751D01*
X166159029Y-82604748D01*
X165986107Y-82527757D01*
X165986102Y-82527755D01*
X165840301Y-82496765D01*
X165800946Y-82488400D01*
X165611654Y-82488400D01*
X165579197Y-82495298D01*
X165426497Y-82527755D01*
X165426492Y-82527757D01*
X165253570Y-82604748D01*
X165253565Y-82604751D01*
X165100429Y-82716011D01*
X164973766Y-82856685D01*
X164879121Y-83020615D01*
X164879118Y-83020622D01*
X164820627Y-83200640D01*
X164820626Y-83200644D01*
X164800840Y-83388900D01*
X164820626Y-83577156D01*
X164820627Y-83577159D01*
X164879118Y-83757177D01*
X164879121Y-83757184D01*
X164973767Y-83921116D01*
X165078825Y-84037794D01*
X165100429Y-84061788D01*
X165253565Y-84173048D01*
X165253570Y-84173051D01*
X165426492Y-84250042D01*
X165426497Y-84250044D01*
X165611654Y-84289400D01*
X165611655Y-84289400D01*
X165800944Y-84289400D01*
X165800946Y-84289400D01*
X165986103Y-84250044D01*
X166159030Y-84173051D01*
X166237523Y-84116023D01*
X166249692Y-84107182D01*
X166315498Y-84083702D01*
X166322577Y-84083500D01*
X174336973Y-84083500D01*
X174404012Y-84103185D01*
X174449767Y-84155989D01*
X174459711Y-84225147D01*
X174438549Y-84278622D01*
X174426899Y-84295259D01*
X174426898Y-84295261D01*
X174400697Y-84351449D01*
X174335132Y-84492055D01*
X174334426Y-84493568D01*
X174334422Y-84493577D01*
X174277793Y-84704920D01*
X174277793Y-84704924D01*
X174258723Y-84922897D01*
X174258723Y-84922902D01*
X174259610Y-84933040D01*
X174272001Y-85074678D01*
X174277793Y-85140875D01*
X174277793Y-85140879D01*
X174334422Y-85352222D01*
X174334424Y-85352226D01*
X174334425Y-85352230D01*
X174363094Y-85413711D01*
X174426897Y-85550538D01*
X174426898Y-85550539D01*
X174552402Y-85729777D01*
X174707123Y-85884498D01*
X174886360Y-86010001D01*
X174886361Y-86010002D01*
X175037583Y-86080518D01*
X175090022Y-86126690D01*
X175109174Y-86193884D01*
X175088958Y-86260765D01*
X175037583Y-86305282D01*
X174886361Y-86375798D01*
X174886357Y-86375800D01*
X174707121Y-86501302D01*
X174552402Y-86656021D01*
X174426900Y-86835257D01*
X174426898Y-86835261D01*
X174334426Y-87033568D01*
X174334422Y-87033577D01*
X174277793Y-87244920D01*
X174277793Y-87244924D01*
X174258723Y-87462897D01*
X174258723Y-87462902D01*
X174277793Y-87680875D01*
X174277793Y-87680879D01*
X174334422Y-87892222D01*
X174334424Y-87892226D01*
X174334425Y-87892230D01*
X174357634Y-87942001D01*
X174426897Y-88090538D01*
X174426898Y-88090539D01*
X174552402Y-88269777D01*
X174707123Y-88424498D01*
X174871330Y-88539477D01*
X174886361Y-88550002D01*
X175037583Y-88620518D01*
X175090022Y-88666690D01*
X175109174Y-88733884D01*
X175088958Y-88800765D01*
X175037583Y-88845282D01*
X174886361Y-88915798D01*
X174886357Y-88915800D01*
X174707121Y-89041302D01*
X174552402Y-89196021D01*
X174426900Y-89375257D01*
X174426898Y-89375261D01*
X174334426Y-89573568D01*
X174334422Y-89573577D01*
X174277793Y-89784920D01*
X174277793Y-89784924D01*
X174258723Y-90002897D01*
X174258723Y-90002902D01*
X174277793Y-90220875D01*
X174277793Y-90220879D01*
X174334422Y-90432222D01*
X174334424Y-90432226D01*
X174334425Y-90432230D01*
X174355447Y-90477311D01*
X174426897Y-90630538D01*
X174426898Y-90630539D01*
X174552402Y-90809777D01*
X174707123Y-90964498D01*
X174886360Y-91090001D01*
X174886361Y-91090002D01*
X175037583Y-91160518D01*
X175090022Y-91206690D01*
X175109174Y-91273884D01*
X175088958Y-91340765D01*
X175037583Y-91385282D01*
X174886361Y-91455798D01*
X174886357Y-91455800D01*
X174707121Y-91581302D01*
X174552402Y-91736021D01*
X174426900Y-91915257D01*
X174426898Y-91915261D01*
X174334426Y-92113568D01*
X174334422Y-92113577D01*
X174277793Y-92324920D01*
X174277793Y-92324924D01*
X174258723Y-92542897D01*
X174258723Y-92542902D01*
X174277793Y-92760875D01*
X174277793Y-92760879D01*
X174334422Y-92972222D01*
X174334424Y-92972226D01*
X174334425Y-92972230D01*
X174370068Y-93048666D01*
X174426897Y-93170538D01*
X174426898Y-93170539D01*
X174552402Y-93349777D01*
X174707123Y-93504498D01*
X174886360Y-93630001D01*
X174886361Y-93630002D01*
X175037583Y-93700518D01*
X175090022Y-93746690D01*
X175109174Y-93813884D01*
X175088958Y-93880765D01*
X175037583Y-93925282D01*
X174886361Y-93995798D01*
X174886357Y-93995800D01*
X174707121Y-94121302D01*
X174552402Y-94276021D01*
X174426900Y-94455257D01*
X174426898Y-94455261D01*
X174334426Y-94653568D01*
X174334422Y-94653577D01*
X174277793Y-94864920D01*
X174277793Y-94864924D01*
X174258723Y-95082897D01*
X174258723Y-95082902D01*
X174277793Y-95300875D01*
X174277793Y-95300879D01*
X174334423Y-95512226D01*
X174335319Y-95514686D01*
X174335392Y-95515842D01*
X174335826Y-95517460D01*
X174335500Y-95517547D01*
X174339754Y-95584415D01*
X174305786Y-95645472D01*
X174244201Y-95678472D01*
X174174550Y-95672938D01*
X174131118Y-95644783D01*
X173466090Y-94979755D01*
X173466088Y-94979752D01*
X173347217Y-94860881D01*
X173347209Y-94860875D01*
X173226293Y-94791065D01*
X173226290Y-94791064D01*
X173210283Y-94781822D01*
X173210282Y-94781821D01*
X173184332Y-94774868D01*
X173124672Y-94738503D01*
X173094144Y-94675655D01*
X173093107Y-94642129D01*
X173095160Y-94622600D01*
X173075374Y-94434344D01*
X173016879Y-94254316D01*
X172922233Y-94090384D01*
X172795571Y-93949712D01*
X172782519Y-93940229D01*
X172642434Y-93838451D01*
X172642429Y-93838448D01*
X172469507Y-93761457D01*
X172469502Y-93761455D01*
X172302694Y-93726000D01*
X172284346Y-93722100D01*
X172095054Y-93722100D01*
X172076706Y-93726000D01*
X171909897Y-93761455D01*
X171909892Y-93761457D01*
X171736970Y-93838448D01*
X171736965Y-93838451D01*
X171583829Y-93949711D01*
X171457166Y-94090385D01*
X171362521Y-94254315D01*
X171362518Y-94254322D01*
X171304027Y-94434340D01*
X171304026Y-94434344D01*
X171284240Y-94622600D01*
X171283561Y-94629063D01*
X171280755Y-94628768D01*
X171264555Y-94683939D01*
X171211751Y-94729694D01*
X171160240Y-94740900D01*
X169807643Y-94740900D01*
X169654914Y-94781823D01*
X169638910Y-94791064D01*
X169638907Y-94791065D01*
X169517990Y-94860875D01*
X169517982Y-94860881D01*
X168080482Y-96298382D01*
X168019159Y-96331867D01*
X167949467Y-96326883D01*
X167893534Y-96285011D01*
X167869117Y-96219547D01*
X167868801Y-96210701D01*
X167868801Y-96098544D01*
X167865981Y-96088020D01*
X167827877Y-95945816D01*
X167825616Y-95941900D01*
X167748824Y-95808890D01*
X167748818Y-95808882D01*
X167660564Y-95720628D01*
X167627079Y-95659305D01*
X167632063Y-95589613D01*
X167673935Y-95533680D01*
X167675270Y-95532694D01*
X167679271Y-95529788D01*
X167805933Y-95389116D01*
X167900579Y-95225184D01*
X167959074Y-95045156D01*
X167978860Y-94856900D01*
X167959074Y-94668644D01*
X167900579Y-94488616D01*
X167805933Y-94324684D01*
X167679271Y-94184012D01*
X167679270Y-94184011D01*
X167526134Y-94072751D01*
X167526129Y-94072748D01*
X167353207Y-93995757D01*
X167353202Y-93995755D01*
X167207401Y-93964765D01*
X167168046Y-93956400D01*
X166978754Y-93956400D01*
X166946297Y-93963298D01*
X166793597Y-93995755D01*
X166793592Y-93995757D01*
X166620670Y-94072748D01*
X166620665Y-94072751D01*
X166467529Y-94184011D01*
X166467528Y-94184012D01*
X166392174Y-94267701D01*
X166332688Y-94304349D01*
X166262831Y-94303018D01*
X166212346Y-94272411D01*
X166074216Y-94134281D01*
X166040734Y-94072960D01*
X166037900Y-94046602D01*
X166037900Y-90234259D01*
X166037901Y-90234246D01*
X166037901Y-90066145D01*
X166037901Y-90066143D01*
X165996977Y-89913415D01*
X165955490Y-89841558D01*
X165922793Y-89784924D01*
X165917921Y-89776485D01*
X165801785Y-89660349D01*
X165801774Y-89660339D01*
X164312635Y-88171200D01*
X171751440Y-88171200D01*
X171771226Y-88359456D01*
X171771227Y-88359459D01*
X171829718Y-88539477D01*
X171829721Y-88539484D01*
X171924367Y-88703416D01*
X171981342Y-88766693D01*
X172051029Y-88844088D01*
X172204165Y-88955348D01*
X172204170Y-88955351D01*
X172377092Y-89032342D01*
X172377097Y-89032344D01*
X172562254Y-89071700D01*
X172562255Y-89071700D01*
X172751544Y-89071700D01*
X172751546Y-89071700D01*
X172936703Y-89032344D01*
X173109630Y-88955351D01*
X173262771Y-88844088D01*
X173389433Y-88703416D01*
X173484079Y-88539484D01*
X173542574Y-88359456D01*
X173562360Y-88171200D01*
X173542574Y-87982944D01*
X173484079Y-87802916D01*
X173389433Y-87638984D01*
X173262771Y-87498312D01*
X173262770Y-87498311D01*
X173109634Y-87387051D01*
X173109629Y-87387048D01*
X172936707Y-87310057D01*
X172936702Y-87310055D01*
X172779567Y-87276656D01*
X172751546Y-87270700D01*
X172562254Y-87270700D01*
X172534233Y-87276656D01*
X172377097Y-87310055D01*
X172377092Y-87310057D01*
X172204170Y-87387048D01*
X172204165Y-87387051D01*
X172051029Y-87498311D01*
X171924366Y-87638985D01*
X171829721Y-87802915D01*
X171829718Y-87802922D01*
X171784529Y-87942001D01*
X171771226Y-87982944D01*
X171751440Y-88171200D01*
X164312635Y-88171200D01*
X164026630Y-87885195D01*
X163993145Y-87823872D01*
X163998129Y-87754180D01*
X164022158Y-87714545D01*
X164106733Y-87620616D01*
X164201379Y-87456684D01*
X164259874Y-87276656D01*
X164279660Y-87088400D01*
X164259874Y-86900144D01*
X164201379Y-86720116D01*
X164163407Y-86654347D01*
X164146935Y-86586449D01*
X164163406Y-86530353D01*
X164206979Y-86454884D01*
X164265474Y-86274856D01*
X164285260Y-86086600D01*
X164265474Y-85898344D01*
X164206979Y-85718316D01*
X164112333Y-85554384D01*
X163985671Y-85413712D01*
X163985670Y-85413711D01*
X163832534Y-85302451D01*
X163832529Y-85302448D01*
X163659607Y-85225457D01*
X163659602Y-85225455D01*
X163513801Y-85194465D01*
X163474446Y-85186100D01*
X163285154Y-85186100D01*
X163252697Y-85192998D01*
X163099997Y-85225455D01*
X163099992Y-85225457D01*
X162927070Y-85302448D01*
X162927065Y-85302451D01*
X162773929Y-85413711D01*
X162647266Y-85554385D01*
X162552621Y-85718315D01*
X162552618Y-85718322D01*
X162494127Y-85898340D01*
X162494126Y-85898344D01*
X162482391Y-86010001D01*
X162478089Y-86050933D01*
X162451504Y-86115547D01*
X162394207Y-86155532D01*
X162324388Y-86158192D01*
X162267087Y-86125652D01*
X162015919Y-85874484D01*
X161982434Y-85813161D01*
X161979600Y-85786803D01*
X161979600Y-84556860D01*
X161979601Y-84556847D01*
X161979601Y-84388744D01*
X161969608Y-84351449D01*
X161938677Y-84236016D01*
X161906190Y-84179746D01*
X161859624Y-84099090D01*
X161859618Y-84099082D01*
X161180636Y-83420100D01*
X161147151Y-83358777D01*
X161152135Y-83289085D01*
X161180635Y-83244738D01*
X161235598Y-83189777D01*
X161361102Y-83010539D01*
X161453575Y-82812230D01*
X161510207Y-82600877D01*
X161529277Y-82382900D01*
X161510207Y-82164923D01*
X161463768Y-81991611D01*
X161453577Y-81953577D01*
X161453576Y-81953576D01*
X161453575Y-81953570D01*
X161361102Y-81755262D01*
X161361100Y-81755259D01*
X161361099Y-81755257D01*
X161235599Y-81576024D01*
X161191284Y-81531709D01*
X161080877Y-81421302D01*
X160901639Y-81295798D01*
X160750414Y-81225281D01*
X160697977Y-81179110D01*
X160678825Y-81111916D01*
X160699041Y-81045035D01*
X160750414Y-81000518D01*
X160901639Y-80930002D01*
X161080877Y-80804498D01*
X161235598Y-80649777D01*
X161361102Y-80470539D01*
X161453575Y-80272230D01*
X161510207Y-80060877D01*
X161527335Y-79865100D01*
X161529277Y-79842902D01*
X161529277Y-79842897D01*
X161523466Y-79776477D01*
X161510207Y-79624923D01*
X161453575Y-79413570D01*
X161361102Y-79215262D01*
X161361100Y-79215259D01*
X161361099Y-79215257D01*
X161235599Y-79036024D01*
X161183453Y-78983878D01*
X161080877Y-78881302D01*
X160901639Y-78755798D01*
X160750414Y-78685281D01*
X160697977Y-78639110D01*
X160678825Y-78571916D01*
X160699041Y-78505035D01*
X160750414Y-78460518D01*
X160901639Y-78390002D01*
X161080877Y-78264498D01*
X161235598Y-78109777D01*
X161361102Y-77930539D01*
X161453575Y-77732230D01*
X161510207Y-77520877D01*
X161528412Y-77312785D01*
X161529277Y-77302902D01*
X161529277Y-77302897D01*
X161524291Y-77245908D01*
X161510207Y-77084923D01*
X161453575Y-76873570D01*
X161361102Y-76675262D01*
X161361100Y-76675259D01*
X161361099Y-76675257D01*
X161235599Y-76496024D01*
X161159075Y-76419500D01*
X161080877Y-76341302D01*
X160942978Y-76244744D01*
X160901638Y-76215797D01*
X160782469Y-76160228D01*
X160703330Y-76123325D01*
X160703326Y-76123324D01*
X160703322Y-76123322D01*
X160491977Y-76066693D01*
X160274002Y-76047623D01*
X160273998Y-76047623D01*
X160128682Y-76060336D01*
X160056023Y-76066693D01*
X160056020Y-76066693D01*
X159844677Y-76123322D01*
X159844668Y-76123326D01*
X159646361Y-76215798D01*
X159646357Y-76215800D01*
X159467121Y-76341302D01*
X159312402Y-76496021D01*
X159186900Y-76675257D01*
X159186898Y-76675261D01*
X159094426Y-76873568D01*
X159094422Y-76873577D01*
X159037793Y-77084920D01*
X159037793Y-77084923D01*
X159035870Y-77106900D01*
X159018723Y-77302897D01*
X159018723Y-77302902D01*
X159037793Y-77520875D01*
X159037793Y-77520879D01*
X159094422Y-77732222D01*
X159094424Y-77732226D01*
X159094425Y-77732230D01*
X159140661Y-77831384D01*
X159186897Y-77930538D01*
X159186898Y-77930539D01*
X159312402Y-78109777D01*
X159467123Y-78264498D01*
X159646360Y-78390001D01*
X159646361Y-78390002D01*
X159797583Y-78460518D01*
X159850022Y-78506690D01*
X159869174Y-78573884D01*
X159848958Y-78640765D01*
X159797583Y-78685282D01*
X159646361Y-78755798D01*
X159646357Y-78755800D01*
X159467121Y-78881302D01*
X159312402Y-79036021D01*
X159186900Y-79215257D01*
X159186898Y-79215261D01*
X159094426Y-79413568D01*
X159094422Y-79413577D01*
X159037793Y-79624920D01*
X159037793Y-79624924D01*
X159018723Y-79842897D01*
X159018723Y-79842902D01*
X159037793Y-80060875D01*
X159037793Y-80060879D01*
X159094422Y-80272222D01*
X159094424Y-80272226D01*
X159094425Y-80272230D01*
X159123907Y-80335455D01*
X159186897Y-80470538D01*
X159211998Y-80506386D01*
X159312402Y-80649777D01*
X159467123Y-80804498D01*
X159646360Y-80930001D01*
X159646361Y-80930002D01*
X159797583Y-81000518D01*
X159850022Y-81046690D01*
X159869174Y-81113884D01*
X159848958Y-81180765D01*
X159797583Y-81225282D01*
X159646361Y-81295798D01*
X159646357Y-81295800D01*
X159467121Y-81421302D01*
X159312405Y-81576018D01*
X159197816Y-81739668D01*
X159143239Y-81783293D01*
X159073740Y-81790485D01*
X159011386Y-81758963D01*
X159008560Y-81756225D01*
X158847131Y-81594796D01*
X158813646Y-81533473D01*
X158818630Y-81463781D01*
X158823807Y-81451854D01*
X158826144Y-81447162D01*
X158885022Y-81240229D01*
X158904873Y-81026000D01*
X158901033Y-80984564D01*
X158885022Y-80811771D01*
X158838930Y-80649777D01*
X158826144Y-80604838D01*
X158789058Y-80530360D01*
X158730248Y-80412253D01*
X158730247Y-80412252D01*
X158730245Y-80412247D01*
X158600591Y-80240556D01*
X158600587Y-80240552D01*
X158600585Y-80240550D01*
X158441597Y-80095614D01*
X158371261Y-80052064D01*
X158258674Y-79982353D01*
X158058056Y-79904633D01*
X157914983Y-79877888D01*
X157852704Y-79846221D01*
X157817431Y-79785908D01*
X157820365Y-79716100D01*
X157860574Y-79658960D01*
X157914982Y-79634111D01*
X158058056Y-79607367D01*
X158258674Y-79529647D01*
X158441595Y-79416387D01*
X158600591Y-79271444D01*
X158730245Y-79099753D01*
X158826144Y-78907162D01*
X158885022Y-78700229D01*
X158904873Y-78486000D01*
X158895977Y-78390001D01*
X158885022Y-78271771D01*
X158853447Y-78160798D01*
X158826144Y-78064838D01*
X158823819Y-78060169D01*
X158730248Y-77872253D01*
X158730247Y-77872252D01*
X158730245Y-77872247D01*
X158600591Y-77700556D01*
X158600587Y-77700552D01*
X158600585Y-77700550D01*
X158441597Y-77555614D01*
X158385491Y-77520875D01*
X158258674Y-77442353D01*
X158058056Y-77364633D01*
X157914983Y-77337888D01*
X157852704Y-77306221D01*
X157817431Y-77245908D01*
X157820365Y-77176100D01*
X157860574Y-77118960D01*
X157914982Y-77094111D01*
X158058056Y-77067367D01*
X158258674Y-76989647D01*
X158441595Y-76876387D01*
X158600591Y-76731444D01*
X158730245Y-76559753D01*
X158826144Y-76367162D01*
X158885022Y-76160229D01*
X158904873Y-75946000D01*
X158890337Y-75789135D01*
X158885022Y-75731771D01*
X158853447Y-75620799D01*
X158826144Y-75524838D01*
X158730245Y-75332247D01*
X158600591Y-75160556D01*
X158600587Y-75160552D01*
X158600585Y-75160550D01*
X158441597Y-75015614D01*
X158364510Y-74967884D01*
X158258674Y-74902353D01*
X158058056Y-74824633D01*
X157846573Y-74785100D01*
X157631427Y-74785100D01*
X157419944Y-74824633D01*
X157293075Y-74873782D01*
X157219328Y-74902352D01*
X157219327Y-74902352D01*
X157036402Y-75015614D01*
X156877414Y-75160550D01*
X156877407Y-75160558D01*
X156747760Y-75332239D01*
X156747751Y-75332253D01*
X156651860Y-75524827D01*
X156651855Y-75524840D01*
X156592977Y-75731771D01*
X156573127Y-75945999D01*
X156573127Y-75946000D01*
X156592978Y-76160236D01*
X156593970Y-76165540D01*
X156586937Y-76235054D01*
X156559762Y-76276001D01*
X154295186Y-78540578D01*
X154183381Y-78652382D01*
X154183379Y-78652384D01*
X154177063Y-78663325D01*
X154155757Y-78700229D01*
X154104323Y-78789315D01*
X154063399Y-78942043D01*
X154063399Y-78942045D01*
X154063399Y-79110146D01*
X154063400Y-79110159D01*
X154063400Y-86846930D01*
X154063399Y-86846948D01*
X154063399Y-87012654D01*
X154063398Y-87012654D01*
X154104323Y-87165385D01*
X154133258Y-87215500D01*
X154133259Y-87215504D01*
X154133260Y-87215504D01*
X154168565Y-87276656D01*
X154183379Y-87302314D01*
X154183381Y-87302317D01*
X154302249Y-87421185D01*
X154302255Y-87421190D01*
X156997030Y-90115966D01*
X157030515Y-90177289D01*
X157025531Y-90246981D01*
X156992887Y-90295284D01*
X156877414Y-90400550D01*
X156877407Y-90400558D01*
X156747760Y-90572239D01*
X156747751Y-90572253D01*
X156651860Y-90764827D01*
X156651855Y-90764840D01*
X156592977Y-90971771D01*
X156573127Y-91185999D01*
X156573127Y-91186000D01*
X156592977Y-91400228D01*
X156651855Y-91607159D01*
X156651860Y-91607172D01*
X156747751Y-91799746D01*
X156747753Y-91799749D01*
X156747755Y-91799753D01*
X156877409Y-91971444D01*
X156877412Y-91971446D01*
X156877414Y-91971449D01*
X157036402Y-92116385D01*
X157036404Y-92116386D01*
X157036405Y-92116387D01*
X157219326Y-92229647D01*
X157419944Y-92307367D01*
X157563015Y-92334111D01*
X157625295Y-92365779D01*
X157660568Y-92426092D01*
X157657634Y-92495900D01*
X157617425Y-92553040D01*
X157563015Y-92577888D01*
X157419944Y-92604633D01*
X157293075Y-92653782D01*
X157219328Y-92682352D01*
X157219327Y-92682352D01*
X157036402Y-92795614D01*
X156877414Y-92940550D01*
X156877407Y-92940558D01*
X156747760Y-93112239D01*
X156747751Y-93112253D01*
X156651860Y-93304827D01*
X156651855Y-93304840D01*
X156592977Y-93511771D01*
X156573127Y-93725999D01*
X156573127Y-93726000D01*
X156592977Y-93940228D01*
X156651855Y-94147159D01*
X156651860Y-94147172D01*
X156747751Y-94339746D01*
X156747753Y-94339749D01*
X156747755Y-94339753D01*
X156877409Y-94511444D01*
X156877412Y-94511446D01*
X156877414Y-94511449D01*
X157036402Y-94656385D01*
X157036404Y-94656386D01*
X157036405Y-94656387D01*
X157219326Y-94769647D01*
X157419944Y-94847367D01*
X157563015Y-94874111D01*
X157625295Y-94905779D01*
X157660568Y-94966092D01*
X157657634Y-95035900D01*
X157617425Y-95093040D01*
X157563015Y-95117888D01*
X157419944Y-95144633D01*
X157302436Y-95190156D01*
X157219328Y-95222352D01*
X157219327Y-95222352D01*
X157036402Y-95335614D01*
X156877414Y-95480550D01*
X156877407Y-95480558D01*
X156747760Y-95652239D01*
X156747751Y-95652253D01*
X156651860Y-95844827D01*
X156651855Y-95844840D01*
X156592977Y-96051771D01*
X156573127Y-96265999D01*
X156573127Y-96266000D01*
X156592977Y-96480228D01*
X156651855Y-96687159D01*
X156651860Y-96687172D01*
X156747751Y-96879746D01*
X156747753Y-96879749D01*
X156747755Y-96879753D01*
X156747758Y-96879757D01*
X156747760Y-96879760D01*
X156777248Y-96918808D01*
X156877409Y-97051444D01*
X156877412Y-97051446D01*
X156877414Y-97051449D01*
X157036402Y-97196385D01*
X157036404Y-97196386D01*
X157036405Y-97196387D01*
X157219326Y-97309647D01*
X157419944Y-97387367D01*
X157563015Y-97414111D01*
X157625295Y-97445779D01*
X157660568Y-97506092D01*
X157657634Y-97575900D01*
X157617425Y-97633040D01*
X157563015Y-97657888D01*
X157419944Y-97684633D01*
X157406119Y-97689989D01*
X157219328Y-97762352D01*
X157219327Y-97762352D01*
X157036402Y-97875614D01*
X156877414Y-98020550D01*
X156877407Y-98020558D01*
X156747760Y-98192239D01*
X156747751Y-98192253D01*
X156651860Y-98384827D01*
X156651855Y-98384840D01*
X156592977Y-98591771D01*
X156573127Y-98805999D01*
X156573127Y-98806000D01*
X156592977Y-99020228D01*
X156651855Y-99227159D01*
X156651860Y-99227172D01*
X156747751Y-99419746D01*
X156747753Y-99419749D01*
X156747755Y-99419753D01*
X156747758Y-99419757D01*
X156747760Y-99419760D01*
X156809007Y-99500865D01*
X156877409Y-99591444D01*
X156877412Y-99591446D01*
X156877414Y-99591449D01*
X157036402Y-99736385D01*
X157036404Y-99736386D01*
X157036405Y-99736387D01*
X157219326Y-99849647D01*
X157419944Y-99927367D01*
X157563015Y-99954111D01*
X157625295Y-99985779D01*
X157660568Y-100046092D01*
X157657634Y-100115900D01*
X157617425Y-100173040D01*
X157563015Y-100197888D01*
X157419944Y-100224633D01*
X157293075Y-100273782D01*
X157219328Y-100302352D01*
X157219327Y-100302352D01*
X157036402Y-100415614D01*
X156877414Y-100560550D01*
X156877407Y-100560558D01*
X156747760Y-100732239D01*
X156747751Y-100732253D01*
X156651860Y-100924827D01*
X156651855Y-100924840D01*
X156592977Y-101131771D01*
X156573127Y-101345999D01*
X156573127Y-101346000D01*
X156592977Y-101560227D01*
X156608175Y-101613642D01*
X156642012Y-101732567D01*
X156641427Y-101802432D01*
X156603160Y-101860891D01*
X156539363Y-101889382D01*
X156522747Y-101890500D01*
X156465243Y-101890500D01*
X156325085Y-101918379D01*
X156325079Y-101918381D01*
X156193047Y-101973070D01*
X156074220Y-102052467D01*
X156074217Y-102052470D01*
X156073907Y-102052781D01*
X156073704Y-102052891D01*
X156069511Y-102056333D01*
X156068857Y-102055537D01*
X156012580Y-102086259D01*
X155942889Y-102081267D01*
X155911925Y-102064357D01*
X155882334Y-102042206D01*
X155882328Y-102042202D01*
X155747482Y-101991908D01*
X155747483Y-101991908D01*
X155687883Y-101985501D01*
X155687881Y-101985500D01*
X155687873Y-101985500D01*
X155687864Y-101985500D01*
X154192129Y-101985500D01*
X154192123Y-101985501D01*
X154132516Y-101991908D01*
X153997671Y-102042202D01*
X153997664Y-102042206D01*
X153882455Y-102128452D01*
X153882452Y-102128455D01*
X153796206Y-102243664D01*
X153796202Y-102243671D01*
X153745908Y-102378517D01*
X153739501Y-102438116D01*
X153739500Y-102438135D01*
X153739500Y-103733870D01*
X153739501Y-103733876D01*
X153745908Y-103793483D01*
X153796202Y-103928328D01*
X153796206Y-103928335D01*
X153882452Y-104043544D01*
X153882455Y-104043547D01*
X153997664Y-104129793D01*
X153997671Y-104129797D01*
X154123433Y-104176703D01*
X154179367Y-104218574D01*
X154203784Y-104284038D01*
X154204100Y-104292885D01*
X154204100Y-105788462D01*
X154184415Y-105855501D01*
X154167781Y-105876143D01*
X154029202Y-106014721D01*
X153903700Y-106193957D01*
X153903698Y-106193961D01*
X153811226Y-106392268D01*
X153811222Y-106392277D01*
X153754593Y-106603620D01*
X153754593Y-106603623D01*
X153751390Y-106640236D01*
X153735549Y-106821306D01*
X153735523Y-106821600D01*
X153751163Y-107000376D01*
X153754593Y-107039575D01*
X153754593Y-107039579D01*
X153811222Y-107250922D01*
X153811224Y-107250926D01*
X153811225Y-107250930D01*
X153835560Y-107303116D01*
X153903697Y-107449238D01*
X153903698Y-107449239D01*
X154029202Y-107628477D01*
X154183923Y-107783198D01*
X154363161Y-107908702D01*
X154561470Y-108001175D01*
X154772823Y-108057807D01*
X154954897Y-108073736D01*
X154990798Y-108076877D01*
X154990800Y-108076877D01*
X154990802Y-108076877D01*
X155019054Y-108074405D01*
X155208777Y-108057807D01*
X155420130Y-108001175D01*
X155618439Y-107908702D01*
X155797677Y-107783198D01*
X155952398Y-107628477D01*
X156077902Y-107449239D01*
X156170375Y-107250930D01*
X156227007Y-107039577D01*
X156246077Y-106821600D01*
X156246051Y-106821306D01*
X156240338Y-106756001D01*
X156227007Y-106603623D01*
X156178705Y-106423359D01*
X156170377Y-106392277D01*
X156170376Y-106392276D01*
X156170375Y-106392270D01*
X156077902Y-106193962D01*
X156077900Y-106193959D01*
X156077899Y-106193957D01*
X155952399Y-106014724D01*
X155942502Y-106004827D01*
X155797677Y-105860002D01*
X155797672Y-105859999D01*
X155797669Y-105859996D01*
X155707976Y-105797191D01*
X155664351Y-105742614D01*
X155655100Y-105695617D01*
X155655100Y-105448326D01*
X155674785Y-105381287D01*
X155727589Y-105335532D01*
X155796747Y-105325588D01*
X155841100Y-105340939D01*
X155844182Y-105342718D01*
X155844184Y-105342720D01*
X155918803Y-105385801D01*
X155981115Y-105421777D01*
X156133843Y-105462701D01*
X156133846Y-105462701D01*
X156299553Y-105462701D01*
X156299569Y-105462700D01*
X156762695Y-105462700D01*
X156829734Y-105482385D01*
X156875489Y-105535189D01*
X156885433Y-105604347D01*
X156861649Y-105661425D01*
X156853496Y-105672222D01*
X156747760Y-105812239D01*
X156747751Y-105812253D01*
X156651860Y-106004827D01*
X156651855Y-106004840D01*
X156592977Y-106211771D01*
X156573127Y-106425999D01*
X156573127Y-106426000D01*
X156592977Y-106640228D01*
X156651855Y-106847159D01*
X156651860Y-106847172D01*
X156747751Y-107039746D01*
X156747753Y-107039749D01*
X156747755Y-107039753D01*
X156747758Y-107039757D01*
X156747760Y-107039760D01*
X156781417Y-107084329D01*
X156877409Y-107211444D01*
X156877412Y-107211446D01*
X156877414Y-107211449D01*
X157036402Y-107356385D01*
X157036404Y-107356386D01*
X157036405Y-107356387D01*
X157219326Y-107469647D01*
X157419944Y-107547367D01*
X157563015Y-107574111D01*
X157625295Y-107605779D01*
X157660568Y-107666092D01*
X157657634Y-107735900D01*
X157617425Y-107793040D01*
X157563015Y-107817888D01*
X157419944Y-107844633D01*
X157293075Y-107893782D01*
X157219328Y-107922352D01*
X157219327Y-107922352D01*
X157036402Y-108035614D01*
X156877414Y-108180550D01*
X156877407Y-108180558D01*
X156747760Y-108352239D01*
X156747751Y-108352253D01*
X156651860Y-108544827D01*
X156651855Y-108544840D01*
X156592977Y-108751771D01*
X156573127Y-108965999D01*
X156573127Y-108966000D01*
X156592977Y-109180228D01*
X156651855Y-109387159D01*
X156651860Y-109387172D01*
X156747751Y-109579746D01*
X156747753Y-109579749D01*
X156747755Y-109579753D01*
X156877409Y-109751444D01*
X156877412Y-109751446D01*
X156877414Y-109751449D01*
X157036402Y-109896385D01*
X157036404Y-109896386D01*
X157036405Y-109896387D01*
X157219326Y-110009647D01*
X157419944Y-110087367D01*
X157563015Y-110114111D01*
X157625295Y-110145779D01*
X157660568Y-110206092D01*
X157657634Y-110275900D01*
X157617425Y-110333040D01*
X157563015Y-110357888D01*
X157419944Y-110384633D01*
X157375226Y-110401957D01*
X157219328Y-110462352D01*
X157219327Y-110462352D01*
X157036402Y-110575614D01*
X156877414Y-110720550D01*
X156877407Y-110720558D01*
X156747760Y-110892239D01*
X156747751Y-110892253D01*
X156651860Y-111084827D01*
X156651855Y-111084840D01*
X156592977Y-111291771D01*
X156573127Y-111505999D01*
X156573127Y-111506000D01*
X156592977Y-111720228D01*
X156651855Y-111927159D01*
X156651860Y-111927172D01*
X156747751Y-112119746D01*
X156747753Y-112119749D01*
X156747755Y-112119753D01*
X156747758Y-112119757D01*
X156747760Y-112119760D01*
X156752323Y-112125802D01*
X156877409Y-112291444D01*
X156877412Y-112291446D01*
X156877414Y-112291449D01*
X157036402Y-112436385D01*
X157036404Y-112436386D01*
X157036405Y-112436387D01*
X157219326Y-112549647D01*
X157419944Y-112627367D01*
X157563015Y-112654111D01*
X157625295Y-112685779D01*
X157660568Y-112746092D01*
X157657634Y-112815900D01*
X157617425Y-112873040D01*
X157563015Y-112897888D01*
X157419944Y-112924633D01*
X157293075Y-112973782D01*
X157219328Y-113002352D01*
X157219327Y-113002352D01*
X157036402Y-113115614D01*
X156877414Y-113260550D01*
X156877407Y-113260558D01*
X156747760Y-113432239D01*
X156747751Y-113432253D01*
X156651860Y-113624827D01*
X156651855Y-113624840D01*
X156592977Y-113831771D01*
X156573127Y-114045999D01*
X156573127Y-114046000D01*
X156592977Y-114260228D01*
X156651855Y-114467159D01*
X156651860Y-114467172D01*
X156747751Y-114659746D01*
X156747753Y-114659749D01*
X156747755Y-114659753D01*
X156877409Y-114831444D01*
X156877412Y-114831446D01*
X156877414Y-114831449D01*
X157036402Y-114976385D01*
X157036404Y-114976386D01*
X157036405Y-114976387D01*
X157219326Y-115089647D01*
X157419944Y-115167367D01*
X157563015Y-115194111D01*
X157625295Y-115225779D01*
X157660568Y-115286092D01*
X157657634Y-115355900D01*
X157617425Y-115413040D01*
X157563015Y-115437888D01*
X157419944Y-115464633D01*
X157344302Y-115493937D01*
X157219328Y-115542352D01*
X157219327Y-115542352D01*
X157036402Y-115655614D01*
X156877414Y-115800550D01*
X156877407Y-115800558D01*
X156747760Y-115972239D01*
X156747751Y-115972253D01*
X156651860Y-116164827D01*
X156651855Y-116164840D01*
X156592977Y-116371771D01*
X156573127Y-116585999D01*
X156573127Y-116586000D01*
X156592977Y-116800228D01*
X156651855Y-117007159D01*
X156651860Y-117007172D01*
X156747751Y-117199746D01*
X156747753Y-117199749D01*
X156747755Y-117199753D01*
X156877409Y-117371444D01*
X156877412Y-117371446D01*
X156877414Y-117371449D01*
X157036402Y-117516385D01*
X157036404Y-117516386D01*
X157036405Y-117516387D01*
X157219326Y-117629647D01*
X157419944Y-117707367D01*
X157563015Y-117734111D01*
X157625295Y-117765779D01*
X157660568Y-117826092D01*
X157657634Y-117895900D01*
X157617425Y-117953040D01*
X157563015Y-117977888D01*
X157419944Y-118004633D01*
X157344302Y-118033937D01*
X157219328Y-118082352D01*
X157219327Y-118082352D01*
X157036402Y-118195614D01*
X156877414Y-118340550D01*
X156877407Y-118340558D01*
X156747760Y-118512239D01*
X156747751Y-118512253D01*
X156651860Y-118704827D01*
X156651855Y-118704840D01*
X156592977Y-118911771D01*
X156573127Y-119125999D01*
X156573127Y-119126000D01*
X156592977Y-119340228D01*
X156651855Y-119547159D01*
X156651860Y-119547172D01*
X156747751Y-119739746D01*
X156747753Y-119739749D01*
X156747755Y-119739753D01*
X156877409Y-119911444D01*
X156877412Y-119911446D01*
X156877414Y-119911449D01*
X157036402Y-120056385D01*
X157036404Y-120056386D01*
X157036405Y-120056387D01*
X157219326Y-120169647D01*
X157419944Y-120247367D01*
X157564375Y-120274365D01*
X157626655Y-120306033D01*
X157661928Y-120366346D01*
X157658994Y-120436154D01*
X157618785Y-120493294D01*
X157564374Y-120518143D01*
X157420083Y-120545116D01*
X157420082Y-120545116D01*
X157219551Y-120622802D01*
X157219548Y-120622803D01*
X157114436Y-120687884D01*
X157686153Y-121259600D01*
X157685496Y-121259600D01*
X157582135Y-121287295D01*
X157489464Y-121340799D01*
X157413799Y-121416464D01*
X157360295Y-121509135D01*
X157332600Y-121612496D01*
X157332600Y-121613153D01*
X156758411Y-121038964D01*
X156748179Y-121052515D01*
X156652325Y-121245015D01*
X156593471Y-121451868D01*
X156573629Y-121666000D01*
X156593471Y-121880131D01*
X156652325Y-122086984D01*
X156748178Y-122279483D01*
X156748187Y-122279497D01*
X156829663Y-122387389D01*
X156854355Y-122452750D01*
X156839790Y-122521085D01*
X156818390Y-122549796D01*
X156038871Y-123329315D01*
X156038868Y-123329320D01*
X156002382Y-123383927D01*
X156001141Y-123385784D01*
X156001140Y-123385785D01*
X155959474Y-123448141D01*
X155959469Y-123448149D01*
X155904781Y-123580179D01*
X155904779Y-123580185D01*
X155876900Y-123720342D01*
X155876900Y-125218642D01*
X155857215Y-125285681D01*
X155827215Y-125317905D01*
X155810456Y-125330451D01*
X155810452Y-125330455D01*
X155724206Y-125445664D01*
X155724202Y-125445671D01*
X155673908Y-125580516D01*
X155669347Y-125622941D01*
X155642608Y-125687492D01*
X155585215Y-125727339D01*
X155515390Y-125729832D01*
X155458377Y-125697365D01*
X153161819Y-123400807D01*
X153128334Y-123339484D01*
X153125500Y-123313126D01*
X153125500Y-96305997D01*
X153735523Y-96305997D01*
X153735523Y-96306002D01*
X153754593Y-96523975D01*
X153754593Y-96523979D01*
X153811222Y-96735322D01*
X153811224Y-96735326D01*
X153811225Y-96735330D01*
X153836257Y-96789011D01*
X153903697Y-96933638D01*
X153903698Y-96933639D01*
X154029202Y-97112877D01*
X154029206Y-97112881D01*
X154178181Y-97261856D01*
X154211666Y-97323179D01*
X154214500Y-97349537D01*
X154214500Y-98475235D01*
X154194815Y-98542274D01*
X154142011Y-98588029D01*
X154133834Y-98591417D01*
X153997669Y-98642203D01*
X153997664Y-98642206D01*
X153882455Y-98728452D01*
X153882452Y-98728455D01*
X153796206Y-98843664D01*
X153796202Y-98843671D01*
X153745908Y-98978517D01*
X153739501Y-99038116D01*
X153739501Y-99038123D01*
X153739500Y-99038135D01*
X153739500Y-100333870D01*
X153739501Y-100333876D01*
X153745908Y-100393483D01*
X153796202Y-100528328D01*
X153796206Y-100528335D01*
X153882452Y-100643544D01*
X153882455Y-100643547D01*
X153997664Y-100729793D01*
X153997671Y-100729797D01*
X154132517Y-100780091D01*
X154132516Y-100780091D01*
X154139444Y-100780835D01*
X154192127Y-100786500D01*
X155687872Y-100786499D01*
X155747483Y-100780091D01*
X155882331Y-100729796D01*
X155997546Y-100643546D01*
X156083796Y-100528331D01*
X156134091Y-100393483D01*
X156140500Y-100333873D01*
X156140499Y-99038128D01*
X156134091Y-98978517D01*
X156126459Y-98958055D01*
X156083797Y-98843671D01*
X156083793Y-98843664D01*
X155997547Y-98728455D01*
X155997544Y-98728452D01*
X155882335Y-98642206D01*
X155882330Y-98642203D01*
X155746166Y-98591417D01*
X155690233Y-98549545D01*
X155665816Y-98484081D01*
X155665500Y-98475235D01*
X155665500Y-97424699D01*
X155685185Y-97357660D01*
X155718377Y-97323124D01*
X155719787Y-97322137D01*
X155797677Y-97267598D01*
X155952398Y-97112877D01*
X156077902Y-96933639D01*
X156170375Y-96735330D01*
X156227007Y-96523977D01*
X156246077Y-96306000D01*
X156227007Y-96088023D01*
X156170375Y-95876670D01*
X156077902Y-95678362D01*
X156077900Y-95678359D01*
X156077899Y-95678357D01*
X155952399Y-95499124D01*
X155933825Y-95480550D01*
X155797677Y-95344402D01*
X155659778Y-95247844D01*
X155618438Y-95218897D01*
X155519284Y-95172661D01*
X155420130Y-95126425D01*
X155420126Y-95126424D01*
X155420122Y-95126422D01*
X155208777Y-95069793D01*
X154990802Y-95050723D01*
X154990798Y-95050723D01*
X154845482Y-95063436D01*
X154772823Y-95069793D01*
X154772820Y-95069793D01*
X154561477Y-95126422D01*
X154561468Y-95126426D01*
X154363161Y-95218898D01*
X154363157Y-95218900D01*
X154183921Y-95344402D01*
X154029202Y-95499121D01*
X153903700Y-95678357D01*
X153903698Y-95678361D01*
X153811226Y-95876668D01*
X153811222Y-95876677D01*
X153754593Y-96088020D01*
X153754593Y-96088024D01*
X153735523Y-96305997D01*
X153125500Y-96305997D01*
X153125500Y-95579522D01*
X153142112Y-95517523D01*
X153227179Y-95370184D01*
X153285674Y-95190156D01*
X153305460Y-95001900D01*
X153285674Y-94813644D01*
X153227179Y-94633616D01*
X153132533Y-94469684D01*
X153005871Y-94329012D01*
X153005870Y-94329011D01*
X152852734Y-94217751D01*
X152852729Y-94217748D01*
X152679807Y-94140757D01*
X152679802Y-94140755D01*
X152534001Y-94109765D01*
X152494646Y-94101400D01*
X152305354Y-94101400D01*
X152272897Y-94108298D01*
X152120197Y-94140755D01*
X152120192Y-94140757D01*
X151947270Y-94217748D01*
X151947265Y-94217751D01*
X151794129Y-94329011D01*
X151667466Y-94469685D01*
X151572821Y-94633615D01*
X151572818Y-94633622D01*
X151521662Y-94791065D01*
X151514326Y-94813644D01*
X151494540Y-95001900D01*
X151514326Y-95190156D01*
X151514327Y-95190159D01*
X151572818Y-95370177D01*
X151572821Y-95370184D01*
X151657887Y-95517523D01*
X151674500Y-95579522D01*
X151674500Y-123736455D01*
X151674500Y-123736457D01*
X151674499Y-123736457D01*
X151701266Y-123871015D01*
X151701266Y-123871017D01*
X151702380Y-123876617D01*
X151757070Y-124008651D01*
X151836469Y-124127482D01*
X151836470Y-124127483D01*
X155259307Y-127550319D01*
X155292792Y-127611642D01*
X155287808Y-127681334D01*
X155245936Y-127737267D01*
X155180472Y-127761684D01*
X155171626Y-127762000D01*
X149476000Y-127762000D01*
X149408961Y-127742315D01*
X149363206Y-127689511D01*
X149352000Y-127638000D01*
X149352000Y-74038000D01*
X149371685Y-73970961D01*
X149424489Y-73925206D01*
X149476000Y-73914000D01*
X181740000Y-73914000D01*
X181807039Y-73933685D01*
G37*
G04 #@! TD.AperFunction*
G04 #@! TA.AperFunction,Conductor*
G36*
X168383632Y-121444415D02*
G01*
X168439565Y-121486287D01*
X168458229Y-121522278D01*
X168512719Y-121689980D01*
X168512721Y-121689984D01*
X168607367Y-121853916D01*
X168730979Y-121991201D01*
X168734029Y-121994588D01*
X168887165Y-122105848D01*
X168887170Y-122105851D01*
X169060092Y-122182842D01*
X169060097Y-122182844D01*
X169245254Y-122222200D01*
X169245255Y-122222200D01*
X169434544Y-122222200D01*
X169434546Y-122222200D01*
X169515310Y-122205033D01*
X169584977Y-122210349D01*
X169640711Y-122252486D01*
X169664816Y-122318066D01*
X169662709Y-122350513D01*
X169655887Y-122384811D01*
X169647717Y-122425889D01*
X169647500Y-122426978D01*
X169647500Y-122561027D01*
X169673648Y-122692487D01*
X169673651Y-122692496D01*
X169708466Y-122776547D01*
X169715935Y-122846016D01*
X169708466Y-122871452D01*
X169702457Y-122885959D01*
X169658616Y-122940362D01*
X169592322Y-122962427D01*
X169537462Y-122951786D01*
X169517407Y-122942857D01*
X169517402Y-122942855D01*
X169371601Y-122911865D01*
X169332246Y-122903500D01*
X169142954Y-122903500D01*
X169110497Y-122910398D01*
X168957797Y-122942855D01*
X168957792Y-122942857D01*
X168784870Y-123019848D01*
X168784865Y-123019851D01*
X168631729Y-123131111D01*
X168505066Y-123271785D01*
X168410421Y-123435715D01*
X168410418Y-123435722D01*
X168351927Y-123615740D01*
X168351926Y-123615744D01*
X168332140Y-123804000D01*
X168351926Y-123992256D01*
X168351927Y-123992259D01*
X168410418Y-124172277D01*
X168410421Y-124172284D01*
X168505067Y-124336216D01*
X168565731Y-124403590D01*
X168588095Y-124428428D01*
X168618325Y-124491419D01*
X168609700Y-124560755D01*
X168564958Y-124614420D01*
X168498306Y-124635378D01*
X168495945Y-124635400D01*
X167183474Y-124635400D01*
X167116435Y-124615715D01*
X167095797Y-124599085D01*
X167037180Y-124540468D01*
X166918353Y-124461071D01*
X166901282Y-124454000D01*
X166786320Y-124406381D01*
X166786314Y-124406379D01*
X166728102Y-124394800D01*
X166666191Y-124362415D01*
X166631617Y-124301699D01*
X166630683Y-124297406D01*
X166622349Y-124255505D01*
X166589603Y-124176450D01*
X166582135Y-124106983D01*
X166589601Y-124081554D01*
X166622349Y-124002495D01*
X166648500Y-123871023D01*
X166648500Y-123736977D01*
X166631307Y-123650539D01*
X166622351Y-123605512D01*
X166622349Y-123605507D01*
X166622349Y-123605505D01*
X166589603Y-123526450D01*
X166582135Y-123456983D01*
X166589601Y-123431554D01*
X166622349Y-123352495D01*
X166623552Y-123346451D01*
X166645421Y-123236502D01*
X166648500Y-123221023D01*
X166648500Y-123144211D01*
X166668185Y-123077172D01*
X166710497Y-123036825D01*
X166818416Y-122974520D01*
X166930220Y-122862716D01*
X166963586Y-122804924D01*
X167013342Y-122718744D01*
X167015010Y-122719707D01*
X167033452Y-122692081D01*
X168252619Y-121472914D01*
X168313940Y-121439431D01*
X168383632Y-121444415D01*
G37*
G04 #@! TD.AperFunction*
G04 #@! TA.AperFunction,Conductor*
G36*
X159109596Y-119119132D02*
G01*
X159401763Y-119411299D01*
X159435248Y-119472622D01*
X159430264Y-119542314D01*
X159401763Y-119586661D01*
X159312402Y-119676021D01*
X159186900Y-119855257D01*
X159186898Y-119855261D01*
X159094426Y-120053568D01*
X159094422Y-120053577D01*
X159037793Y-120264920D01*
X159037793Y-120264924D01*
X159018723Y-120482897D01*
X159018723Y-120482902D01*
X159019036Y-120486475D01*
X159036015Y-120680558D01*
X159037793Y-120700875D01*
X159037793Y-120700879D01*
X159058003Y-120776303D01*
X159056340Y-120846153D01*
X159025909Y-120896078D01*
X158890667Y-121031319D01*
X158829344Y-121064803D01*
X158759652Y-121059819D01*
X158732911Y-121039888D01*
X158719587Y-121038963D01*
X158145400Y-121613150D01*
X158145400Y-121612496D01*
X158117705Y-121509135D01*
X158064201Y-121416464D01*
X157988536Y-121340799D01*
X157895865Y-121287295D01*
X157792504Y-121259600D01*
X157791848Y-121259600D01*
X158363562Y-120687884D01*
X158258447Y-120622801D01*
X158057916Y-120545116D01*
X157913625Y-120518143D01*
X157851344Y-120486475D01*
X157816071Y-120426162D01*
X157819005Y-120356354D01*
X157859214Y-120299214D01*
X157913621Y-120274366D01*
X158058056Y-120247367D01*
X158258674Y-120169647D01*
X158441595Y-120056387D01*
X158600591Y-119911444D01*
X158730245Y-119739753D01*
X158826144Y-119547162D01*
X158885022Y-119340229D01*
X158898444Y-119195370D01*
X158924230Y-119130435D01*
X158981030Y-119089747D01*
X159050811Y-119086227D01*
X159109596Y-119119132D01*
G37*
G04 #@! TD.AperFunction*
G04 #@! TA.AperFunction,Conductor*
G36*
X168280334Y-104805914D02*
G01*
X168336267Y-104847786D01*
X168360684Y-104913250D01*
X168361000Y-104922096D01*
X168361000Y-108409255D01*
X168344387Y-108471254D01*
X168331842Y-108492982D01*
X168323220Y-108507917D01*
X168265850Y-108684484D01*
X168264726Y-108687944D01*
X168244940Y-108876200D01*
X168264726Y-109064456D01*
X168264727Y-109064459D01*
X168323218Y-109244477D01*
X168323221Y-109244484D01*
X168417867Y-109408416D01*
X168514757Y-109516023D01*
X168544529Y-109549088D01*
X168697665Y-109660348D01*
X168697670Y-109660351D01*
X168731614Y-109675464D01*
X168784851Y-109720714D01*
X168805172Y-109787563D01*
X168786127Y-109854787D01*
X168773329Y-109871714D01*
X168751566Y-109895884D01*
X168656921Y-110059815D01*
X168656918Y-110059822D01*
X168598427Y-110239840D01*
X168598426Y-110239844D01*
X168578640Y-110428100D01*
X168598426Y-110616356D01*
X168598427Y-110616359D01*
X168656918Y-110796377D01*
X168656921Y-110796384D01*
X168751567Y-110960316D01*
X168863689Y-111084840D01*
X168878229Y-111100988D01*
X169031365Y-111212248D01*
X169031370Y-111212251D01*
X169204292Y-111289242D01*
X169204297Y-111289244D01*
X169389454Y-111328600D01*
X169389455Y-111328600D01*
X169578744Y-111328600D01*
X169578746Y-111328600D01*
X169763903Y-111289244D01*
X169936830Y-111212251D01*
X170089971Y-111100988D01*
X170216633Y-110960316D01*
X170311279Y-110796384D01*
X170369774Y-110616356D01*
X170389560Y-110428100D01*
X170369774Y-110239844D01*
X170311279Y-110059816D01*
X170216633Y-109895884D01*
X170089971Y-109755212D01*
X170084781Y-109751441D01*
X169936834Y-109643951D01*
X169936832Y-109643950D01*
X169902884Y-109628835D01*
X169849647Y-109583584D01*
X169829327Y-109516734D01*
X169848373Y-109449511D01*
X169861168Y-109432587D01*
X169882933Y-109408416D01*
X169977579Y-109244484D01*
X170036074Y-109064456D01*
X170055860Y-108876200D01*
X170036074Y-108687944D01*
X169977579Y-108507916D01*
X169882933Y-108343984D01*
X169756271Y-108203312D01*
X169695151Y-108158906D01*
X169613114Y-108099302D01*
X169570449Y-108043972D01*
X169562000Y-107998984D01*
X169562000Y-106546097D01*
X169581685Y-106479058D01*
X169634489Y-106433303D01*
X169703647Y-106423359D01*
X169767203Y-106452384D01*
X169773681Y-106458416D01*
X170120439Y-106805174D01*
X170120449Y-106805185D01*
X170124779Y-106809515D01*
X170124780Y-106809516D01*
X170236584Y-106921320D01*
X170312934Y-106965400D01*
X170373515Y-107000377D01*
X170526243Y-107041300D01*
X170611794Y-107041300D01*
X170678833Y-107060985D01*
X170724588Y-107113789D01*
X170735114Y-107178259D01*
X170729540Y-107231300D01*
X170749326Y-107419556D01*
X170749327Y-107419559D01*
X170807818Y-107599577D01*
X170807821Y-107599584D01*
X170902467Y-107763516D01*
X171029129Y-107904188D01*
X171182265Y-108015448D01*
X171182270Y-108015451D01*
X171355192Y-108092442D01*
X171355197Y-108092444D01*
X171511722Y-108125714D01*
X171573204Y-108158906D01*
X171606980Y-108220069D01*
X171609261Y-108259963D01*
X171593640Y-108408600D01*
X171613426Y-108596856D01*
X171613427Y-108596859D01*
X171671918Y-108776877D01*
X171671921Y-108776884D01*
X171766567Y-108940816D01*
X171877893Y-109064456D01*
X171893229Y-109081488D01*
X172046365Y-109192748D01*
X172046370Y-109192751D01*
X172219292Y-109269742D01*
X172219297Y-109269744D01*
X172404454Y-109309100D01*
X172404455Y-109309100D01*
X172593744Y-109309100D01*
X172593746Y-109309100D01*
X172778903Y-109269744D01*
X172951830Y-109192751D01*
X173104971Y-109081488D01*
X173231633Y-108940816D01*
X173251434Y-108906518D01*
X173301998Y-108858304D01*
X173370605Y-108845079D01*
X173435470Y-108871046D01*
X173446502Y-108880837D01*
X174312721Y-109747056D01*
X174346206Y-109808379D01*
X174341222Y-109878071D01*
X174337426Y-109887133D01*
X174334424Y-109893571D01*
X174277793Y-110104920D01*
X174277793Y-110104924D01*
X174258723Y-110322897D01*
X174258723Y-110322902D01*
X174277793Y-110540875D01*
X174277793Y-110540879D01*
X174334422Y-110752222D01*
X174334424Y-110752226D01*
X174334425Y-110752230D01*
X174359037Y-110805011D01*
X174426897Y-110950538D01*
X174433744Y-110960316D01*
X174552402Y-111129777D01*
X174707123Y-111284498D01*
X174886361Y-111410002D01*
X175037583Y-111480518D01*
X175090022Y-111526690D01*
X175109174Y-111593884D01*
X175088958Y-111660765D01*
X175037583Y-111705282D01*
X174886361Y-111775798D01*
X174886357Y-111775800D01*
X174707121Y-111901302D01*
X174552402Y-112056021D01*
X174426900Y-112235257D01*
X174426898Y-112235261D01*
X174334425Y-112433568D01*
X174333334Y-112437641D01*
X174301242Y-112493220D01*
X173579570Y-113214892D01*
X173518247Y-113248377D01*
X173448555Y-113243393D01*
X173392622Y-113201521D01*
X173368205Y-113136057D01*
X173373957Y-113088895D01*
X173421474Y-112942656D01*
X173441260Y-112754400D01*
X173421474Y-112566144D01*
X173362979Y-112386116D01*
X173268333Y-112222184D01*
X173250270Y-112202123D01*
X173181551Y-112125802D01*
X173151321Y-112062810D01*
X173159947Y-111993475D01*
X173181549Y-111959861D01*
X173254433Y-111878916D01*
X173349079Y-111714984D01*
X173407574Y-111534956D01*
X173427360Y-111346700D01*
X173407574Y-111158444D01*
X173349079Y-110978416D01*
X173254433Y-110814484D01*
X173127771Y-110673812D01*
X173127770Y-110673811D01*
X172974634Y-110562551D01*
X172974629Y-110562548D01*
X172801707Y-110485557D01*
X172801702Y-110485555D01*
X172655901Y-110454565D01*
X172616546Y-110446200D01*
X172427254Y-110446200D01*
X172394797Y-110453098D01*
X172242097Y-110485555D01*
X172242092Y-110485557D01*
X172069170Y-110562548D01*
X172069165Y-110562551D01*
X171916029Y-110673811D01*
X171789366Y-110814485D01*
X171694721Y-110978415D01*
X171694718Y-110978422D01*
X171636227Y-111158440D01*
X171636226Y-111158444D01*
X171616440Y-111346700D01*
X171636226Y-111534956D01*
X171636227Y-111534959D01*
X171694718Y-111714977D01*
X171694721Y-111714984D01*
X171789367Y-111878916D01*
X171832808Y-111927162D01*
X171876148Y-111975296D01*
X171906378Y-112038287D01*
X171897753Y-112107623D01*
X171876149Y-112141239D01*
X171803266Y-112222185D01*
X171708621Y-112386115D01*
X171708618Y-112386122D01*
X171650127Y-112566140D01*
X171650126Y-112566144D01*
X171630340Y-112754400D01*
X171650126Y-112942656D01*
X171650127Y-112942659D01*
X171708618Y-113122677D01*
X171708621Y-113122684D01*
X171803267Y-113286616D01*
X171838448Y-113325688D01*
X171929929Y-113427288D01*
X172083065Y-113538548D01*
X172083070Y-113538551D01*
X172255992Y-113615542D01*
X172255997Y-113615544D01*
X172441154Y-113654900D01*
X172441155Y-113654900D01*
X172630444Y-113654900D01*
X172630446Y-113654900D01*
X172815603Y-113615544D01*
X172859295Y-113596090D01*
X172928542Y-113586805D01*
X172991819Y-113616433D01*
X173029034Y-113675567D01*
X173028370Y-113745434D01*
X172997411Y-113797051D01*
X166756782Y-120037681D01*
X166695459Y-120071166D01*
X166669101Y-120074000D01*
X165458000Y-120074000D01*
X165458000Y-120389500D01*
X165438315Y-120456539D01*
X165385511Y-120502294D01*
X165334000Y-120513500D01*
X165222000Y-120513500D01*
X165154961Y-120493815D01*
X165109206Y-120441011D01*
X165098000Y-120389500D01*
X165098000Y-120074000D01*
X163930481Y-120074000D01*
X163934129Y-120092342D01*
X163966937Y-120171548D01*
X163974405Y-120241018D01*
X163966937Y-120266452D01*
X163934131Y-120345655D01*
X163934130Y-120345656D01*
X163911674Y-120458551D01*
X163879289Y-120520462D01*
X163818573Y-120555036D01*
X163748804Y-120551296D01*
X163702376Y-120522040D01*
X162894335Y-119713999D01*
X163930481Y-119713999D01*
X163930482Y-119714000D01*
X165098000Y-119714000D01*
X165458000Y-119714000D01*
X166625518Y-119714000D01*
X166625518Y-119713999D01*
X166621870Y-119695657D01*
X166621869Y-119695656D01*
X166589062Y-119616454D01*
X166581593Y-119546985D01*
X166589062Y-119521546D01*
X166621869Y-119442343D01*
X166621870Y-119442342D01*
X166625518Y-119424000D01*
X165458000Y-119424000D01*
X165458000Y-119714000D01*
X165098000Y-119714000D01*
X165098000Y-119424000D01*
X163930481Y-119424000D01*
X163934129Y-119442342D01*
X163966937Y-119521548D01*
X163974405Y-119591018D01*
X163966937Y-119616452D01*
X163934130Y-119695657D01*
X163934129Y-119695657D01*
X163930481Y-119713999D01*
X162894335Y-119713999D01*
X162244335Y-119063999D01*
X163930481Y-119063999D01*
X163930482Y-119064000D01*
X165098000Y-119064000D01*
X165458000Y-119064000D01*
X166625518Y-119064000D01*
X166625518Y-119063999D01*
X166621870Y-119045657D01*
X166621868Y-119045652D01*
X166570609Y-118921901D01*
X166570604Y-118921892D01*
X166496190Y-118810525D01*
X166496187Y-118810521D01*
X166401478Y-118715812D01*
X166401474Y-118715809D01*
X166290107Y-118641395D01*
X166290098Y-118641390D01*
X166166349Y-118590132D01*
X166166341Y-118590130D01*
X166034978Y-118564000D01*
X165458000Y-118564000D01*
X165458000Y-119064000D01*
X165098000Y-119064000D01*
X165098000Y-118564000D01*
X164521021Y-118564000D01*
X164389658Y-118590130D01*
X164389650Y-118590132D01*
X164265901Y-118641390D01*
X164265892Y-118641395D01*
X164154525Y-118715809D01*
X164154521Y-118715812D01*
X164059812Y-118810521D01*
X164059809Y-118810525D01*
X163985395Y-118921892D01*
X163985390Y-118921901D01*
X163934131Y-119045652D01*
X163934129Y-119045657D01*
X163930481Y-119063999D01*
X162244335Y-119063999D01*
X161525117Y-118344781D01*
X161491632Y-118283458D01*
X161493023Y-118225006D01*
X161500899Y-118195613D01*
X161510207Y-118160877D01*
X161528390Y-117953040D01*
X161529277Y-117942902D01*
X161529277Y-117942897D01*
X161524291Y-117885908D01*
X161510207Y-117724923D01*
X161453575Y-117513570D01*
X161361102Y-117315262D01*
X161361100Y-117315259D01*
X161361099Y-117315257D01*
X161235597Y-117136021D01*
X161193736Y-117094160D01*
X161160251Y-117032837D01*
X161165235Y-116963145D01*
X161193734Y-116918800D01*
X163030521Y-115082012D01*
X163091842Y-115048529D01*
X163161534Y-115053513D01*
X163217467Y-115095385D01*
X163236131Y-115131376D01*
X163279119Y-115263680D01*
X163279121Y-115263684D01*
X163373767Y-115427616D01*
X163433483Y-115493937D01*
X163500429Y-115568288D01*
X163653565Y-115679548D01*
X163653570Y-115679551D01*
X163826492Y-115756542D01*
X163826497Y-115756544D01*
X164011654Y-115795900D01*
X164011655Y-115795900D01*
X164200944Y-115795900D01*
X164200946Y-115795900D01*
X164386103Y-115756544D01*
X164559030Y-115679551D01*
X164712171Y-115568288D01*
X164838833Y-115427616D01*
X164933479Y-115263684D01*
X164991974Y-115083656D01*
X165011760Y-114895400D01*
X164991974Y-114707144D01*
X164933479Y-114527116D01*
X164838833Y-114363184D01*
X164712171Y-114222512D01*
X164679961Y-114199110D01*
X164559034Y-114111251D01*
X164559029Y-114111248D01*
X164386107Y-114034257D01*
X164386102Y-114034255D01*
X164355627Y-114027778D01*
X164294145Y-113994586D01*
X164260369Y-113933423D01*
X164265021Y-113863708D01*
X164293725Y-113818809D01*
X165026933Y-113085600D01*
X166363640Y-113085600D01*
X166383426Y-113273856D01*
X166383427Y-113273859D01*
X166441918Y-113453877D01*
X166441921Y-113453884D01*
X166536567Y-113617816D01*
X166631129Y-113722837D01*
X166663229Y-113758488D01*
X166816365Y-113869748D01*
X166816370Y-113869751D01*
X166989292Y-113946742D01*
X166989297Y-113946744D01*
X167174454Y-113986100D01*
X167174455Y-113986100D01*
X167363744Y-113986100D01*
X167363746Y-113986100D01*
X167548903Y-113946744D01*
X167721830Y-113869751D01*
X167874971Y-113758488D01*
X168001633Y-113617816D01*
X168096279Y-113453884D01*
X168154774Y-113273856D01*
X168167992Y-113148086D01*
X168194575Y-113083475D01*
X168251872Y-113043490D01*
X168265517Y-113039763D01*
X168276903Y-113037344D01*
X168449830Y-112960351D01*
X168474575Y-112942372D01*
X168540380Y-112918893D01*
X168608434Y-112934718D01*
X168657129Y-112984824D01*
X168665391Y-113004373D01*
X168670818Y-113021078D01*
X168670821Y-113021084D01*
X168765467Y-113185016D01*
X168861996Y-113292222D01*
X168892129Y-113325688D01*
X169045265Y-113436948D01*
X169045270Y-113436951D01*
X169218192Y-113513942D01*
X169218197Y-113513944D01*
X169403354Y-113553300D01*
X169403355Y-113553300D01*
X169592644Y-113553300D01*
X169592646Y-113553300D01*
X169777803Y-113513944D01*
X169950730Y-113436951D01*
X170103871Y-113325688D01*
X170230533Y-113185016D01*
X170325179Y-113021084D01*
X170383674Y-112841056D01*
X170403460Y-112652800D01*
X170383674Y-112464544D01*
X170325179Y-112284516D01*
X170230533Y-112120584D01*
X170103871Y-111979912D01*
X170097518Y-111975296D01*
X169950734Y-111868651D01*
X169950729Y-111868648D01*
X169777807Y-111791657D01*
X169777802Y-111791655D01*
X169632001Y-111760665D01*
X169592646Y-111752300D01*
X169403354Y-111752300D01*
X169370897Y-111759198D01*
X169218197Y-111791655D01*
X169218192Y-111791657D01*
X169045270Y-111868648D01*
X169045262Y-111868653D01*
X169020521Y-111886628D01*
X168954714Y-111910106D01*
X168886661Y-111894279D01*
X168837967Y-111844171D01*
X168829707Y-111824623D01*
X168824280Y-111807920D01*
X168824279Y-111807916D01*
X168729633Y-111643984D01*
X168602971Y-111503312D01*
X168571598Y-111480518D01*
X168449834Y-111392051D01*
X168449829Y-111392048D01*
X168276907Y-111315057D01*
X168276902Y-111315055D01*
X168095561Y-111276511D01*
X168091746Y-111275700D01*
X167902454Y-111275700D01*
X167898639Y-111276511D01*
X167717297Y-111315055D01*
X167717292Y-111315057D01*
X167544370Y-111392048D01*
X167544365Y-111392051D01*
X167391229Y-111503311D01*
X167264566Y-111643985D01*
X167169921Y-111807915D01*
X167169918Y-111807922D01*
X167111427Y-111987940D01*
X167111426Y-111987944D01*
X167101592Y-112081512D01*
X167098208Y-112113710D01*
X167071623Y-112178324D01*
X167014326Y-112218309D01*
X167000673Y-112222037D01*
X166989299Y-112224454D01*
X166989292Y-112224457D01*
X166816370Y-112301448D01*
X166816365Y-112301451D01*
X166663229Y-112412711D01*
X166536566Y-112553385D01*
X166441921Y-112717315D01*
X166441918Y-112717322D01*
X166387404Y-112885100D01*
X166383426Y-112897344D01*
X166363640Y-113085600D01*
X165026933Y-113085600D01*
X165419106Y-112693427D01*
X165419111Y-112693424D01*
X165429314Y-112683220D01*
X165429316Y-112683220D01*
X165541120Y-112571416D01*
X165620177Y-112434484D01*
X165653617Y-112309684D01*
X165661100Y-112281758D01*
X165661100Y-112123643D01*
X165661100Y-106967997D01*
X165680785Y-106900958D01*
X165697419Y-106880316D01*
X166831717Y-105746019D01*
X166893040Y-105712534D01*
X166919398Y-105709700D01*
X166938631Y-105709700D01*
X166938647Y-105709701D01*
X166946243Y-105709701D01*
X167104354Y-105709701D01*
X167104357Y-105709701D01*
X167257085Y-105668777D01*
X167307204Y-105639839D01*
X167394016Y-105589720D01*
X167505820Y-105477916D01*
X167505820Y-105477914D01*
X167516028Y-105467707D01*
X167516029Y-105467704D01*
X168149320Y-104834414D01*
X168210642Y-104800930D01*
X168280334Y-104805914D01*
G37*
G04 #@! TD.AperFunction*
G04 #@! TA.AperFunction,Conductor*
G36*
X176963316Y-100026354D02*
G01*
X176978272Y-100039107D01*
X177263724Y-100324559D01*
X177297209Y-100385882D01*
X177292225Y-100455574D01*
X177259582Y-100503876D01*
X177197411Y-100560553D01*
X177067755Y-100732246D01*
X177067751Y-100732253D01*
X176971860Y-100924827D01*
X176971855Y-100924840D01*
X176912977Y-101131771D01*
X176893127Y-101345999D01*
X176893127Y-101346000D01*
X176912977Y-101560228D01*
X176971855Y-101767159D01*
X176971860Y-101767172D01*
X177067751Y-101959746D01*
X177067753Y-101959749D01*
X177067755Y-101959753D01*
X177197409Y-102131444D01*
X177197412Y-102131446D01*
X177197414Y-102131449D01*
X177356402Y-102276385D01*
X177356404Y-102276386D01*
X177356405Y-102276387D01*
X177539326Y-102389647D01*
X177739944Y-102467367D01*
X177883015Y-102494111D01*
X177945295Y-102525779D01*
X177980568Y-102586092D01*
X177977634Y-102655900D01*
X177937425Y-102713040D01*
X177883015Y-102737888D01*
X177739944Y-102764633D01*
X177613075Y-102813782D01*
X177539328Y-102842352D01*
X177539327Y-102842352D01*
X177356402Y-102955614D01*
X177197414Y-103100550D01*
X177197407Y-103100558D01*
X177067760Y-103272239D01*
X177067751Y-103272253D01*
X176971860Y-103464827D01*
X176971855Y-103464840D01*
X176912977Y-103671771D01*
X176893127Y-103885999D01*
X176893127Y-103886000D01*
X176912977Y-104100228D01*
X176971855Y-104307159D01*
X176971860Y-104307172D01*
X177067751Y-104499746D01*
X177067753Y-104499749D01*
X177067755Y-104499753D01*
X177197409Y-104671444D01*
X177197412Y-104671446D01*
X177197414Y-104671449D01*
X177356402Y-104816385D01*
X177356404Y-104816386D01*
X177356405Y-104816387D01*
X177539326Y-104929647D01*
X177739944Y-105007367D01*
X177883015Y-105034111D01*
X177945295Y-105065779D01*
X177980568Y-105126092D01*
X177977634Y-105195900D01*
X177937425Y-105253040D01*
X177883015Y-105277888D01*
X177739944Y-105304633D01*
X177627691Y-105348120D01*
X177539328Y-105382352D01*
X177539327Y-105382352D01*
X177356402Y-105495614D01*
X177197414Y-105640550D01*
X177197407Y-105640558D01*
X177067760Y-105812239D01*
X177067751Y-105812253D01*
X176971860Y-106004827D01*
X176971855Y-106004840D01*
X176912977Y-106211771D01*
X176893127Y-106425999D01*
X176893127Y-106426000D01*
X176912978Y-106640236D01*
X176913970Y-106645540D01*
X176906937Y-106715054D01*
X176879762Y-106756001D01*
X176655301Y-106980462D01*
X176593978Y-107013947D01*
X176524286Y-107008963D01*
X176480924Y-106978352D01*
X176479426Y-106979851D01*
X176320881Y-106821306D01*
X176320877Y-106821302D01*
X176141639Y-106695798D01*
X176141640Y-106695798D01*
X176141638Y-106695797D01*
X175989824Y-106625005D01*
X175937385Y-106578832D01*
X175918233Y-106511639D01*
X175938449Y-106444758D01*
X175989825Y-106400240D01*
X176141388Y-106329566D01*
X176203570Y-106286024D01*
X175643408Y-105725862D01*
X175706993Y-105708825D01*
X175821007Y-105642999D01*
X175914099Y-105549907D01*
X175979925Y-105435893D01*
X175996962Y-105372309D01*
X176557124Y-105932470D01*
X176600668Y-105870285D01*
X176600669Y-105870283D01*
X176693100Y-105672064D01*
X176693105Y-105672050D01*
X176749710Y-105460794D01*
X176749712Y-105460784D01*
X176768775Y-105242900D01*
X176768775Y-105242899D01*
X176749712Y-105025015D01*
X176749710Y-105025005D01*
X176693105Y-104813749D01*
X176693101Y-104813740D01*
X176600667Y-104615514D01*
X176600666Y-104615512D01*
X176557124Y-104553328D01*
X176557124Y-104553327D01*
X175996962Y-105113489D01*
X175979925Y-105049907D01*
X175914099Y-104935893D01*
X175821007Y-104842801D01*
X175706993Y-104776975D01*
X175643409Y-104759937D01*
X176203571Y-104199774D01*
X176141387Y-104156233D01*
X175989824Y-104085558D01*
X175937385Y-104039386D01*
X175918233Y-103972192D01*
X175938449Y-103905311D01*
X175989822Y-103860795D01*
X176141639Y-103790002D01*
X176320877Y-103664498D01*
X176475598Y-103509777D01*
X176601102Y-103330539D01*
X176693575Y-103132230D01*
X176750207Y-102920877D01*
X176768390Y-102713040D01*
X176769277Y-102702902D01*
X176769277Y-102702897D01*
X176762950Y-102630579D01*
X176750207Y-102484923D01*
X176694329Y-102276385D01*
X176693577Y-102273577D01*
X176693576Y-102273576D01*
X176693575Y-102273570D01*
X176601102Y-102075262D01*
X176601100Y-102075259D01*
X176601099Y-102075257D01*
X176475599Y-101896024D01*
X176404028Y-101824453D01*
X176320877Y-101741302D01*
X176141639Y-101615798D01*
X175990414Y-101545281D01*
X175937977Y-101499110D01*
X175918825Y-101431916D01*
X175939041Y-101365035D01*
X175990414Y-101320518D01*
X176141639Y-101250002D01*
X176320877Y-101124498D01*
X176475598Y-100969777D01*
X176601102Y-100790539D01*
X176693575Y-100592230D01*
X176750207Y-100380877D01*
X176768390Y-100173040D01*
X176769277Y-100162902D01*
X176769277Y-100162899D01*
X176767063Y-100137596D01*
X176780829Y-100069096D01*
X176829444Y-100018913D01*
X176897472Y-100002979D01*
X176963316Y-100026354D01*
G37*
G04 #@! TD.AperFunction*
G04 #@! TA.AperFunction,Conductor*
G36*
X165401039Y-102152185D02*
G01*
X165446794Y-102204989D01*
X165458000Y-102256500D01*
X165458000Y-103470202D01*
X165438315Y-103537241D01*
X165421681Y-103557883D01*
X164029681Y-104949883D01*
X163968358Y-104983368D01*
X163898666Y-104978384D01*
X163842733Y-104936512D01*
X163818316Y-104871048D01*
X163818000Y-104862202D01*
X163818000Y-103232354D01*
X163837685Y-103165315D01*
X163890489Y-103119560D01*
X163959647Y-103109616D01*
X164023203Y-103138641D01*
X164045103Y-103163464D01*
X164059811Y-103185477D01*
X164154521Y-103280187D01*
X164154525Y-103280190D01*
X164265892Y-103354604D01*
X164265901Y-103354609D01*
X164389650Y-103405867D01*
X164389658Y-103405869D01*
X164521021Y-103431999D01*
X164521025Y-103432000D01*
X165098000Y-103432000D01*
X165098000Y-102256500D01*
X165117685Y-102189461D01*
X165170489Y-102143706D01*
X165222000Y-102132500D01*
X165334000Y-102132500D01*
X165401039Y-102152185D01*
G37*
G04 #@! TD.AperFunction*
G04 #@! TA.AperFunction,Conductor*
G36*
X172507214Y-97157027D02*
G01*
X172518493Y-97161403D01*
X172597067Y-97196387D01*
X172694897Y-97239944D01*
X172767048Y-97255280D01*
X172828527Y-97288471D01*
X172859196Y-97338251D01*
X172914018Y-97506977D01*
X172914021Y-97506984D01*
X173008667Y-97670916D01*
X173135329Y-97811588D01*
X173288465Y-97922848D01*
X173288470Y-97922851D01*
X173461392Y-97999842D01*
X173461397Y-97999844D01*
X173646554Y-98039200D01*
X173646555Y-98039200D01*
X173737799Y-98039200D01*
X173804838Y-98058885D01*
X173850593Y-98111689D01*
X173861799Y-98163200D01*
X173861799Y-98191954D01*
X173861798Y-98191954D01*
X173861876Y-98192244D01*
X173902723Y-98344685D01*
X173902724Y-98344687D01*
X173902723Y-98344687D01*
X173921044Y-98376418D01*
X173921046Y-98376420D01*
X173921047Y-98376422D01*
X173935029Y-98400639D01*
X173981779Y-98481615D01*
X174100649Y-98600485D01*
X174100655Y-98600490D01*
X174616612Y-99116448D01*
X174650097Y-99177771D01*
X174645113Y-99247463D01*
X174616614Y-99291809D01*
X174552400Y-99356023D01*
X174426900Y-99535257D01*
X174426898Y-99535261D01*
X174334426Y-99733568D01*
X174334422Y-99733577D01*
X174277793Y-99944920D01*
X174277793Y-99944924D01*
X174258723Y-100162897D01*
X174258723Y-100162902D01*
X174259610Y-100173040D01*
X174275215Y-100351414D01*
X174277793Y-100380875D01*
X174277793Y-100380879D01*
X174334422Y-100592222D01*
X174334424Y-100592226D01*
X174334425Y-100592230D01*
X174347510Y-100620291D01*
X174426897Y-100790538D01*
X174426898Y-100790539D01*
X174552402Y-100969777D01*
X174707123Y-101124498D01*
X174886360Y-101250001D01*
X174886361Y-101250002D01*
X175037583Y-101320518D01*
X175090022Y-101366690D01*
X175109174Y-101433884D01*
X175088958Y-101500765D01*
X175037583Y-101545282D01*
X174886361Y-101615798D01*
X174886357Y-101615800D01*
X174707121Y-101741302D01*
X174552402Y-101896021D01*
X174426900Y-102075257D01*
X174426898Y-102075261D01*
X174334426Y-102273568D01*
X174334422Y-102273577D01*
X174277793Y-102484920D01*
X174277793Y-102484924D01*
X174258723Y-102702897D01*
X174258723Y-102702902D01*
X174277792Y-102920870D01*
X174277795Y-102920884D01*
X174294976Y-102985008D01*
X174293313Y-103054858D01*
X174262882Y-103104781D01*
X173219184Y-104148481D01*
X173157861Y-104181966D01*
X173131503Y-104184800D01*
X171507760Y-104184800D01*
X171440721Y-104165115D01*
X171394966Y-104112311D01*
X171385022Y-104043153D01*
X171389829Y-104022482D01*
X171406169Y-103972192D01*
X171424474Y-103915856D01*
X171444260Y-103727600D01*
X171427586Y-103568958D01*
X171440155Y-103500232D01*
X171487887Y-103449208D01*
X171550907Y-103432000D01*
X171774975Y-103432000D01*
X171774978Y-103431999D01*
X171906341Y-103405869D01*
X171906349Y-103405867D01*
X172030098Y-103354609D01*
X172030107Y-103354604D01*
X172141474Y-103280190D01*
X172141478Y-103280187D01*
X172236187Y-103185478D01*
X172236190Y-103185474D01*
X172310604Y-103074107D01*
X172310609Y-103074098D01*
X172361868Y-102950347D01*
X172361870Y-102950342D01*
X172365518Y-102932000D01*
X172099460Y-102932000D01*
X172032421Y-102912315D01*
X171986666Y-102859511D01*
X171976722Y-102790353D01*
X172005747Y-102726797D01*
X172030569Y-102704898D01*
X172078929Y-102672584D01*
X172141794Y-102630579D01*
X172141797Y-102630576D01*
X172164055Y-102608319D01*
X172225378Y-102574834D01*
X172251736Y-102572000D01*
X172365518Y-102572000D01*
X172365518Y-102571999D01*
X172361870Y-102553657D01*
X172361868Y-102553652D01*
X172329333Y-102475106D01*
X172321864Y-102405637D01*
X172329329Y-102380211D01*
X172362349Y-102300495D01*
X172367145Y-102276387D01*
X172388499Y-102169027D01*
X172388500Y-102169024D01*
X172388500Y-102034976D01*
X172388499Y-102034972D01*
X172362351Y-101903512D01*
X172362349Y-101903507D01*
X172362349Y-101903505D01*
X172329603Y-101824450D01*
X172322135Y-101754983D01*
X172329601Y-101729554D01*
X172333842Y-101719315D01*
X172377682Y-101664915D01*
X172443976Y-101642850D01*
X172474176Y-101645480D01*
X172509554Y-101653000D01*
X172509557Y-101653000D01*
X172698844Y-101653000D01*
X172698846Y-101653000D01*
X172884003Y-101613644D01*
X173056930Y-101536651D01*
X173210071Y-101425388D01*
X173336733Y-101284716D01*
X173431379Y-101120784D01*
X173489874Y-100940756D01*
X173509660Y-100752500D01*
X173489874Y-100564244D01*
X173431379Y-100384216D01*
X173336733Y-100220284D01*
X173262280Y-100137596D01*
X173236550Y-100109019D01*
X173206320Y-100046027D01*
X173204700Y-100026047D01*
X173204700Y-99345560D01*
X173204701Y-99345547D01*
X173204701Y-99177444D01*
X173188357Y-99116448D01*
X173163777Y-99024716D01*
X173163773Y-99024709D01*
X173084724Y-98887790D01*
X173084718Y-98887782D01*
X172558417Y-98361481D01*
X172558409Y-98361475D01*
X172450501Y-98299175D01*
X172402285Y-98248609D01*
X172388500Y-98191788D01*
X172388500Y-98124976D01*
X172388499Y-98124972D01*
X172362351Y-97993512D01*
X172362349Y-97993508D01*
X172362349Y-97993505D01*
X172329603Y-97914450D01*
X172322135Y-97844983D01*
X172329601Y-97819554D01*
X172362349Y-97740495D01*
X172362379Y-97740348D01*
X172388499Y-97609027D01*
X172388500Y-97609024D01*
X172388500Y-97474976D01*
X172388499Y-97474972D01*
X172362351Y-97343512D01*
X172362349Y-97343507D01*
X172362349Y-97343505D01*
X172353496Y-97322133D01*
X172346027Y-97252668D01*
X172377300Y-97190188D01*
X172437389Y-97154534D01*
X172507214Y-97157027D01*
G37*
G04 #@! TD.AperFunction*
G04 #@! TA.AperFunction,Conductor*
G36*
X163874971Y-97637185D02*
G01*
X163920726Y-97689989D01*
X163929550Y-97717311D01*
X163934132Y-97740348D01*
X163934132Y-97740349D01*
X163966666Y-97818892D01*
X163974135Y-97888361D01*
X163966667Y-97913796D01*
X163933650Y-97993508D01*
X163933648Y-97993512D01*
X163907500Y-98124972D01*
X163907500Y-98259027D01*
X163932526Y-98384840D01*
X163933651Y-98390495D01*
X163965923Y-98468407D01*
X163966396Y-98469548D01*
X163973864Y-98539018D01*
X163966397Y-98564448D01*
X163933651Y-98643505D01*
X163933650Y-98643509D01*
X163933649Y-98643512D01*
X163933648Y-98643512D01*
X163907500Y-98774972D01*
X163907500Y-98794700D01*
X163887815Y-98861739D01*
X163835011Y-98907494D01*
X163783500Y-98918700D01*
X163638354Y-98918700D01*
X163605897Y-98925598D01*
X163453197Y-98958055D01*
X163453192Y-98958057D01*
X163280270Y-99035048D01*
X163280265Y-99035051D01*
X163127129Y-99146311D01*
X163000466Y-99286985D01*
X162905821Y-99450915D01*
X162905818Y-99450922D01*
X162847327Y-99630940D01*
X162847326Y-99630944D01*
X162827540Y-99819200D01*
X162847326Y-100007456D01*
X162847327Y-100007459D01*
X162905818Y-100187477D01*
X162905821Y-100187484D01*
X163000467Y-100351416D01*
X163058270Y-100415613D01*
X163123415Y-100487964D01*
X163153645Y-100550956D01*
X163145020Y-100620291D01*
X163118946Y-100658617D01*
X163001631Y-100775932D01*
X162946047Y-100808025D01*
X162913216Y-100816822D01*
X162913212Y-100816824D01*
X162776287Y-100895877D01*
X162776282Y-100895881D01*
X161561311Y-102110852D01*
X161499988Y-102144337D01*
X161430296Y-102139353D01*
X161374363Y-102097481D01*
X161363854Y-102079927D01*
X161363810Y-102079953D01*
X161362205Y-102077173D01*
X161361247Y-102075573D01*
X161361103Y-102075265D01*
X161361102Y-102075262D01*
X161240842Y-101903512D01*
X161235599Y-101896024D01*
X161164028Y-101824453D01*
X161080877Y-101741302D01*
X160901639Y-101615798D01*
X160750414Y-101545281D01*
X160697977Y-101499110D01*
X160678825Y-101431916D01*
X160699041Y-101365035D01*
X160750414Y-101320518D01*
X160901639Y-101250002D01*
X161080877Y-101124498D01*
X161235598Y-100969777D01*
X161361102Y-100790539D01*
X161453575Y-100592230D01*
X161510207Y-100380877D01*
X161528390Y-100173040D01*
X161529277Y-100162902D01*
X161529277Y-100162898D01*
X161519339Y-100049307D01*
X161533106Y-99980807D01*
X161581721Y-99930624D01*
X161642867Y-99914500D01*
X161818344Y-99914500D01*
X161818346Y-99914500D01*
X162003503Y-99875144D01*
X162176430Y-99798151D01*
X162329571Y-99686888D01*
X162456233Y-99546216D01*
X162550879Y-99382284D01*
X162609374Y-99202256D01*
X162629160Y-99014000D01*
X162609374Y-98825744D01*
X162550879Y-98645716D01*
X162456233Y-98481784D01*
X162374029Y-98390487D01*
X162372313Y-98388581D01*
X162342083Y-98325589D01*
X162350708Y-98256254D01*
X162376779Y-98217931D01*
X162940893Y-97653819D01*
X163002216Y-97620334D01*
X163028574Y-97617500D01*
X163807932Y-97617500D01*
X163874971Y-97637185D01*
G37*
G04 #@! TD.AperFunction*
G04 #@! TA.AperFunction,Conductor*
G36*
X172066183Y-95961585D02*
G01*
X172111938Y-96014389D01*
X172121882Y-96083547D01*
X172117075Y-96104220D01*
X172095180Y-96171603D01*
X172055741Y-96229278D01*
X171991382Y-96256475D01*
X171929797Y-96247844D01*
X171906353Y-96238133D01*
X171906341Y-96238130D01*
X171774978Y-96212000D01*
X171198000Y-96212000D01*
X171198000Y-96737500D01*
X171178315Y-96804539D01*
X171125511Y-96850294D01*
X171074000Y-96861500D01*
X170962000Y-96861500D01*
X170894961Y-96841815D01*
X170849206Y-96789011D01*
X170838000Y-96737500D01*
X170838000Y-96212000D01*
X170261021Y-96212000D01*
X170168001Y-96230503D01*
X170098409Y-96224276D01*
X170043232Y-96181412D01*
X170019988Y-96115523D01*
X170036056Y-96047526D01*
X170056127Y-96021207D01*
X170099117Y-95978218D01*
X170160440Y-95944733D01*
X170186797Y-95941900D01*
X171999144Y-95941900D01*
X172066183Y-95961585D01*
G37*
G04 #@! TD.AperFunction*
G04 #@! TA.AperFunction,Conductor*
G36*
X159109071Y-86104806D02*
G01*
X159398663Y-86394398D01*
X159432148Y-86455721D01*
X159427164Y-86525413D01*
X159398664Y-86569760D01*
X159312400Y-86656024D01*
X159186900Y-86835257D01*
X159186898Y-86835261D01*
X159094426Y-87033568D01*
X159094422Y-87033577D01*
X159037793Y-87244920D01*
X159037793Y-87244924D01*
X159018723Y-87462897D01*
X159018723Y-87462902D01*
X159037793Y-87680875D01*
X159037793Y-87680879D01*
X159094422Y-87892222D01*
X159094424Y-87892226D01*
X159094425Y-87892230D01*
X159117634Y-87942001D01*
X159186897Y-88090538D01*
X159186898Y-88090539D01*
X159312402Y-88269777D01*
X159467123Y-88424498D01*
X159631330Y-88539477D01*
X159646361Y-88550002D01*
X159797583Y-88620518D01*
X159850022Y-88666690D01*
X159869174Y-88733884D01*
X159848958Y-88800765D01*
X159797583Y-88845282D01*
X159646361Y-88915798D01*
X159646357Y-88915800D01*
X159467121Y-89041302D01*
X159312402Y-89196021D01*
X159186900Y-89375257D01*
X159186898Y-89375262D01*
X159121844Y-89514769D01*
X159075671Y-89567208D01*
X159008477Y-89586360D01*
X158941596Y-89566144D01*
X158921783Y-89550048D01*
X158772584Y-89400849D01*
X158772580Y-89400844D01*
X158760131Y-89388395D01*
X158726646Y-89327072D01*
X158731630Y-89257380D01*
X158736812Y-89245442D01*
X158825674Y-89066984D01*
X158884528Y-88860131D01*
X158904370Y-88646000D01*
X158884528Y-88431868D01*
X158825674Y-88225015D01*
X158729821Y-88032517D01*
X158729813Y-88032504D01*
X158719587Y-88018963D01*
X158145400Y-88593150D01*
X158145400Y-88592496D01*
X158117705Y-88489135D01*
X158064201Y-88396464D01*
X157988536Y-88320799D01*
X157895865Y-88267295D01*
X157792504Y-88239600D01*
X157791848Y-88239600D01*
X158363562Y-87667884D01*
X158258447Y-87602801D01*
X158057916Y-87525116D01*
X157913625Y-87498143D01*
X157851344Y-87466475D01*
X157816071Y-87406162D01*
X157819005Y-87336354D01*
X157859214Y-87279214D01*
X157913621Y-87254366D01*
X158058056Y-87227367D01*
X158258674Y-87149647D01*
X158441595Y-87036387D01*
X158600591Y-86891444D01*
X158730245Y-86719753D01*
X158826144Y-86527162D01*
X158885022Y-86320229D01*
X158897919Y-86181045D01*
X158923705Y-86116109D01*
X158980505Y-86075421D01*
X159050286Y-86071901D01*
X159109071Y-86104806D01*
G37*
G04 #@! TD.AperFunction*
G04 #@! TA.AperFunction,Conductor*
G36*
X156996361Y-87004668D02*
G01*
X157020475Y-87021865D01*
X157036405Y-87036387D01*
X157219326Y-87149647D01*
X157419944Y-87227367D01*
X157564375Y-87254365D01*
X157626655Y-87286033D01*
X157661928Y-87346346D01*
X157658994Y-87416154D01*
X157618785Y-87473294D01*
X157564374Y-87498143D01*
X157420083Y-87525116D01*
X157420082Y-87525116D01*
X157219551Y-87602802D01*
X157219548Y-87602803D01*
X157114436Y-87667884D01*
X157686153Y-88239600D01*
X157685496Y-88239600D01*
X157582135Y-88267295D01*
X157489464Y-88320799D01*
X157413799Y-88396464D01*
X157360295Y-88489135D01*
X157332600Y-88592496D01*
X157332600Y-88593153D01*
X156758411Y-88018964D01*
X156743630Y-88019990D01*
X156719376Y-88037990D01*
X156649664Y-88042684D01*
X156588846Y-88009310D01*
X155947715Y-87368180D01*
X155914230Y-87306857D01*
X155919214Y-87237166D01*
X155961085Y-87181232D01*
X156026550Y-87156815D01*
X156035396Y-87156499D01*
X156553871Y-87156499D01*
X156553872Y-87156499D01*
X156613483Y-87150091D01*
X156748331Y-87099796D01*
X156862627Y-87014233D01*
X156928088Y-86989817D01*
X156996361Y-87004668D01*
G37*
G04 #@! TD.AperFunction*
M02*
