G04 #@! TF.GenerationSoftware,KiCad,Pcbnew,8.0.4*
G04 #@! TF.CreationDate,2024-09-05T13:45:58-03:00*
G04 #@! TF.ProjectId,MSX_Goauld_Rev4,4d53585f-476f-4617-956c-645f52657634,rev?*
G04 #@! TF.SameCoordinates,Original*
G04 #@! TF.FileFunction,Legend,Top*
G04 #@! TF.FilePolarity,Positive*
%FSLAX46Y46*%
G04 Gerber Fmt 4.6, Leading zero omitted, Abs format (unit mm)*
G04 Created by KiCad (PCBNEW 8.0.4) date 2024-09-05 13:45:58*
%MOMM*%
%LPD*%
G01*
G04 APERTURE LIST*
G04 Aperture macros list*
%AMRoundRect*
0 Rectangle with rounded corners*
0 $1 Rounding radius*
0 $2 $3 $4 $5 $6 $7 $8 $9 X,Y pos of 4 corners*
0 Add a 4 corners polygon primitive as box body*
4,1,4,$2,$3,$4,$5,$6,$7,$8,$9,$2,$3,0*
0 Add four circle primitives for the rounded corners*
1,1,$1+$1,$2,$3*
1,1,$1+$1,$4,$5*
1,1,$1+$1,$6,$7*
1,1,$1+$1,$8,$9*
0 Add four rect primitives between the rounded corners*
20,1,$1+$1,$2,$3,$4,$5,0*
20,1,$1+$1,$4,$5,$6,$7,0*
20,1,$1+$1,$6,$7,$8,$9,0*
20,1,$1+$1,$8,$9,$2,$3,0*%
G04 Aperture macros list end*
%ADD10C,0.100000*%
%ADD11C,0.150000*%
%ADD12C,0.127000*%
%ADD13C,0.200000*%
%ADD14C,0.120000*%
%ADD15C,0.300000*%
%ADD16C,0.152400*%
%ADD17RoundRect,0.102000X0.800000X-1.600000X0.800000X1.600000X-0.800000X1.600000X-0.800000X-1.600000X0*%
%ADD18R,0.980000X2.470000*%
%ADD19R,3.600000X2.470000*%
%ADD20C,1.320800*%
%ADD21O,1.740000X0.360000*%
%ADD22RoundRect,0.102000X-0.800000X1.600000X-0.800000X-1.600000X0.800000X-1.600000X0.800000X1.600000X0*%
%ADD23C,1.500000*%
G04 APERTURE END LIST*
D10*
X152662095Y-126634419D02*
X152662095Y-127443942D01*
X152662095Y-127443942D02*
X152709714Y-127539180D01*
X152709714Y-127539180D02*
X152757333Y-127586800D01*
X152757333Y-127586800D02*
X152852571Y-127634419D01*
X152852571Y-127634419D02*
X153043047Y-127634419D01*
X153043047Y-127634419D02*
X153138285Y-127586800D01*
X153138285Y-127586800D02*
X153185904Y-127539180D01*
X153185904Y-127539180D02*
X153233523Y-127443942D01*
X153233523Y-127443942D02*
X153233523Y-126634419D01*
X153662095Y-127586800D02*
X153804952Y-127634419D01*
X153804952Y-127634419D02*
X154043047Y-127634419D01*
X154043047Y-127634419D02*
X154138285Y-127586800D01*
X154138285Y-127586800D02*
X154185904Y-127539180D01*
X154185904Y-127539180D02*
X154233523Y-127443942D01*
X154233523Y-127443942D02*
X154233523Y-127348704D01*
X154233523Y-127348704D02*
X154185904Y-127253466D01*
X154185904Y-127253466D02*
X154138285Y-127205847D01*
X154138285Y-127205847D02*
X154043047Y-127158228D01*
X154043047Y-127158228D02*
X153852571Y-127110609D01*
X153852571Y-127110609D02*
X153757333Y-127062990D01*
X153757333Y-127062990D02*
X153709714Y-127015371D01*
X153709714Y-127015371D02*
X153662095Y-126920133D01*
X153662095Y-126920133D02*
X153662095Y-126824895D01*
X153662095Y-126824895D02*
X153709714Y-126729657D01*
X153709714Y-126729657D02*
X153757333Y-126682038D01*
X153757333Y-126682038D02*
X153852571Y-126634419D01*
X153852571Y-126634419D02*
X154090666Y-126634419D01*
X154090666Y-126634419D02*
X154233523Y-126682038D01*
X154995428Y-127110609D02*
X155138285Y-127158228D01*
X155138285Y-127158228D02*
X155185904Y-127205847D01*
X155185904Y-127205847D02*
X155233523Y-127301085D01*
X155233523Y-127301085D02*
X155233523Y-127443942D01*
X155233523Y-127443942D02*
X155185904Y-127539180D01*
X155185904Y-127539180D02*
X155138285Y-127586800D01*
X155138285Y-127586800D02*
X155043047Y-127634419D01*
X155043047Y-127634419D02*
X154662095Y-127634419D01*
X154662095Y-127634419D02*
X154662095Y-126634419D01*
X154662095Y-126634419D02*
X154995428Y-126634419D01*
X154995428Y-126634419D02*
X155090666Y-126682038D01*
X155090666Y-126682038D02*
X155138285Y-126729657D01*
X155138285Y-126729657D02*
X155185904Y-126824895D01*
X155185904Y-126824895D02*
X155185904Y-126920133D01*
X155185904Y-126920133D02*
X155138285Y-127015371D01*
X155138285Y-127015371D02*
X155090666Y-127062990D01*
X155090666Y-127062990D02*
X154995428Y-127110609D01*
X154995428Y-127110609D02*
X154662095Y-127110609D01*
X155773237Y-73787580D02*
X155773237Y-74787580D01*
X155773237Y-74311390D02*
X155201809Y-74311390D01*
X155201809Y-73787580D02*
X155201809Y-74787580D01*
X154725618Y-73787580D02*
X154725618Y-74787580D01*
X154725618Y-74787580D02*
X154487523Y-74787580D01*
X154487523Y-74787580D02*
X154344666Y-74739961D01*
X154344666Y-74739961D02*
X154249428Y-74644723D01*
X154249428Y-74644723D02*
X154201809Y-74549485D01*
X154201809Y-74549485D02*
X154154190Y-74359009D01*
X154154190Y-74359009D02*
X154154190Y-74216152D01*
X154154190Y-74216152D02*
X154201809Y-74025676D01*
X154201809Y-74025676D02*
X154249428Y-73930438D01*
X154249428Y-73930438D02*
X154344666Y-73835200D01*
X154344666Y-73835200D02*
X154487523Y-73787580D01*
X154487523Y-73787580D02*
X154725618Y-73787580D01*
X153725618Y-73787580D02*
X153725618Y-74787580D01*
X153725618Y-74787580D02*
X153392285Y-74073295D01*
X153392285Y-74073295D02*
X153058952Y-74787580D01*
X153058952Y-74787580D02*
X153058952Y-73787580D01*
X152582761Y-73787580D02*
X152582761Y-74787580D01*
X181482419Y-124664115D02*
X180482419Y-124664115D01*
X180482419Y-124664115D02*
X181196704Y-124330782D01*
X181196704Y-124330782D02*
X180482419Y-123997449D01*
X180482419Y-123997449D02*
X181482419Y-123997449D01*
X181434800Y-123568877D02*
X181482419Y-123426020D01*
X181482419Y-123426020D02*
X181482419Y-123187925D01*
X181482419Y-123187925D02*
X181434800Y-123092687D01*
X181434800Y-123092687D02*
X181387180Y-123045068D01*
X181387180Y-123045068D02*
X181291942Y-122997449D01*
X181291942Y-122997449D02*
X181196704Y-122997449D01*
X181196704Y-122997449D02*
X181101466Y-123045068D01*
X181101466Y-123045068D02*
X181053847Y-123092687D01*
X181053847Y-123092687D02*
X181006228Y-123187925D01*
X181006228Y-123187925D02*
X180958609Y-123378401D01*
X180958609Y-123378401D02*
X180910990Y-123473639D01*
X180910990Y-123473639D02*
X180863371Y-123521258D01*
X180863371Y-123521258D02*
X180768133Y-123568877D01*
X180768133Y-123568877D02*
X180672895Y-123568877D01*
X180672895Y-123568877D02*
X180577657Y-123521258D01*
X180577657Y-123521258D02*
X180530038Y-123473639D01*
X180530038Y-123473639D02*
X180482419Y-123378401D01*
X180482419Y-123378401D02*
X180482419Y-123140306D01*
X180482419Y-123140306D02*
X180530038Y-122997449D01*
X180482419Y-122664115D02*
X181482419Y-121997449D01*
X180482419Y-121997449D02*
X181482419Y-122664115D01*
X180530038Y-120330782D02*
X180482419Y-120426020D01*
X180482419Y-120426020D02*
X180482419Y-120568877D01*
X180482419Y-120568877D02*
X180530038Y-120711734D01*
X180530038Y-120711734D02*
X180625276Y-120806972D01*
X180625276Y-120806972D02*
X180720514Y-120854591D01*
X180720514Y-120854591D02*
X180910990Y-120902210D01*
X180910990Y-120902210D02*
X181053847Y-120902210D01*
X181053847Y-120902210D02*
X181244323Y-120854591D01*
X181244323Y-120854591D02*
X181339561Y-120806972D01*
X181339561Y-120806972D02*
X181434800Y-120711734D01*
X181434800Y-120711734D02*
X181482419Y-120568877D01*
X181482419Y-120568877D02*
X181482419Y-120473639D01*
X181482419Y-120473639D02*
X181434800Y-120330782D01*
X181434800Y-120330782D02*
X181387180Y-120283163D01*
X181387180Y-120283163D02*
X181053847Y-120283163D01*
X181053847Y-120283163D02*
X181053847Y-120473639D01*
X180482419Y-119664115D02*
X180482419Y-119473639D01*
X180482419Y-119473639D02*
X180530038Y-119378401D01*
X180530038Y-119378401D02*
X180625276Y-119283163D01*
X180625276Y-119283163D02*
X180815752Y-119235544D01*
X180815752Y-119235544D02*
X181149085Y-119235544D01*
X181149085Y-119235544D02*
X181339561Y-119283163D01*
X181339561Y-119283163D02*
X181434800Y-119378401D01*
X181434800Y-119378401D02*
X181482419Y-119473639D01*
X181482419Y-119473639D02*
X181482419Y-119664115D01*
X181482419Y-119664115D02*
X181434800Y-119759353D01*
X181434800Y-119759353D02*
X181339561Y-119854591D01*
X181339561Y-119854591D02*
X181149085Y-119902210D01*
X181149085Y-119902210D02*
X180815752Y-119902210D01*
X180815752Y-119902210D02*
X180625276Y-119854591D01*
X180625276Y-119854591D02*
X180530038Y-119759353D01*
X180530038Y-119759353D02*
X180482419Y-119664115D01*
X181196704Y-118854591D02*
X181196704Y-118378401D01*
X181482419Y-118949829D02*
X180482419Y-118616496D01*
X180482419Y-118616496D02*
X181482419Y-118283163D01*
X180482419Y-117902210D02*
X180672895Y-117997448D01*
X180482419Y-117473639D02*
X181291942Y-117473639D01*
X181291942Y-117473639D02*
X181387180Y-117426020D01*
X181387180Y-117426020D02*
X181434800Y-117378401D01*
X181434800Y-117378401D02*
X181482419Y-117283163D01*
X181482419Y-117283163D02*
X181482419Y-117092687D01*
X181482419Y-117092687D02*
X181434800Y-116997449D01*
X181434800Y-116997449D02*
X181387180Y-116949830D01*
X181387180Y-116949830D02*
X181291942Y-116902211D01*
X181291942Y-116902211D02*
X180482419Y-116902211D01*
X181482419Y-115949830D02*
X181482419Y-116426020D01*
X181482419Y-116426020D02*
X180482419Y-116426020D01*
X181482419Y-115616496D02*
X180482419Y-115616496D01*
X180482419Y-115616496D02*
X180482419Y-115378401D01*
X180482419Y-115378401D02*
X180530038Y-115235544D01*
X180530038Y-115235544D02*
X180625276Y-115140306D01*
X180625276Y-115140306D02*
X180720514Y-115092687D01*
X180720514Y-115092687D02*
X180910990Y-115045068D01*
X180910990Y-115045068D02*
X181053847Y-115045068D01*
X181053847Y-115045068D02*
X181244323Y-115092687D01*
X181244323Y-115092687D02*
X181339561Y-115140306D01*
X181339561Y-115140306D02*
X181434800Y-115235544D01*
X181434800Y-115235544D02*
X181482419Y-115378401D01*
X181482419Y-115378401D02*
X181482419Y-115616496D01*
X181482419Y-113283163D02*
X181006228Y-113616496D01*
X181482419Y-113854591D02*
X180482419Y-113854591D01*
X180482419Y-113854591D02*
X180482419Y-113473639D01*
X180482419Y-113473639D02*
X180530038Y-113378401D01*
X180530038Y-113378401D02*
X180577657Y-113330782D01*
X180577657Y-113330782D02*
X180672895Y-113283163D01*
X180672895Y-113283163D02*
X180815752Y-113283163D01*
X180815752Y-113283163D02*
X180910990Y-113330782D01*
X180910990Y-113330782D02*
X180958609Y-113378401D01*
X180958609Y-113378401D02*
X181006228Y-113473639D01*
X181006228Y-113473639D02*
X181006228Y-113854591D01*
X180958609Y-112854591D02*
X180958609Y-112521258D01*
X181482419Y-112378401D02*
X181482419Y-112854591D01*
X181482419Y-112854591D02*
X180482419Y-112854591D01*
X180482419Y-112854591D02*
X180482419Y-112378401D01*
X180482419Y-112092686D02*
X181482419Y-111759353D01*
X181482419Y-111759353D02*
X180482419Y-111426020D01*
X180815752Y-109902210D02*
X181482419Y-109902210D01*
X180434800Y-110140305D02*
X181149085Y-110378400D01*
X181149085Y-110378400D02*
X181149085Y-109759353D01*
X181101466Y-108616495D02*
X181101466Y-107854591D01*
X180482419Y-106330781D02*
X181196704Y-106330781D01*
X181196704Y-106330781D02*
X181339561Y-106378400D01*
X181339561Y-106378400D02*
X181434800Y-106473638D01*
X181434800Y-106473638D02*
X181482419Y-106616495D01*
X181482419Y-106616495D02*
X181482419Y-106711733D01*
X181196704Y-105902209D02*
X181196704Y-105426019D01*
X181482419Y-105997447D02*
X180482419Y-105664114D01*
X180482419Y-105664114D02*
X181482419Y-105330781D01*
X180482419Y-105140304D02*
X181482419Y-104806971D01*
X181482419Y-104806971D02*
X180482419Y-104473638D01*
X181482419Y-104140304D02*
X180482419Y-104140304D01*
X180958609Y-103664114D02*
X180958609Y-103330781D01*
X181482419Y-103187924D02*
X181482419Y-103664114D01*
X181482419Y-103664114D02*
X180482419Y-103664114D01*
X180482419Y-103664114D02*
X180482419Y-103187924D01*
X181482419Y-102187924D02*
X181006228Y-102521257D01*
X181482419Y-102759352D02*
X180482419Y-102759352D01*
X180482419Y-102759352D02*
X180482419Y-102378400D01*
X180482419Y-102378400D02*
X180530038Y-102283162D01*
X180530038Y-102283162D02*
X180577657Y-102235543D01*
X180577657Y-102235543D02*
X180672895Y-102187924D01*
X180672895Y-102187924D02*
X180815752Y-102187924D01*
X180815752Y-102187924D02*
X180910990Y-102235543D01*
X180910990Y-102235543D02*
X180958609Y-102283162D01*
X180958609Y-102283162D02*
X181006228Y-102378400D01*
X181006228Y-102378400D02*
X181006228Y-102759352D01*
X181196704Y-101045066D02*
X181196704Y-100568876D01*
X181482419Y-101140304D02*
X180482419Y-100806971D01*
X180482419Y-100806971D02*
X181482419Y-100473638D01*
X180958609Y-99806971D02*
X181006228Y-99664114D01*
X181006228Y-99664114D02*
X181053847Y-99616495D01*
X181053847Y-99616495D02*
X181149085Y-99568876D01*
X181149085Y-99568876D02*
X181291942Y-99568876D01*
X181291942Y-99568876D02*
X181387180Y-99616495D01*
X181387180Y-99616495D02*
X181434800Y-99664114D01*
X181434800Y-99664114D02*
X181482419Y-99759352D01*
X181482419Y-99759352D02*
X181482419Y-100140304D01*
X181482419Y-100140304D02*
X180482419Y-100140304D01*
X180482419Y-100140304D02*
X180482419Y-99806971D01*
X180482419Y-99806971D02*
X180530038Y-99711733D01*
X180530038Y-99711733D02*
X180577657Y-99664114D01*
X180577657Y-99664114D02*
X180672895Y-99616495D01*
X180672895Y-99616495D02*
X180768133Y-99616495D01*
X180768133Y-99616495D02*
X180863371Y-99664114D01*
X180863371Y-99664114D02*
X180910990Y-99711733D01*
X180910990Y-99711733D02*
X180958609Y-99806971D01*
X180958609Y-99806971D02*
X180958609Y-100140304D01*
X181196704Y-99187923D02*
X181196704Y-98711733D01*
X181482419Y-99283161D02*
X180482419Y-98949828D01*
X180482419Y-98949828D02*
X181482419Y-98616495D01*
X181482419Y-98283161D02*
X180482419Y-98283161D01*
X180482419Y-98283161D02*
X180482419Y-98045066D01*
X180482419Y-98045066D02*
X180530038Y-97902209D01*
X180530038Y-97902209D02*
X180625276Y-97806971D01*
X180625276Y-97806971D02*
X180720514Y-97759352D01*
X180720514Y-97759352D02*
X180910990Y-97711733D01*
X180910990Y-97711733D02*
X181053847Y-97711733D01*
X181053847Y-97711733D02*
X181244323Y-97759352D01*
X181244323Y-97759352D02*
X181339561Y-97806971D01*
X181339561Y-97806971D02*
X181434800Y-97902209D01*
X181434800Y-97902209D02*
X181482419Y-98045066D01*
X181482419Y-98045066D02*
X181482419Y-98283161D01*
X181482419Y-97283161D02*
X180482419Y-97283161D01*
X181196704Y-96854590D02*
X181196704Y-96378400D01*
X181482419Y-96949828D02*
X180482419Y-96616495D01*
X180482419Y-96616495D02*
X181482419Y-96283162D01*
X181434800Y-95902209D02*
X181482419Y-95902209D01*
X181482419Y-95902209D02*
X181577657Y-95949828D01*
X181577657Y-95949828D02*
X181625276Y-95997447D01*
X181387180Y-94140305D02*
X181434800Y-94187924D01*
X181434800Y-94187924D02*
X181482419Y-94330781D01*
X181482419Y-94330781D02*
X181482419Y-94426019D01*
X181482419Y-94426019D02*
X181434800Y-94568876D01*
X181434800Y-94568876D02*
X181339561Y-94664114D01*
X181339561Y-94664114D02*
X181244323Y-94711733D01*
X181244323Y-94711733D02*
X181053847Y-94759352D01*
X181053847Y-94759352D02*
X180910990Y-94759352D01*
X180910990Y-94759352D02*
X180720514Y-94711733D01*
X180720514Y-94711733D02*
X180625276Y-94664114D01*
X180625276Y-94664114D02*
X180530038Y-94568876D01*
X180530038Y-94568876D02*
X180482419Y-94426019D01*
X180482419Y-94426019D02*
X180482419Y-94330781D01*
X180482419Y-94330781D02*
X180530038Y-94187924D01*
X180530038Y-94187924D02*
X180577657Y-94140305D01*
X181482419Y-93711733D02*
X180482419Y-93711733D01*
X180958609Y-93711733D02*
X180958609Y-93140305D01*
X181482419Y-93140305D02*
X180482419Y-93140305D01*
X181196704Y-92711733D02*
X181196704Y-92235543D01*
X181482419Y-92806971D02*
X180482419Y-92473638D01*
X180482419Y-92473638D02*
X181482419Y-92140305D01*
X181482419Y-91806971D02*
X180482419Y-91806971D01*
X180482419Y-91806971D02*
X181482419Y-91235543D01*
X181482419Y-91235543D02*
X180482419Y-91235543D01*
X181482419Y-90759352D02*
X180482419Y-90759352D01*
X180482419Y-90759352D02*
X180482419Y-90521257D01*
X180482419Y-90521257D02*
X180530038Y-90378400D01*
X180530038Y-90378400D02*
X180625276Y-90283162D01*
X180625276Y-90283162D02*
X180720514Y-90235543D01*
X180720514Y-90235543D02*
X180910990Y-90187924D01*
X180910990Y-90187924D02*
X181053847Y-90187924D01*
X181053847Y-90187924D02*
X181244323Y-90235543D01*
X181244323Y-90235543D02*
X181339561Y-90283162D01*
X181339561Y-90283162D02*
X181434800Y-90378400D01*
X181434800Y-90378400D02*
X181482419Y-90521257D01*
X181482419Y-90521257D02*
X181482419Y-90759352D01*
X181482419Y-89283162D02*
X181482419Y-89759352D01*
X181482419Y-89759352D02*
X180482419Y-89759352D01*
X180958609Y-88949828D02*
X180958609Y-88616495D01*
X181482419Y-88473638D02*
X181482419Y-88949828D01*
X181482419Y-88949828D02*
X180482419Y-88949828D01*
X180482419Y-88949828D02*
X180482419Y-88473638D01*
X181482419Y-87473638D02*
X181006228Y-87806971D01*
X181482419Y-88045066D02*
X180482419Y-88045066D01*
X180482419Y-88045066D02*
X180482419Y-87664114D01*
X180482419Y-87664114D02*
X180530038Y-87568876D01*
X180530038Y-87568876D02*
X180577657Y-87521257D01*
X180577657Y-87521257D02*
X180672895Y-87473638D01*
X180672895Y-87473638D02*
X180815752Y-87473638D01*
X180815752Y-87473638D02*
X180910990Y-87521257D01*
X180910990Y-87521257D02*
X180958609Y-87568876D01*
X180958609Y-87568876D02*
X181006228Y-87664114D01*
X181006228Y-87664114D02*
X181006228Y-88045066D01*
X181482419Y-86283161D02*
X180482419Y-86283161D01*
X181482419Y-85711733D02*
X180910990Y-86140304D01*
X180482419Y-85711733D02*
X181053847Y-86283161D01*
X181482419Y-84806971D02*
X181482419Y-85283161D01*
X181482419Y-85283161D02*
X180482419Y-85283161D01*
X180482419Y-84473637D02*
X181291942Y-84473637D01*
X181291942Y-84473637D02*
X181387180Y-84426018D01*
X181387180Y-84426018D02*
X181434800Y-84378399D01*
X181434800Y-84378399D02*
X181482419Y-84283161D01*
X181482419Y-84283161D02*
X181482419Y-84092685D01*
X181482419Y-84092685D02*
X181434800Y-83997447D01*
X181434800Y-83997447D02*
X181387180Y-83949828D01*
X181387180Y-83949828D02*
X181291942Y-83902209D01*
X181291942Y-83902209D02*
X180482419Y-83902209D01*
X180149085Y-84378399D02*
X180196704Y-84330780D01*
X180196704Y-84330780D02*
X180244323Y-84378399D01*
X180244323Y-84378399D02*
X180196704Y-84426018D01*
X180196704Y-84426018D02*
X180149085Y-84378399D01*
X180149085Y-84378399D02*
X180244323Y-84378399D01*
X180149085Y-83997447D02*
X180196704Y-83949828D01*
X180196704Y-83949828D02*
X180244323Y-83997447D01*
X180244323Y-83997447D02*
X180196704Y-84045066D01*
X180196704Y-84045066D02*
X180149085Y-83997447D01*
X180149085Y-83997447D02*
X180244323Y-83997447D01*
X181434800Y-83473637D02*
X181482419Y-83330780D01*
X181482419Y-83330780D02*
X181482419Y-83092685D01*
X181482419Y-83092685D02*
X181434800Y-82997447D01*
X181434800Y-82997447D02*
X181387180Y-82949828D01*
X181387180Y-82949828D02*
X181291942Y-82902209D01*
X181291942Y-82902209D02*
X181196704Y-82902209D01*
X181196704Y-82902209D02*
X181101466Y-82949828D01*
X181101466Y-82949828D02*
X181053847Y-82997447D01*
X181053847Y-82997447D02*
X181006228Y-83092685D01*
X181006228Y-83092685D02*
X180958609Y-83283161D01*
X180958609Y-83283161D02*
X180910990Y-83378399D01*
X180910990Y-83378399D02*
X180863371Y-83426018D01*
X180863371Y-83426018D02*
X180768133Y-83473637D01*
X180768133Y-83473637D02*
X180672895Y-83473637D01*
X180672895Y-83473637D02*
X180577657Y-83426018D01*
X180577657Y-83426018D02*
X180530038Y-83378399D01*
X180530038Y-83378399D02*
X180482419Y-83283161D01*
X180482419Y-83283161D02*
X180482419Y-83045066D01*
X180482419Y-83045066D02*
X180530038Y-82902209D01*
X180958609Y-82473637D02*
X180958609Y-82140304D01*
X181482419Y-81997447D02*
X181482419Y-82473637D01*
X181482419Y-82473637D02*
X180482419Y-82473637D01*
X180482419Y-82473637D02*
X180482419Y-81997447D01*
X181482419Y-80997447D02*
X181006228Y-81330780D01*
X181482419Y-81568875D02*
X180482419Y-81568875D01*
X180482419Y-81568875D02*
X180482419Y-81187923D01*
X180482419Y-81187923D02*
X180530038Y-81092685D01*
X180530038Y-81092685D02*
X180577657Y-81045066D01*
X180577657Y-81045066D02*
X180672895Y-80997447D01*
X180672895Y-80997447D02*
X180815752Y-80997447D01*
X180815752Y-80997447D02*
X180910990Y-81045066D01*
X180910990Y-81045066D02*
X180958609Y-81092685D01*
X180958609Y-81092685D02*
X181006228Y-81187923D01*
X181006228Y-81187923D02*
X181006228Y-81568875D01*
X181101466Y-79806970D02*
X181101466Y-79045066D01*
X180577657Y-77854589D02*
X180530038Y-77806970D01*
X180530038Y-77806970D02*
X180482419Y-77711732D01*
X180482419Y-77711732D02*
X180482419Y-77473637D01*
X180482419Y-77473637D02*
X180530038Y-77378399D01*
X180530038Y-77378399D02*
X180577657Y-77330780D01*
X180577657Y-77330780D02*
X180672895Y-77283161D01*
X180672895Y-77283161D02*
X180768133Y-77283161D01*
X180768133Y-77283161D02*
X180910990Y-77330780D01*
X180910990Y-77330780D02*
X181482419Y-77902208D01*
X181482419Y-77902208D02*
X181482419Y-77283161D01*
X180482419Y-76664113D02*
X180482419Y-76568875D01*
X180482419Y-76568875D02*
X180530038Y-76473637D01*
X180530038Y-76473637D02*
X180577657Y-76426018D01*
X180577657Y-76426018D02*
X180672895Y-76378399D01*
X180672895Y-76378399D02*
X180863371Y-76330780D01*
X180863371Y-76330780D02*
X181101466Y-76330780D01*
X181101466Y-76330780D02*
X181291942Y-76378399D01*
X181291942Y-76378399D02*
X181387180Y-76426018D01*
X181387180Y-76426018D02*
X181434800Y-76473637D01*
X181434800Y-76473637D02*
X181482419Y-76568875D01*
X181482419Y-76568875D02*
X181482419Y-76664113D01*
X181482419Y-76664113D02*
X181434800Y-76759351D01*
X181434800Y-76759351D02*
X181387180Y-76806970D01*
X181387180Y-76806970D02*
X181291942Y-76854589D01*
X181291942Y-76854589D02*
X181101466Y-76902208D01*
X181101466Y-76902208D02*
X180863371Y-76902208D01*
X180863371Y-76902208D02*
X180672895Y-76854589D01*
X180672895Y-76854589D02*
X180577657Y-76806970D01*
X180577657Y-76806970D02*
X180530038Y-76759351D01*
X180530038Y-76759351D02*
X180482419Y-76664113D01*
X180577657Y-75949827D02*
X180530038Y-75902208D01*
X180530038Y-75902208D02*
X180482419Y-75806970D01*
X180482419Y-75806970D02*
X180482419Y-75568875D01*
X180482419Y-75568875D02*
X180530038Y-75473637D01*
X180530038Y-75473637D02*
X180577657Y-75426018D01*
X180577657Y-75426018D02*
X180672895Y-75378399D01*
X180672895Y-75378399D02*
X180768133Y-75378399D01*
X180768133Y-75378399D02*
X180910990Y-75426018D01*
X180910990Y-75426018D02*
X181482419Y-75997446D01*
X181482419Y-75997446D02*
X181482419Y-75378399D01*
X180815752Y-74521256D02*
X181482419Y-74521256D01*
X180434800Y-74759351D02*
X181149085Y-74997446D01*
X181149085Y-74997446D02*
X181149085Y-74378399D01*
D11*
X149500419Y-78164207D02*
X149452800Y-78116588D01*
X149452800Y-78116588D02*
X149405180Y-77973731D01*
X149405180Y-77973731D02*
X149405180Y-77878493D01*
X149405180Y-77878493D02*
X149452800Y-77735636D01*
X149452800Y-77735636D02*
X149548038Y-77640398D01*
X149548038Y-77640398D02*
X149643276Y-77592779D01*
X149643276Y-77592779D02*
X149833752Y-77545160D01*
X149833752Y-77545160D02*
X149976609Y-77545160D01*
X149976609Y-77545160D02*
X150167085Y-77592779D01*
X150167085Y-77592779D02*
X150262323Y-77640398D01*
X150262323Y-77640398D02*
X150357561Y-77735636D01*
X150357561Y-77735636D02*
X150405180Y-77878493D01*
X150405180Y-77878493D02*
X150405180Y-77973731D01*
X150405180Y-77973731D02*
X150357561Y-78116588D01*
X150357561Y-78116588D02*
X150309942Y-78164207D01*
X150309942Y-78545160D02*
X150357561Y-78592779D01*
X150357561Y-78592779D02*
X150405180Y-78688017D01*
X150405180Y-78688017D02*
X150405180Y-78926112D01*
X150405180Y-78926112D02*
X150357561Y-79021350D01*
X150357561Y-79021350D02*
X150309942Y-79068969D01*
X150309942Y-79068969D02*
X150214704Y-79116588D01*
X150214704Y-79116588D02*
X150119466Y-79116588D01*
X150119466Y-79116588D02*
X149976609Y-79068969D01*
X149976609Y-79068969D02*
X149405180Y-78497541D01*
X149405180Y-78497541D02*
X149405180Y-79116588D01*
D10*
X149373884Y-89707419D02*
X149373884Y-90516942D01*
X149373884Y-90516942D02*
X149421503Y-90612180D01*
X149421503Y-90612180D02*
X149469122Y-90659800D01*
X149469122Y-90659800D02*
X149564360Y-90707419D01*
X149564360Y-90707419D02*
X149754836Y-90707419D01*
X149754836Y-90707419D02*
X149850074Y-90659800D01*
X149850074Y-90659800D02*
X149897693Y-90612180D01*
X149897693Y-90612180D02*
X149945312Y-90516942D01*
X149945312Y-90516942D02*
X149945312Y-89707419D01*
X150326265Y-89707419D02*
X150992931Y-89707419D01*
X150992931Y-89707419D02*
X150564360Y-90707419D01*
D11*
X154653819Y-124967904D02*
X155463342Y-124967904D01*
X155463342Y-124967904D02*
X155558580Y-124920285D01*
X155558580Y-124920285D02*
X155606200Y-124872666D01*
X155606200Y-124872666D02*
X155653819Y-124777428D01*
X155653819Y-124777428D02*
X155653819Y-124586952D01*
X155653819Y-124586952D02*
X155606200Y-124491714D01*
X155606200Y-124491714D02*
X155558580Y-124444095D01*
X155558580Y-124444095D02*
X155463342Y-124396476D01*
X155463342Y-124396476D02*
X154653819Y-124396476D01*
X154653819Y-123491714D02*
X154653819Y-123682190D01*
X154653819Y-123682190D02*
X154701438Y-123777428D01*
X154701438Y-123777428D02*
X154749057Y-123825047D01*
X154749057Y-123825047D02*
X154891914Y-123920285D01*
X154891914Y-123920285D02*
X155082390Y-123967904D01*
X155082390Y-123967904D02*
X155463342Y-123967904D01*
X155463342Y-123967904D02*
X155558580Y-123920285D01*
X155558580Y-123920285D02*
X155606200Y-123872666D01*
X155606200Y-123872666D02*
X155653819Y-123777428D01*
X155653819Y-123777428D02*
X155653819Y-123586952D01*
X155653819Y-123586952D02*
X155606200Y-123491714D01*
X155606200Y-123491714D02*
X155558580Y-123444095D01*
X155558580Y-123444095D02*
X155463342Y-123396476D01*
X155463342Y-123396476D02*
X155225247Y-123396476D01*
X155225247Y-123396476D02*
X155130009Y-123444095D01*
X155130009Y-123444095D02*
X155082390Y-123491714D01*
X155082390Y-123491714D02*
X155034771Y-123586952D01*
X155034771Y-123586952D02*
X155034771Y-123777428D01*
X155034771Y-123777428D02*
X155082390Y-123872666D01*
X155082390Y-123872666D02*
X155130009Y-123920285D01*
X155130009Y-123920285D02*
X155225247Y-123967904D01*
X167602819Y-109487220D02*
X168412342Y-109487220D01*
X168412342Y-109487220D02*
X168507580Y-109439601D01*
X168507580Y-109439601D02*
X168555200Y-109391982D01*
X168555200Y-109391982D02*
X168602819Y-109296744D01*
X168602819Y-109296744D02*
X168602819Y-109106268D01*
X168602819Y-109106268D02*
X168555200Y-109011030D01*
X168555200Y-109011030D02*
X168507580Y-108963411D01*
X168507580Y-108963411D02*
X168412342Y-108915792D01*
X168412342Y-108915792D02*
X167602819Y-108915792D01*
X168602819Y-107915792D02*
X168602819Y-108487220D01*
X168602819Y-108201506D02*
X167602819Y-108201506D01*
X167602819Y-108201506D02*
X167745676Y-108296744D01*
X167745676Y-108296744D02*
X167840914Y-108391982D01*
X167840914Y-108391982D02*
X167888533Y-108487220D01*
X167602819Y-102856588D02*
X168412342Y-102856588D01*
X168412342Y-102856588D02*
X168507580Y-102808969D01*
X168507580Y-102808969D02*
X168555200Y-102761350D01*
X168555200Y-102761350D02*
X168602819Y-102666112D01*
X168602819Y-102666112D02*
X168602819Y-102475636D01*
X168602819Y-102475636D02*
X168555200Y-102380398D01*
X168555200Y-102380398D02*
X168507580Y-102332779D01*
X168507580Y-102332779D02*
X168412342Y-102285160D01*
X168412342Y-102285160D02*
X167602819Y-102285160D01*
X167698057Y-101856588D02*
X167650438Y-101808969D01*
X167650438Y-101808969D02*
X167602819Y-101713731D01*
X167602819Y-101713731D02*
X167602819Y-101475636D01*
X167602819Y-101475636D02*
X167650438Y-101380398D01*
X167650438Y-101380398D02*
X167698057Y-101332779D01*
X167698057Y-101332779D02*
X167793295Y-101285160D01*
X167793295Y-101285160D02*
X167888533Y-101285160D01*
X167888533Y-101285160D02*
X168031390Y-101332779D01*
X168031390Y-101332779D02*
X168602819Y-101904207D01*
X168602819Y-101904207D02*
X168602819Y-101285160D01*
X155299580Y-120757792D02*
X155347200Y-120805411D01*
X155347200Y-120805411D02*
X155394819Y-120948268D01*
X155394819Y-120948268D02*
X155394819Y-121043506D01*
X155394819Y-121043506D02*
X155347200Y-121186363D01*
X155347200Y-121186363D02*
X155251961Y-121281601D01*
X155251961Y-121281601D02*
X155156723Y-121329220D01*
X155156723Y-121329220D02*
X154966247Y-121376839D01*
X154966247Y-121376839D02*
X154823390Y-121376839D01*
X154823390Y-121376839D02*
X154632914Y-121329220D01*
X154632914Y-121329220D02*
X154537676Y-121281601D01*
X154537676Y-121281601D02*
X154442438Y-121186363D01*
X154442438Y-121186363D02*
X154394819Y-121043506D01*
X154394819Y-121043506D02*
X154394819Y-120948268D01*
X154394819Y-120948268D02*
X154442438Y-120805411D01*
X154442438Y-120805411D02*
X154490057Y-120757792D01*
X155394819Y-119805411D02*
X155394819Y-120376839D01*
X155394819Y-120091125D02*
X154394819Y-120091125D01*
X154394819Y-120091125D02*
X154537676Y-120186363D01*
X154537676Y-120186363D02*
X154632914Y-120281601D01*
X154632914Y-120281601D02*
X154680533Y-120376839D01*
X155299580Y-103779792D02*
X155347200Y-103827411D01*
X155347200Y-103827411D02*
X155394819Y-103970268D01*
X155394819Y-103970268D02*
X155394819Y-104065506D01*
X155394819Y-104065506D02*
X155347200Y-104208363D01*
X155347200Y-104208363D02*
X155251961Y-104303601D01*
X155251961Y-104303601D02*
X155156723Y-104351220D01*
X155156723Y-104351220D02*
X154966247Y-104398839D01*
X154966247Y-104398839D02*
X154823390Y-104398839D01*
X154823390Y-104398839D02*
X154632914Y-104351220D01*
X154632914Y-104351220D02*
X154537676Y-104303601D01*
X154537676Y-104303601D02*
X154442438Y-104208363D01*
X154442438Y-104208363D02*
X154394819Y-104065506D01*
X154394819Y-104065506D02*
X154394819Y-103970268D01*
X154394819Y-103970268D02*
X154442438Y-103827411D01*
X154442438Y-103827411D02*
X154490057Y-103779792D01*
X154394819Y-103446458D02*
X154394819Y-102827411D01*
X154394819Y-102827411D02*
X154775771Y-103160744D01*
X154775771Y-103160744D02*
X154775771Y-103017887D01*
X154775771Y-103017887D02*
X154823390Y-102922649D01*
X154823390Y-102922649D02*
X154871009Y-102875030D01*
X154871009Y-102875030D02*
X154966247Y-102827411D01*
X154966247Y-102827411D02*
X155204342Y-102827411D01*
X155204342Y-102827411D02*
X155299580Y-102875030D01*
X155299580Y-102875030D02*
X155347200Y-102922649D01*
X155347200Y-102922649D02*
X155394819Y-103017887D01*
X155394819Y-103017887D02*
X155394819Y-103303601D01*
X155394819Y-103303601D02*
X155347200Y-103398839D01*
X155347200Y-103398839D02*
X155299580Y-103446458D01*
D10*
X173193419Y-77382233D02*
X173907704Y-77382233D01*
X173907704Y-77382233D02*
X174050561Y-77429852D01*
X174050561Y-77429852D02*
X174145800Y-77525090D01*
X174145800Y-77525090D02*
X174193419Y-77667947D01*
X174193419Y-77667947D02*
X174193419Y-77763185D01*
X174193419Y-76382233D02*
X174193419Y-76953661D01*
X174193419Y-76667947D02*
X173193419Y-76667947D01*
X173193419Y-76667947D02*
X173336276Y-76763185D01*
X173336276Y-76763185D02*
X173431514Y-76858423D01*
X173431514Y-76858423D02*
X173479133Y-76953661D01*
D11*
X167602819Y-85611220D02*
X168412342Y-85611220D01*
X168412342Y-85611220D02*
X168507580Y-85563601D01*
X168507580Y-85563601D02*
X168555200Y-85515982D01*
X168555200Y-85515982D02*
X168602819Y-85420744D01*
X168602819Y-85420744D02*
X168602819Y-85230268D01*
X168602819Y-85230268D02*
X168555200Y-85135030D01*
X168555200Y-85135030D02*
X168507580Y-85087411D01*
X168507580Y-85087411D02*
X168412342Y-85039792D01*
X168412342Y-85039792D02*
X167602819Y-85039792D01*
X167602819Y-84658839D02*
X167602819Y-84039792D01*
X167602819Y-84039792D02*
X167983771Y-84373125D01*
X167983771Y-84373125D02*
X167983771Y-84230268D01*
X167983771Y-84230268D02*
X168031390Y-84135030D01*
X168031390Y-84135030D02*
X168079009Y-84087411D01*
X168079009Y-84087411D02*
X168174247Y-84039792D01*
X168174247Y-84039792D02*
X168412342Y-84039792D01*
X168412342Y-84039792D02*
X168507580Y-84087411D01*
X168507580Y-84087411D02*
X168555200Y-84135030D01*
X168555200Y-84135030D02*
X168602819Y-84230268D01*
X168602819Y-84230268D02*
X168602819Y-84515982D01*
X168602819Y-84515982D02*
X168555200Y-84611220D01*
X168555200Y-84611220D02*
X168507580Y-84658839D01*
D12*
X149100000Y-77258000D02*
X149100000Y-82858000D01*
X149100000Y-82858000D02*
X150100000Y-83858000D01*
X150100000Y-83858000D02*
X151280000Y-83858000D01*
X151280000Y-77258000D02*
X149100000Y-77258000D01*
X153520000Y-83858000D02*
X154700000Y-83858000D01*
X154700000Y-83858000D02*
X155700000Y-82858000D01*
X155700000Y-77258000D02*
X153520000Y-77258000D01*
X155700000Y-82858000D02*
X155700000Y-77258000D01*
D13*
X151150000Y-84708000D02*
G75*
G02*
X150950000Y-84708000I-100000J0D01*
G01*
X150950000Y-84708000D02*
G75*
G02*
X151150000Y-84708000I100000J0D01*
G01*
D11*
X149070000Y-88880000D02*
X155730000Y-88880000D01*
X149070000Y-91620000D02*
X149070000Y-88880000D01*
X155730000Y-88880000D02*
X155730000Y-91620000D01*
X155730000Y-91620000D02*
X149070000Y-91620000D01*
D14*
X156299000Y-73406000D02*
X156299000Y-125596000D01*
X156299000Y-125596000D02*
X179499000Y-125596000D01*
X159299000Y-74676000D02*
X159299000Y-125536000D01*
X159299000Y-125536000D02*
X164359000Y-125536000D01*
X160279000Y-70866000D02*
X160279000Y-73406000D01*
X161549000Y-125536000D02*
X176499000Y-125536000D01*
X165359000Y-126746000D02*
X165359000Y-125603000D01*
X170439000Y-125536000D02*
X170439000Y-126746000D01*
X170439000Y-126746000D02*
X165359000Y-126746000D01*
X175519000Y-70866000D02*
X160279000Y-70866000D01*
X175519000Y-73406000D02*
X175519000Y-70866000D01*
X176499000Y-125536000D02*
X176499000Y-74676000D01*
D10*
X179329000Y-74676000D02*
X156469000Y-74676000D01*
D14*
X179499000Y-73406000D02*
X156299000Y-73406000D01*
X179499000Y-125596000D02*
X179499000Y-73406000D01*
D11*
X166378000Y-107668000D02*
X169918000Y-107668000D01*
X166378000Y-114328000D02*
X166378000Y-107668000D01*
X169918000Y-107668000D02*
X169918000Y-114328000D01*
X169918000Y-114328000D02*
X166378000Y-114328000D01*
D15*
X165428000Y-107438000D02*
G75*
G02*
X165128000Y-107438000I-150000J0D01*
G01*
X165128000Y-107438000D02*
G75*
G02*
X165428000Y-107438000I150000J0D01*
G01*
D11*
X166378000Y-96492000D02*
X169918000Y-96492000D01*
X166378000Y-103152000D02*
X166378000Y-96492000D01*
X169918000Y-96492000D02*
X169918000Y-103152000D01*
X169918000Y-103152000D02*
X166378000Y-103152000D01*
D15*
X171168000Y-103382000D02*
G75*
G02*
X170868000Y-103382000I-150000J0D01*
G01*
X170868000Y-103382000D02*
G75*
G02*
X171168000Y-103382000I150000J0D01*
G01*
D12*
X149100000Y-116064000D02*
X149100000Y-121664000D01*
X149100000Y-121664000D02*
X151280000Y-121664000D01*
X150100000Y-115064000D02*
X149100000Y-116064000D01*
X151280000Y-115064000D02*
X150100000Y-115064000D01*
X153520000Y-121664000D02*
X155700000Y-121664000D01*
X154700000Y-115064000D02*
X153520000Y-115064000D01*
X155700000Y-116064000D02*
X154700000Y-115064000D01*
X155700000Y-121664000D02*
X155700000Y-116064000D01*
D13*
X153850000Y-114214000D02*
G75*
G02*
X153650000Y-114214000I-100000J0D01*
G01*
X153650000Y-114214000D02*
G75*
G02*
X153850000Y-114214000I100000J0D01*
G01*
D12*
X149100000Y-99086000D02*
X149100000Y-104686000D01*
X149100000Y-104686000D02*
X151280000Y-104686000D01*
X150100000Y-98086000D02*
X149100000Y-99086000D01*
X151280000Y-98086000D02*
X150100000Y-98086000D01*
X153520000Y-104686000D02*
X155700000Y-104686000D01*
X154700000Y-98086000D02*
X153520000Y-98086000D01*
X155700000Y-99086000D02*
X154700000Y-98086000D01*
X155700000Y-104686000D02*
X155700000Y-99086000D01*
D13*
X153850000Y-97236000D02*
G75*
G02*
X153650000Y-97236000I-100000J0D01*
G01*
X153650000Y-97236000D02*
G75*
G02*
X153850000Y-97236000I100000J0D01*
G01*
D16*
X161163000Y-76032900D02*
X161163000Y-126832900D01*
X161163000Y-76032900D02*
X166751000Y-76032900D01*
X174625000Y-76032900D02*
X168783000Y-76032900D01*
X174625000Y-126832900D02*
X161163000Y-126832900D01*
X174625000Y-126832900D02*
X174625000Y-76032900D01*
X168783000Y-76032900D02*
G75*
G02*
X166751000Y-76032900I-1016000J0D01*
G01*
D11*
X166378000Y-83792000D02*
X169918000Y-83792000D01*
X166378000Y-90452000D02*
X166378000Y-83792000D01*
X169918000Y-83792000D02*
X169918000Y-90452000D01*
X169918000Y-90452000D02*
X166378000Y-90452000D01*
D15*
X165428000Y-83562000D02*
G75*
G02*
X165128000Y-83562000I-150000J0D01*
G01*
X165128000Y-83562000D02*
G75*
G02*
X165428000Y-83562000I150000J0D01*
G01*
%LPC*%
D17*
X152400000Y-83058000D03*
X152400000Y-78058000D03*
D18*
X150100000Y-93080000D03*
X152400000Y-93080000D03*
X154700000Y-93080000D03*
D19*
X152400000Y-87420000D03*
D20*
X178059000Y-124206000D03*
X178059000Y-121666000D03*
X178059000Y-119126000D03*
X178059000Y-116586000D03*
X178059000Y-114046000D03*
X178059000Y-111506000D03*
X178059000Y-108966000D03*
X178059000Y-106426000D03*
X178059000Y-103886000D03*
X178059000Y-101346000D03*
X178059000Y-98806000D03*
X178059000Y-96266000D03*
X178059000Y-93726000D03*
X178059000Y-91186000D03*
X178059000Y-88646000D03*
X178059000Y-86106000D03*
X178059000Y-83566000D03*
X178059000Y-81026000D03*
X178059000Y-78486000D03*
X178059000Y-75946000D03*
X157739000Y-75946000D03*
X157739000Y-78486000D03*
X157739000Y-81026000D03*
X157739000Y-83566000D03*
X157739000Y-86106000D03*
X157739000Y-88646000D03*
X157739000Y-91186000D03*
X157739000Y-93726000D03*
X157739000Y-96266000D03*
X157739000Y-98806000D03*
X157739000Y-101346000D03*
X157739000Y-103886000D03*
X157739000Y-106426000D03*
X157739000Y-108966000D03*
X157739000Y-111506000D03*
X157739000Y-114046000D03*
X157739000Y-116586000D03*
X157739000Y-119126000D03*
X157739000Y-121666000D03*
X157739000Y-124206000D03*
D21*
X165278000Y-108068000D03*
X165278000Y-108718000D03*
X165278000Y-109368000D03*
X165278000Y-110018000D03*
X165278000Y-110678000D03*
X165278000Y-111328000D03*
X165278000Y-111978000D03*
X165278000Y-112628000D03*
X165278000Y-113278000D03*
X165278000Y-113928000D03*
X171018000Y-113928000D03*
X171018000Y-113278000D03*
X171018000Y-112628000D03*
X171018000Y-111978000D03*
X171018000Y-111328000D03*
X171018000Y-110678000D03*
X171018000Y-110018000D03*
X171018000Y-109368000D03*
X171018000Y-108718000D03*
X171018000Y-108068000D03*
X171018000Y-102752000D03*
X171018000Y-102102000D03*
X171018000Y-101452000D03*
X171018000Y-100802000D03*
X171018000Y-100142000D03*
X171018000Y-99492000D03*
X171018000Y-98842000D03*
X171018000Y-98192000D03*
X171018000Y-97542000D03*
X171018000Y-96892000D03*
X165278000Y-96892000D03*
X165278000Y-97542000D03*
X165278000Y-98192000D03*
X165278000Y-98842000D03*
X165278000Y-99492000D03*
X165278000Y-100142000D03*
X165278000Y-100802000D03*
X165278000Y-101452000D03*
X165278000Y-102102000D03*
X165278000Y-102752000D03*
D22*
X152400000Y-115864000D03*
X152400000Y-120864000D03*
X152400000Y-98886000D03*
X152400000Y-103886000D03*
D23*
X160274000Y-77302900D03*
X160274000Y-79842900D03*
X160274000Y-82382900D03*
X160274000Y-84922900D03*
X160274000Y-87462900D03*
X160274000Y-90002900D03*
X160274000Y-92542900D03*
X160274000Y-95082900D03*
X160274000Y-97622900D03*
X160274000Y-100162900D03*
X160274000Y-102702900D03*
X160274000Y-105242900D03*
X160274000Y-107782900D03*
X160274000Y-110322900D03*
X160274000Y-112862900D03*
X160274000Y-115402900D03*
X160274000Y-117942900D03*
X160274000Y-120482900D03*
X160274000Y-123022900D03*
X160274000Y-125562900D03*
X175514000Y-125562900D03*
X175514000Y-123022900D03*
X175514000Y-120482900D03*
X175514000Y-117942900D03*
X175514000Y-115402900D03*
X175514000Y-112862900D03*
X175514000Y-110322900D03*
X175514000Y-107782900D03*
X175514000Y-105242900D03*
X175514000Y-102702900D03*
X175514000Y-100162900D03*
X175514000Y-97622900D03*
X175514000Y-95082900D03*
X175514000Y-92542900D03*
X175514000Y-90002900D03*
X175514000Y-87462900D03*
X175514000Y-84922900D03*
X175514000Y-82382900D03*
X175514000Y-79842900D03*
X175514000Y-77302900D03*
D21*
X165278000Y-84192000D03*
X165278000Y-84842000D03*
X165278000Y-85492000D03*
X165278000Y-86142000D03*
X165278000Y-86802000D03*
X165278000Y-87452000D03*
X165278000Y-88102000D03*
X165278000Y-88752000D03*
X165278000Y-89402000D03*
X165278000Y-90052000D03*
X171018000Y-90052000D03*
X171018000Y-89402000D03*
X171018000Y-88752000D03*
X171018000Y-88102000D03*
X171018000Y-87452000D03*
X171018000Y-86802000D03*
X171018000Y-86142000D03*
X171018000Y-85492000D03*
X171018000Y-84842000D03*
X171018000Y-84192000D03*
D23*
X154990800Y-106821600D03*
X154990800Y-96306000D03*
%LPD*%
M02*
