G04 #@! TF.GenerationSoftware,KiCad,Pcbnew,8.0.4*
G04 #@! TF.CreationDate,2024-09-05T13:45:58-03:00*
G04 #@! TF.ProjectId,MSX_Goauld_Rev4,4d53585f-476f-4617-956c-645f52657634,rev?*
G04 #@! TF.SameCoordinates,Original*
G04 #@! TF.FileFunction,Copper,L3,Inr*
G04 #@! TF.FilePolarity,Positive*
%FSLAX46Y46*%
G04 Gerber Fmt 4.6, Leading zero omitted, Abs format (unit mm)*
G04 Created by KiCad (PCBNEW 8.0.4) date 2024-09-05 13:45:58*
%MOMM*%
%LPD*%
G01*
G04 APERTURE LIST*
G04 #@! TA.AperFunction,ComponentPad*
%ADD10C,1.320800*%
G04 #@! TD*
G04 #@! TA.AperFunction,ComponentPad*
%ADD11C,1.500000*%
G04 #@! TD*
G04 #@! TA.AperFunction,ViaPad*
%ADD12C,0.800000*%
G04 #@! TD*
G04 #@! TA.AperFunction,Conductor*
%ADD13C,0.450000*%
G04 #@! TD*
G04 #@! TA.AperFunction,Conductor*
%ADD14C,0.200000*%
G04 #@! TD*
G04 APERTURE END LIST*
D10*
X178059000Y-124206000D03*
X178059000Y-121666000D03*
X178059000Y-119126000D03*
X178059000Y-116586000D03*
X178059000Y-114046000D03*
X178059000Y-111506000D03*
X178059000Y-108966000D03*
X178059000Y-106426000D03*
X178059000Y-103886000D03*
X178059000Y-101346000D03*
X178059000Y-98806000D03*
X178059000Y-96266000D03*
X178059000Y-93726000D03*
X178059000Y-91186000D03*
X178059000Y-88646000D03*
X178059000Y-86106000D03*
X178059000Y-83566000D03*
X178059000Y-81026000D03*
X178059000Y-78486000D03*
X178059000Y-75946000D03*
X157739000Y-75946000D03*
X157739000Y-78486000D03*
X157739000Y-81026000D03*
X157739000Y-83566000D03*
X157739000Y-86106000D03*
X157739000Y-88646000D03*
X157739000Y-91186000D03*
X157739000Y-93726000D03*
X157739000Y-96266000D03*
X157739000Y-98806000D03*
X157739000Y-101346000D03*
X157739000Y-103886000D03*
X157739000Y-106426000D03*
X157739000Y-108966000D03*
X157739000Y-111506000D03*
X157739000Y-114046000D03*
X157739000Y-116586000D03*
X157739000Y-119126000D03*
X157739000Y-121666000D03*
X157739000Y-124206000D03*
D11*
X160274000Y-77302900D03*
X160274000Y-79842900D03*
X160274000Y-82382900D03*
X160274000Y-84922900D03*
X160274000Y-87462900D03*
X160274000Y-90002900D03*
X160274000Y-92542900D03*
X160274000Y-95082900D03*
X160274000Y-97622900D03*
X160274000Y-100162900D03*
X160274000Y-102702900D03*
X160274000Y-105242900D03*
X160274000Y-107782900D03*
X160274000Y-110322900D03*
X160274000Y-112862900D03*
X160274000Y-115402900D03*
X160274000Y-117942900D03*
X160274000Y-120482900D03*
X160274000Y-123022900D03*
X160274000Y-125562900D03*
X175514000Y-125562900D03*
X175514000Y-123022900D03*
X175514000Y-120482900D03*
X175514000Y-117942900D03*
X175514000Y-115402900D03*
X175514000Y-112862900D03*
X175514000Y-110322900D03*
X175514000Y-107782900D03*
X175514000Y-105242900D03*
X175514000Y-102702900D03*
X175514000Y-100162900D03*
X175514000Y-97622900D03*
X175514000Y-95082900D03*
X175514000Y-92542900D03*
X175514000Y-90002900D03*
X175514000Y-87462900D03*
X175514000Y-84922900D03*
X175514000Y-82382900D03*
X175514000Y-79842900D03*
X175514000Y-77302900D03*
X154990800Y-106821600D03*
X154990800Y-96306000D03*
D12*
X170233700Y-82781300D03*
X155386400Y-82964600D03*
X152400000Y-95001900D03*
X172529100Y-102950500D03*
X165920800Y-106807900D03*
X170140900Y-96083400D03*
X163317900Y-97756400D03*
X164301500Y-103738100D03*
X166916300Y-123080800D03*
X171635000Y-107231300D03*
X172521900Y-111346700D03*
X163379800Y-86086600D03*
X163733000Y-99819200D03*
X167073400Y-94856900D03*
X161723700Y-99014000D03*
X169150400Y-108876200D03*
X163374200Y-87088400D03*
X164106300Y-114895400D03*
X166840100Y-100115200D03*
X172499100Y-108408600D03*
X169107900Y-97424000D03*
X163390600Y-92849200D03*
X172535800Y-112754400D03*
X162182700Y-91150200D03*
X172189700Y-94622600D03*
X163393200Y-123057700D03*
X162677300Y-92141700D03*
X170529600Y-104785300D03*
X162631300Y-124130600D03*
X172974700Y-96378800D03*
X173741200Y-97138700D03*
X172604200Y-100752500D03*
X167781100Y-101452000D03*
X155756300Y-104405600D03*
X169237600Y-123804000D03*
X169339900Y-121321700D03*
X170538800Y-103727600D03*
X167997100Y-112176200D03*
X169498000Y-112652800D03*
X163248700Y-111477900D03*
X167269100Y-113085600D03*
X163217500Y-102304300D03*
X164358900Y-107078000D03*
X166731100Y-104406300D03*
X169484100Y-110428100D03*
X167185500Y-102643300D03*
X164741600Y-96057100D03*
X172656900Y-88171200D03*
X165706300Y-83388900D03*
D13*
X168582400Y-81130000D02*
X159862900Y-81130000D01*
X170233700Y-82781300D02*
X168582400Y-81130000D01*
X155386400Y-81820000D02*
X155386400Y-82964600D01*
X159862900Y-81130000D02*
X158648300Y-79915400D01*
X157291000Y-79915400D02*
X155386400Y-81820000D01*
X158648300Y-79915400D02*
X157291000Y-79915400D01*
X164559800Y-103479800D02*
X164559800Y-98998300D01*
X164559800Y-98998300D02*
X167474700Y-96083400D01*
X167474700Y-96083400D02*
X170140900Y-96083400D01*
X164301500Y-103738100D02*
X164559800Y-103479800D01*
X164559800Y-98998300D02*
X163317900Y-97756400D01*
X171665700Y-116634600D02*
X171665700Y-107262000D01*
X171665700Y-107262000D02*
X171635000Y-107231300D01*
X157422800Y-117807200D02*
X154940000Y-115324400D01*
X160274000Y-120104100D02*
X157977100Y-117807200D01*
X175514000Y-120482900D02*
X171665700Y-116634600D01*
X157977100Y-117807200D02*
X157422800Y-117807200D01*
X160274000Y-120482900D02*
X160274000Y-120104100D01*
X154940000Y-115324400D02*
X154940000Y-106821600D01*
D14*
X164095700Y-95301600D02*
X164095700Y-86802500D01*
X162452700Y-110684200D02*
X162452700Y-96944600D01*
X162452700Y-96944600D02*
X164095700Y-95301600D01*
X160274000Y-112862900D02*
X162452700Y-110684200D01*
X164095700Y-86802500D02*
X163379800Y-86086600D01*
X161751000Y-106305900D02*
X161751000Y-99041300D01*
X160274000Y-107782900D02*
X161751000Y-106305900D01*
X161751000Y-99041300D02*
X161723700Y-99014000D01*
X175514000Y-123022900D02*
X171109400Y-118618300D01*
X171109400Y-118618300D02*
X171109400Y-110835200D01*
X171109400Y-110835200D02*
X169150400Y-108876200D01*
X161326700Y-104190200D02*
X161326700Y-99609200D01*
X160274000Y-105242900D02*
X161326700Y-104190200D01*
X161326700Y-98418800D02*
X161326700Y-89135900D01*
X161326700Y-89135900D02*
X163374200Y-87088400D01*
X161326700Y-99609200D02*
X161022000Y-99304500D01*
X161022000Y-99304500D02*
X161022000Y-98723500D01*
X161022000Y-98723500D02*
X161326700Y-98418800D01*
X171827300Y-100052000D02*
X171827300Y-106182000D01*
X174453500Y-97425800D02*
X171827300Y-100052000D01*
X172499100Y-106853800D02*
X172499100Y-108408600D01*
X174453500Y-85983400D02*
X174453500Y-97425800D01*
X175514000Y-84922900D02*
X174453500Y-85983400D01*
X171827300Y-106182000D02*
X172499100Y-106853800D01*
X166312400Y-116984500D02*
X160274000Y-123022900D01*
X166312400Y-112795000D02*
X166312400Y-116984500D01*
X167434500Y-103740200D02*
X167434500Y-111672900D01*
X169107900Y-97424000D02*
X169107900Y-102066800D01*
X169107900Y-102066800D02*
X167434500Y-103740200D01*
X167434500Y-111672900D02*
X166312400Y-112795000D01*
X159208600Y-91068300D02*
X160274000Y-90002900D01*
X159812300Y-124130600D02*
X159208400Y-123526700D01*
X161365900Y-114973200D02*
X160525600Y-114132900D01*
X159208600Y-113295100D02*
X159208600Y-91068300D01*
X161365900Y-120878400D02*
X161365900Y-114973200D01*
X160593800Y-121650500D02*
X161365900Y-120878400D01*
X159208400Y-122522200D02*
X160080100Y-121650500D01*
X160080100Y-121650500D02*
X160593800Y-121650500D01*
X162631300Y-124130600D02*
X159812300Y-124130600D01*
X160046400Y-114132900D02*
X159208600Y-113295100D01*
X160525600Y-114132900D02*
X160046400Y-114132900D01*
X159208400Y-123526700D02*
X159208400Y-122522200D01*
X175514000Y-79842900D02*
X173361000Y-81995900D01*
X173361000Y-81995900D02*
X173361000Y-95992500D01*
X173361000Y-95992500D02*
X172974700Y-96378800D01*
X175514000Y-82382900D02*
X173766700Y-84130200D01*
X173766700Y-97113200D02*
X173741200Y-97138700D01*
X173766700Y-84130200D02*
X173766700Y-97113200D01*
X173562200Y-101710500D02*
X172604200Y-100752500D01*
X173562200Y-117482700D02*
X173562200Y-101710500D01*
X175514000Y-125562900D02*
X176575400Y-124501500D01*
X175292400Y-119212900D02*
X173562200Y-117482700D01*
X176575400Y-124501500D02*
X176575400Y-120047000D01*
X176575400Y-120047000D02*
X175741300Y-119212900D01*
X175741300Y-119212900D02*
X175292400Y-119212900D01*
X156159600Y-104002300D02*
X156159600Y-85145400D01*
X155756300Y-104405600D02*
X156159600Y-104002300D01*
X156159600Y-85145400D02*
X157739000Y-83566000D01*
X153872100Y-119166400D02*
X153872100Y-106398700D01*
X156776900Y-97228100D02*
X157739000Y-96266000D01*
X157714400Y-122794400D02*
X157500100Y-122794400D01*
X156776900Y-104392600D02*
X156776900Y-97228100D01*
X169237600Y-123804000D02*
X166377300Y-126664300D01*
X153872100Y-106398700D02*
X155147900Y-105122900D01*
X159079300Y-125897700D02*
X159079300Y-124159300D01*
X156046600Y-105122900D02*
X156776900Y-104392600D01*
X159845900Y-126664300D02*
X159079300Y-125897700D01*
X166377300Y-126664300D02*
X159845900Y-126664300D01*
X157500100Y-122794400D02*
X153872100Y-119166400D01*
X155147900Y-105122900D02*
X156046600Y-105122900D01*
X159079300Y-124159300D02*
X157714400Y-122794400D01*
X162674000Y-85782100D02*
X163080600Y-85375500D01*
X157739000Y-98806000D02*
X158754000Y-97791000D01*
X160534700Y-88732900D02*
X162674000Y-86593600D01*
X158754000Y-90022000D02*
X160043100Y-88732900D01*
X170851700Y-103414700D02*
X170538800Y-103727600D01*
X170851700Y-92565900D02*
X170851700Y-103414700D01*
X162674000Y-86593600D02*
X162674000Y-85782100D01*
X163080600Y-85375500D02*
X163661300Y-85375500D01*
X163661300Y-85375500D02*
X170851700Y-92565900D01*
X160043100Y-88732900D02*
X160534700Y-88732900D01*
X158754000Y-97791000D02*
X158754000Y-90022000D01*
M02*
