G04 #@! TF.GenerationSoftware,KiCad,Pcbnew,8.0.4*
G04 #@! TF.CreationDate,2024-09-05T13:45:58-03:00*
G04 #@! TF.ProjectId,MSX_Goauld_Rev4,4d53585f-476f-4617-956c-645f52657634,rev?*
G04 #@! TF.SameCoordinates,Original*
G04 #@! TF.FileFunction,Paste,Bot*
G04 #@! TF.FilePolarity,Positive*
%FSLAX46Y46*%
G04 Gerber Fmt 4.6, Leading zero omitted, Abs format (unit mm)*
G04 Created by KiCad (PCBNEW 8.0.4) date 2024-09-05 13:45:58*
%MOMM*%
%LPD*%
G01*
G04 APERTURE LIST*
%ADD10R,1.400000X1.200000*%
%ADD11R,1.100000X1.100000*%
%ADD12O,1.740000X0.360000*%
%ADD13R,1.192000X1.167000*%
G04 APERTURE END LIST*
D10*
X154940000Y-103086000D03*
X154940000Y-99686000D03*
D11*
X155956000Y-86106000D03*
X155956000Y-84582000D03*
D12*
X171018000Y-96892000D03*
X171018000Y-97542000D03*
X171018000Y-98192000D03*
X171018000Y-98842000D03*
X171018000Y-99502000D03*
X171018000Y-100152000D03*
X171018000Y-100802000D03*
X171018000Y-101452000D03*
X171018000Y-102102000D03*
X171018000Y-102752000D03*
X165278000Y-102752000D03*
X165278000Y-102102000D03*
X165278000Y-101452000D03*
X165278000Y-100802000D03*
X165278000Y-100152000D03*
X165278000Y-99502000D03*
X165278000Y-98842000D03*
X165278000Y-98192000D03*
X165278000Y-97542000D03*
X165278000Y-96892000D03*
X165278000Y-125104000D03*
X165278000Y-124454000D03*
X165278000Y-123804000D03*
X165278000Y-123154000D03*
X165278000Y-122494000D03*
X165278000Y-121844000D03*
X165278000Y-121194000D03*
X165278000Y-120544000D03*
X165278000Y-119894000D03*
X165278000Y-119244000D03*
X171018000Y-119244000D03*
X171018000Y-119894000D03*
X171018000Y-120544000D03*
X171018000Y-121194000D03*
X171018000Y-121844000D03*
X171018000Y-122494000D03*
X171018000Y-123154000D03*
X171018000Y-123804000D03*
X171018000Y-124454000D03*
X171018000Y-125104000D03*
D11*
X158242000Y-126238000D03*
X156718000Y-126238000D03*
X180340000Y-78994000D03*
X180340000Y-77470000D03*
D13*
X180340000Y-80264000D03*
X180340000Y-82296000D03*
M02*
