G04 #@! TF.GenerationSoftware,KiCad,Pcbnew,8.0.4*
G04 #@! TF.CreationDate,2024-09-05T13:45:58-03:00*
G04 #@! TF.ProjectId,MSX_Goauld_Rev4,4d53585f-476f-4617-956c-645f52657634,rev?*
G04 #@! TF.SameCoordinates,Original*
G04 #@! TF.FileFunction,Soldermask,Bot*
G04 #@! TF.FilePolarity,Negative*
%FSLAX46Y46*%
G04 Gerber Fmt 4.6, Leading zero omitted, Abs format (unit mm)*
G04 Created by KiCad (PCBNEW 8.0.4) date 2024-09-05 13:45:58*
%MOMM*%
%LPD*%
G01*
G04 APERTURE LIST*
%ADD10C,1.320800*%
%ADD11C,1.500000*%
%ADD12R,1.400000X1.200000*%
%ADD13R,1.100000X1.100000*%
%ADD14O,1.740000X0.360000*%
%ADD15R,1.192000X1.167000*%
G04 APERTURE END LIST*
D10*
X178059000Y-124206000D03*
X178059000Y-121666000D03*
X178059000Y-119126000D03*
X178059000Y-116586000D03*
X178059000Y-114046000D03*
X178059000Y-111506000D03*
X178059000Y-108966000D03*
X178059000Y-106426000D03*
X178059000Y-103886000D03*
X178059000Y-101346000D03*
X178059000Y-98806000D03*
X178059000Y-96266000D03*
X178059000Y-93726000D03*
X178059000Y-91186000D03*
X178059000Y-88646000D03*
X178059000Y-86106000D03*
X178059000Y-83566000D03*
X178059000Y-81026000D03*
X178059000Y-78486000D03*
X178059000Y-75946000D03*
X157739000Y-75946000D03*
X157739000Y-78486000D03*
X157739000Y-81026000D03*
X157739000Y-83566000D03*
X157739000Y-86106000D03*
X157739000Y-88646000D03*
X157739000Y-91186000D03*
X157739000Y-93726000D03*
X157739000Y-96266000D03*
X157739000Y-98806000D03*
X157739000Y-101346000D03*
X157739000Y-103886000D03*
X157739000Y-106426000D03*
X157739000Y-108966000D03*
X157739000Y-111506000D03*
X157739000Y-114046000D03*
X157739000Y-116586000D03*
X157739000Y-119126000D03*
X157739000Y-121666000D03*
X157739000Y-124206000D03*
D11*
X160274000Y-77302900D03*
X160274000Y-79842900D03*
X160274000Y-82382900D03*
X160274000Y-84922900D03*
X160274000Y-87462900D03*
X160274000Y-90002900D03*
X160274000Y-92542900D03*
X160274000Y-95082900D03*
X160274000Y-97622900D03*
X160274000Y-100162900D03*
X160274000Y-102702900D03*
X160274000Y-105242900D03*
X160274000Y-107782900D03*
X160274000Y-110322900D03*
X160274000Y-112862900D03*
X160274000Y-115402900D03*
X160274000Y-117942900D03*
X160274000Y-120482900D03*
X160274000Y-123022900D03*
X160274000Y-125562900D03*
X175514000Y-125562900D03*
X175514000Y-123022900D03*
X175514000Y-120482900D03*
X175514000Y-117942900D03*
X175514000Y-115402900D03*
X175514000Y-112862900D03*
X175514000Y-110322900D03*
X175514000Y-107782900D03*
X175514000Y-105242900D03*
X175514000Y-102702900D03*
X175514000Y-100162900D03*
X175514000Y-97622900D03*
X175514000Y-95082900D03*
X175514000Y-92542900D03*
X175514000Y-90002900D03*
X175514000Y-87462900D03*
X175514000Y-84922900D03*
X175514000Y-82382900D03*
X175514000Y-79842900D03*
X175514000Y-77302900D03*
X154990800Y-106821600D03*
X154990800Y-96306000D03*
D12*
X154940000Y-103086000D03*
X154940000Y-99686000D03*
D13*
X155956000Y-86106000D03*
X155956000Y-84582000D03*
D14*
X171018000Y-96892000D03*
X171018000Y-97542000D03*
X171018000Y-98192000D03*
X171018000Y-98842000D03*
X171018000Y-99502000D03*
X171018000Y-100152000D03*
X171018000Y-100802000D03*
X171018000Y-101452000D03*
X171018000Y-102102000D03*
X171018000Y-102752000D03*
X165278000Y-102752000D03*
X165278000Y-102102000D03*
X165278000Y-101452000D03*
X165278000Y-100802000D03*
X165278000Y-100152000D03*
X165278000Y-99502000D03*
X165278000Y-98842000D03*
X165278000Y-98192000D03*
X165278000Y-97542000D03*
X165278000Y-96892000D03*
X165278000Y-125104000D03*
X165278000Y-124454000D03*
X165278000Y-123804000D03*
X165278000Y-123154000D03*
X165278000Y-122494000D03*
X165278000Y-121844000D03*
X165278000Y-121194000D03*
X165278000Y-120544000D03*
X165278000Y-119894000D03*
X165278000Y-119244000D03*
X171018000Y-119244000D03*
X171018000Y-119894000D03*
X171018000Y-120544000D03*
X171018000Y-121194000D03*
X171018000Y-121844000D03*
X171018000Y-122494000D03*
X171018000Y-123154000D03*
X171018000Y-123804000D03*
X171018000Y-124454000D03*
X171018000Y-125104000D03*
D13*
X158242000Y-126238000D03*
X156718000Y-126238000D03*
X180340000Y-78994000D03*
X180340000Y-77470000D03*
D15*
X180340000Y-80264000D03*
X180340000Y-82296000D03*
M02*
