G04 #@! TF.GenerationSoftware,KiCad,Pcbnew,8.0.4*
G04 #@! TF.CreationDate,2024-09-05T13:45:58-03:00*
G04 #@! TF.ProjectId,MSX_Goauld_Rev4,4d53585f-476f-4617-956c-645f52657634,rev?*
G04 #@! TF.SameCoordinates,Original*
G04 #@! TF.FileFunction,Copper,L1,Top*
G04 #@! TF.FilePolarity,Positive*
%FSLAX46Y46*%
G04 Gerber Fmt 4.6, Leading zero omitted, Abs format (unit mm)*
G04 Created by KiCad (PCBNEW 8.0.4) date 2024-09-05 13:45:58*
%MOMM*%
%LPD*%
G01*
G04 APERTURE LIST*
G04 #@! TA.AperFunction,SMDPad,CuDef*
%ADD10R,1.600000X3.200000*%
G04 #@! TD*
G04 #@! TA.AperFunction,SMDPad,CuDef*
%ADD11R,0.980000X2.470000*%
G04 #@! TD*
G04 #@! TA.AperFunction,SMDPad,CuDef*
%ADD12R,3.600000X2.470000*%
G04 #@! TD*
G04 #@! TA.AperFunction,ComponentPad*
%ADD13C,1.320800*%
G04 #@! TD*
G04 #@! TA.AperFunction,SMDPad,CuDef*
%ADD14O,1.740000X0.360000*%
G04 #@! TD*
G04 #@! TA.AperFunction,ComponentPad*
%ADD15C,1.500000*%
G04 #@! TD*
G04 #@! TA.AperFunction,ViaPad*
%ADD16C,0.800000*%
G04 #@! TD*
G04 #@! TA.AperFunction,Conductor*
%ADD17C,0.450000*%
G04 #@! TD*
G04 #@! TA.AperFunction,Conductor*
%ADD18C,0.359800*%
G04 #@! TD*
G04 #@! TA.AperFunction,Conductor*
%ADD19C,0.200000*%
G04 #@! TD*
G04 APERTURE END LIST*
D10*
X152400000Y-83058000D03*
X152400000Y-78058000D03*
D11*
X150100000Y-93080000D03*
X152400000Y-93080000D03*
X154700000Y-93080000D03*
D12*
X152400000Y-87420000D03*
D13*
X178059000Y-124206000D03*
X178059000Y-121666000D03*
X178059000Y-119126000D03*
X178059000Y-116586000D03*
X178059000Y-114046000D03*
X178059000Y-111506000D03*
X178059000Y-108966000D03*
X178059000Y-106426000D03*
X178059000Y-103886000D03*
X178059000Y-101346000D03*
X178059000Y-98806000D03*
X178059000Y-96266000D03*
X178059000Y-93726000D03*
X178059000Y-91186000D03*
X178059000Y-88646000D03*
X178059000Y-86106000D03*
X178059000Y-83566000D03*
X178059000Y-81026000D03*
X178059000Y-78486000D03*
X178059000Y-75946000D03*
X157739000Y-75946000D03*
X157739000Y-78486000D03*
X157739000Y-81026000D03*
X157739000Y-83566000D03*
X157739000Y-86106000D03*
X157739000Y-88646000D03*
X157739000Y-91186000D03*
X157739000Y-93726000D03*
X157739000Y-96266000D03*
X157739000Y-98806000D03*
X157739000Y-101346000D03*
X157739000Y-103886000D03*
X157739000Y-106426000D03*
X157739000Y-108966000D03*
X157739000Y-111506000D03*
X157739000Y-114046000D03*
X157739000Y-116586000D03*
X157739000Y-119126000D03*
X157739000Y-121666000D03*
X157739000Y-124206000D03*
D14*
X165278000Y-108068000D03*
X165278000Y-108718000D03*
X165278000Y-109368000D03*
X165278000Y-110018000D03*
X165278000Y-110678000D03*
X165278000Y-111328000D03*
X165278000Y-111978000D03*
X165278000Y-112628000D03*
X165278000Y-113278000D03*
X165278000Y-113928000D03*
X171018000Y-113928000D03*
X171018000Y-113278000D03*
X171018000Y-112628000D03*
X171018000Y-111978000D03*
X171018000Y-111328000D03*
X171018000Y-110678000D03*
X171018000Y-110018000D03*
X171018000Y-109368000D03*
X171018000Y-108718000D03*
X171018000Y-108068000D03*
X171018000Y-102752000D03*
X171018000Y-102102000D03*
X171018000Y-101452000D03*
X171018000Y-100802000D03*
X171018000Y-100142000D03*
X171018000Y-99492000D03*
X171018000Y-98842000D03*
X171018000Y-98192000D03*
X171018000Y-97542000D03*
X171018000Y-96892000D03*
X165278000Y-96892000D03*
X165278000Y-97542000D03*
X165278000Y-98192000D03*
X165278000Y-98842000D03*
X165278000Y-99492000D03*
X165278000Y-100142000D03*
X165278000Y-100802000D03*
X165278000Y-101452000D03*
X165278000Y-102102000D03*
X165278000Y-102752000D03*
D10*
X152400000Y-115864000D03*
X152400000Y-120864000D03*
X152400000Y-98886000D03*
X152400000Y-103886000D03*
D15*
X160274000Y-77302900D03*
X160274000Y-79842900D03*
X160274000Y-82382900D03*
X160274000Y-84922900D03*
X160274000Y-87462900D03*
X160274000Y-90002900D03*
X160274000Y-92542900D03*
X160274000Y-95082900D03*
X160274000Y-97622900D03*
X160274000Y-100162900D03*
X160274000Y-102702900D03*
X160274000Y-105242900D03*
X160274000Y-107782900D03*
X160274000Y-110322900D03*
X160274000Y-112862900D03*
X160274000Y-115402900D03*
X160274000Y-117942900D03*
X160274000Y-120482900D03*
X160274000Y-123022900D03*
X160274000Y-125562900D03*
X175514000Y-125562900D03*
X175514000Y-123022900D03*
X175514000Y-120482900D03*
X175514000Y-117942900D03*
X175514000Y-115402900D03*
X175514000Y-112862900D03*
X175514000Y-110322900D03*
X175514000Y-107782900D03*
X175514000Y-105242900D03*
X175514000Y-102702900D03*
X175514000Y-100162900D03*
X175514000Y-97622900D03*
X175514000Y-95082900D03*
X175514000Y-92542900D03*
X175514000Y-90002900D03*
X175514000Y-87462900D03*
X175514000Y-84922900D03*
X175514000Y-82382900D03*
X175514000Y-79842900D03*
X175514000Y-77302900D03*
D14*
X165278000Y-84192000D03*
X165278000Y-84842000D03*
X165278000Y-85492000D03*
X165278000Y-86142000D03*
X165278000Y-86802000D03*
X165278000Y-87452000D03*
X165278000Y-88102000D03*
X165278000Y-88752000D03*
X165278000Y-89402000D03*
X165278000Y-90052000D03*
X171018000Y-90052000D03*
X171018000Y-89402000D03*
X171018000Y-88752000D03*
X171018000Y-88102000D03*
X171018000Y-87452000D03*
X171018000Y-86802000D03*
X171018000Y-86142000D03*
X171018000Y-85492000D03*
X171018000Y-84842000D03*
X171018000Y-84192000D03*
D15*
X154990800Y-106821600D03*
X154990800Y-96306000D03*
D16*
X170233700Y-82781300D03*
X155386400Y-82964600D03*
X152400000Y-95001900D03*
X172529100Y-102950500D03*
X165920800Y-106807900D03*
X170140900Y-96083400D03*
X163317900Y-97756400D03*
X164301500Y-103738100D03*
X166916300Y-123080800D03*
X171635000Y-107231300D03*
X172521900Y-111346700D03*
X163379800Y-86086600D03*
X163733000Y-99819200D03*
X167073400Y-94856900D03*
X161723700Y-99014000D03*
X169150400Y-108876200D03*
X163374200Y-87088400D03*
X164106300Y-114895400D03*
X166840100Y-100115200D03*
X172499100Y-108408600D03*
X169107900Y-97424000D03*
X163390600Y-92849200D03*
X172535800Y-112754400D03*
X162182700Y-91150200D03*
X172189700Y-94622600D03*
X163393200Y-123057700D03*
X162677300Y-92141700D03*
X170529600Y-104785300D03*
X162631300Y-124130600D03*
X172974700Y-96378800D03*
X173741200Y-97138700D03*
X172604200Y-100752500D03*
X167781100Y-101452000D03*
X155756300Y-104405600D03*
X169237600Y-123804000D03*
X169339900Y-121321700D03*
X170538800Y-103727600D03*
X167997100Y-112176200D03*
X169498000Y-112652800D03*
X163248700Y-111477900D03*
X167269100Y-113085600D03*
X163217500Y-102304300D03*
X164358900Y-107078000D03*
X166731100Y-104406300D03*
X169484100Y-110428100D03*
X167185500Y-102643300D03*
X164741600Y-96057100D03*
X172656900Y-88171200D03*
X165706300Y-83388900D03*
D17*
X152400000Y-83058000D02*
X153626700Y-83058000D01*
X153626700Y-83058000D02*
X153720100Y-82964600D01*
X152400000Y-95001900D02*
X152400000Y-93080000D01*
X153720100Y-82964600D02*
X155386400Y-82964600D01*
X171018000Y-84192000D02*
X171018000Y-83565600D01*
X171018000Y-83565600D02*
X170233700Y-82781300D01*
X157739000Y-121666000D02*
X154428700Y-121666000D01*
X156213100Y-87738100D02*
X156831100Y-87738100D01*
X171018000Y-102752000D02*
X172314700Y-102752000D01*
X169549200Y-85162700D02*
X169825100Y-84886800D01*
X151174800Y-103886000D02*
X151173300Y-103887500D01*
X169549200Y-85874800D02*
X169549200Y-85162700D01*
X150100000Y-91418300D02*
X152532900Y-91418300D01*
X170140900Y-96083400D02*
X170140900Y-90973000D01*
X170140900Y-90973000D02*
X169722800Y-90554900D01*
X154428700Y-121666000D02*
X153626700Y-120864000D01*
X151173300Y-103887500D02*
X151173300Y-120864000D01*
X163317900Y-96239200D02*
X165278000Y-94279100D01*
D18*
X169825100Y-84886800D02*
X170973200Y-84886800D01*
D17*
X165278000Y-119695900D02*
X165278000Y-113928000D01*
X165278000Y-94279100D02*
X165278000Y-90052000D01*
X171018000Y-96892000D02*
X170209400Y-96083400D01*
X157739000Y-121666000D02*
X157739000Y-122186200D01*
X157739000Y-122186200D02*
X159757700Y-124204900D01*
X160769000Y-124204900D02*
X164404700Y-120569200D01*
X172314700Y-102752000D02*
X172513200Y-102950500D01*
X151174800Y-103886000D02*
X151173300Y-103886000D01*
X156831100Y-87738100D02*
X157739000Y-88646000D01*
X152400000Y-103886000D02*
X151336700Y-103886000D01*
X165278000Y-108068000D02*
X165920800Y-107425200D01*
X152400000Y-78058000D02*
X153626700Y-78058000D01*
X172513200Y-102950500D02*
X172529100Y-102950500D01*
X150100000Y-93080000D02*
X150100000Y-91418300D01*
X150100000Y-93080000D02*
X150100000Y-94741700D01*
D18*
X170973200Y-84886800D02*
X171018000Y-84842000D01*
D17*
X163317900Y-97756400D02*
X163317900Y-96239200D01*
X151336700Y-103886000D02*
X151174800Y-103886000D01*
X164404700Y-120569200D02*
X165278000Y-119695900D01*
D18*
X169722800Y-86048400D02*
X169549200Y-85874800D01*
X169722800Y-90554900D02*
X169722800Y-86048400D01*
D17*
X159757700Y-124204900D02*
X160769000Y-124204900D01*
X151173300Y-103886000D02*
X151173300Y-95815000D01*
X156213100Y-87738100D02*
X156213100Y-80644400D01*
X151173300Y-95815000D02*
X150100000Y-94741700D01*
X164404700Y-120569200D02*
X166916300Y-123080800D01*
X170209400Y-96083400D02*
X170140900Y-96083400D01*
X152532900Y-91418300D02*
X156213100Y-87738100D01*
X152400000Y-120864000D02*
X151173300Y-120864000D01*
X165920800Y-107425200D02*
X165920800Y-106807900D01*
X152400000Y-120864000D02*
X153626700Y-120864000D01*
X156213100Y-80644400D02*
X153626700Y-78058000D01*
X154700000Y-93080000D02*
X154700000Y-94741700D01*
X152400000Y-98886000D02*
X153626700Y-98886000D01*
X153626700Y-98886000D02*
X153626700Y-97619300D01*
X153626700Y-97619300D02*
X154940000Y-96306000D01*
X154940000Y-96306000D02*
X154940000Y-94981700D01*
X154940000Y-94981700D02*
X154700000Y-94741700D01*
X162020300Y-110969300D02*
X162020300Y-118736600D01*
X154940000Y-106821600D02*
X152400000Y-109361600D01*
X162290600Y-110699000D02*
X162020300Y-110969300D01*
X171018000Y-107848300D02*
X171018000Y-108068000D01*
X152400000Y-109361600D02*
X152400000Y-115864000D01*
X163981300Y-102752000D02*
X162290600Y-104442700D01*
X162020300Y-118736600D02*
X160274000Y-120482900D01*
X171635000Y-107231300D02*
X171018000Y-107848300D01*
X165278000Y-102752000D02*
X163981300Y-102752000D01*
X162290600Y-104442700D02*
X162290600Y-110699000D01*
D19*
X172208400Y-111346700D02*
X172521900Y-111346700D01*
X171018000Y-111328000D02*
X172189700Y-111328000D01*
X172189700Y-111328000D02*
X172208400Y-111346700D01*
X163511700Y-86086600D02*
X163379800Y-86086600D01*
X165278000Y-85492000D02*
X164106300Y-85492000D01*
X164106300Y-85492000D02*
X163511700Y-86086600D01*
X164106300Y-100192500D02*
X163733000Y-99819200D01*
X165278000Y-102102000D02*
X164106300Y-102102000D01*
X164106300Y-102102000D02*
X164106300Y-100192500D01*
X161356900Y-98388600D02*
X161022000Y-98723500D01*
X165278000Y-84842000D02*
X163618200Y-84842000D01*
X161356900Y-94329800D02*
X161356900Y-98388600D01*
X161356900Y-99639400D02*
X161356900Y-109240000D01*
X161734900Y-86725300D02*
X161734900Y-90605800D01*
X161734900Y-93951800D02*
X161356900Y-94329800D01*
X161481000Y-90859700D02*
X161481000Y-91440700D01*
X161022000Y-99304500D02*
X161356900Y-99639400D01*
X161356900Y-109240000D02*
X160274000Y-110322900D01*
X163618200Y-84842000D02*
X161734900Y-86725300D01*
X161022000Y-98723500D02*
X161022000Y-99304500D01*
X161734900Y-91694600D02*
X161734900Y-93951800D01*
X161734900Y-90605800D02*
X161481000Y-90859700D01*
X161481000Y-91440700D02*
X161734900Y-91694600D01*
X166449700Y-99492000D02*
X167073400Y-98868300D01*
X167073400Y-98868300D02*
X167073400Y-94856900D01*
X165278000Y-99492000D02*
X166449700Y-99492000D01*
X161864500Y-98873200D02*
X161723700Y-99014000D01*
X164106300Y-89402000D02*
X164106300Y-94338700D01*
X164106300Y-94338700D02*
X161864500Y-96580500D01*
X161864500Y-96580500D02*
X161864500Y-98873200D01*
X165278000Y-89402000D02*
X164106300Y-89402000D01*
X164106300Y-86142000D02*
X164106300Y-86356300D01*
X165278000Y-86142000D02*
X164106300Y-86142000D01*
X164106300Y-86356300D02*
X163374200Y-87088400D01*
X168446900Y-109330800D02*
X168446900Y-108587200D01*
X175294500Y-101432900D02*
X175815900Y-101432900D01*
X168446900Y-108587200D02*
X168861400Y-108172700D01*
X174147700Y-103348400D02*
X174147700Y-102579700D01*
X176574400Y-98683300D02*
X175514000Y-97622900D01*
X169323400Y-108172700D02*
X174147700Y-103348400D01*
X165278000Y-111328000D02*
X166449700Y-111328000D01*
X168861400Y-108172700D02*
X169323400Y-108172700D01*
X174147700Y-102579700D02*
X175294500Y-101432900D01*
X176574400Y-100674400D02*
X176574400Y-98683300D01*
X166449700Y-111328000D02*
X168446900Y-109330800D01*
X175815900Y-101432900D02*
X176574400Y-100674400D01*
X164106300Y-113278000D02*
X164106300Y-114895400D01*
X165278000Y-113278000D02*
X164106300Y-113278000D01*
X166449700Y-100142000D02*
X166476500Y-100115200D01*
X165278000Y-100142000D02*
X166449700Y-100142000D01*
X166476500Y-100115200D02*
X166840100Y-100115200D01*
X172189700Y-108718000D02*
X172499100Y-108408600D01*
X171018000Y-108718000D02*
X172189700Y-108718000D01*
X163390600Y-89467700D02*
X164106300Y-88752000D01*
X163390600Y-92849200D02*
X163390600Y-89467700D01*
X165278000Y-88752000D02*
X164106300Y-88752000D01*
X167253500Y-93044700D02*
X166371700Y-93926500D01*
X166371700Y-93926500D02*
X166371700Y-95147400D01*
X166371700Y-95147400D02*
X166449700Y-95225400D01*
X166449700Y-95225400D02*
X166449700Y-97542000D01*
X165278000Y-97542000D02*
X166449700Y-97542000D01*
X167253500Y-83369700D02*
X167253500Y-93044700D01*
X160274000Y-79842900D02*
X163726700Y-79842900D01*
X163726700Y-79842900D02*
X167253500Y-83369700D01*
X172189700Y-113100500D02*
X172189700Y-113278000D01*
X172535800Y-112754400D02*
X172189700Y-113100500D01*
X171018000Y-113278000D02*
X172189700Y-113278000D01*
X177903900Y-105156000D02*
X178172400Y-105156000D01*
X179036100Y-104292300D02*
X179036100Y-90721900D01*
X178230200Y-89916000D02*
X177967100Y-89916000D01*
X177967100Y-89916000D02*
X175514000Y-87462900D01*
X171018000Y-110678000D02*
X172189700Y-110678000D01*
X179036100Y-90721900D02*
X178230200Y-89916000D01*
X178172400Y-105156000D02*
X179036100Y-104292300D01*
X176584700Y-106475200D02*
X177903900Y-105156000D01*
X176584700Y-108212100D02*
X176584700Y-106475200D01*
X175743900Y-109052900D02*
X176584700Y-108212100D01*
X172189700Y-110678000D02*
X173814800Y-109052900D01*
X173814800Y-109052900D02*
X175743900Y-109052900D01*
X169846300Y-97159200D02*
X168769100Y-96082000D01*
X168769100Y-96082000D02*
X168769100Y-84317000D01*
X169846300Y-97542000D02*
X169846300Y-97159200D01*
X171018000Y-97542000D02*
X169846300Y-97542000D01*
X168769100Y-84317000D02*
X161755000Y-77302900D01*
X161755000Y-77302900D02*
X160274000Y-77302900D01*
X162182700Y-89375600D02*
X162182700Y-91150200D01*
X164106300Y-87452000D02*
X162182700Y-89375600D01*
X165278000Y-87452000D02*
X164106300Y-87452000D01*
X161333200Y-90439500D02*
X161079300Y-90693400D01*
X165960200Y-82650300D02*
X165188600Y-82650300D01*
X161333200Y-91860900D02*
X161333200Y-93468600D01*
X161333200Y-86505700D02*
X161333200Y-90439500D01*
X161079300Y-91607000D02*
X161333200Y-91860900D01*
X166851400Y-83541500D02*
X165960200Y-82650300D01*
X161079300Y-90693400D02*
X161079300Y-91607000D01*
X166851400Y-86400300D02*
X166851400Y-83541500D01*
X166449700Y-86802000D02*
X166851400Y-86400300D01*
X161333200Y-93468600D02*
X160274000Y-94527800D01*
X165278000Y-86802000D02*
X166449700Y-86802000D01*
X165188600Y-82650300D02*
X161333200Y-86505700D01*
X160274000Y-94527800D02*
X160274000Y-95082900D01*
X172189700Y-94622600D02*
X172189700Y-99492000D01*
X171018000Y-99492000D02*
X172189700Y-99492000D01*
X162888800Y-91930200D02*
X162888800Y-89319500D01*
X162888800Y-89319500D02*
X164106300Y-88102000D01*
X162677300Y-92141700D02*
X162888800Y-91930200D01*
X165278000Y-88102000D02*
X164106300Y-88102000D01*
X170382400Y-104785300D02*
X170529600Y-104785300D01*
X166449700Y-108718000D02*
X170382400Y-104785300D01*
X165278000Y-108718000D02*
X166449700Y-108718000D01*
X172189700Y-100142000D02*
X172974700Y-99357000D01*
X171018000Y-100142000D02*
X172189700Y-100142000D01*
X172974700Y-99357000D02*
X172974700Y-96378800D01*
X170990000Y-105888800D02*
X173746000Y-103132800D01*
X166449700Y-110678000D02*
X166449700Y-110015200D01*
X170576100Y-105888800D02*
X170990000Y-105888800D01*
X165278000Y-110678000D02*
X166449700Y-110678000D01*
X173746000Y-101930900D02*
X175514000Y-100162900D01*
X173746000Y-103132800D02*
X173746000Y-101930900D01*
X166449700Y-110015200D02*
X170576100Y-105888800D01*
X173741200Y-100643100D02*
X173741200Y-97138700D01*
X171018000Y-102102000D02*
X172189700Y-102102000D01*
X172189700Y-102102000D02*
X172282300Y-102102000D01*
X172282300Y-102102000D02*
X173741200Y-100643100D01*
X171018000Y-101452000D02*
X169846300Y-101452000D01*
X170401000Y-105487100D02*
X166520100Y-109368000D01*
X171234800Y-105073900D02*
X170821600Y-105487100D01*
X170821600Y-105487100D02*
X170401000Y-105487100D01*
X170538800Y-103727600D02*
X171234800Y-104423600D01*
X169846300Y-101452000D02*
X169846300Y-103035100D01*
X166520100Y-109368000D02*
X165278000Y-109368000D01*
X169846300Y-103035100D02*
X170538800Y-103727600D01*
X171234800Y-104423600D02*
X171234800Y-105073900D01*
X157739000Y-119482600D02*
X157739000Y-119126000D01*
X167997100Y-110922900D02*
X167997100Y-112176200D01*
X171018000Y-109368000D02*
X169749700Y-109368000D01*
X169391300Y-109726400D02*
X169193600Y-109726400D01*
X162547000Y-111187400D02*
X162547000Y-119790700D01*
X163833100Y-105572900D02*
X163734200Y-105572900D01*
X160781200Y-121556500D02*
X159812900Y-121556500D01*
X159812900Y-121556500D02*
X157739000Y-119482600D01*
X162547000Y-119790700D02*
X160781200Y-121556500D01*
X169193600Y-109726400D02*
X167997100Y-110922900D01*
X166449700Y-102956300D02*
X163833100Y-105572900D01*
X162817400Y-106489700D02*
X162817400Y-110917000D01*
X166449700Y-101452000D02*
X166449700Y-102956300D01*
X169749700Y-109368000D02*
X169391300Y-109726400D01*
X162817400Y-110917000D02*
X162547000Y-111187400D01*
X163734200Y-105572900D02*
X162817400Y-106489700D01*
X165278000Y-101452000D02*
X166449700Y-101452000D01*
X161763000Y-100122800D02*
X161763000Y-110325200D01*
X169846300Y-112628000D02*
X169821500Y-112652800D01*
X163637200Y-98661100D02*
X163224700Y-98661100D01*
X160682200Y-111406000D02*
X159822400Y-111406000D01*
X161763000Y-110325200D02*
X160682200Y-111406000D01*
X164106300Y-98192000D02*
X163637200Y-98661100D01*
X157739000Y-109322600D02*
X157739000Y-108966000D01*
X163224700Y-98661100D02*
X161763000Y-100122800D01*
X169821500Y-112652800D02*
X169498000Y-112652800D01*
X165278000Y-98192000D02*
X164106300Y-98192000D01*
X171018000Y-112628000D02*
X169846300Y-112628000D01*
X159822400Y-111406000D02*
X157739000Y-109322600D01*
X171018000Y-113928000D02*
X172189700Y-113928000D01*
X172189700Y-113928000D02*
X172189700Y-118645900D01*
X175600300Y-121611300D02*
X178059000Y-124070000D01*
X172189700Y-118645900D02*
X175155100Y-121611300D01*
X178059000Y-124070000D02*
X178059000Y-124206000D01*
X175155100Y-121611300D02*
X175600300Y-121611300D01*
X168633000Y-99405300D02*
X169846300Y-98192000D01*
X168633000Y-102188400D02*
X168633000Y-99405300D01*
X171018000Y-98192000D02*
X169846300Y-98192000D01*
X163248700Y-111477900D02*
X163253900Y-111472700D01*
X165278000Y-112628000D02*
X164106300Y-112628000D01*
X163253900Y-111472700D02*
X163253900Y-106621200D01*
X163248700Y-111770400D02*
X164106300Y-112628000D01*
X163900500Y-105974600D02*
X164170600Y-105974600D01*
X163253900Y-106621200D02*
X163900500Y-105974600D01*
X166798500Y-103346700D02*
X167474700Y-103346700D01*
X167474700Y-103346700D02*
X168633000Y-102188400D01*
X164170600Y-105974600D02*
X166798500Y-103346700D01*
X163248700Y-111477900D02*
X163248700Y-111770400D01*
X163885500Y-99062800D02*
X163391000Y-99062800D01*
X163391000Y-99062800D02*
X162979800Y-99474000D01*
X165278000Y-98842000D02*
X164106300Y-98842000D01*
X162979800Y-99474000D02*
X162979800Y-102066600D01*
X169153400Y-111893800D02*
X169762100Y-111893800D01*
X164106300Y-98842000D02*
X163885500Y-99062800D01*
X169762100Y-111893800D02*
X169846300Y-111978000D01*
X162979800Y-102066600D02*
X163217500Y-102304300D01*
X168090400Y-113085600D02*
X168698900Y-112477100D01*
X168698900Y-112477100D02*
X168698900Y-112348300D01*
X171018000Y-111978000D02*
X169846300Y-111978000D01*
X167269100Y-113085600D02*
X168090400Y-113085600D01*
X168698900Y-112348300D02*
X169153400Y-111893800D01*
X169436400Y-101211900D02*
X169846300Y-100802000D01*
X165278000Y-110018000D02*
X164106300Y-110018000D01*
X164106300Y-107330600D02*
X164358900Y-107078000D01*
X164106300Y-110018000D02*
X164106300Y-107330600D01*
X167029100Y-105109200D02*
X169436400Y-102701900D01*
X169436400Y-102701900D02*
X169436400Y-101211900D01*
X166622600Y-105109200D02*
X167029100Y-105109200D01*
X171018000Y-100802000D02*
X169846300Y-100802000D01*
X164653800Y-107078000D02*
X166622600Y-105109200D01*
X164358900Y-107078000D02*
X164653800Y-107078000D01*
X164761100Y-106376300D02*
X164066800Y-106376300D01*
X163655600Y-107368600D02*
X163680000Y-107393000D01*
X166987900Y-104406300D02*
X169034700Y-102359500D01*
X166731100Y-104406300D02*
X166987900Y-104406300D01*
X163680000Y-110916900D02*
X164106300Y-111343200D01*
X169034700Y-99653600D02*
X169846300Y-98842000D01*
X164066800Y-106376300D02*
X163655600Y-106787500D01*
X163655600Y-106787500D02*
X163655600Y-107368600D01*
X169034700Y-102359500D02*
X169034700Y-99653600D01*
X171018000Y-98842000D02*
X169846300Y-98842000D01*
X164106300Y-111343200D02*
X164106300Y-111978000D01*
X163680000Y-107393000D02*
X163680000Y-110916900D01*
X166731100Y-104406300D02*
X164761100Y-106376300D01*
X165278000Y-111978000D02*
X164106300Y-111978000D01*
X165278000Y-100802000D02*
X166449700Y-100802000D01*
X169846300Y-110018000D02*
X169846300Y-110065900D01*
X171018000Y-110018000D02*
X169846300Y-110018000D01*
X167078900Y-102536700D02*
X167185500Y-102643300D01*
X166449700Y-100802000D02*
X167078900Y-101431200D01*
X167078900Y-101431200D02*
X167078900Y-102536700D01*
X169846300Y-110065900D02*
X169484100Y-110428100D01*
X164106300Y-96692400D02*
X164741600Y-96057100D01*
X164106300Y-96892000D02*
X164106300Y-96692400D01*
X165278000Y-96892000D02*
X164106300Y-96892000D01*
X175747900Y-88732900D02*
X178059000Y-91044000D01*
X171018000Y-87452000D02*
X173098900Y-87452000D01*
X173098900Y-87452000D02*
X174379800Y-88732900D01*
X174379800Y-88732900D02*
X175747900Y-88732900D01*
X178059000Y-91044000D02*
X178059000Y-91186000D01*
X172587700Y-88102000D02*
X172656900Y-88171200D01*
X171018000Y-88102000D02*
X172587700Y-88102000D01*
X174088000Y-91300300D02*
X172189700Y-89402000D01*
X171018000Y-89402000D02*
X172189700Y-89402000D01*
X178059000Y-98806000D02*
X178059000Y-97897200D01*
X175755100Y-93812900D02*
X175238200Y-93812900D01*
X177044800Y-96883000D02*
X177044800Y-95102600D01*
X175238200Y-93812900D02*
X174088000Y-92662700D01*
X177044800Y-95102600D02*
X175755100Y-93812900D01*
X178059000Y-97897200D02*
X177044800Y-96883000D01*
X174088000Y-92662700D02*
X174088000Y-91300300D01*
X171018000Y-86142000D02*
X172189700Y-86142000D01*
X177927600Y-85974600D02*
X178059000Y-86106000D01*
X172357100Y-85974600D02*
X177927600Y-85974600D01*
X172189700Y-86142000D02*
X172357100Y-85974600D01*
X172189700Y-88752000D02*
X174710600Y-91272900D01*
X175822400Y-91272900D02*
X177045800Y-92496300D01*
X178059000Y-95304600D02*
X178059000Y-96266000D01*
X177045800Y-92496300D02*
X177045800Y-94291400D01*
X171018000Y-88752000D02*
X172189700Y-88752000D01*
X174710600Y-91272900D02*
X175822400Y-91272900D01*
X177045800Y-94291400D02*
X178059000Y-95304600D01*
X171018000Y-85492000D02*
X172189700Y-85492000D01*
X172189700Y-85492000D02*
X174115700Y-83566000D01*
X174115700Y-83566000D02*
X178059000Y-83566000D01*
X165846200Y-83388900D02*
X166128500Y-83671200D01*
X166128500Y-83757600D02*
X166130000Y-83759100D01*
X166448200Y-84140700D02*
X166448200Y-84190400D01*
X165706300Y-83388900D02*
X165846200Y-83388900D01*
X166449700Y-84191900D02*
X166449700Y-84192000D01*
X166130000Y-83822500D02*
X166448200Y-84140700D01*
X166448200Y-84190400D02*
X166449700Y-84191900D01*
X166130000Y-83759100D02*
X166130000Y-83822500D01*
X165278000Y-84192000D02*
X166449700Y-84192000D01*
X166128500Y-83671200D02*
X166128500Y-83757600D01*
X175251500Y-96352900D02*
X172189700Y-93291100D01*
X172189700Y-93291100D02*
X172189700Y-90052000D01*
X176984900Y-100271900D02*
X176984900Y-97594300D01*
X176984900Y-97594300D02*
X175743500Y-96352900D01*
X171018000Y-90052000D02*
X172189700Y-90052000D01*
X178059000Y-101346000D02*
X176984900Y-100271900D01*
X175743500Y-96352900D02*
X175251500Y-96352900D01*
X172609400Y-86382300D02*
X172189700Y-86802000D01*
X175931300Y-86382300D02*
X172609400Y-86382300D01*
X171018000Y-86802000D02*
X172189700Y-86802000D01*
X178059000Y-88510000D02*
X175931300Y-86382300D01*
X178059000Y-88646000D02*
X178059000Y-88510000D01*
M02*
