G04 #@! TF.GenerationSoftware,KiCad,Pcbnew,8.0.4*
G04 #@! TF.CreationDate,2024-09-05T13:45:58-03:00*
G04 #@! TF.ProjectId,MSX_Goauld_Rev4,4d53585f-476f-4617-956c-645f52657634,rev?*
G04 #@! TF.SameCoordinates,Original*
G04 #@! TF.FileFunction,Legend,Bot*
G04 #@! TF.FilePolarity,Positive*
%FSLAX46Y46*%
G04 Gerber Fmt 4.6, Leading zero omitted, Abs format (unit mm)*
G04 Created by KiCad (PCBNEW 8.0.4) date 2024-09-05 13:45:58*
%MOMM*%
%LPD*%
G01*
G04 APERTURE LIST*
%ADD10C,0.100000*%
%ADD11C,0.150000*%
%ADD12C,0.250000*%
%ADD13C,0.300000*%
%ADD14C,1.320800*%
%ADD15C,1.500000*%
%ADD16R,1.400000X1.200000*%
%ADD17R,1.100000X1.100000*%
%ADD18O,1.740000X0.360000*%
%ADD19R,1.192000X1.167000*%
G04 APERTURE END LIST*
D10*
X162017419Y-80091598D02*
X162731704Y-80091598D01*
X162731704Y-80091598D02*
X162874561Y-80043979D01*
X162874561Y-80043979D02*
X162969800Y-79948741D01*
X162969800Y-79948741D02*
X163017419Y-79805884D01*
X163017419Y-79805884D02*
X163017419Y-79710646D01*
X163017419Y-81043979D02*
X163017419Y-80567789D01*
X163017419Y-80567789D02*
X162017419Y-80567789D01*
X162922180Y-81948741D02*
X162969800Y-81901122D01*
X162969800Y-81901122D02*
X163017419Y-81758265D01*
X163017419Y-81758265D02*
X163017419Y-81663027D01*
X163017419Y-81663027D02*
X162969800Y-81520170D01*
X162969800Y-81520170D02*
X162874561Y-81424932D01*
X162874561Y-81424932D02*
X162779323Y-81377313D01*
X162779323Y-81377313D02*
X162588847Y-81329694D01*
X162588847Y-81329694D02*
X162445990Y-81329694D01*
X162445990Y-81329694D02*
X162255514Y-81377313D01*
X162255514Y-81377313D02*
X162160276Y-81424932D01*
X162160276Y-81424932D02*
X162065038Y-81520170D01*
X162065038Y-81520170D02*
X162017419Y-81663027D01*
X162017419Y-81663027D02*
X162017419Y-81758265D01*
X162017419Y-81758265D02*
X162065038Y-81901122D01*
X162065038Y-81901122D02*
X162112657Y-81948741D01*
X162017419Y-82663027D02*
X162731704Y-82663027D01*
X162731704Y-82663027D02*
X162874561Y-82615408D01*
X162874561Y-82615408D02*
X162969800Y-82520170D01*
X162969800Y-82520170D02*
X163017419Y-82377313D01*
X163017419Y-82377313D02*
X163017419Y-82282075D01*
X163017419Y-83615408D02*
X163017419Y-83139218D01*
X163017419Y-83139218D02*
X162017419Y-83139218D01*
X162922180Y-84520170D02*
X162969800Y-84472551D01*
X162969800Y-84472551D02*
X163017419Y-84329694D01*
X163017419Y-84329694D02*
X163017419Y-84234456D01*
X163017419Y-84234456D02*
X162969800Y-84091599D01*
X162969800Y-84091599D02*
X162874561Y-83996361D01*
X162874561Y-83996361D02*
X162779323Y-83948742D01*
X162779323Y-83948742D02*
X162588847Y-83901123D01*
X162588847Y-83901123D02*
X162445990Y-83901123D01*
X162445990Y-83901123D02*
X162255514Y-83948742D01*
X162255514Y-83948742D02*
X162160276Y-83996361D01*
X162160276Y-83996361D02*
X162065038Y-84091599D01*
X162065038Y-84091599D02*
X162017419Y-84234456D01*
X162017419Y-84234456D02*
X162017419Y-84329694D01*
X162017419Y-84329694D02*
X162065038Y-84472551D01*
X162065038Y-84472551D02*
X162112657Y-84520170D01*
X162017419Y-85234456D02*
X162731704Y-85234456D01*
X162731704Y-85234456D02*
X162874561Y-85186837D01*
X162874561Y-85186837D02*
X162969800Y-85091599D01*
X162969800Y-85091599D02*
X163017419Y-84948742D01*
X163017419Y-84948742D02*
X163017419Y-84853504D01*
X163017419Y-86186837D02*
X163017419Y-85710647D01*
X163017419Y-85710647D02*
X162017419Y-85710647D01*
X162922180Y-87091599D02*
X162969800Y-87043980D01*
X162969800Y-87043980D02*
X163017419Y-86901123D01*
X163017419Y-86901123D02*
X163017419Y-86805885D01*
X163017419Y-86805885D02*
X162969800Y-86663028D01*
X162969800Y-86663028D02*
X162874561Y-86567790D01*
X162874561Y-86567790D02*
X162779323Y-86520171D01*
X162779323Y-86520171D02*
X162588847Y-86472552D01*
X162588847Y-86472552D02*
X162445990Y-86472552D01*
X162445990Y-86472552D02*
X162255514Y-86520171D01*
X162255514Y-86520171D02*
X162160276Y-86567790D01*
X162160276Y-86567790D02*
X162065038Y-86663028D01*
X162065038Y-86663028D02*
X162017419Y-86805885D01*
X162017419Y-86805885D02*
X162017419Y-86901123D01*
X162017419Y-86901123D02*
X162065038Y-87043980D01*
X162065038Y-87043980D02*
X162112657Y-87091599D01*
X162017419Y-87805885D02*
X162731704Y-87805885D01*
X162731704Y-87805885D02*
X162874561Y-87758266D01*
X162874561Y-87758266D02*
X162969800Y-87663028D01*
X162969800Y-87663028D02*
X163017419Y-87520171D01*
X163017419Y-87520171D02*
X163017419Y-87424933D01*
X163017419Y-88758266D02*
X163017419Y-88282076D01*
X163017419Y-88282076D02*
X162017419Y-88282076D01*
X162922180Y-89663028D02*
X162969800Y-89615409D01*
X162969800Y-89615409D02*
X163017419Y-89472552D01*
X163017419Y-89472552D02*
X163017419Y-89377314D01*
X163017419Y-89377314D02*
X162969800Y-89234457D01*
X162969800Y-89234457D02*
X162874561Y-89139219D01*
X162874561Y-89139219D02*
X162779323Y-89091600D01*
X162779323Y-89091600D02*
X162588847Y-89043981D01*
X162588847Y-89043981D02*
X162445990Y-89043981D01*
X162445990Y-89043981D02*
X162255514Y-89091600D01*
X162255514Y-89091600D02*
X162160276Y-89139219D01*
X162160276Y-89139219D02*
X162065038Y-89234457D01*
X162065038Y-89234457D02*
X162017419Y-89377314D01*
X162017419Y-89377314D02*
X162017419Y-89472552D01*
X162017419Y-89472552D02*
X162065038Y-89615409D01*
X162065038Y-89615409D02*
X162112657Y-89663028D01*
X154482580Y-109236094D02*
X155482580Y-109236094D01*
X155482580Y-109236094D02*
X155482580Y-108997999D01*
X155482580Y-108997999D02*
X155434961Y-108855142D01*
X155434961Y-108855142D02*
X155339723Y-108759904D01*
X155339723Y-108759904D02*
X155244485Y-108712285D01*
X155244485Y-108712285D02*
X155054009Y-108664666D01*
X155054009Y-108664666D02*
X154911152Y-108664666D01*
X154911152Y-108664666D02*
X154720676Y-108712285D01*
X154720676Y-108712285D02*
X154625438Y-108759904D01*
X154625438Y-108759904D02*
X154530200Y-108855142D01*
X154530200Y-108855142D02*
X154482580Y-108997999D01*
X154482580Y-108997999D02*
X154482580Y-109236094D01*
X154482580Y-107712285D02*
X154482580Y-108283713D01*
X154482580Y-107997999D02*
X155482580Y-107997999D01*
X155482580Y-107997999D02*
X155339723Y-108093237D01*
X155339723Y-108093237D02*
X155244485Y-108188475D01*
X155244485Y-108188475D02*
X155196866Y-108283713D01*
D11*
X155394819Y-97218905D02*
X154394819Y-97218905D01*
X154394819Y-97218905D02*
X154394819Y-97457000D01*
X154394819Y-97457000D02*
X154442438Y-97599857D01*
X154442438Y-97599857D02*
X154537676Y-97695095D01*
X154537676Y-97695095D02*
X154632914Y-97742714D01*
X154632914Y-97742714D02*
X154823390Y-97790333D01*
X154823390Y-97790333D02*
X154966247Y-97790333D01*
X154966247Y-97790333D02*
X155156723Y-97742714D01*
X155156723Y-97742714D02*
X155251961Y-97695095D01*
X155251961Y-97695095D02*
X155347200Y-97599857D01*
X155347200Y-97599857D02*
X155394819Y-97457000D01*
X155394819Y-97457000D02*
X155394819Y-97218905D01*
X154490057Y-98171286D02*
X154442438Y-98218905D01*
X154442438Y-98218905D02*
X154394819Y-98314143D01*
X154394819Y-98314143D02*
X154394819Y-98552238D01*
X154394819Y-98552238D02*
X154442438Y-98647476D01*
X154442438Y-98647476D02*
X154490057Y-98695095D01*
X154490057Y-98695095D02*
X154585295Y-98742714D01*
X154585295Y-98742714D02*
X154680533Y-98742714D01*
X154680533Y-98742714D02*
X154823390Y-98695095D01*
X154823390Y-98695095D02*
X155394819Y-98123667D01*
X155394819Y-98123667D02*
X155394819Y-98742714D01*
D10*
X156498580Y-83405333D02*
X155784295Y-83405333D01*
X155784295Y-83405333D02*
X155641438Y-83452952D01*
X155641438Y-83452952D02*
X155546200Y-83548190D01*
X155546200Y-83548190D02*
X155498580Y-83691047D01*
X155498580Y-83691047D02*
X155498580Y-83786285D01*
X156498580Y-83024380D02*
X156498580Y-82405333D01*
X156498580Y-82405333D02*
X156117628Y-82738666D01*
X156117628Y-82738666D02*
X156117628Y-82595809D01*
X156117628Y-82595809D02*
X156070009Y-82500571D01*
X156070009Y-82500571D02*
X156022390Y-82452952D01*
X156022390Y-82452952D02*
X155927152Y-82405333D01*
X155927152Y-82405333D02*
X155689057Y-82405333D01*
X155689057Y-82405333D02*
X155593819Y-82452952D01*
X155593819Y-82452952D02*
X155546200Y-82500571D01*
X155546200Y-82500571D02*
X155498580Y-82595809D01*
X155498580Y-82595809D02*
X155498580Y-82881523D01*
X155498580Y-82881523D02*
X155546200Y-82976761D01*
X155546200Y-82976761D02*
X155593819Y-83024380D01*
D11*
X167602819Y-96787411D02*
X168412342Y-96787411D01*
X168412342Y-96787411D02*
X168507580Y-96835030D01*
X168507580Y-96835030D02*
X168555200Y-96882649D01*
X168555200Y-96882649D02*
X168602819Y-96977887D01*
X168602819Y-96977887D02*
X168602819Y-97168363D01*
X168602819Y-97168363D02*
X168555200Y-97263601D01*
X168555200Y-97263601D02*
X168507580Y-97311220D01*
X168507580Y-97311220D02*
X168412342Y-97358839D01*
X168412342Y-97358839D02*
X167602819Y-97358839D01*
X167602819Y-98311220D02*
X167602819Y-97835030D01*
X167602819Y-97835030D02*
X168079009Y-97787411D01*
X168079009Y-97787411D02*
X168031390Y-97835030D01*
X168031390Y-97835030D02*
X167983771Y-97930268D01*
X167983771Y-97930268D02*
X167983771Y-98168363D01*
X167983771Y-98168363D02*
X168031390Y-98263601D01*
X168031390Y-98263601D02*
X168079009Y-98311220D01*
X168079009Y-98311220D02*
X168174247Y-98358839D01*
X168174247Y-98358839D02*
X168412342Y-98358839D01*
X168412342Y-98358839D02*
X168507580Y-98311220D01*
X168507580Y-98311220D02*
X168555200Y-98263601D01*
X168555200Y-98263601D02*
X168602819Y-98168363D01*
X168602819Y-98168363D02*
X168602819Y-97930268D01*
X168602819Y-97930268D02*
X168555200Y-97835030D01*
X168555200Y-97835030D02*
X168507580Y-97787411D01*
X167602819Y-123684779D02*
X168412342Y-123684779D01*
X168412342Y-123684779D02*
X168507580Y-123732398D01*
X168507580Y-123732398D02*
X168555200Y-123780017D01*
X168555200Y-123780017D02*
X168602819Y-123875255D01*
X168602819Y-123875255D02*
X168602819Y-124065731D01*
X168602819Y-124065731D02*
X168555200Y-124160969D01*
X168555200Y-124160969D02*
X168507580Y-124208588D01*
X168507580Y-124208588D02*
X168412342Y-124256207D01*
X168412342Y-124256207D02*
X167602819Y-124256207D01*
X167936152Y-125160969D02*
X168602819Y-125160969D01*
X167555200Y-124922874D02*
X168269485Y-124684779D01*
X168269485Y-124684779D02*
X168269485Y-125303826D01*
D10*
X155527333Y-125695419D02*
X155527333Y-126409704D01*
X155527333Y-126409704D02*
X155574952Y-126552561D01*
X155574952Y-126552561D02*
X155670190Y-126647800D01*
X155670190Y-126647800D02*
X155813047Y-126695419D01*
X155813047Y-126695419D02*
X155908285Y-126695419D01*
X155098761Y-125790657D02*
X155051142Y-125743038D01*
X155051142Y-125743038D02*
X154955904Y-125695419D01*
X154955904Y-125695419D02*
X154717809Y-125695419D01*
X154717809Y-125695419D02*
X154622571Y-125743038D01*
X154622571Y-125743038D02*
X154574952Y-125790657D01*
X154574952Y-125790657D02*
X154527333Y-125885895D01*
X154527333Y-125885895D02*
X154527333Y-125981133D01*
X154527333Y-125981133D02*
X154574952Y-126123990D01*
X154574952Y-126123990D02*
X155146380Y-126695419D01*
X155146380Y-126695419D02*
X154527333Y-126695419D01*
X180882580Y-76293333D02*
X180168295Y-76293333D01*
X180168295Y-76293333D02*
X180025438Y-76340952D01*
X180025438Y-76340952D02*
X179930200Y-76436190D01*
X179930200Y-76436190D02*
X179882580Y-76579047D01*
X179882580Y-76579047D02*
X179882580Y-76674285D01*
X180549247Y-75388571D02*
X179882580Y-75388571D01*
X180930200Y-75626666D02*
X180215914Y-75864761D01*
X180215914Y-75864761D02*
X180215914Y-75245714D01*
D11*
X180794819Y-83907333D02*
X180318628Y-83574000D01*
X180794819Y-83335905D02*
X179794819Y-83335905D01*
X179794819Y-83335905D02*
X179794819Y-83716857D01*
X179794819Y-83716857D02*
X179842438Y-83812095D01*
X179842438Y-83812095D02*
X179890057Y-83859714D01*
X179890057Y-83859714D02*
X179985295Y-83907333D01*
X179985295Y-83907333D02*
X180128152Y-83907333D01*
X180128152Y-83907333D02*
X180223390Y-83859714D01*
X180223390Y-83859714D02*
X180271009Y-83812095D01*
X180271009Y-83812095D02*
X180318628Y-83716857D01*
X180318628Y-83716857D02*
X180318628Y-83335905D01*
X180794819Y-84859714D02*
X180794819Y-84288286D01*
X180794819Y-84574000D02*
X179794819Y-84574000D01*
X179794819Y-84574000D02*
X179937676Y-84478762D01*
X179937676Y-84478762D02*
X180032914Y-84383524D01*
X180032914Y-84383524D02*
X180080533Y-84288286D01*
D10*
X154457400Y-100979600D02*
X155473400Y-100979600D01*
X154457400Y-101741600D02*
X154457400Y-101995600D01*
X154457400Y-101995600D02*
X154965400Y-101995600D01*
X154711400Y-101741600D02*
X154457400Y-101741600D01*
X154965400Y-97068000D02*
X154965400Y-100979600D01*
X154965400Y-101995600D02*
X154457400Y-100979600D01*
X154965400Y-103519600D02*
X154965400Y-101995600D01*
X154965400Y-106161200D02*
X154965400Y-103519600D01*
X155219400Y-102249600D02*
X155473400Y-102249600D01*
X155473400Y-100979600D02*
X154965400Y-101995600D01*
X155473400Y-101995600D02*
X154965400Y-101995600D01*
X155473400Y-102249600D02*
X155473400Y-101995600D01*
D12*
X153940000Y-99886000D02*
X153940000Y-102886000D01*
X154530000Y-100876000D02*
X154940000Y-101896000D01*
X154940000Y-100626000D02*
X154940000Y-102146000D01*
X154940000Y-101896000D02*
X155340000Y-100876000D01*
X155340000Y-100876000D02*
X154530000Y-100876000D01*
X155450000Y-101896000D02*
X154430000Y-101896000D01*
X155940000Y-99886000D02*
X155940000Y-102886000D01*
D11*
X166378000Y-96492000D02*
X169918000Y-96492000D01*
X166378000Y-103152000D02*
X166378000Y-96492000D01*
X169918000Y-96492000D02*
X169918000Y-103152000D01*
X169918000Y-103152000D02*
X166378000Y-103152000D01*
D13*
X171168000Y-96262000D02*
G75*
G02*
X170868000Y-96262000I-150000J0D01*
G01*
X170868000Y-96262000D02*
G75*
G02*
X171168000Y-96262000I150000J0D01*
G01*
D11*
X166378000Y-118844000D02*
X169918000Y-118844000D01*
X166378000Y-125504000D02*
X166378000Y-118844000D01*
X169918000Y-118844000D02*
X169918000Y-125504000D01*
X169918000Y-125504000D02*
X166378000Y-125504000D01*
D13*
X165428000Y-125734000D02*
G75*
G02*
X165128000Y-125734000I-150000J0D01*
G01*
X165128000Y-125734000D02*
G75*
G02*
X165428000Y-125734000I150000J0D01*
G01*
%LPC*%
D14*
X178059000Y-124206000D03*
X178059000Y-121666000D03*
X178059000Y-119126000D03*
X178059000Y-116586000D03*
X178059000Y-114046000D03*
X178059000Y-111506000D03*
X178059000Y-108966000D03*
X178059000Y-106426000D03*
X178059000Y-103886000D03*
X178059000Y-101346000D03*
X178059000Y-98806000D03*
X178059000Y-96266000D03*
X178059000Y-93726000D03*
X178059000Y-91186000D03*
X178059000Y-88646000D03*
X178059000Y-86106000D03*
X178059000Y-83566000D03*
X178059000Y-81026000D03*
X178059000Y-78486000D03*
X178059000Y-75946000D03*
X157739000Y-75946000D03*
X157739000Y-78486000D03*
X157739000Y-81026000D03*
X157739000Y-83566000D03*
X157739000Y-86106000D03*
X157739000Y-88646000D03*
X157739000Y-91186000D03*
X157739000Y-93726000D03*
X157739000Y-96266000D03*
X157739000Y-98806000D03*
X157739000Y-101346000D03*
X157739000Y-103886000D03*
X157739000Y-106426000D03*
X157739000Y-108966000D03*
X157739000Y-111506000D03*
X157739000Y-114046000D03*
X157739000Y-116586000D03*
X157739000Y-119126000D03*
X157739000Y-121666000D03*
X157739000Y-124206000D03*
D15*
X160274000Y-77302900D03*
X160274000Y-79842900D03*
X160274000Y-82382900D03*
X160274000Y-84922900D03*
X160274000Y-87462900D03*
X160274000Y-90002900D03*
X160274000Y-92542900D03*
X160274000Y-95082900D03*
X160274000Y-97622900D03*
X160274000Y-100162900D03*
X160274000Y-102702900D03*
X160274000Y-105242900D03*
X160274000Y-107782900D03*
X160274000Y-110322900D03*
X160274000Y-112862900D03*
X160274000Y-115402900D03*
X160274000Y-117942900D03*
X160274000Y-120482900D03*
X160274000Y-123022900D03*
X160274000Y-125562900D03*
X175514000Y-125562900D03*
X175514000Y-123022900D03*
X175514000Y-120482900D03*
X175514000Y-117942900D03*
X175514000Y-115402900D03*
X175514000Y-112862900D03*
X175514000Y-110322900D03*
X175514000Y-107782900D03*
X175514000Y-105242900D03*
X175514000Y-102702900D03*
X175514000Y-100162900D03*
X175514000Y-97622900D03*
X175514000Y-95082900D03*
X175514000Y-92542900D03*
X175514000Y-90002900D03*
X175514000Y-87462900D03*
X175514000Y-84922900D03*
X175514000Y-82382900D03*
X175514000Y-79842900D03*
X175514000Y-77302900D03*
X154990800Y-106821600D03*
X154990800Y-96306000D03*
D16*
X154940000Y-103086000D03*
X154940000Y-99686000D03*
D17*
X155956000Y-86106000D03*
X155956000Y-84582000D03*
D18*
X171018000Y-96892000D03*
X171018000Y-97542000D03*
X171018000Y-98192000D03*
X171018000Y-98842000D03*
X171018000Y-99502000D03*
X171018000Y-100152000D03*
X171018000Y-100802000D03*
X171018000Y-101452000D03*
X171018000Y-102102000D03*
X171018000Y-102752000D03*
X165278000Y-102752000D03*
X165278000Y-102102000D03*
X165278000Y-101452000D03*
X165278000Y-100802000D03*
X165278000Y-100152000D03*
X165278000Y-99502000D03*
X165278000Y-98842000D03*
X165278000Y-98192000D03*
X165278000Y-97542000D03*
X165278000Y-96892000D03*
X165278000Y-125104000D03*
X165278000Y-124454000D03*
X165278000Y-123804000D03*
X165278000Y-123154000D03*
X165278000Y-122494000D03*
X165278000Y-121844000D03*
X165278000Y-121194000D03*
X165278000Y-120544000D03*
X165278000Y-119894000D03*
X165278000Y-119244000D03*
X171018000Y-119244000D03*
X171018000Y-119894000D03*
X171018000Y-120544000D03*
X171018000Y-121194000D03*
X171018000Y-121844000D03*
X171018000Y-122494000D03*
X171018000Y-123154000D03*
X171018000Y-123804000D03*
X171018000Y-124454000D03*
X171018000Y-125104000D03*
D17*
X158242000Y-126238000D03*
X156718000Y-126238000D03*
X180340000Y-78994000D03*
X180340000Y-77470000D03*
D19*
X180340000Y-80264000D03*
X180340000Y-82296000D03*
%LPD*%
M02*
