M48
; DRILL file {KiCad 8.0.4} date 2024-09-05T13:46:01-0300
; FORMAT={-:-/ absolute / inch / decimal}
; #@! TF.CreationDate,2024-09-05T13:46:01-03:00
; #@! TF.GenerationSoftware,Kicad,Pcbnew,8.0.4
; #@! TF.FileFunction,Plated,1,4,PTH
FMAT,2
INCH
; #@! TA.AperFunction,Plated,PTH,ViaDrill
T1C0.0157
; #@! TA.AperFunction,Plated,PTH,ComponentDrill
T2C0.0320
; #@! TA.AperFunction,Plated,PTH,ComponentDrill
T3C0.0394
%
G90
G05
T1
X6.0Y-3.7402
X6.1176Y-3.2663
X6.1321Y-4.1105
X6.3671Y-3.8982
X6.3851Y-3.5886
X6.4028Y-4.887
X6.4046Y-3.6276
X6.4259Y-4.0277
X6.4271Y-4.3889
X6.4298Y-3.8487
X6.4321Y-3.4287
X6.4323Y-3.3892
X6.4327Y-3.6555
X6.4328Y-4.8448
X6.4462Y-3.9299
X6.4609Y-4.5234
X6.4686Y-4.0842
X6.4708Y-4.2157
X6.4859Y-3.7818
X6.5239Y-3.283
X6.5323Y-4.205
X6.5642Y-4.1105
X6.5685Y-3.9415
X6.5715Y-4.8457
X6.5777Y-3.7345
X6.5821Y-4.0411
X6.5854Y-4.4522
X6.6056Y-3.9942
X6.6141Y-4.4164
X6.6578Y-3.8356
X6.6595Y-4.2865
X6.6629Y-4.8742
X6.6669Y-4.7764
X6.6726Y-4.3476
X6.6731Y-4.4351
X6.6985Y-3.7828
X6.7021Y-3.2591
X6.7138Y-4.1254
X6.7141Y-4.0838
X6.7573Y-4.2217
X6.7791Y-3.7253
X6.7913Y-4.2681
X6.7922Y-4.3837
X6.7925Y-4.0532
X6.7927Y-4.4391
X6.7954Y-3.9666
X6.7975Y-3.4713
X6.81Y-3.7944
X6.8402Y-3.8244
T2
X6.2102Y-2.99
X6.2102Y-3.09
X6.2102Y-3.19
X6.2102Y-3.29
X6.2102Y-3.39
X6.2102Y-3.49
X6.2102Y-3.59
X6.2102Y-3.69
X6.2102Y-3.79
X6.2102Y-3.89
X6.2102Y-3.99
X6.2102Y-4.09
X6.2102Y-4.19
X6.2102Y-4.29
X6.2102Y-4.39
X6.2102Y-4.49
X6.2102Y-4.59
X6.2102Y-4.69
X6.2102Y-4.79
X6.2102Y-4.89
X7.0102Y-2.99
X7.0102Y-3.09
X7.0102Y-3.19
X7.0102Y-3.29
X7.0102Y-3.39
X7.0102Y-3.49
X7.0102Y-3.59
X7.0102Y-3.69
X7.0102Y-3.79
X7.0102Y-3.89
X7.0102Y-3.99
X7.0102Y-4.09
X7.0102Y-4.19
X7.0102Y-4.29
X7.0102Y-4.39
X7.0102Y-4.49
X7.0102Y-4.59
X7.0102Y-4.69
X7.0102Y-4.79
X7.0102Y-4.89
T3
X6.102Y-3.7916
X6.102Y-4.2056
X6.31Y-3.0434
X6.31Y-3.1434
X6.31Y-3.2434
X6.31Y-3.3434
X6.31Y-3.4434
X6.31Y-3.5434
X6.31Y-3.6434
X6.31Y-3.7434
X6.31Y-3.8434
X6.31Y-3.9434
X6.31Y-4.0434
X6.31Y-4.1434
X6.31Y-4.2434
X6.31Y-4.3434
X6.31Y-4.4434
X6.31Y-4.5434
X6.31Y-4.6434
X6.31Y-4.7434
X6.31Y-4.8434
X6.31Y-4.9434
X6.91Y-3.0434
X6.91Y-3.1434
X6.91Y-3.2434
X6.91Y-3.3434
X6.91Y-3.4434
X6.91Y-3.5434
X6.91Y-3.6434
X6.91Y-3.7434
X6.91Y-3.8434
X6.91Y-3.9434
X6.91Y-4.0434
X6.91Y-4.1434
X6.91Y-4.2434
X6.91Y-4.3434
X6.91Y-4.4434
X6.91Y-4.5434
X6.91Y-4.6434
X6.91Y-4.7434
X6.91Y-4.8434
X6.91Y-4.9434
M30
