M48
; DRILL file {KiCad (6.0.9)} date Thu Oct 17 20:50:58 2024
; FORMAT={-:-/ absolute / metric / decimal}
; #@! TF.CreationDate,2024-10-17T20:50:58+02:00
; #@! TF.GenerationSoftware,Kicad,Pcbnew,(6.0.9)
; #@! TF.FileFunction,Plated,1,2,PTH
FMAT,2
METRIC
; #@! TA.AperFunction,Plated,PTH,ViaDrill
T1C0.400
; #@! TA.AperFunction,Plated,PTH,ComponentDrill
T2C0.800
; #@! TA.AperFunction,Plated,PTH,ComponentDrill
T3C1.100
%
G90
G05
T1
X135.306Y-114.03
X135.357Y-120.719
X136.057Y-116.84
X146.837Y-103.394
X148.699Y-103.431
X149.08Y-97.027
X149.409Y-124.869
T2
X121.92Y-74.93
X121.92Y-77.47
X121.92Y-80.01
X121.92Y-82.55
X121.92Y-85.09
X121.92Y-87.63
X121.92Y-90.17
X121.92Y-92.71
X121.92Y-95.25
X121.92Y-97.79
X121.92Y-106.68
X121.92Y-109.22
X121.92Y-111.76
X121.92Y-114.3
X121.92Y-116.84
X121.92Y-119.38
X121.92Y-121.92
X121.92Y-124.46
X121.92Y-127.0
X121.92Y-129.54
X123.19Y-133.35
X123.27Y-101.6
X128.19Y-133.35
X128.27Y-101.6
X129.54Y-74.93
X129.54Y-77.47
X129.54Y-80.01
X129.54Y-82.55
X129.54Y-85.09
X129.54Y-87.63
X129.54Y-90.17
X129.54Y-92.71
X129.54Y-95.25
X129.54Y-97.79
X129.54Y-106.68
X129.54Y-109.22
X129.54Y-111.76
X129.54Y-114.3
X129.54Y-116.84
X129.54Y-119.38
X129.54Y-121.92
X129.54Y-124.46
X129.54Y-127.0
X129.54Y-129.54
X133.35Y-74.93
X133.35Y-77.47
X133.35Y-80.01
X133.35Y-82.55
X133.35Y-85.09
X133.35Y-87.63
X133.35Y-90.17
X133.35Y-92.71
X133.35Y-95.25
X137.175Y-80.005
X137.175Y-82.545
X137.175Y-85.085
X137.175Y-87.625
X137.175Y-90.165
X137.175Y-92.705
X137.175Y-95.245
X137.175Y-97.785
X137.175Y-100.325
X137.175Y-102.865
X137.175Y-105.405
X137.175Y-107.945
X137.175Y-110.485
X137.175Y-113.025
X137.175Y-115.565
X137.175Y-118.105
X137.175Y-120.645
X137.175Y-123.185
X137.175Y-125.725
X137.175Y-128.265
X139.71Y-76.2
X139.71Y-78.74
X139.71Y-81.28
X139.71Y-83.82
X139.71Y-86.36
X139.71Y-88.9
X139.71Y-91.44
X139.71Y-93.98
X139.71Y-96.52
X139.71Y-99.06
X139.71Y-101.6
X139.71Y-104.14
X139.71Y-106.68
X139.71Y-109.22
X139.71Y-111.76
X139.71Y-114.3
X139.71Y-116.84
X139.71Y-119.38
X139.71Y-121.92
X139.71Y-124.46
X143.51Y-74.93
X143.51Y-77.47
X143.51Y-80.01
X143.51Y-82.55
X143.51Y-85.09
X143.51Y-87.63
X143.51Y-90.17
X143.51Y-92.71
X143.51Y-95.25
X143.51Y-97.79
X144.82Y-101.605
X149.82Y-101.605
X151.13Y-74.93
X151.13Y-77.47
X151.13Y-80.01
X151.13Y-82.55
X151.13Y-85.09
X151.13Y-87.63
X151.13Y-90.17
X151.13Y-92.71
X151.13Y-95.25
X151.13Y-97.79
X154.95Y-76.2
X154.95Y-78.74
X154.95Y-81.28
X154.95Y-83.82
X154.95Y-86.36
X154.95Y-88.9
X154.95Y-91.44
X154.95Y-93.98
X154.95Y-96.52
X154.95Y-99.06
X154.95Y-101.6
X154.95Y-104.14
X154.95Y-106.68
X154.95Y-109.22
X154.95Y-111.76
X154.95Y-114.3
X154.95Y-116.84
X154.95Y-119.38
X154.95Y-121.92
X154.95Y-124.46
X156.21Y-73.66
X157.495Y-80.005
X157.495Y-82.545
X157.495Y-85.085
X157.495Y-87.625
X157.495Y-90.165
X157.495Y-92.705
X157.495Y-95.245
X157.495Y-97.785
X157.495Y-100.325
X157.495Y-102.865
X157.495Y-105.405
X157.495Y-107.945
X157.495Y-110.485
X157.495Y-113.025
X157.495Y-115.565
X157.495Y-118.105
X157.495Y-120.645
X157.495Y-123.185
X157.495Y-125.725
X157.495Y-128.265
X161.21Y-73.66
X162.56Y-106.68
X162.56Y-109.22
X162.56Y-111.76
X162.56Y-114.3
X162.56Y-116.84
X162.56Y-119.38
X162.56Y-121.92
X162.56Y-124.46
X162.56Y-127.0
X162.56Y-129.54
X162.625Y-76.205
X162.625Y-78.745
X162.625Y-81.285
X162.625Y-83.825
X162.625Y-86.365
X162.625Y-88.905
X162.625Y-91.445
X162.625Y-93.985
X162.625Y-96.525
X162.625Y-99.065
X163.895Y-133.355
X163.905Y-102.88
X168.895Y-133.355
X168.905Y-102.88
X170.18Y-106.68
X170.18Y-109.22
X170.18Y-111.76
X170.18Y-114.3
X170.18Y-116.84
X170.18Y-119.38
X170.18Y-121.92
X170.18Y-124.46
X170.18Y-127.0
X170.18Y-129.54
X170.245Y-76.205
X170.245Y-78.745
X170.245Y-81.285
X170.245Y-83.825
X170.245Y-86.365
X170.245Y-88.905
X170.245Y-91.445
X170.245Y-93.985
X170.245Y-96.525
X170.245Y-99.065
T3
X143.51Y-104.14
X151.13Y-104.14
T0
M30
