G04 #@! TF.GenerationSoftware,KiCad,Pcbnew,(6.0.9)*
G04 #@! TF.CreationDate,2024-10-17T20:50:55+02:00*
G04 #@! TF.ProjectId,Sombrero_MSX_Goa'uld,536f6d62-7265-4726-9f5f-4d53585f476f,rev?*
G04 #@! TF.SameCoordinates,Original*
G04 #@! TF.FileFunction,Soldermask,Top*
G04 #@! TF.FilePolarity,Negative*
%FSLAX46Y46*%
G04 Gerber Fmt 4.6, Leading zero omitted, Abs format (unit mm)*
G04 Created by KiCad (PCBNEW (6.0.9)) date 2024-10-17 20:50:55*
%MOMM*%
%LPD*%
G01*
G04 APERTURE LIST*
%ADD10R,2.400000X1.600000*%
%ADD11O,2.400000X1.600000*%
%ADD12C,1.600000*%
%ADD13R,1.600000X1.600000*%
%ADD14O,1.600000X1.600000*%
%ADD15R,2.200000X2.200000*%
%ADD16O,2.200000X2.200000*%
G04 APERTURE END LIST*
D10*
X170245000Y-99065000D03*
D11*
X170245000Y-96525000D03*
X170245000Y-93985000D03*
X170245000Y-91445000D03*
X170245000Y-88905000D03*
X170245000Y-86365000D03*
X170245000Y-83825000D03*
X170245000Y-81285000D03*
X170245000Y-78745000D03*
X170245000Y-76205000D03*
X162625000Y-76205000D03*
X162625000Y-78745000D03*
X162625000Y-81285000D03*
X162625000Y-83825000D03*
X162625000Y-86365000D03*
X162625000Y-88905000D03*
X162625000Y-91445000D03*
X162625000Y-93985000D03*
X162625000Y-96525000D03*
X162625000Y-99065000D03*
D10*
X137175000Y-80005000D03*
D11*
X137175000Y-82545000D03*
X137175000Y-85085000D03*
X137175000Y-87625000D03*
X137175000Y-90165000D03*
X137175000Y-92705000D03*
X137175000Y-95245000D03*
X137175000Y-97785000D03*
X137175000Y-100325000D03*
X137175000Y-102865000D03*
X137175000Y-105405000D03*
X137175000Y-107945000D03*
X137175000Y-110485000D03*
X137175000Y-113025000D03*
X137175000Y-115565000D03*
X137175000Y-118105000D03*
X137175000Y-120645000D03*
X137175000Y-123185000D03*
X137175000Y-125725000D03*
X137175000Y-128265000D03*
X157495000Y-128265000D03*
X157495000Y-125725000D03*
X157495000Y-123185000D03*
X157495000Y-120645000D03*
X157495000Y-118105000D03*
X157495000Y-115565000D03*
X157495000Y-113025000D03*
X157495000Y-110485000D03*
X157495000Y-107945000D03*
X157495000Y-105405000D03*
X157495000Y-102865000D03*
X157495000Y-100325000D03*
X157495000Y-97785000D03*
X157495000Y-95245000D03*
X157495000Y-92705000D03*
X157495000Y-90165000D03*
X157495000Y-87625000D03*
X157495000Y-85085000D03*
X157495000Y-82545000D03*
X157495000Y-80005000D03*
D10*
X129540000Y-129540000D03*
D11*
X129540000Y-127000000D03*
X129540000Y-124460000D03*
X129540000Y-121920000D03*
X129540000Y-119380000D03*
X129540000Y-116840000D03*
X129540000Y-114300000D03*
X129540000Y-111760000D03*
X129540000Y-109220000D03*
X129540000Y-106680000D03*
X121920000Y-106680000D03*
X121920000Y-109220000D03*
X121920000Y-111760000D03*
X121920000Y-114300000D03*
X121920000Y-116840000D03*
X121920000Y-119380000D03*
X121920000Y-121920000D03*
X121920000Y-124460000D03*
X121920000Y-127000000D03*
X121920000Y-129540000D03*
D10*
X129540000Y-97790000D03*
D11*
X129540000Y-95250000D03*
X129540000Y-92710000D03*
X129540000Y-90170000D03*
X129540000Y-87630000D03*
X129540000Y-85090000D03*
X129540000Y-82550000D03*
X129540000Y-80010000D03*
X129540000Y-77470000D03*
X129540000Y-74930000D03*
X121920000Y-74930000D03*
X121920000Y-77470000D03*
X121920000Y-80010000D03*
X121920000Y-82550000D03*
X121920000Y-85090000D03*
X121920000Y-87630000D03*
X121920000Y-90170000D03*
X121920000Y-92710000D03*
X121920000Y-95250000D03*
X121920000Y-97790000D03*
D12*
X163895000Y-133355000D03*
X168895000Y-133355000D03*
D10*
X170180000Y-129540000D03*
D11*
X170180000Y-127000000D03*
X170180000Y-124460000D03*
X170180000Y-121920000D03*
X170180000Y-119380000D03*
X170180000Y-116840000D03*
X170180000Y-114300000D03*
X170180000Y-111760000D03*
X170180000Y-109220000D03*
X170180000Y-106680000D03*
X162560000Y-106680000D03*
X162560000Y-109220000D03*
X162560000Y-111760000D03*
X162560000Y-114300000D03*
X162560000Y-116840000D03*
X162560000Y-119380000D03*
X162560000Y-121920000D03*
X162560000Y-124460000D03*
X162560000Y-127000000D03*
X162560000Y-129540000D03*
D12*
X156210000Y-73660000D03*
X161210000Y-73660000D03*
D13*
X133350000Y-74930000D03*
D14*
X133350000Y-77470000D03*
X133350000Y-80010000D03*
X133350000Y-82550000D03*
X133350000Y-85090000D03*
X133350000Y-87630000D03*
X133350000Y-90170000D03*
X133350000Y-92710000D03*
X133350000Y-95250000D03*
D15*
X151130000Y-104140000D03*
D16*
X143510000Y-104140000D03*
D12*
X123190000Y-133350000D03*
X128190000Y-133350000D03*
X123270000Y-101600000D03*
X128270000Y-101600000D03*
D13*
X139710000Y-76200000D03*
D14*
X139710000Y-78740000D03*
X139710000Y-81280000D03*
X139710000Y-83820000D03*
X139710000Y-86360000D03*
X139710000Y-88900000D03*
X139710000Y-91440000D03*
X139710000Y-93980000D03*
X139710000Y-96520000D03*
X139710000Y-99060000D03*
X139710000Y-101600000D03*
X139710000Y-104140000D03*
X139710000Y-106680000D03*
X139710000Y-109220000D03*
X139710000Y-111760000D03*
X139710000Y-114300000D03*
X139710000Y-116840000D03*
X139710000Y-119380000D03*
X139710000Y-121920000D03*
X139710000Y-124460000D03*
X154950000Y-124460000D03*
X154950000Y-121920000D03*
X154950000Y-119380000D03*
X154950000Y-116840000D03*
X154950000Y-114300000D03*
X154950000Y-111760000D03*
X154950000Y-109220000D03*
X154950000Y-106680000D03*
X154950000Y-104140000D03*
X154950000Y-101600000D03*
X154950000Y-99060000D03*
X154950000Y-96520000D03*
X154950000Y-93980000D03*
X154950000Y-91440000D03*
X154950000Y-88900000D03*
X154950000Y-86360000D03*
X154950000Y-83820000D03*
X154950000Y-81280000D03*
X154950000Y-78740000D03*
X154950000Y-76200000D03*
D12*
X163905000Y-102880000D03*
X168905000Y-102880000D03*
X144820000Y-101605000D03*
X149820000Y-101605000D03*
D10*
X151130000Y-97790000D03*
D11*
X151130000Y-95250000D03*
X151130000Y-92710000D03*
X151130000Y-90170000D03*
X151130000Y-87630000D03*
X151130000Y-85090000D03*
X151130000Y-82550000D03*
X151130000Y-80010000D03*
X151130000Y-77470000D03*
X151130000Y-74930000D03*
X143510000Y-74930000D03*
X143510000Y-77470000D03*
X143510000Y-80010000D03*
X143510000Y-82550000D03*
X143510000Y-85090000D03*
X143510000Y-87630000D03*
X143510000Y-90170000D03*
X143510000Y-92710000D03*
X143510000Y-95250000D03*
X143510000Y-97790000D03*
M02*
