G04 #@! TF.GenerationSoftware,KiCad,Pcbnew,(6.0.9)*
G04 #@! TF.CreationDate,2024-02-12T22:17:00+01:00*
G04 #@! TF.ProjectId,Sombrero_MSX_Goa'uld,536f6d62-7265-4726-9f5f-4d53585f476f,rev?*
G04 #@! TF.SameCoordinates,Original*
G04 #@! TF.FileFunction,Legend,Top*
G04 #@! TF.FilePolarity,Positive*
%FSLAX46Y46*%
G04 Gerber Fmt 4.6, Leading zero omitted, Abs format (unit mm)*
G04 Created by KiCad (PCBNEW (6.0.9)) date 2024-02-12 22:17:00*
%MOMM*%
%LPD*%
G01*
G04 APERTURE LIST*
%ADD10C,0.150000*%
%ADD11C,0.096520*%
%ADD12C,0.120000*%
%ADD13C,0.100000*%
%ADD14R,2.400000X1.600000*%
%ADD15O,2.400000X1.600000*%
%ADD16R,1.600000X2.400000*%
%ADD17O,1.600000X2.400000*%
%ADD18C,1.600000*%
%ADD19R,1.600000X1.600000*%
%ADD20O,1.600000X1.600000*%
%ADD21R,2.200000X2.200000*%
%ADD22O,2.200000X2.200000*%
G04 APERTURE END LIST*
D10*
X165618095Y-72057380D02*
X165618095Y-72866904D01*
X165665714Y-72962142D01*
X165713333Y-73009761D01*
X165808571Y-73057380D01*
X165999047Y-73057380D01*
X166094285Y-73009761D01*
X166141904Y-72962142D01*
X166189523Y-72866904D01*
X166189523Y-72057380D01*
X167189523Y-73057380D02*
X166618095Y-73057380D01*
X166903809Y-73057380D02*
X166903809Y-72057380D01*
X166808571Y-72200238D01*
X166713333Y-72295476D01*
X166618095Y-72343095D01*
X145303095Y-81997380D02*
X145303095Y-82806904D01*
X145350714Y-82902142D01*
X145398333Y-82949761D01*
X145493571Y-82997380D01*
X145684047Y-82997380D01*
X145779285Y-82949761D01*
X145826904Y-82902142D01*
X145874523Y-82806904D01*
X145874523Y-81997380D01*
X146779285Y-81997380D02*
X146588809Y-81997380D01*
X146493571Y-82045000D01*
X146445952Y-82092619D01*
X146350714Y-82235476D01*
X146303095Y-82425952D01*
X146303095Y-82806904D01*
X146350714Y-82902142D01*
X146398333Y-82949761D01*
X146493571Y-82997380D01*
X146684047Y-82997380D01*
X146779285Y-82949761D01*
X146826904Y-82902142D01*
X146874523Y-82806904D01*
X146874523Y-82568809D01*
X146826904Y-82473571D01*
X146779285Y-82425952D01*
X146684047Y-82378333D01*
X146493571Y-82378333D01*
X146398333Y-82425952D01*
X146350714Y-82473571D01*
X146303095Y-82568809D01*
X161802380Y-140461904D02*
X162611904Y-140461904D01*
X162707142Y-140414285D01*
X162754761Y-140366666D01*
X162802380Y-140271428D01*
X162802380Y-140080952D01*
X162754761Y-139985714D01*
X162707142Y-139938095D01*
X162611904Y-139890476D01*
X161802380Y-139890476D01*
X161802380Y-138938095D02*
X161802380Y-139414285D01*
X162278571Y-139461904D01*
X162230952Y-139414285D01*
X162183333Y-139319047D01*
X162183333Y-139080952D01*
X162230952Y-138985714D01*
X162278571Y-138938095D01*
X162373809Y-138890476D01*
X162611904Y-138890476D01*
X162707142Y-138938095D01*
X162754761Y-138985714D01*
X162802380Y-139080952D01*
X162802380Y-139319047D01*
X162754761Y-139414285D01*
X162707142Y-139461904D01*
X127523095Y-131297380D02*
X127523095Y-132106904D01*
X127570714Y-132202142D01*
X127618333Y-132249761D01*
X127713571Y-132297380D01*
X127904047Y-132297380D01*
X127999285Y-132249761D01*
X128046904Y-132202142D01*
X128094523Y-132106904D01*
X128094523Y-131297380D01*
X128475476Y-131297380D02*
X129094523Y-131297380D01*
X128761190Y-131678333D01*
X128904047Y-131678333D01*
X128999285Y-131725952D01*
X129046904Y-131773571D01*
X129094523Y-131868809D01*
X129094523Y-132106904D01*
X129046904Y-132202142D01*
X128999285Y-132249761D01*
X128904047Y-132297380D01*
X128618333Y-132297380D01*
X128523095Y-132249761D01*
X128475476Y-132202142D01*
D11*
X166198090Y-133720114D02*
X166152128Y-133766076D01*
X166014242Y-133812038D01*
X165922318Y-133812038D01*
X165784433Y-133766076D01*
X165692509Y-133674152D01*
X165646547Y-133582228D01*
X165600585Y-133398380D01*
X165600585Y-133260495D01*
X165646547Y-133076647D01*
X165692509Y-132984723D01*
X165784433Y-132892800D01*
X165922318Y-132846838D01*
X166014242Y-132846838D01*
X166152128Y-132892800D01*
X166198090Y-132938761D01*
X167025404Y-133168571D02*
X167025404Y-133812038D01*
X166795595Y-132800876D02*
X166565785Y-133490304D01*
X167163290Y-133490304D01*
D10*
X165543095Y-131317380D02*
X165543095Y-132126904D01*
X165590714Y-132222142D01*
X165638333Y-132269761D01*
X165733571Y-132317380D01*
X165924047Y-132317380D01*
X166019285Y-132269761D01*
X166066904Y-132222142D01*
X166114523Y-132126904D01*
X166114523Y-131317380D01*
X167019285Y-131650714D02*
X167019285Y-132317380D01*
X166781190Y-131269761D02*
X166543095Y-131984047D01*
X167162142Y-131984047D01*
D11*
X159120114Y-73831909D02*
X159166076Y-73877871D01*
X159212038Y-74015757D01*
X159212038Y-74107681D01*
X159166076Y-74245566D01*
X159074152Y-74337490D01*
X158982228Y-74383452D01*
X158798380Y-74429414D01*
X158660495Y-74429414D01*
X158476647Y-74383452D01*
X158384723Y-74337490D01*
X158292800Y-74245566D01*
X158246838Y-74107681D01*
X158246838Y-74015757D01*
X158292800Y-73877871D01*
X158338761Y-73831909D01*
X158246838Y-73510176D02*
X158246838Y-72866709D01*
X159212038Y-73280366D01*
X165470114Y-139916503D02*
X165516076Y-139962465D01*
X165562038Y-140100351D01*
X165562038Y-140192275D01*
X165516076Y-140330160D01*
X165424152Y-140422084D01*
X165332228Y-140468046D01*
X165148380Y-140514008D01*
X165010495Y-140514008D01*
X164826647Y-140468046D01*
X164734723Y-140422084D01*
X164642800Y-140330160D01*
X164596838Y-140192275D01*
X164596838Y-140100351D01*
X164642800Y-139962465D01*
X164688761Y-139916503D01*
X164596838Y-139043227D02*
X164596838Y-139502846D01*
X165056457Y-139548808D01*
X165010495Y-139502846D01*
X164964533Y-139410922D01*
X164964533Y-139181113D01*
X165010495Y-139089189D01*
X165056457Y-139043227D01*
X165148380Y-138997265D01*
X165378190Y-138997265D01*
X165470114Y-139043227D01*
X165516076Y-139089189D01*
X165562038Y-139181113D01*
X165562038Y-139410922D01*
X165516076Y-139502846D01*
X165470114Y-139548808D01*
D10*
X147507142Y-69536666D02*
X147554761Y-69584285D01*
X147602380Y-69727142D01*
X147602380Y-69822380D01*
X147554761Y-69965238D01*
X147459523Y-70060476D01*
X147364285Y-70108095D01*
X147173809Y-70155714D01*
X147030952Y-70155714D01*
X146840476Y-70108095D01*
X146745238Y-70060476D01*
X146650000Y-69965238D01*
X146602380Y-69822380D01*
X146602380Y-69727142D01*
X146650000Y-69584285D01*
X146697619Y-69536666D01*
X146602380Y-68679523D02*
X146602380Y-68870000D01*
X146650000Y-68965238D01*
X146697619Y-69012857D01*
X146840476Y-69108095D01*
X147030952Y-69155714D01*
X147411904Y-69155714D01*
X147507142Y-69108095D01*
X147554761Y-69060476D01*
X147602380Y-68965238D01*
X147602380Y-68774761D01*
X147554761Y-68679523D01*
X147507142Y-68631904D01*
X147411904Y-68584285D01*
X147173809Y-68584285D01*
X147078571Y-68631904D01*
X147030952Y-68679523D01*
X146983333Y-68774761D01*
X146983333Y-68965238D01*
X147030952Y-69060476D01*
X147078571Y-69108095D01*
X147173809Y-69155714D01*
D11*
X127866176Y-134990114D02*
X127820214Y-135036076D01*
X127682328Y-135082038D01*
X127590404Y-135082038D01*
X127452519Y-135036076D01*
X127360595Y-134944152D01*
X127314633Y-134852228D01*
X127268671Y-134668380D01*
X127268671Y-134530495D01*
X127314633Y-134346647D01*
X127360595Y-134254723D01*
X127452519Y-134162800D01*
X127590404Y-134116838D01*
X127682328Y-134116838D01*
X127820214Y-134162800D01*
X127866176Y-134208761D01*
X128187909Y-134116838D02*
X128785414Y-134116838D01*
X128463681Y-134484533D01*
X128601566Y-134484533D01*
X128693490Y-134530495D01*
X128739452Y-134576457D01*
X128785414Y-134668380D01*
X128785414Y-134898190D01*
X128739452Y-134990114D01*
X128693490Y-135036076D01*
X128601566Y-135082038D01*
X128325795Y-135082038D01*
X128233871Y-135036076D01*
X128187909Y-134990114D01*
D10*
X146996666Y-73322380D02*
X146996666Y-74036666D01*
X146949047Y-74179523D01*
X146853809Y-74274761D01*
X146710952Y-74322380D01*
X146615714Y-74322380D01*
X147996666Y-74322380D02*
X147425238Y-74322380D01*
X147710952Y-74322380D02*
X147710952Y-73322380D01*
X147615714Y-73465238D01*
X147520476Y-73560476D01*
X147425238Y-73608095D01*
D11*
X166304770Y-70220114D02*
X166258808Y-70266076D01*
X166120922Y-70312038D01*
X166028998Y-70312038D01*
X165891113Y-70266076D01*
X165799189Y-70174152D01*
X165753227Y-70082228D01*
X165707265Y-69898380D01*
X165707265Y-69760495D01*
X165753227Y-69576647D01*
X165799189Y-69484723D01*
X165891113Y-69392800D01*
X166028998Y-69346838D01*
X166120922Y-69346838D01*
X166258808Y-69392800D01*
X166304770Y-69438761D01*
X167224008Y-70312038D02*
X166672465Y-70312038D01*
X166948237Y-70312038D02*
X166948237Y-69346838D01*
X166856313Y-69484723D01*
X166764389Y-69576647D01*
X166672465Y-69622609D01*
X128159770Y-70250114D02*
X128113808Y-70296076D01*
X127975922Y-70342038D01*
X127883998Y-70342038D01*
X127746113Y-70296076D01*
X127654189Y-70204152D01*
X127608227Y-70112228D01*
X127562265Y-69928380D01*
X127562265Y-69790495D01*
X127608227Y-69606647D01*
X127654189Y-69514723D01*
X127746113Y-69422800D01*
X127883998Y-69376838D01*
X127975922Y-69376838D01*
X128113808Y-69422800D01*
X128159770Y-69468761D01*
X128527465Y-69468761D02*
X128573427Y-69422800D01*
X128665351Y-69376838D01*
X128895160Y-69376838D01*
X128987084Y-69422800D01*
X129033046Y-69468761D01*
X129079008Y-69560685D01*
X129079008Y-69652609D01*
X129033046Y-69790495D01*
X128481503Y-70342038D01*
X129079008Y-70342038D01*
D10*
X147772380Y-106910095D02*
X146772380Y-106910095D01*
X146772380Y-106672000D01*
X146820000Y-106529142D01*
X146915238Y-106433904D01*
X147010476Y-106386285D01*
X147200952Y-106338666D01*
X147343809Y-106338666D01*
X147534285Y-106386285D01*
X147629523Y-106433904D01*
X147724761Y-106529142D01*
X147772380Y-106672000D01*
X147772380Y-106910095D01*
X147772380Y-105386285D02*
X147772380Y-105957714D01*
X147772380Y-105672000D02*
X146772380Y-105672000D01*
X146915238Y-105767238D01*
X147010476Y-105862476D01*
X147058095Y-105957714D01*
X145692380Y-112021904D02*
X144692380Y-112021904D01*
X145692380Y-111450476D02*
X145120952Y-111879047D01*
X144692380Y-111450476D02*
X145263809Y-112021904D01*
X127503095Y-72057380D02*
X127503095Y-72866904D01*
X127550714Y-72962142D01*
X127598333Y-73009761D01*
X127693571Y-73057380D01*
X127884047Y-73057380D01*
X127979285Y-73009761D01*
X128026904Y-72962142D01*
X128074523Y-72866904D01*
X128074523Y-72057380D01*
X128503095Y-72152619D02*
X128550714Y-72105000D01*
X128645952Y-72057380D01*
X128884047Y-72057380D01*
X128979285Y-72105000D01*
X129026904Y-72152619D01*
X129074523Y-72247857D01*
X129074523Y-72343095D01*
X129026904Y-72485952D01*
X128455476Y-73057380D01*
X129074523Y-73057380D01*
X128103333Y-138902380D02*
X127770000Y-138426190D01*
X127531904Y-138902380D02*
X127531904Y-137902380D01*
X127912857Y-137902380D01*
X128008095Y-137950000D01*
X128055714Y-137997619D01*
X128103333Y-138092857D01*
X128103333Y-138235714D01*
X128055714Y-138330952D01*
X128008095Y-138378571D01*
X127912857Y-138426190D01*
X127531904Y-138426190D01*
X129055714Y-138902380D02*
X128484285Y-138902380D01*
X128770000Y-138902380D02*
X128770000Y-137902380D01*
X128674761Y-138045238D01*
X128579523Y-138140476D01*
X128484285Y-138188095D01*
D12*
X164130000Y-73605000D02*
X164130000Y-99125000D01*
X168630000Y-73605000D02*
X167380000Y-73605000D01*
X168630000Y-99125000D02*
X168630000Y-73605000D01*
X165380000Y-73605000D02*
X164130000Y-73605000D01*
X164130000Y-99125000D02*
X168630000Y-99125000D01*
X165380000Y-73605000D02*
G75*
G03*
X167380000Y-73605000I1000000J0D01*
G01*
X154955000Y-133345000D02*
X154955000Y-130805000D01*
D13*
X135905000Y-129535000D02*
X158765000Y-129535000D01*
D12*
X138735000Y-78675000D02*
X138735000Y-129535000D01*
X144795000Y-78675000D02*
X144795000Y-77465000D01*
X139715000Y-133345000D02*
X154955000Y-133345000D01*
X144795000Y-77465000D02*
X149875000Y-77465000D01*
X155935000Y-78675000D02*
X150875000Y-78675000D01*
X139715000Y-130805000D02*
X139715000Y-133345000D01*
X135735000Y-130805000D02*
X158935000Y-130805000D01*
X149875000Y-77465000D02*
X149875000Y-78608000D01*
X153685000Y-78675000D02*
X138735000Y-78675000D01*
X135735000Y-78615000D02*
X135735000Y-130805000D01*
X158935000Y-78615000D02*
X135735000Y-78615000D01*
X155935000Y-129535000D02*
X155935000Y-78675000D01*
X158935000Y-130805000D02*
X158935000Y-78615000D01*
X161350000Y-137450000D02*
X135830000Y-137450000D01*
X135830000Y-137450000D02*
X135830000Y-141950000D01*
X135830000Y-141950000D02*
X161350000Y-141950000D01*
X161350000Y-141950000D02*
X161350000Y-140700000D01*
X161350000Y-138700000D02*
X161350000Y-137450000D01*
X161350000Y-138700000D02*
G75*
G03*
X161350000Y-140700000I0J-1000000D01*
G01*
X129285000Y-130845000D02*
X130535000Y-130845000D01*
X130535000Y-130845000D02*
X130535000Y-105325000D01*
X126035000Y-105325000D02*
X126035000Y-130845000D01*
X126035000Y-130845000D02*
X127285000Y-130845000D01*
X130535000Y-105325000D02*
X126035000Y-105325000D01*
X129285000Y-130845000D02*
G75*
G03*
X127285000Y-130845000I-1000000J0D01*
G01*
X164060000Y-132280000D02*
X168600000Y-132280000D01*
X168600000Y-134405000D02*
X168600000Y-134420000D01*
X164060000Y-132280000D02*
X164060000Y-132295000D01*
X168600000Y-132280000D02*
X168600000Y-132295000D01*
X164060000Y-134405000D02*
X164060000Y-134420000D01*
X164060000Y-134420000D02*
X168600000Y-134420000D01*
X168555000Y-130865000D02*
X168555000Y-105345000D01*
X168555000Y-105345000D02*
X164055000Y-105345000D01*
X164055000Y-130865000D02*
X165305000Y-130865000D01*
X164055000Y-105345000D02*
X164055000Y-130865000D01*
X167305000Y-130865000D02*
X168555000Y-130865000D01*
X167305000Y-130865000D02*
G75*
G03*
X165305000Y-130865000I-1000000J0D01*
G01*
X157680000Y-71350000D02*
X157680000Y-75890000D01*
X159820000Y-75890000D02*
X159805000Y-75890000D01*
X157695000Y-71350000D02*
X157680000Y-71350000D01*
X159820000Y-71350000D02*
X159820000Y-75890000D01*
X157695000Y-75890000D02*
X157680000Y-75890000D01*
X159820000Y-71350000D02*
X159805000Y-71350000D01*
X164030000Y-141970000D02*
X164030000Y-137430000D01*
X166155000Y-141970000D02*
X166170000Y-141970000D01*
X164030000Y-137430000D02*
X164045000Y-137430000D01*
X164030000Y-141970000D02*
X164045000Y-141970000D01*
X166170000Y-141970000D02*
X166170000Y-137430000D01*
X166155000Y-137430000D02*
X166170000Y-137430000D01*
X153440000Y-67249000D02*
X155893000Y-67249000D01*
X148537000Y-68049000D02*
X151360000Y-68049000D01*
X148424000Y-68449000D02*
X151360000Y-68449000D01*
X148714000Y-67609000D02*
X151360000Y-67609000D01*
X153440000Y-66969000D02*
X155709000Y-66969000D01*
X153440000Y-67689000D02*
X156122000Y-67689000D01*
X150848000Y-65569000D02*
X153952000Y-65569000D01*
X153440000Y-67649000D02*
X156104000Y-67649000D01*
X151171000Y-65449000D02*
X153629000Y-65449000D01*
X153440000Y-68649000D02*
X156417000Y-68649000D01*
X153440000Y-66849000D02*
X155620000Y-66849000D01*
X148324000Y-69170000D02*
X156476000Y-69170000D01*
X151632000Y-65329000D02*
X153168000Y-65329000D01*
X149703000Y-66289000D02*
X155097000Y-66289000D01*
X148883000Y-67289000D02*
X151360000Y-67289000D01*
X150755000Y-65609000D02*
X154045000Y-65609000D01*
X150510000Y-65729000D02*
X154290000Y-65729000D01*
X153440000Y-67169000D02*
X155844000Y-67169000D01*
X148626000Y-67809000D02*
X151360000Y-67809000D01*
X148523000Y-68089000D02*
X151360000Y-68089000D01*
X148339000Y-68970000D02*
X156461000Y-68970000D01*
X153440000Y-67289000D02*
X155917000Y-67289000D01*
X150085000Y-73779698D02*
X150085000Y-72979698D01*
X153440000Y-68129000D02*
X156289000Y-68129000D01*
X149180000Y-66849000D02*
X151360000Y-66849000D01*
X149685000Y-73379698D02*
X150485000Y-73379698D01*
X148390000Y-68609000D02*
X151360000Y-68609000D01*
X153440000Y-67729000D02*
X156140000Y-67729000D01*
X149574000Y-66409000D02*
X155226000Y-66409000D01*
X149796000Y-66209000D02*
X155004000Y-66209000D01*
X150234000Y-65889000D02*
X154566000Y-65889000D01*
X148323000Y-69210000D02*
X156477000Y-69210000D01*
X149091000Y-66969000D02*
X151360000Y-66969000D01*
X149120000Y-66929000D02*
X151360000Y-66929000D01*
X149616000Y-66369000D02*
X155184000Y-66369000D01*
X148464000Y-68289000D02*
X151360000Y-68289000D01*
X153440000Y-66649000D02*
X155455000Y-66649000D01*
X153440000Y-67969000D02*
X156235000Y-67969000D01*
X148753000Y-67529000D02*
X151360000Y-67529000D01*
X153440000Y-68529000D02*
X156394000Y-68529000D01*
X151452000Y-65369000D02*
X153348000Y-65369000D01*
X148794000Y-67449000D02*
X151360000Y-67449000D01*
X150587000Y-65689000D02*
X154213000Y-65689000D01*
X148579000Y-67929000D02*
X151360000Y-67929000D01*
X148610000Y-67849000D02*
X151360000Y-67849000D01*
X153440000Y-68449000D02*
X156376000Y-68449000D01*
X149008000Y-67089000D02*
X151360000Y-67089000D01*
X150298000Y-65849000D02*
X154502000Y-65849000D01*
X149659000Y-66329000D02*
X155141000Y-66329000D01*
X148486000Y-68209000D02*
X151360000Y-68209000D01*
X153440000Y-68049000D02*
X156263000Y-68049000D01*
X153440000Y-67369000D02*
X155962000Y-67369000D01*
X148329000Y-69090000D02*
X156471000Y-69090000D01*
X150366000Y-65809000D02*
X154434000Y-65809000D01*
X153440000Y-67009000D02*
X155738000Y-67009000D01*
X148475000Y-68249000D02*
X151360000Y-68249000D01*
X148343000Y-68930000D02*
X156457000Y-68930000D01*
X148433000Y-68409000D02*
X151360000Y-68409000D01*
X153440000Y-67329000D02*
X155940000Y-67329000D01*
X153440000Y-67529000D02*
X156047000Y-67529000D01*
X153440000Y-67209000D02*
X155869000Y-67209000D01*
X153440000Y-68409000D02*
X156367000Y-68409000D01*
X149417000Y-66569000D02*
X155383000Y-66569000D01*
X153440000Y-66729000D02*
X155524000Y-66729000D01*
X148358000Y-68810000D02*
X156442000Y-68810000D01*
X149946000Y-66089000D02*
X154854000Y-66089000D01*
X148773000Y-67489000D02*
X151360000Y-67489000D01*
X153440000Y-67089000D02*
X155792000Y-67089000D01*
X149493000Y-66489000D02*
X155307000Y-66489000D01*
X148376000Y-68690000D02*
X156424000Y-68690000D01*
X148332000Y-69050000D02*
X156468000Y-69050000D01*
X148595000Y-67889000D02*
X151360000Y-67889000D01*
X148398000Y-68569000D02*
X151360000Y-68569000D01*
X149150000Y-66889000D02*
X151360000Y-66889000D01*
X153440000Y-68369000D02*
X156357000Y-68369000D01*
X153440000Y-67809000D02*
X156174000Y-67809000D01*
X153440000Y-66889000D02*
X155650000Y-66889000D01*
X153440000Y-68209000D02*
X156314000Y-68209000D01*
X148443000Y-68369000D02*
X151360000Y-68369000D01*
X148734000Y-67569000D02*
X151360000Y-67569000D01*
X148511000Y-68129000D02*
X151360000Y-68129000D01*
X149844000Y-66169000D02*
X154956000Y-66169000D01*
X151054000Y-65489000D02*
X153746000Y-65489000D01*
X153440000Y-67129000D02*
X155818000Y-67129000D01*
X153440000Y-67489000D02*
X156027000Y-67489000D01*
X150669000Y-65649000D02*
X154131000Y-65649000D01*
X148321000Y-69250000D02*
X156479000Y-69250000D01*
X151302000Y-65409000D02*
X153498000Y-65409000D01*
X148406000Y-68529000D02*
X151360000Y-68529000D01*
X148860000Y-67329000D02*
X151360000Y-67329000D01*
X148931000Y-67209000D02*
X151360000Y-67209000D01*
X150172000Y-65929000D02*
X154628000Y-65929000D01*
X149310000Y-66689000D02*
X151360000Y-66689000D01*
X148320000Y-69330000D02*
X156480000Y-69330000D01*
X148956000Y-67169000D02*
X151360000Y-67169000D01*
X148565000Y-67969000D02*
X151360000Y-67969000D01*
X153440000Y-66769000D02*
X155556000Y-66769000D01*
X148363000Y-68770000D02*
X156437000Y-68770000D01*
X153440000Y-66609000D02*
X155419000Y-66609000D01*
X153440000Y-67849000D02*
X156190000Y-67849000D01*
X153440000Y-67569000D02*
X156066000Y-67569000D01*
X149749000Y-66249000D02*
X155051000Y-66249000D01*
X153440000Y-68249000D02*
X156325000Y-68249000D01*
X153440000Y-68169000D02*
X156302000Y-68169000D01*
X153440000Y-67449000D02*
X156006000Y-67449000D01*
X148326000Y-69130000D02*
X156474000Y-69130000D01*
X153440000Y-67409000D02*
X155984000Y-67409000D01*
X150947000Y-65529000D02*
X153853000Y-65529000D01*
X153440000Y-67929000D02*
X156221000Y-67929000D01*
X149035000Y-67049000D02*
X151360000Y-67049000D01*
X153440000Y-67889000D02*
X156205000Y-67889000D01*
X153440000Y-67609000D02*
X156086000Y-67609000D01*
X153440000Y-68489000D02*
X156385000Y-68489000D01*
X148498000Y-68169000D02*
X151360000Y-68169000D01*
X148907000Y-67249000D02*
X151360000Y-67249000D01*
X150000000Y-66049000D02*
X154800000Y-66049000D01*
X153440000Y-68089000D02*
X156277000Y-68089000D01*
X148550000Y-68009000D02*
X151360000Y-68009000D01*
X148678000Y-67689000D02*
X151360000Y-67689000D01*
X148838000Y-67369000D02*
X151360000Y-67369000D01*
X153440000Y-68329000D02*
X156347000Y-68329000D01*
X148320000Y-69370000D02*
X156480000Y-69370000D01*
X153440000Y-68569000D02*
X156402000Y-68569000D01*
X148383000Y-68649000D02*
X151360000Y-68649000D01*
X148696000Y-67649000D02*
X151360000Y-67649000D01*
X149211000Y-66809000D02*
X151360000Y-66809000D01*
X150436000Y-65769000D02*
X154364000Y-65769000D01*
X148453000Y-68329000D02*
X151360000Y-68329000D01*
X148982000Y-67129000D02*
X151360000Y-67129000D01*
X149533000Y-66449000D02*
X155267000Y-66449000D01*
X148816000Y-67409000D02*
X151360000Y-67409000D01*
X153440000Y-66929000D02*
X155680000Y-66929000D01*
X153440000Y-68289000D02*
X156336000Y-68289000D01*
X149381000Y-66609000D02*
X151360000Y-66609000D01*
X153440000Y-68009000D02*
X156250000Y-68009000D01*
X151867000Y-65289000D02*
X152933000Y-65289000D01*
X148643000Y-67769000D02*
X151360000Y-67769000D01*
X148370000Y-68730000D02*
X156430000Y-68730000D01*
X150055000Y-66009000D02*
X154745000Y-66009000D01*
X148348000Y-68890000D02*
X156452000Y-68890000D01*
X153440000Y-66689000D02*
X155490000Y-66689000D01*
X148352000Y-68850000D02*
X156448000Y-68850000D01*
X149062000Y-67009000D02*
X151360000Y-67009000D01*
X148320000Y-69290000D02*
X156480000Y-69290000D01*
X148335000Y-69010000D02*
X156465000Y-69010000D01*
X149244000Y-66769000D02*
X151360000Y-66769000D01*
X153440000Y-67769000D02*
X156157000Y-67769000D01*
X153440000Y-67049000D02*
X155765000Y-67049000D01*
X149895000Y-66129000D02*
X154905000Y-66129000D01*
X149455000Y-66529000D02*
X155345000Y-66529000D01*
X153440000Y-66809000D02*
X155589000Y-66809000D01*
X149345000Y-66649000D02*
X151360000Y-66649000D01*
X149276000Y-66729000D02*
X151360000Y-66729000D01*
X148660000Y-67729000D02*
X151360000Y-67729000D01*
X153440000Y-68609000D02*
X156410000Y-68609000D01*
X148415000Y-68489000D02*
X151360000Y-68489000D01*
X150113000Y-65969000D02*
X154687000Y-65969000D01*
X156520000Y-69370000D02*
G75*
G03*
X156520000Y-69370000I-4120000J0D01*
G01*
X130500000Y-133550000D02*
X130500000Y-133565000D01*
X125960000Y-133550000D02*
X125960000Y-133565000D01*
X125960000Y-133550000D02*
X130500000Y-133550000D01*
X125960000Y-135690000D02*
X130500000Y-135690000D01*
X130500000Y-135675000D02*
X130500000Y-135690000D01*
X125960000Y-135675000D02*
X125960000Y-135690000D01*
X140870000Y-125790000D02*
X153790000Y-125790000D01*
X153790000Y-74870000D02*
X148330000Y-74870000D01*
X138380000Y-125850000D02*
X156280000Y-125850000D01*
X138380000Y-74810000D02*
X138380000Y-125850000D01*
X156280000Y-74810000D02*
X138380000Y-74810000D01*
X156280000Y-125850000D02*
X156280000Y-74810000D01*
X153790000Y-125790000D02*
X153790000Y-74870000D01*
X140870000Y-74870000D02*
X140870000Y-125790000D01*
X146330000Y-74870000D02*
X140870000Y-74870000D01*
X146330000Y-74870000D02*
G75*
G03*
X148330000Y-74870000I1000000J0D01*
G01*
X168680000Y-70925000D02*
X164140000Y-70925000D01*
X168680000Y-68800000D02*
X168680000Y-68785000D01*
X164140000Y-70925000D02*
X164140000Y-70910000D01*
X164140000Y-68800000D02*
X164140000Y-68785000D01*
X168680000Y-68785000D02*
X164140000Y-68785000D01*
X168680000Y-70925000D02*
X168680000Y-70910000D01*
X130535000Y-68795000D02*
X125995000Y-68795000D01*
X130535000Y-70935000D02*
X130535000Y-70920000D01*
X125995000Y-68810000D02*
X125995000Y-68795000D01*
X130535000Y-70935000D02*
X125995000Y-70935000D01*
X125995000Y-70935000D02*
X125995000Y-70920000D01*
X130535000Y-68810000D02*
X130535000Y-68795000D01*
X147340000Y-110420000D02*
X147340000Y-109400000D01*
X148810000Y-103960000D02*
X145870000Y-103960000D01*
X145870000Y-108500000D02*
X148810000Y-108500000D01*
X145870000Y-108380000D02*
X148810000Y-108380000D01*
X148810000Y-109400000D02*
X148810000Y-103960000D01*
X145870000Y-109400000D02*
X148810000Y-109400000D01*
X145870000Y-108620000D02*
X148810000Y-108620000D01*
X147340000Y-102940000D02*
X147340000Y-103960000D01*
X145870000Y-103960000D02*
X145870000Y-109400000D01*
X126015000Y-73605000D02*
X126015000Y-99125000D01*
X127265000Y-73605000D02*
X126015000Y-73605000D01*
X126015000Y-99125000D02*
X130515000Y-99125000D01*
X130515000Y-99125000D02*
X130515000Y-73605000D01*
X130515000Y-73605000D02*
X129265000Y-73605000D01*
X127265000Y-73605000D02*
G75*
G03*
X129265000Y-73605000I1000000J0D01*
G01*
X125000000Y-137390000D02*
X125000000Y-137060000D01*
X125000000Y-139470000D02*
X125000000Y-139800000D01*
X125000000Y-137060000D02*
X131540000Y-137060000D01*
X125000000Y-139800000D02*
X131540000Y-139800000D01*
X131540000Y-137060000D02*
X131540000Y-137390000D01*
X131540000Y-139800000D02*
X131540000Y-139470000D01*
%LPC*%
D14*
X162570000Y-74935000D03*
D15*
X162570000Y-77475000D03*
X162570000Y-80015000D03*
X162570000Y-82555000D03*
X162570000Y-85095000D03*
X162570000Y-87635000D03*
X162570000Y-90175000D03*
X162570000Y-92715000D03*
X162570000Y-95255000D03*
X162570000Y-97795000D03*
X170190000Y-97795000D03*
X170190000Y-95255000D03*
X170190000Y-92715000D03*
X170190000Y-90175000D03*
X170190000Y-87635000D03*
X170190000Y-85095000D03*
X170190000Y-82555000D03*
X170190000Y-80015000D03*
X170190000Y-77475000D03*
X170190000Y-74935000D03*
D14*
X137175000Y-80005000D03*
D15*
X137175000Y-82545000D03*
X137175000Y-85085000D03*
X137175000Y-87625000D03*
X137175000Y-90165000D03*
X137175000Y-92705000D03*
X137175000Y-95245000D03*
X137175000Y-97785000D03*
X137175000Y-100325000D03*
X137175000Y-102865000D03*
X137175000Y-105405000D03*
X137175000Y-107945000D03*
X137175000Y-110485000D03*
X137175000Y-113025000D03*
X137175000Y-115565000D03*
X137175000Y-118105000D03*
X137175000Y-120645000D03*
X137175000Y-123185000D03*
X137175000Y-125725000D03*
X137175000Y-128265000D03*
X157495000Y-128265000D03*
X157495000Y-125725000D03*
X157495000Y-123185000D03*
X157495000Y-120645000D03*
X157495000Y-118105000D03*
X157495000Y-115565000D03*
X157495000Y-113025000D03*
X157495000Y-110485000D03*
X157495000Y-107945000D03*
X157495000Y-105405000D03*
X157495000Y-102865000D03*
X157495000Y-100325000D03*
X157495000Y-97785000D03*
X157495000Y-95245000D03*
X157495000Y-92705000D03*
X157495000Y-90165000D03*
X157495000Y-87625000D03*
X157495000Y-85085000D03*
X157495000Y-82545000D03*
X157495000Y-80005000D03*
D16*
X160020000Y-135890000D03*
D17*
X157480000Y-135890000D03*
X154940000Y-135890000D03*
X152400000Y-135890000D03*
X149860000Y-135890000D03*
X147320000Y-135890000D03*
X144780000Y-135890000D03*
X142240000Y-135890000D03*
X139700000Y-135890000D03*
X137160000Y-135890000D03*
X137160000Y-143510000D03*
X139700000Y-143510000D03*
X142240000Y-143510000D03*
X144780000Y-143510000D03*
X147320000Y-143510000D03*
X149860000Y-143510000D03*
X152400000Y-143510000D03*
X154940000Y-143510000D03*
X157480000Y-143510000D03*
X160020000Y-143510000D03*
D14*
X132095000Y-129515000D03*
D15*
X132095000Y-126975000D03*
X132095000Y-124435000D03*
X132095000Y-121895000D03*
X132095000Y-119355000D03*
X132095000Y-116815000D03*
X132095000Y-114275000D03*
X132095000Y-111735000D03*
X132095000Y-109195000D03*
X132095000Y-106655000D03*
X124475000Y-106655000D03*
X124475000Y-109195000D03*
X124475000Y-111735000D03*
X124475000Y-114275000D03*
X124475000Y-116815000D03*
X124475000Y-119355000D03*
X124475000Y-121895000D03*
X124475000Y-124435000D03*
X124475000Y-126975000D03*
X124475000Y-129515000D03*
D18*
X163830000Y-133350000D03*
X168830000Y-133350000D03*
D14*
X170115000Y-129535000D03*
D15*
X170115000Y-126995000D03*
X170115000Y-124455000D03*
X170115000Y-121915000D03*
X170115000Y-119375000D03*
X170115000Y-116835000D03*
X170115000Y-114295000D03*
X170115000Y-111755000D03*
X170115000Y-109215000D03*
X170115000Y-106675000D03*
X162495000Y-106675000D03*
X162495000Y-109215000D03*
X162495000Y-111755000D03*
X162495000Y-114295000D03*
X162495000Y-116835000D03*
X162495000Y-119375000D03*
X162495000Y-121915000D03*
X162495000Y-124455000D03*
X162495000Y-126995000D03*
X162495000Y-129535000D03*
D18*
X158750000Y-71120000D03*
X158750000Y-76120000D03*
X165100000Y-142200000D03*
X165100000Y-137200000D03*
D19*
X152400000Y-71120000D03*
D18*
X152400000Y-67620000D03*
X125730000Y-134620000D03*
X130730000Y-134620000D03*
D19*
X139710000Y-76200000D03*
D20*
X139710000Y-78740000D03*
X139710000Y-81280000D03*
X139710000Y-83820000D03*
X139710000Y-86360000D03*
X139710000Y-88900000D03*
X139710000Y-91440000D03*
X139710000Y-93980000D03*
X139710000Y-96520000D03*
X139710000Y-99060000D03*
X139710000Y-101600000D03*
X139710000Y-104140000D03*
X139710000Y-106680000D03*
X139710000Y-109220000D03*
X139710000Y-111760000D03*
X139710000Y-114300000D03*
X139710000Y-116840000D03*
X139710000Y-119380000D03*
X139710000Y-121920000D03*
X139710000Y-124460000D03*
X154950000Y-124460000D03*
X154950000Y-121920000D03*
X154950000Y-119380000D03*
X154950000Y-116840000D03*
X154950000Y-114300000D03*
X154950000Y-111760000D03*
X154950000Y-109220000D03*
X154950000Y-106680000D03*
X154950000Y-104140000D03*
X154950000Y-101600000D03*
X154950000Y-99060000D03*
X154950000Y-96520000D03*
X154950000Y-93980000D03*
X154950000Y-91440000D03*
X154950000Y-88900000D03*
X154950000Y-86360000D03*
X154950000Y-83820000D03*
X154950000Y-81280000D03*
X154950000Y-78740000D03*
X154950000Y-76200000D03*
D18*
X168910000Y-69855000D03*
X163910000Y-69855000D03*
X130765000Y-69865000D03*
X125765000Y-69865000D03*
D21*
X147340000Y-111760000D03*
D22*
X147340000Y-101600000D03*
D14*
X124455000Y-74935000D03*
D15*
X124455000Y-77475000D03*
X124455000Y-80015000D03*
X124455000Y-82555000D03*
X124455000Y-85095000D03*
X124455000Y-87635000D03*
X124455000Y-90175000D03*
X124455000Y-92715000D03*
X124455000Y-95255000D03*
X124455000Y-97795000D03*
X132075000Y-97795000D03*
X132075000Y-95255000D03*
X132075000Y-92715000D03*
X132075000Y-90175000D03*
X132075000Y-87635000D03*
X132075000Y-85095000D03*
X132075000Y-82555000D03*
X132075000Y-80015000D03*
X132075000Y-77475000D03*
X132075000Y-74935000D03*
D18*
X124460000Y-138430000D03*
D20*
X132080000Y-138430000D03*
M02*
