G04 #@! TF.GenerationSoftware,KiCad,Pcbnew,(6.0.9)*
G04 #@! TF.CreationDate,2023-08-18T17:20:18+02:00*
G04 #@! TF.ProjectId,Sombrero_MSX_Goa'uld,536f6d62-7265-4726-9f5f-4d53585f476f,rev?*
G04 #@! TF.SameCoordinates,Original*
G04 #@! TF.FileFunction,Copper,L2,Bot*
G04 #@! TF.FilePolarity,Positive*
%FSLAX46Y46*%
G04 Gerber Fmt 4.6, Leading zero omitted, Abs format (unit mm)*
G04 Created by KiCad (PCBNEW (6.0.9)) date 2023-08-18 17:20:18*
%MOMM*%
%LPD*%
G01*
G04 APERTURE LIST*
G04 #@! TA.AperFunction,ComponentPad*
%ADD10R,2.400000X1.600000*%
G04 #@! TD*
G04 #@! TA.AperFunction,ComponentPad*
%ADD11O,2.400000X1.600000*%
G04 #@! TD*
G04 #@! TA.AperFunction,ComponentPad*
%ADD12R,1.600000X2.400000*%
G04 #@! TD*
G04 #@! TA.AperFunction,ComponentPad*
%ADD13O,1.600000X2.400000*%
G04 #@! TD*
G04 #@! TA.AperFunction,ComponentPad*
%ADD14C,1.600000*%
G04 #@! TD*
G04 #@! TA.AperFunction,ComponentPad*
%ADD15R,1.600000X1.600000*%
G04 #@! TD*
G04 #@! TA.AperFunction,ComponentPad*
%ADD16O,1.600000X1.600000*%
G04 #@! TD*
G04 #@! TA.AperFunction,ComponentPad*
%ADD17R,2.200000X2.200000*%
G04 #@! TD*
G04 #@! TA.AperFunction,ComponentPad*
%ADD18O,2.200000X2.200000*%
G04 #@! TD*
G04 #@! TA.AperFunction,ViaPad*
%ADD19C,0.800000*%
G04 #@! TD*
G04 #@! TA.AperFunction,Conductor*
%ADD20C,0.450000*%
G04 #@! TD*
G04 #@! TA.AperFunction,Conductor*
%ADD21C,0.300000*%
G04 #@! TD*
G04 APERTURE END LIST*
D10*
X162570000Y-74935000D03*
D11*
X162570000Y-77475000D03*
X162570000Y-80015000D03*
X162570000Y-82555000D03*
X162570000Y-85095000D03*
X162570000Y-87635000D03*
X162570000Y-90175000D03*
X162570000Y-92715000D03*
X162570000Y-95255000D03*
X162570000Y-97795000D03*
X170190000Y-97795000D03*
X170190000Y-95255000D03*
X170190000Y-92715000D03*
X170190000Y-90175000D03*
X170190000Y-87635000D03*
X170190000Y-85095000D03*
X170190000Y-82555000D03*
X170190000Y-80015000D03*
X170190000Y-77475000D03*
X170190000Y-74935000D03*
D10*
X137175000Y-80005000D03*
D11*
X137175000Y-82545000D03*
X137175000Y-85085000D03*
X137175000Y-87625000D03*
X137175000Y-90165000D03*
X137175000Y-92705000D03*
X137175000Y-95245000D03*
X137175000Y-97785000D03*
X137175000Y-100325000D03*
X137175000Y-102865000D03*
X137175000Y-105405000D03*
X137175000Y-107945000D03*
X137175000Y-110485000D03*
X137175000Y-113025000D03*
X137175000Y-115565000D03*
X137175000Y-118105000D03*
X137175000Y-120645000D03*
X137175000Y-123185000D03*
X137175000Y-125725000D03*
X137175000Y-128265000D03*
X157495000Y-128265000D03*
X157495000Y-125725000D03*
X157495000Y-123185000D03*
X157495000Y-120645000D03*
X157495000Y-118105000D03*
X157495000Y-115565000D03*
X157495000Y-113025000D03*
X157495000Y-110485000D03*
X157495000Y-107945000D03*
X157495000Y-105405000D03*
X157495000Y-102865000D03*
X157495000Y-100325000D03*
X157495000Y-97785000D03*
X157495000Y-95245000D03*
X157495000Y-92705000D03*
X157495000Y-90165000D03*
X157495000Y-87625000D03*
X157495000Y-85085000D03*
X157495000Y-82545000D03*
X157495000Y-80005000D03*
D12*
X160020000Y-135890000D03*
D13*
X157480000Y-135890000D03*
X154940000Y-135890000D03*
X152400000Y-135890000D03*
X149860000Y-135890000D03*
X147320000Y-135890000D03*
X144780000Y-135890000D03*
X142240000Y-135890000D03*
X139700000Y-135890000D03*
X137160000Y-135890000D03*
X137160000Y-143510000D03*
X139700000Y-143510000D03*
X142240000Y-143510000D03*
X144780000Y-143510000D03*
X147320000Y-143510000D03*
X149860000Y-143510000D03*
X152400000Y-143510000D03*
X154940000Y-143510000D03*
X157480000Y-143510000D03*
X160020000Y-143510000D03*
D10*
X132095000Y-129515000D03*
D11*
X132095000Y-126975000D03*
X132095000Y-124435000D03*
X132095000Y-121895000D03*
X132095000Y-119355000D03*
X132095000Y-116815000D03*
X132095000Y-114275000D03*
X132095000Y-111735000D03*
X132095000Y-109195000D03*
X132095000Y-106655000D03*
X124475000Y-106655000D03*
X124475000Y-109195000D03*
X124475000Y-111735000D03*
X124475000Y-114275000D03*
X124475000Y-116815000D03*
X124475000Y-119355000D03*
X124475000Y-121895000D03*
X124475000Y-124435000D03*
X124475000Y-126975000D03*
X124475000Y-129515000D03*
D14*
X163830000Y-133350000D03*
X168830000Y-133350000D03*
D10*
X170115000Y-129535000D03*
D11*
X170115000Y-126995000D03*
X170115000Y-124455000D03*
X170115000Y-121915000D03*
X170115000Y-119375000D03*
X170115000Y-116835000D03*
X170115000Y-114295000D03*
X170115000Y-111755000D03*
X170115000Y-109215000D03*
X170115000Y-106675000D03*
X162495000Y-106675000D03*
X162495000Y-109215000D03*
X162495000Y-111755000D03*
X162495000Y-114295000D03*
X162495000Y-116835000D03*
X162495000Y-119375000D03*
X162495000Y-121915000D03*
X162495000Y-124455000D03*
X162495000Y-126995000D03*
X162495000Y-129535000D03*
D14*
X158750000Y-71120000D03*
X158750000Y-76120000D03*
X165100000Y-142200000D03*
X165100000Y-137200000D03*
D15*
X152400000Y-71120000D03*
D14*
X152400000Y-67620000D03*
X125730000Y-134620000D03*
X130730000Y-134620000D03*
D15*
X139710000Y-76200000D03*
D16*
X139710000Y-78740000D03*
X139710000Y-81280000D03*
X139710000Y-83820000D03*
X139710000Y-86360000D03*
X139710000Y-88900000D03*
X139710000Y-91440000D03*
X139710000Y-93980000D03*
X139710000Y-96520000D03*
X139710000Y-99060000D03*
X139710000Y-101600000D03*
X139710000Y-104140000D03*
X139710000Y-106680000D03*
X139710000Y-109220000D03*
X139710000Y-111760000D03*
X139710000Y-114300000D03*
X139710000Y-116840000D03*
X139710000Y-119380000D03*
X139710000Y-121920000D03*
X139710000Y-124460000D03*
X154950000Y-124460000D03*
X154950000Y-121920000D03*
X154950000Y-119380000D03*
X154950000Y-116840000D03*
X154950000Y-114300000D03*
X154950000Y-111760000D03*
X154950000Y-109220000D03*
X154950000Y-106680000D03*
X154950000Y-104140000D03*
X154950000Y-101600000D03*
X154950000Y-99060000D03*
X154950000Y-96520000D03*
X154950000Y-93980000D03*
X154950000Y-91440000D03*
X154950000Y-88900000D03*
X154950000Y-86360000D03*
X154950000Y-83820000D03*
X154950000Y-81280000D03*
X154950000Y-78740000D03*
X154950000Y-76200000D03*
D14*
X168910000Y-69855000D03*
X163910000Y-69855000D03*
X130765000Y-69865000D03*
X125765000Y-69865000D03*
D17*
X147340000Y-111760000D03*
D18*
X147340000Y-101600000D03*
D10*
X124455000Y-74935000D03*
D11*
X124455000Y-77475000D03*
X124455000Y-80015000D03*
X124455000Y-82555000D03*
X124455000Y-85095000D03*
X124455000Y-87635000D03*
X124455000Y-90175000D03*
X124455000Y-92715000D03*
X124455000Y-95255000D03*
X124455000Y-97795000D03*
X132075000Y-97795000D03*
X132075000Y-95255000D03*
X132075000Y-92715000D03*
X132075000Y-90175000D03*
X132075000Y-87635000D03*
X132075000Y-85095000D03*
X132075000Y-82555000D03*
X132075000Y-80015000D03*
X132075000Y-77475000D03*
X132075000Y-74935000D03*
D14*
X124460000Y-138430000D03*
D16*
X132080000Y-138430000D03*
D19*
X149395500Y-117771100D03*
X149516800Y-132076300D03*
X150120400Y-101530000D03*
X159669700Y-81306600D03*
X133336700Y-78625200D03*
X168353800Y-91710000D03*
X149118300Y-112127700D03*
D20*
X138800100Y-125725000D02*
X146049900Y-132974800D01*
X124475000Y-129515000D02*
X125730000Y-129515000D01*
X158794800Y-139650600D02*
X158794800Y-134500400D01*
X146049900Y-137204700D02*
X148590000Y-139744800D01*
X159945100Y-133350100D02*
X163830000Y-133350100D01*
X125730000Y-134620000D02*
X125730000Y-129515000D01*
X163830000Y-133350100D02*
X163830000Y-133350000D01*
X158794800Y-134500400D02*
X159945100Y-133350100D01*
X149413600Y-145200800D02*
X155419600Y-145200800D01*
X156165200Y-144455200D02*
X156165200Y-142280200D01*
X126100100Y-129515000D02*
X129890100Y-125725000D01*
X146049900Y-132974800D02*
X146049900Y-137204700D01*
X129890100Y-125725000D02*
X137175000Y-125725000D01*
X125730000Y-129515000D02*
X126100100Y-129515000D01*
X137175000Y-125725000D02*
X138800100Y-125725000D01*
X148590000Y-144377200D02*
X149413600Y-145200800D01*
X155419600Y-145200800D02*
X156165200Y-144455200D01*
X156165200Y-142280200D02*
X158794800Y-139650600D01*
X148590000Y-139744800D02*
X148590000Y-144377200D01*
X157480000Y-143510000D02*
X157480000Y-141884900D01*
X160020000Y-135890000D02*
X160020000Y-137515100D01*
X164287900Y-102779800D02*
X162927700Y-104140000D01*
X162927700Y-104140000D02*
X154950000Y-104140000D01*
X130730000Y-134620000D02*
X130922600Y-134427400D01*
X162570000Y-74935000D02*
X160944900Y-74935000D01*
X160020000Y-137515100D02*
X164784900Y-137515100D01*
X137160000Y-135890000D02*
X137160000Y-134427400D01*
X168830000Y-133470000D02*
X168830000Y-133350000D01*
X159759900Y-76120000D02*
X160944900Y-74935000D01*
X163910000Y-69855000D02*
X154635000Y-69855000D01*
X130922600Y-134427400D02*
X137160000Y-134427400D01*
X164784900Y-137515100D02*
X165100000Y-137200000D01*
X154635000Y-69855000D02*
X152400000Y-67620000D01*
X162495000Y-126995000D02*
X164120100Y-126995000D01*
X168830000Y-133350000D02*
X164120100Y-128640100D01*
X169302500Y-106675000D02*
X168489900Y-106675000D01*
X135549900Y-132817300D02*
X135549900Y-128265000D01*
X158750000Y-76120000D02*
X159759900Y-76120000D01*
X164120100Y-128640100D02*
X164120100Y-126995000D01*
X137160000Y-134427400D02*
X135549900Y-132817300D01*
X170115000Y-109215000D02*
X169302500Y-109215000D01*
X170115000Y-106675000D02*
X169302500Y-106675000D01*
X162570000Y-97795000D02*
X164195100Y-97795000D01*
X164287900Y-102779800D02*
X164594700Y-102779800D01*
X164594700Y-102779800D02*
X168489900Y-106675000D01*
X164195100Y-97795000D02*
X164287900Y-97887800D01*
X160020000Y-139344900D02*
X160020000Y-137515100D01*
X164287900Y-97887800D02*
X164287900Y-102779800D01*
X169302500Y-106675000D02*
X169302500Y-109215000D01*
X157480000Y-141884900D02*
X160020000Y-139344900D01*
X137175000Y-128265000D02*
X135549900Y-128265000D01*
X165100000Y-137200000D02*
X168830000Y-133470000D01*
X147340000Y-101600000D02*
X139710000Y-101600000D01*
D21*
X139231700Y-120532500D02*
X138541300Y-119842100D01*
X138541300Y-119842100D02*
X138541300Y-118843700D01*
X139710000Y-116840000D02*
X139710000Y-117990100D01*
X138541300Y-118843700D02*
X139394900Y-117990100D01*
X139394900Y-117990100D02*
X139710000Y-117990100D01*
X140432600Y-120532500D02*
X139231700Y-120532500D01*
X141009900Y-119955200D02*
X140432600Y-120532500D01*
X149395500Y-117771100D02*
X147211400Y-119955200D01*
X147211400Y-119955200D02*
X141009900Y-119955200D01*
X130748500Y-72783900D02*
X126005100Y-77527300D01*
X162570000Y-80015000D02*
X161018700Y-80015000D01*
X126005100Y-77527300D02*
X126005100Y-80015000D01*
X153787600Y-72783900D02*
X130748500Y-72783900D01*
X161018700Y-80015000D02*
X153787600Y-72783900D01*
X124455000Y-80015000D02*
X126005100Y-80015000D01*
X149979400Y-73784200D02*
X153665200Y-77470000D01*
X126005100Y-82555000D02*
X128259800Y-80300300D01*
X157010700Y-77470000D02*
X161019900Y-81479200D01*
X161019900Y-81479200D02*
X161019900Y-82555000D01*
X131162800Y-73784200D02*
X149979400Y-73784200D01*
X153665200Y-77470000D02*
X157010700Y-77470000D01*
X124455000Y-82555000D02*
X126005100Y-82555000D01*
X128259800Y-76687200D02*
X131162800Y-73784200D01*
X128259800Y-80300300D02*
X128259800Y-76687200D01*
X162570000Y-82555000D02*
X161019900Y-82555000D01*
X122404800Y-77492900D02*
X122404800Y-89674900D01*
X126033100Y-72970400D02*
X126033100Y-75896900D01*
X125605200Y-76324800D02*
X123572900Y-76324800D01*
X167162000Y-66451900D02*
X132551600Y-66451900D01*
X171769600Y-88101300D02*
X171769600Y-71059500D01*
X171769600Y-71059500D02*
X167162000Y-66451900D01*
X171085700Y-88785200D02*
X171769600Y-88101300D01*
X132551600Y-66451900D02*
X126033100Y-72970400D01*
X167932500Y-90175000D02*
X169322300Y-88785200D01*
X126033100Y-75896900D02*
X125605200Y-76324800D01*
X162570000Y-90175000D02*
X167932500Y-90175000D01*
X122404800Y-89674900D02*
X122904900Y-90175000D01*
X169322300Y-88785200D02*
X171085700Y-88785200D01*
X124455000Y-90175000D02*
X122904900Y-90175000D01*
X123572900Y-76324800D02*
X122404800Y-77492900D01*
X129805100Y-96515000D02*
X138001100Y-96515000D01*
X138001100Y-96515000D02*
X139271100Y-97785000D01*
X126005100Y-92715000D02*
X129805100Y-96515000D01*
X139271100Y-97785000D02*
X157495000Y-97785000D01*
X124455000Y-92715000D02*
X126005100Y-92715000D01*
X159083400Y-122680800D02*
X158437400Y-122034800D01*
X155469500Y-120729400D02*
X142050700Y-120729400D01*
X142050700Y-120729400D02*
X140860100Y-121920000D01*
X158437400Y-122034800D02*
X156774900Y-122034800D01*
X157480000Y-134339900D02*
X159083400Y-132736500D01*
X156774900Y-122034800D02*
X155469500Y-120729400D01*
X159083400Y-132736500D02*
X159083400Y-122680800D01*
X139710000Y-121920000D02*
X140860100Y-121920000D01*
X157480000Y-135890000D02*
X157480000Y-134339900D01*
X139710000Y-124460000D02*
X140860100Y-124460000D01*
X148476400Y-132076300D02*
X140860100Y-124460000D01*
X149516800Y-132076300D02*
X148476400Y-132076300D01*
X152400000Y-134339900D02*
X152400000Y-128160100D01*
X152400000Y-135890000D02*
X152400000Y-134339900D01*
X152400000Y-128160100D02*
X154950000Y-125610100D01*
X154950000Y-124460000D02*
X154950000Y-125610100D01*
X150527200Y-133672700D02*
X150527200Y-126342800D01*
X149860000Y-134339900D02*
X150527200Y-133672700D01*
X150527200Y-126342800D02*
X154950000Y-121920000D01*
X149860000Y-135890000D02*
X149860000Y-134339900D01*
X170976100Y-123246400D02*
X169393600Y-123246400D01*
X165134600Y-118987400D02*
X165134600Y-109827800D01*
X154000400Y-105410000D02*
X150120400Y-101530000D01*
X165134600Y-109827800D02*
X163371600Y-108064800D01*
X170115000Y-126995000D02*
X171665100Y-126995000D01*
X169393600Y-123246400D02*
X165134600Y-118987400D01*
X163371600Y-108064800D02*
X161001400Y-108064800D01*
X156774900Y-106794800D02*
X155390100Y-105410000D01*
X171665100Y-123935400D02*
X170976100Y-123246400D01*
X161001400Y-108064800D02*
X159731400Y-106794800D01*
X155390100Y-105410000D02*
X154000400Y-105410000D01*
X171665100Y-126995000D02*
X171665100Y-123935400D01*
X159731400Y-106794800D02*
X156774900Y-106794800D01*
X132095000Y-109195000D02*
X133645100Y-109195000D01*
X133645100Y-109195000D02*
X136160100Y-106680000D01*
X136160100Y-106680000D02*
X139710000Y-106680000D01*
X161019900Y-95255000D02*
X159744900Y-93980000D01*
X159744900Y-93980000D02*
X154950000Y-93980000D01*
X162570000Y-95255000D02*
X161019900Y-95255000D01*
X168034400Y-90959900D02*
X167554300Y-91440000D01*
X170997000Y-91440000D02*
X169144600Y-91440000D01*
X168664500Y-90959900D02*
X168034400Y-90959900D01*
X171740100Y-92183100D02*
X170997000Y-91440000D01*
X169144600Y-91440000D02*
X168664500Y-90959900D01*
X167554300Y-91440000D02*
X154950000Y-91440000D01*
X170190000Y-95255000D02*
X171740100Y-95255000D01*
X171740100Y-95255000D02*
X171740100Y-92183100D01*
X167865000Y-87635000D02*
X166600000Y-88900000D01*
X170190000Y-87635000D02*
X167865000Y-87635000D01*
X166600000Y-88900000D02*
X154950000Y-88900000D01*
X170190000Y-85095000D02*
X168639900Y-85095000D01*
X168639900Y-85095000D02*
X167374900Y-86360000D01*
X167374900Y-86360000D02*
X154950000Y-86360000D01*
X159669700Y-82442100D02*
X159669700Y-81306600D01*
X158291800Y-83820000D02*
X159669700Y-82442100D01*
X154950000Y-83820000D02*
X158291800Y-83820000D01*
X131201000Y-76293400D02*
X135671300Y-76293400D01*
X126005100Y-85095000D02*
X129367400Y-81732700D01*
X129367400Y-81732700D02*
X129367400Y-78127000D01*
X129367400Y-78127000D02*
X131201000Y-76293400D01*
X136914900Y-75049800D02*
X150109700Y-75049800D01*
X154950000Y-78740000D02*
X153799900Y-78740000D01*
X135671300Y-76293400D02*
X136914900Y-75049800D01*
X150109700Y-75049800D02*
X153799900Y-78740000D01*
X124455000Y-85095000D02*
X126005100Y-85095000D01*
X132971700Y-81165200D02*
X135621500Y-83815000D01*
X132075000Y-77475000D02*
X130524900Y-79025100D01*
X139710000Y-86360000D02*
X139710000Y-85209900D01*
X135621500Y-83815000D02*
X137964200Y-83815000D01*
X131191700Y-81165200D02*
X132971700Y-81165200D01*
X130524900Y-80498400D02*
X131191700Y-81165200D01*
X139359100Y-85209900D02*
X139710000Y-85209900D01*
X130524900Y-79025100D02*
X130524900Y-80498400D01*
X137964200Y-83815000D02*
X139359100Y-85209900D01*
X127506100Y-76733500D02*
X127506100Y-79280900D01*
X153799900Y-76200000D02*
X150883900Y-73284000D01*
X122904900Y-82071600D02*
X122904900Y-87635000D01*
X127506100Y-79280900D02*
X125382200Y-81404800D01*
X154950000Y-76200000D02*
X153799900Y-76200000D01*
X123571700Y-81404800D02*
X122904900Y-82071600D01*
X124455000Y-87635000D02*
X122904900Y-87635000D01*
X130955600Y-73284000D02*
X127506100Y-76733500D01*
X125382200Y-81404800D02*
X123571700Y-81404800D01*
X150883900Y-73284000D02*
X130955600Y-73284000D01*
X150089000Y-77569100D02*
X134392800Y-77569100D01*
X154950000Y-81280000D02*
X153799900Y-81280000D01*
X153799900Y-81280000D02*
X150089000Y-77569100D01*
X134392800Y-77569100D02*
X133336700Y-78625200D01*
X138078400Y-93975000D02*
X139348400Y-95245000D01*
X159045100Y-95245000D02*
X160245100Y-96445000D01*
X133625100Y-92715000D02*
X134885100Y-93975000D01*
X139348400Y-95245000D02*
X157495000Y-95245000D01*
X160245100Y-96445000D02*
X164909900Y-96445000D01*
X132075000Y-92715000D02*
X133625100Y-92715000D01*
X164909900Y-96445000D02*
X168639900Y-92715000D01*
X157495000Y-95245000D02*
X159045100Y-95245000D01*
X170190000Y-92715000D02*
X168639900Y-92715000D01*
X134885100Y-93975000D02*
X138078400Y-93975000D01*
X166198600Y-93865200D02*
X168353800Y-91710000D01*
X157495000Y-92705000D02*
X159341600Y-92705000D01*
X160501800Y-93865200D02*
X166198600Y-93865200D01*
X159341600Y-92705000D02*
X160501800Y-93865200D01*
X133625100Y-90175000D02*
X134885100Y-91435000D01*
X132075000Y-90175000D02*
X133625100Y-90175000D01*
X139348400Y-92705000D02*
X157495000Y-92705000D01*
X134885100Y-91435000D02*
X138078400Y-91435000D01*
X138078400Y-91435000D02*
X139348400Y-92705000D01*
X139231600Y-87585500D02*
X150356100Y-87585500D01*
X152935600Y-90165000D02*
X157495000Y-90165000D01*
X136479200Y-86474800D02*
X138120900Y-86474800D01*
X150356100Y-87585500D02*
X152935600Y-90165000D01*
X133625100Y-82555000D02*
X133625100Y-83620700D01*
X132075000Y-82555000D02*
X133625100Y-82555000D01*
X133625100Y-83620700D02*
X136479200Y-86474800D01*
X138120900Y-86474800D02*
X139231600Y-87585500D01*
X154950000Y-116840000D02*
X153799900Y-116840000D01*
X149118300Y-112127700D02*
X153799900Y-116809300D01*
X153799900Y-116809300D02*
X153799900Y-116840000D01*
X167412100Y-125607800D02*
X161612100Y-125607800D01*
X170115000Y-124455000D02*
X168564900Y-124455000D01*
X159733200Y-123728900D02*
X159733200Y-118252700D01*
X158435300Y-116954800D02*
X156774900Y-116954800D01*
X155390100Y-115570000D02*
X154253600Y-115570000D01*
X154253600Y-115570000D02*
X148992600Y-110309000D01*
X159733200Y-118252700D02*
X158435300Y-116954800D01*
X161612100Y-125607800D02*
X159733200Y-123728900D01*
X156774900Y-116954800D02*
X155390100Y-115570000D01*
X139710000Y-114300000D02*
X140860100Y-114300000D01*
X148992600Y-110309000D02*
X144851100Y-110309000D01*
X168564900Y-124455000D02*
X167412100Y-125607800D01*
X144851100Y-110309000D02*
X140860100Y-114300000D01*
X132075000Y-80015000D02*
X133625100Y-80015000D01*
X170190000Y-80015000D02*
X168639900Y-80015000D01*
X149574500Y-82550000D02*
X152109500Y-85085000D01*
X152109500Y-85085000D02*
X157495000Y-85085000D01*
X139353400Y-82550000D02*
X149574500Y-82550000D01*
X160185300Y-83944800D02*
X164710100Y-83944800D01*
X159045100Y-85085000D02*
X160185300Y-83944800D01*
X157495000Y-85085000D02*
X159045100Y-85085000D01*
X134765300Y-81155200D02*
X137958600Y-81155200D01*
X164710100Y-83944800D02*
X168639900Y-80015000D01*
X137958600Y-81155200D02*
X139353400Y-82550000D01*
X133625100Y-80015000D02*
X134765300Y-81155200D01*
D20*
X152400000Y-71120000D02*
X151174900Y-71120000D01*
X140935100Y-119308700D02*
X140935100Y-119380000D01*
X167645000Y-71120000D02*
X167645000Y-72390000D01*
X147340000Y-112903800D02*
X147340000Y-113285100D01*
X167645000Y-72390000D02*
X170190000Y-74935000D01*
X158750000Y-71120000D02*
X167645000Y-71120000D01*
X139710000Y-119380000D02*
X140935100Y-119380000D01*
X167645000Y-71120000D02*
X168910000Y-69855000D01*
X149919900Y-69865000D02*
X151174900Y-71120000D01*
X147340000Y-111760000D02*
X147340000Y-112903800D01*
X154950000Y-119380000D02*
X153724900Y-119380000D01*
X147630000Y-113285100D02*
X153724900Y-119380000D01*
X147340000Y-113285100D02*
X147630000Y-113285100D01*
X147340000Y-112903800D02*
X140935100Y-119308700D01*
X130765000Y-69865000D02*
X149919900Y-69865000D01*
X152400000Y-71120000D02*
X158750000Y-71120000D01*
D21*
X137175000Y-97785000D02*
X135624900Y-97785000D01*
X158524700Y-114414800D02*
X156774900Y-114414800D01*
X136398400Y-101595000D02*
X135624900Y-100821500D01*
X160944900Y-116835000D02*
X158524700Y-114414800D01*
X162495000Y-116835000D02*
X160944900Y-116835000D01*
X135624900Y-100821500D02*
X135624900Y-97785000D01*
X137931600Y-101595000D02*
X136398400Y-101595000D01*
X156774900Y-114414800D02*
X155390100Y-113030000D01*
X155390100Y-113030000D02*
X154585000Y-113030000D01*
X139206600Y-102870000D02*
X137931600Y-101595000D01*
X154585000Y-113030000D02*
X144425000Y-102870000D01*
X144425000Y-102870000D02*
X139206600Y-102870000D01*
X155390100Y-110490000D02*
X154572500Y-110490000D01*
X163324400Y-115565000D02*
X161642800Y-115565000D01*
X154572500Y-110490000D02*
X148946300Y-104863800D01*
X158256700Y-111760000D02*
X156660100Y-111760000D01*
X147979000Y-100140000D02*
X143753100Y-100140000D01*
X148946300Y-101107300D02*
X147979000Y-100140000D01*
X160944900Y-114867100D02*
X160944900Y-114448200D01*
X164045100Y-121915000D02*
X164045100Y-116285700D01*
X156660100Y-111760000D02*
X155390100Y-110490000D01*
X148946300Y-104863800D02*
X148946300Y-101107300D01*
X143568100Y-100325000D02*
X137175000Y-100325000D01*
X143753100Y-100140000D02*
X143568100Y-100325000D01*
X164045100Y-116285700D02*
X163324400Y-115565000D01*
X160944900Y-114448200D02*
X158256700Y-111760000D01*
X162495000Y-121915000D02*
X164045100Y-121915000D01*
X161642800Y-115565000D02*
X160944900Y-114867100D01*
X122400000Y-132932100D02*
X122400000Y-92674400D01*
X134395000Y-95245000D02*
X137175000Y-95245000D01*
X122400000Y-92674400D02*
X123509600Y-91564800D01*
X142240000Y-141959900D02*
X131427800Y-141959900D01*
X129109700Y-93865200D02*
X133015200Y-93865200D01*
X131427800Y-141959900D02*
X122400000Y-132932100D01*
X123509600Y-91564800D02*
X126809300Y-91564800D01*
X142240000Y-143510000D02*
X142240000Y-141959900D01*
X133015200Y-93865200D02*
X134395000Y-95245000D01*
X126809300Y-91564800D02*
X129109700Y-93865200D01*
X159105000Y-107945000D02*
X157495000Y-107945000D01*
X164545900Y-111771800D02*
X163378900Y-110604800D01*
X163378900Y-110604800D02*
X161764800Y-110604800D01*
X164545900Y-123954200D02*
X164545900Y-111771800D01*
X164045100Y-124455000D02*
X164545900Y-123954200D01*
X161764800Y-110604800D02*
X159105000Y-107945000D01*
X162495000Y-124455000D02*
X164045100Y-124455000D01*
X159674900Y-110485000D02*
X157495000Y-110485000D01*
X160944900Y-111755000D02*
X159674900Y-110485000D01*
X162495000Y-111755000D02*
X160944900Y-111755000D01*
X151130000Y-140689900D02*
X151130000Y-126645000D01*
X149860000Y-143510000D02*
X149860000Y-141959900D01*
X151130000Y-126645000D02*
X154590000Y-123185000D01*
X149860000Y-141959900D02*
X151130000Y-140689900D01*
X154590000Y-123185000D02*
X157495000Y-123185000D01*
X157495000Y-125725000D02*
X155944900Y-125725000D01*
X152400000Y-143510000D02*
X152400000Y-141959900D01*
X153669600Y-128000300D02*
X155944900Y-125725000D01*
X153669600Y-140690300D02*
X153669600Y-128000300D01*
X152400000Y-141959900D02*
X153669600Y-140690300D01*
X154940000Y-143510000D02*
X154940000Y-141959900D01*
X154940000Y-141959900D02*
X156091300Y-140808600D01*
X156091300Y-140808600D02*
X156091300Y-128887800D01*
X155944900Y-128741400D02*
X155944900Y-128265000D01*
X157495000Y-128265000D02*
X155944900Y-128265000D01*
X156091300Y-128887800D02*
X155944900Y-128741400D01*
X126025100Y-106655000D02*
X129815100Y-102865000D01*
X124475000Y-106655000D02*
X126025100Y-106655000D01*
X137175000Y-102865000D02*
X135624900Y-102865000D01*
X129815100Y-102865000D02*
X135624900Y-102865000D01*
X126025100Y-109195000D02*
X129815100Y-105405000D01*
X129815100Y-105405000D02*
X135624900Y-105405000D01*
X124475000Y-109195000D02*
X126025100Y-109195000D01*
X137175000Y-105405000D02*
X135624900Y-105405000D01*
X139353400Y-105410000D02*
X140130600Y-105410000D01*
X124475000Y-111735000D02*
X122924900Y-111735000D01*
X123596900Y-108044800D02*
X125342700Y-108044800D01*
X129135000Y-104252500D02*
X138195900Y-104252500D01*
X140887000Y-107197000D02*
X140139000Y-107945000D01*
X140139000Y-107945000D02*
X137175000Y-107945000D01*
X138195900Y-104252500D02*
X139353400Y-105410000D01*
X122924900Y-108716800D02*
X123596900Y-108044800D01*
X140130600Y-105410000D02*
X140887000Y-106166400D01*
X122924900Y-111735000D02*
X122924900Y-108716800D01*
X140887000Y-106166400D02*
X140887000Y-107197000D01*
X125342700Y-108044800D02*
X129135000Y-104252500D01*
X129815100Y-110485000D02*
X137175000Y-110485000D01*
X124475000Y-114275000D02*
X126025100Y-114275000D01*
X126025100Y-114275000D02*
X129815100Y-110485000D01*
X126025100Y-116815000D02*
X129815100Y-113025000D01*
X129815100Y-113025000D02*
X137175000Y-113025000D01*
X124475000Y-116815000D02*
X126025100Y-116815000D01*
X124475000Y-119355000D02*
X126025100Y-119355000D01*
X137175000Y-115565000D02*
X135624900Y-115565000D01*
X129815100Y-115565000D02*
X135624900Y-115565000D01*
X126025100Y-119355000D02*
X129815100Y-115565000D01*
X129815100Y-118105000D02*
X137175000Y-118105000D01*
X126025100Y-121895000D02*
X129815100Y-118105000D01*
X124475000Y-121895000D02*
X126025100Y-121895000D01*
X126025100Y-124435000D02*
X129815100Y-120645000D01*
X124475000Y-124435000D02*
X126025100Y-124435000D01*
X129815100Y-120645000D02*
X137175000Y-120645000D01*
M02*
