M48
; DRILL file {KiCad (6.0.9)} date Fri Aug 18 17:20:22 2023
; FORMAT={-:-/ absolute / metric / decimal}
; #@! TF.CreationDate,2023-08-18T17:20:22+02:00
; #@! TF.GenerationSoftware,Kicad,Pcbnew,(6.0.9)
; #@! TF.FileFunction,Plated,1,2,PTH
FMAT,2
METRIC
; #@! TA.AperFunction,Plated,PTH,ViaDrill
T1C0.400
; #@! TA.AperFunction,Plated,PTH,ComponentDrill
T2C0.800
; #@! TA.AperFunction,Plated,PTH,ComponentDrill
T3C1.100
%
G90
G05
T1
X133.337Y-78.625
X149.118Y-112.128
X149.395Y-117.771
X149.517Y-132.076
X150.12Y-101.53
X159.67Y-81.307
X168.354Y-91.71
T2
X124.455Y-74.935
X124.455Y-77.475
X124.455Y-80.015
X124.455Y-82.555
X124.455Y-85.095
X124.455Y-87.635
X124.455Y-90.175
X124.455Y-92.715
X124.455Y-95.255
X124.455Y-97.795
X124.46Y-138.43
X124.475Y-106.655
X124.475Y-109.195
X124.475Y-111.735
X124.475Y-114.275
X124.475Y-116.815
X124.475Y-119.355
X124.475Y-121.895
X124.475Y-124.435
X124.475Y-126.975
X124.475Y-129.515
X125.73Y-134.62
X125.765Y-69.865
X130.73Y-134.62
X130.765Y-69.865
X132.075Y-74.935
X132.075Y-77.475
X132.075Y-80.015
X132.075Y-82.555
X132.075Y-85.095
X132.075Y-87.635
X132.075Y-90.175
X132.075Y-92.715
X132.075Y-95.255
X132.075Y-97.795
X132.08Y-138.43
X132.095Y-106.655
X132.095Y-109.195
X132.095Y-111.735
X132.095Y-114.275
X132.095Y-116.815
X132.095Y-119.355
X132.095Y-121.895
X132.095Y-124.435
X132.095Y-126.975
X132.095Y-129.515
X137.16Y-135.89
X137.16Y-143.51
X137.175Y-80.005
X137.175Y-82.545
X137.175Y-85.085
X137.175Y-87.625
X137.175Y-90.165
X137.175Y-92.705
X137.175Y-95.245
X137.175Y-97.785
X137.175Y-100.325
X137.175Y-102.865
X137.175Y-105.405
X137.175Y-107.945
X137.175Y-110.485
X137.175Y-113.025
X137.175Y-115.565
X137.175Y-118.105
X137.175Y-120.645
X137.175Y-123.185
X137.175Y-125.725
X137.175Y-128.265
X139.7Y-135.89
X139.7Y-143.51
X139.71Y-76.2
X139.71Y-78.74
X139.71Y-81.28
X139.71Y-83.82
X139.71Y-86.36
X139.71Y-88.9
X139.71Y-91.44
X139.71Y-93.98
X139.71Y-96.52
X139.71Y-99.06
X139.71Y-101.6
X139.71Y-104.14
X139.71Y-106.68
X139.71Y-109.22
X139.71Y-111.76
X139.71Y-114.3
X139.71Y-116.84
X139.71Y-119.38
X139.71Y-121.92
X139.71Y-124.46
X142.24Y-135.89
X142.24Y-143.51
X144.78Y-135.89
X144.78Y-143.51
X147.32Y-135.89
X147.32Y-143.51
X149.86Y-135.89
X149.86Y-143.51
X152.4Y-67.62
X152.4Y-71.12
X152.4Y-135.89
X152.4Y-143.51
X154.94Y-135.89
X154.94Y-143.51
X154.95Y-76.2
X154.95Y-78.74
X154.95Y-81.28
X154.95Y-83.82
X154.95Y-86.36
X154.95Y-88.9
X154.95Y-91.44
X154.95Y-93.98
X154.95Y-96.52
X154.95Y-99.06
X154.95Y-101.6
X154.95Y-104.14
X154.95Y-106.68
X154.95Y-109.22
X154.95Y-111.76
X154.95Y-114.3
X154.95Y-116.84
X154.95Y-119.38
X154.95Y-121.92
X154.95Y-124.46
X157.48Y-135.89
X157.48Y-143.51
X157.495Y-80.005
X157.495Y-82.545
X157.495Y-85.085
X157.495Y-87.625
X157.495Y-90.165
X157.495Y-92.705
X157.495Y-95.245
X157.495Y-97.785
X157.495Y-100.325
X157.495Y-102.865
X157.495Y-105.405
X157.495Y-107.945
X157.495Y-110.485
X157.495Y-113.025
X157.495Y-115.565
X157.495Y-118.105
X157.495Y-120.645
X157.495Y-123.185
X157.495Y-125.725
X157.495Y-128.265
X158.75Y-71.12
X158.75Y-76.12
X160.02Y-135.89
X160.02Y-143.51
X162.495Y-106.675
X162.495Y-109.215
X162.495Y-111.755
X162.495Y-114.295
X162.495Y-116.835
X162.495Y-119.375
X162.495Y-121.915
X162.495Y-124.455
X162.495Y-126.995
X162.495Y-129.535
X162.57Y-74.935
X162.57Y-77.475
X162.57Y-80.015
X162.57Y-82.555
X162.57Y-85.095
X162.57Y-87.635
X162.57Y-90.175
X162.57Y-92.715
X162.57Y-95.255
X162.57Y-97.795
X163.83Y-133.35
X163.91Y-69.855
X165.1Y-137.2
X165.1Y-142.2
X168.83Y-133.35
X168.91Y-69.855
X170.115Y-106.675
X170.115Y-109.215
X170.115Y-111.755
X170.115Y-114.295
X170.115Y-116.835
X170.115Y-119.375
X170.115Y-121.915
X170.115Y-124.455
X170.115Y-126.995
X170.115Y-129.535
X170.19Y-74.935
X170.19Y-77.475
X170.19Y-80.015
X170.19Y-82.555
X170.19Y-85.095
X170.19Y-87.635
X170.19Y-90.175
X170.19Y-92.715
X170.19Y-95.255
X170.19Y-97.795
T3
X147.34Y-101.6
X147.34Y-111.76
T0
M30
