G04 #@! TF.GenerationSoftware,KiCad,Pcbnew,(6.0.9)*
G04 #@! TF.CreationDate,2023-08-18T17:20:18+02:00*
G04 #@! TF.ProjectId,Sombrero_MSX_Goa'uld,536f6d62-7265-4726-9f5f-4d53585f476f,rev?*
G04 #@! TF.SameCoordinates,Original*
G04 #@! TF.FileFunction,Copper,L1,Top*
G04 #@! TF.FilePolarity,Positive*
%FSLAX46Y46*%
G04 Gerber Fmt 4.6, Leading zero omitted, Abs format (unit mm)*
G04 Created by KiCad (PCBNEW (6.0.9)) date 2023-08-18 17:20:18*
%MOMM*%
%LPD*%
G01*
G04 APERTURE LIST*
G04 #@! TA.AperFunction,ComponentPad*
%ADD10R,2.400000X1.600000*%
G04 #@! TD*
G04 #@! TA.AperFunction,ComponentPad*
%ADD11O,2.400000X1.600000*%
G04 #@! TD*
G04 #@! TA.AperFunction,ComponentPad*
%ADD12R,1.600000X2.400000*%
G04 #@! TD*
G04 #@! TA.AperFunction,ComponentPad*
%ADD13O,1.600000X2.400000*%
G04 #@! TD*
G04 #@! TA.AperFunction,ComponentPad*
%ADD14C,1.600000*%
G04 #@! TD*
G04 #@! TA.AperFunction,ComponentPad*
%ADD15R,1.600000X1.600000*%
G04 #@! TD*
G04 #@! TA.AperFunction,ComponentPad*
%ADD16O,1.600000X1.600000*%
G04 #@! TD*
G04 #@! TA.AperFunction,ComponentPad*
%ADD17R,2.200000X2.200000*%
G04 #@! TD*
G04 #@! TA.AperFunction,ComponentPad*
%ADD18O,2.200000X2.200000*%
G04 #@! TD*
G04 #@! TA.AperFunction,ViaPad*
%ADD19C,0.800000*%
G04 #@! TD*
G04 #@! TA.AperFunction,Conductor*
%ADD20C,0.450000*%
G04 #@! TD*
G04 #@! TA.AperFunction,Conductor*
%ADD21C,0.300000*%
G04 #@! TD*
G04 APERTURE END LIST*
D10*
X162570000Y-74935000D03*
D11*
X162570000Y-77475000D03*
X162570000Y-80015000D03*
X162570000Y-82555000D03*
X162570000Y-85095000D03*
X162570000Y-87635000D03*
X162570000Y-90175000D03*
X162570000Y-92715000D03*
X162570000Y-95255000D03*
X162570000Y-97795000D03*
X170190000Y-97795000D03*
X170190000Y-95255000D03*
X170190000Y-92715000D03*
X170190000Y-90175000D03*
X170190000Y-87635000D03*
X170190000Y-85095000D03*
X170190000Y-82555000D03*
X170190000Y-80015000D03*
X170190000Y-77475000D03*
X170190000Y-74935000D03*
D10*
X137175000Y-80005000D03*
D11*
X137175000Y-82545000D03*
X137175000Y-85085000D03*
X137175000Y-87625000D03*
X137175000Y-90165000D03*
X137175000Y-92705000D03*
X137175000Y-95245000D03*
X137175000Y-97785000D03*
X137175000Y-100325000D03*
X137175000Y-102865000D03*
X137175000Y-105405000D03*
X137175000Y-107945000D03*
X137175000Y-110485000D03*
X137175000Y-113025000D03*
X137175000Y-115565000D03*
X137175000Y-118105000D03*
X137175000Y-120645000D03*
X137175000Y-123185000D03*
X137175000Y-125725000D03*
X137175000Y-128265000D03*
X157495000Y-128265000D03*
X157495000Y-125725000D03*
X157495000Y-123185000D03*
X157495000Y-120645000D03*
X157495000Y-118105000D03*
X157495000Y-115565000D03*
X157495000Y-113025000D03*
X157495000Y-110485000D03*
X157495000Y-107945000D03*
X157495000Y-105405000D03*
X157495000Y-102865000D03*
X157495000Y-100325000D03*
X157495000Y-97785000D03*
X157495000Y-95245000D03*
X157495000Y-92705000D03*
X157495000Y-90165000D03*
X157495000Y-87625000D03*
X157495000Y-85085000D03*
X157495000Y-82545000D03*
X157495000Y-80005000D03*
D12*
X160020000Y-135890000D03*
D13*
X157480000Y-135890000D03*
X154940000Y-135890000D03*
X152400000Y-135890000D03*
X149860000Y-135890000D03*
X147320000Y-135890000D03*
X144780000Y-135890000D03*
X142240000Y-135890000D03*
X139700000Y-135890000D03*
X137160000Y-135890000D03*
X137160000Y-143510000D03*
X139700000Y-143510000D03*
X142240000Y-143510000D03*
X144780000Y-143510000D03*
X147320000Y-143510000D03*
X149860000Y-143510000D03*
X152400000Y-143510000D03*
X154940000Y-143510000D03*
X157480000Y-143510000D03*
X160020000Y-143510000D03*
D10*
X132095000Y-129515000D03*
D11*
X132095000Y-126975000D03*
X132095000Y-124435000D03*
X132095000Y-121895000D03*
X132095000Y-119355000D03*
X132095000Y-116815000D03*
X132095000Y-114275000D03*
X132095000Y-111735000D03*
X132095000Y-109195000D03*
X132095000Y-106655000D03*
X124475000Y-106655000D03*
X124475000Y-109195000D03*
X124475000Y-111735000D03*
X124475000Y-114275000D03*
X124475000Y-116815000D03*
X124475000Y-119355000D03*
X124475000Y-121895000D03*
X124475000Y-124435000D03*
X124475000Y-126975000D03*
X124475000Y-129515000D03*
D14*
X163830000Y-133350000D03*
X168830000Y-133350000D03*
D10*
X170115000Y-129535000D03*
D11*
X170115000Y-126995000D03*
X170115000Y-124455000D03*
X170115000Y-121915000D03*
X170115000Y-119375000D03*
X170115000Y-116835000D03*
X170115000Y-114295000D03*
X170115000Y-111755000D03*
X170115000Y-109215000D03*
X170115000Y-106675000D03*
X162495000Y-106675000D03*
X162495000Y-109215000D03*
X162495000Y-111755000D03*
X162495000Y-114295000D03*
X162495000Y-116835000D03*
X162495000Y-119375000D03*
X162495000Y-121915000D03*
X162495000Y-124455000D03*
X162495000Y-126995000D03*
X162495000Y-129535000D03*
D14*
X158750000Y-71120000D03*
X158750000Y-76120000D03*
X165100000Y-142200000D03*
X165100000Y-137200000D03*
D15*
X152400000Y-71120000D03*
D14*
X152400000Y-67620000D03*
X125730000Y-134620000D03*
X130730000Y-134620000D03*
D15*
X139710000Y-76200000D03*
D16*
X139710000Y-78740000D03*
X139710000Y-81280000D03*
X139710000Y-83820000D03*
X139710000Y-86360000D03*
X139710000Y-88900000D03*
X139710000Y-91440000D03*
X139710000Y-93980000D03*
X139710000Y-96520000D03*
X139710000Y-99060000D03*
X139710000Y-101600000D03*
X139710000Y-104140000D03*
X139710000Y-106680000D03*
X139710000Y-109220000D03*
X139710000Y-111760000D03*
X139710000Y-114300000D03*
X139710000Y-116840000D03*
X139710000Y-119380000D03*
X139710000Y-121920000D03*
X139710000Y-124460000D03*
X154950000Y-124460000D03*
X154950000Y-121920000D03*
X154950000Y-119380000D03*
X154950000Y-116840000D03*
X154950000Y-114300000D03*
X154950000Y-111760000D03*
X154950000Y-109220000D03*
X154950000Y-106680000D03*
X154950000Y-104140000D03*
X154950000Y-101600000D03*
X154950000Y-99060000D03*
X154950000Y-96520000D03*
X154950000Y-93980000D03*
X154950000Y-91440000D03*
X154950000Y-88900000D03*
X154950000Y-86360000D03*
X154950000Y-83820000D03*
X154950000Y-81280000D03*
X154950000Y-78740000D03*
X154950000Y-76200000D03*
D14*
X168910000Y-69855000D03*
X163910000Y-69855000D03*
X130765000Y-69865000D03*
X125765000Y-69865000D03*
D17*
X147340000Y-111760000D03*
D18*
X147340000Y-101600000D03*
D10*
X124455000Y-74935000D03*
D11*
X124455000Y-77475000D03*
X124455000Y-80015000D03*
X124455000Y-82555000D03*
X124455000Y-85095000D03*
X124455000Y-87635000D03*
X124455000Y-90175000D03*
X124455000Y-92715000D03*
X124455000Y-95255000D03*
X124455000Y-97795000D03*
X132075000Y-97795000D03*
X132075000Y-95255000D03*
X132075000Y-92715000D03*
X132075000Y-90175000D03*
X132075000Y-87635000D03*
X132075000Y-85095000D03*
X132075000Y-82555000D03*
X132075000Y-80015000D03*
X132075000Y-77475000D03*
X132075000Y-74935000D03*
D14*
X124460000Y-138430000D03*
D16*
X132080000Y-138430000D03*
D19*
X149395500Y-117771100D03*
X149516800Y-132076300D03*
X150120400Y-101530000D03*
X159669700Y-81306600D03*
X133336700Y-78625200D03*
X168353800Y-91710000D03*
X149118300Y-112127700D03*
D20*
X163957600Y-133222400D02*
X163957600Y-129535000D01*
X163422600Y-120645000D02*
X161533200Y-120645000D01*
X170115000Y-129535000D02*
X168489900Y-129535000D01*
X161533200Y-120645000D02*
X159120100Y-118231900D01*
X164170100Y-121392500D02*
X163422600Y-120645000D01*
X163830000Y-133350000D02*
X163957600Y-133222400D01*
X159120100Y-118231900D02*
X159120100Y-118105000D01*
X157495000Y-118105000D02*
X159120100Y-118105000D01*
X162495000Y-129535000D02*
X163957600Y-129535000D01*
X164170100Y-129535000D02*
X168489900Y-129535000D01*
X163957600Y-129535000D02*
X164170100Y-129535000D01*
X125730000Y-137160000D02*
X124460000Y-138430000D01*
X125730000Y-134620000D02*
X125730000Y-137160000D01*
X164170100Y-129535000D02*
X164170100Y-121392500D01*
X125765000Y-72812500D02*
X123642500Y-74935000D01*
X168528500Y-118105000D02*
X171037700Y-118105000D01*
X154950000Y-104140000D02*
X154950000Y-102914900D01*
X157495000Y-115565000D02*
X159120100Y-115565000D01*
X171037700Y-118105000D02*
X171740100Y-117402600D01*
X126080100Y-97795000D02*
X126080100Y-102265200D01*
X132095000Y-106655000D02*
X130469900Y-106655000D01*
X159126900Y-80682600D02*
X157495000Y-82314500D01*
X154474800Y-82545000D02*
X157495000Y-82545000D01*
X159126900Y-76496900D02*
X159126900Y-80682600D01*
X125937600Y-126975000D02*
X126100100Y-126975000D01*
X126100100Y-129990100D02*
X130730000Y-134620000D01*
X126100100Y-126975000D02*
X126100100Y-111024800D01*
X162570000Y-74935000D02*
X164195100Y-74935000D01*
X164195100Y-70140100D02*
X164195100Y-74935000D01*
X171740100Y-110942500D02*
X171740100Y-109215000D01*
X124455000Y-97795000D02*
X126080100Y-97795000D01*
X169248200Y-120645000D02*
X168483500Y-119880300D01*
X137160000Y-141884900D02*
X139700000Y-141884900D01*
X171740100Y-117402600D02*
X171740100Y-111755000D01*
X122829900Y-75747600D02*
X122829900Y-97795000D01*
X158750000Y-76120000D02*
X159126900Y-76496900D01*
X168483500Y-118150000D02*
X168528500Y-118105000D01*
X126100100Y-126975000D02*
X126100100Y-129990100D01*
X124475000Y-126975000D02*
X125937600Y-126975000D01*
X137160000Y-143510000D02*
X137160000Y-141884900D01*
X163910000Y-69855000D02*
X164195100Y-70140100D01*
X125765000Y-69865000D02*
X125765000Y-72812500D01*
X157495000Y-82314500D02*
X157495000Y-82545000D01*
X168921100Y-133350000D02*
X171807100Y-130464000D01*
X170115000Y-109215000D02*
X171740100Y-109215000D01*
X157480000Y-145135100D02*
X139700000Y-145135100D01*
X168483500Y-118150000D02*
X165898500Y-115565000D01*
X153157600Y-101581900D02*
X153157600Y-83862200D01*
X154950000Y-102914900D02*
X154490600Y-102914900D01*
X126100100Y-111024800D02*
X130469900Y-106655000D01*
X168483500Y-119880300D02*
X168483500Y-118150000D01*
X171807100Y-130464000D02*
X171807100Y-121435700D01*
X165898500Y-115565000D02*
X159120100Y-115565000D01*
X168830000Y-133350000D02*
X168921100Y-133350000D01*
X171016400Y-120645000D02*
X169248200Y-120645000D01*
X139700000Y-143510000D02*
X139700000Y-145135100D01*
X153157600Y-83862200D02*
X154474800Y-82545000D01*
X157480000Y-143510000D02*
X157480000Y-145135100D01*
X124455000Y-97795000D02*
X122829900Y-97795000D01*
X139700000Y-143510000D02*
X139700000Y-141884900D01*
X123642500Y-74935000D02*
X122829900Y-75747600D01*
X170115000Y-111755000D02*
X170927600Y-111755000D01*
X137160000Y-141884900D02*
X137160000Y-135890000D01*
X170927600Y-111755000D02*
X171740100Y-110942500D01*
X126080100Y-102265200D02*
X130469900Y-106655000D01*
X170927600Y-111755000D02*
X171740100Y-111755000D01*
X171807100Y-121435700D02*
X171016400Y-120645000D01*
X154490600Y-102914900D02*
X153157600Y-101581900D01*
X124455000Y-74935000D02*
X123642500Y-74935000D01*
D21*
X156774900Y-116954800D02*
X155476600Y-115656500D01*
X151510100Y-115656500D02*
X149395500Y-117771100D01*
X161001400Y-118224800D02*
X159731400Y-116954800D01*
X159731400Y-116954800D02*
X156774900Y-116954800D01*
X170115000Y-121915000D02*
X168564900Y-121915000D01*
X155476600Y-115656500D02*
X151510100Y-115656500D01*
X168564900Y-121915000D02*
X164874700Y-118224800D01*
X164874700Y-118224800D02*
X161001400Y-118224800D01*
X170115000Y-116835000D02*
X168564900Y-116835000D01*
X164867400Y-113137500D02*
X160769100Y-113137500D01*
X168564900Y-116835000D02*
X164867400Y-113137500D01*
X159606600Y-114300000D02*
X154950000Y-114300000D01*
X160769100Y-113137500D02*
X159606600Y-114300000D01*
X164120100Y-80015000D02*
X165620500Y-81515400D01*
X162570000Y-80015000D02*
X164120100Y-80015000D01*
X165620500Y-98829600D02*
X159045100Y-105405000D01*
X157495000Y-105405000D02*
X159045100Y-105405000D01*
X165620500Y-81515400D02*
X165620500Y-98829600D01*
X160451900Y-81585200D02*
X160451900Y-78043000D01*
X154582700Y-85090000D02*
X155412900Y-85090000D01*
X162570000Y-77475000D02*
X161019900Y-77475000D01*
X154950000Y-101600000D02*
X153752600Y-100402600D01*
X156682900Y-83820000D02*
X158265800Y-83820000D01*
X155412900Y-85090000D02*
X156682900Y-83820000D01*
X153752600Y-85920100D02*
X154582700Y-85090000D01*
X159951800Y-82134000D02*
X159951800Y-82085300D01*
X159951800Y-82085300D02*
X160451900Y-81585200D01*
X153752600Y-100402600D02*
X153752600Y-85920100D01*
X160451900Y-78043000D02*
X161019900Y-77475000D01*
X158265800Y-83820000D02*
X159951800Y-82134000D01*
X159597600Y-102865000D02*
X159045100Y-102865000D01*
X165120400Y-97342200D02*
X159597600Y-102865000D01*
X162570000Y-82555000D02*
X164120100Y-82555000D01*
X165120400Y-83555300D02*
X165120400Y-97342200D01*
X157495000Y-102865000D02*
X159045100Y-102865000D01*
X164120100Y-82555000D02*
X165120400Y-83555300D01*
X161693600Y-94104900D02*
X160519800Y-95278700D01*
X160519800Y-95278700D02*
X160519800Y-98850300D01*
X160519800Y-98850300D02*
X159045100Y-100325000D01*
X163227500Y-94104900D02*
X161693600Y-94104900D01*
X162570000Y-90175000D02*
X164120100Y-90175000D01*
X157495000Y-100325000D02*
X159045100Y-100325000D01*
X164120100Y-90175000D02*
X164120100Y-93212300D01*
X164120100Y-93212300D02*
X163227500Y-94104900D01*
X161019900Y-92715000D02*
X160019700Y-93715200D01*
X160019700Y-96810400D02*
X159045100Y-97785000D01*
X160019700Y-93715200D02*
X160019700Y-96810400D01*
X157495000Y-97785000D02*
X159045100Y-97785000D01*
X162570000Y-92715000D02*
X161019900Y-92715000D01*
X151780400Y-134339900D02*
X149516800Y-132076300D01*
X154940000Y-135890000D02*
X154940000Y-134339900D01*
X154940000Y-134339900D02*
X151780400Y-134339900D01*
X164867400Y-110597500D02*
X160769100Y-110597500D01*
X168564900Y-114295000D02*
X164867400Y-110597500D01*
X170115000Y-114295000D02*
X168564900Y-114295000D01*
X159606600Y-111760000D02*
X154950000Y-111760000D01*
X160769100Y-110597500D02*
X159606600Y-111760000D01*
X150120400Y-101530000D02*
X150120400Y-99310400D01*
X150120400Y-99310400D02*
X139710000Y-88900000D01*
X137890200Y-111874800D02*
X139394900Y-110370100D01*
X132095000Y-126975000D02*
X130544900Y-126975000D01*
X136253000Y-111874800D02*
X137890200Y-111874800D01*
X134645300Y-113482500D02*
X136253000Y-111874800D01*
X139710000Y-109220000D02*
X139710000Y-110370100D01*
X130544900Y-123915700D02*
X131357000Y-123103600D01*
X130544900Y-126975000D02*
X130544900Y-123915700D01*
X131357000Y-123103600D02*
X132958100Y-123103600D01*
X134645300Y-121416400D02*
X134645300Y-113482500D01*
X139394900Y-110370100D02*
X139710000Y-110370100D01*
X132958100Y-123103600D02*
X134645300Y-121416400D01*
X136370100Y-114295000D02*
X135149000Y-115516100D01*
X132095000Y-124435000D02*
X133645100Y-124435000D01*
X135149000Y-122931100D02*
X133645100Y-124435000D01*
X139394900Y-112910100D02*
X138010000Y-114295000D01*
X139710000Y-111760000D02*
X139710000Y-112910100D01*
X139710000Y-112910100D02*
X139394900Y-112910100D01*
X138010000Y-114295000D02*
X136370100Y-114295000D01*
X135149000Y-115516100D02*
X135149000Y-122931100D01*
X133645100Y-120344900D02*
X133645100Y-118805700D01*
X131267600Y-115545000D02*
X132878000Y-115545000D01*
X134978000Y-111735000D02*
X134978000Y-109583800D01*
X133645100Y-113067900D02*
X134978000Y-111735000D01*
X135598000Y-108963800D02*
X135598000Y-107494700D01*
X130535500Y-116277100D02*
X131267600Y-115545000D01*
X135598000Y-107494700D02*
X136297900Y-106794800D01*
X132924400Y-118085000D02*
X131322900Y-118085000D01*
X132878000Y-115545000D02*
X133645100Y-114777900D01*
X139394900Y-105290100D02*
X139710000Y-105290100D01*
X134978000Y-109583800D02*
X135598000Y-108963800D01*
X139710000Y-104140000D02*
X139710000Y-105290100D01*
X132095000Y-121895000D02*
X133645100Y-120344900D01*
X130535500Y-117297600D02*
X130535500Y-116277100D01*
X133645100Y-114777900D02*
X133645100Y-113067900D01*
X137890200Y-106794800D02*
X139394900Y-105290100D01*
X136297900Y-106794800D02*
X137890200Y-106794800D01*
X131322900Y-118085000D02*
X130535500Y-117297600D01*
X133645100Y-118805700D02*
X132924400Y-118085000D01*
X139710000Y-93980000D02*
X139710000Y-95130100D01*
X132095000Y-119355000D02*
X130544900Y-119355000D01*
X137890200Y-96634800D02*
X139394900Y-95130100D01*
X130544900Y-119355000D02*
X130035300Y-118845400D01*
X132916500Y-107925000D02*
X133645100Y-107196400D01*
X130035300Y-109221300D02*
X131331600Y-107925000D01*
X130035300Y-118845400D02*
X130035300Y-109221300D01*
X131331600Y-107925000D02*
X132916500Y-107925000D01*
X133645100Y-99288300D02*
X136298600Y-96634800D01*
X139394900Y-95130100D02*
X139710000Y-95130100D01*
X133645100Y-107196400D02*
X133645100Y-99288300D01*
X136298600Y-96634800D02*
X137890200Y-96634800D01*
X135478200Y-110124800D02*
X136268200Y-109334800D01*
X139274900Y-107950000D02*
X140067600Y-107950000D01*
X137890100Y-109334800D02*
X139274900Y-107950000D01*
X139948300Y-92590100D02*
X139710000Y-92590100D01*
X132095000Y-116815000D02*
X133645100Y-116815000D01*
X135478200Y-111942200D02*
X135478200Y-110124800D01*
X133645100Y-116815000D02*
X134145200Y-116314900D01*
X136268200Y-109334800D02*
X137890100Y-109334800D01*
X134145200Y-113275200D02*
X135478200Y-111942200D01*
X140067600Y-107950000D02*
X140906300Y-107111300D01*
X139710000Y-91440000D02*
X139710000Y-92590100D01*
X134145200Y-116314900D02*
X134145200Y-113275200D01*
X140906300Y-107111300D02*
X140906300Y-93548100D01*
X140906300Y-93548100D02*
X139948300Y-92590100D01*
X130544900Y-111230400D02*
X130544900Y-114275000D01*
X133977800Y-108919400D02*
X133977800Y-109356000D01*
X139394900Y-97670100D02*
X137890200Y-99174800D01*
X132095000Y-114275000D02*
X130544900Y-114275000D01*
X131190500Y-110584800D02*
X130544900Y-111230400D01*
X139710000Y-96520000D02*
X139710000Y-97670100D01*
X133977800Y-109356000D02*
X132749000Y-110584800D01*
X139710000Y-97670100D02*
X139394900Y-97670100D01*
X134145300Y-101260700D02*
X134145300Y-108751900D01*
X134145300Y-108751900D02*
X133977800Y-108919400D01*
X136231200Y-99174800D02*
X134145300Y-101260700D01*
X137890200Y-99174800D02*
X136231200Y-99174800D01*
X132749000Y-110584800D02*
X131190500Y-110584800D01*
X134978000Y-108626400D02*
X134477900Y-109126500D01*
X134978000Y-103032300D02*
X134978000Y-108626400D01*
X136295500Y-101714800D02*
X134978000Y-103032300D01*
X134477900Y-110902200D02*
X133645100Y-111735000D01*
X139710000Y-99060000D02*
X139710000Y-100210100D01*
X137890200Y-101714800D02*
X136295500Y-101714800D01*
X132095000Y-111735000D02*
X133645100Y-111735000D01*
X139394900Y-100210100D02*
X137890200Y-101714800D01*
X134477900Y-109126500D02*
X134477900Y-110902200D01*
X139710000Y-100210100D02*
X139394900Y-100210100D01*
X161019900Y-97280700D02*
X161019900Y-99104200D01*
X164120100Y-85095000D02*
X164620300Y-85595200D01*
X155270100Y-100210100D02*
X154950000Y-100210100D01*
X164620300Y-85595200D02*
X164620300Y-95231300D01*
X164620300Y-95231300D02*
X163326600Y-96525000D01*
X156584400Y-101524400D02*
X155270100Y-100210100D01*
X161775600Y-96525000D02*
X161019900Y-97280700D01*
X154950000Y-99060000D02*
X154950000Y-100210100D01*
X161019900Y-99104200D02*
X158599700Y-101524400D01*
X162570000Y-85095000D02*
X164120100Y-85095000D01*
X163326600Y-96525000D02*
X161775600Y-96525000D01*
X158599700Y-101524400D02*
X156584400Y-101524400D01*
X159459300Y-90745700D02*
X159459300Y-95307300D01*
X161019900Y-89185100D02*
X159459300Y-90745700D01*
X161019900Y-87635000D02*
X161019900Y-89185100D01*
X159459300Y-95307300D02*
X158246600Y-96520000D01*
X162570000Y-87635000D02*
X161019900Y-87635000D01*
X158246600Y-96520000D02*
X154950000Y-96520000D01*
X170190000Y-77475000D02*
X168639900Y-77475000D01*
X161459500Y-76324800D02*
X159951800Y-77832500D01*
X167489700Y-76324800D02*
X161459500Y-76324800D01*
X159951800Y-81024500D02*
X159669700Y-81306600D01*
X159951800Y-77832500D02*
X159951800Y-81024500D01*
X168639900Y-77475000D02*
X167489700Y-76324800D01*
X139710000Y-76200000D02*
X138559900Y-76200000D01*
X138559900Y-76200100D02*
X138559900Y-76200000D01*
X124455000Y-95255000D02*
X126005100Y-95255000D01*
X133287100Y-81285000D02*
X138372000Y-76200100D01*
X126005100Y-86570800D02*
X131290900Y-81285000D01*
X138372000Y-76200100D02*
X138559900Y-76200100D01*
X131290900Y-81285000D02*
X133287100Y-81285000D01*
X126005100Y-95255000D02*
X126005100Y-86570800D01*
X139274900Y-87630000D02*
X140132000Y-87630000D01*
X139710000Y-78740000D02*
X139710000Y-79890100D01*
X140132000Y-87630000D02*
X141379500Y-86382500D01*
X141379500Y-86382500D02*
X141379500Y-81321300D01*
X139948300Y-79890100D02*
X139710000Y-79890100D01*
X133625100Y-91683600D02*
X136293900Y-89014800D01*
X133625100Y-95255000D02*
X133625100Y-91683600D01*
X137890100Y-89014800D02*
X139274900Y-87630000D01*
X132075000Y-95255000D02*
X133625100Y-95255000D01*
X136293900Y-89014800D02*
X137890100Y-89014800D01*
X141379500Y-81321300D02*
X139948300Y-79890100D01*
X127155300Y-78625200D02*
X133336700Y-78625200D01*
X124455000Y-77475000D02*
X126005100Y-77475000D01*
X126005100Y-77475000D02*
X127155300Y-78625200D01*
X133625100Y-85095000D02*
X134900100Y-83820000D01*
X132075000Y-85095000D02*
X133625100Y-85095000D01*
X134900100Y-83820000D02*
X139710000Y-83820000D01*
X137890100Y-86474800D02*
X139274900Y-85090000D01*
X140086100Y-85090000D02*
X140876400Y-84299700D01*
X133625100Y-87635000D02*
X134785300Y-86474800D01*
X139274900Y-85090000D02*
X140086100Y-85090000D01*
X140876400Y-84299700D02*
X140876400Y-83358200D01*
X139710000Y-81280000D02*
X139710000Y-82430100D01*
X132075000Y-87635000D02*
X133625100Y-87635000D01*
X140876400Y-83358200D02*
X139948300Y-82430100D01*
X134785300Y-86474800D02*
X137890100Y-86474800D01*
X139948300Y-82430100D02*
X139710000Y-82430100D01*
X132080000Y-138430000D02*
X132080000Y-137279900D01*
X132095000Y-129515000D02*
X133645100Y-129515000D01*
X133645100Y-129515000D02*
X133645100Y-125164800D01*
X133645100Y-135714800D02*
X133645100Y-129515000D01*
X132080000Y-137279900D02*
X133645100Y-135714800D01*
X137175000Y-123185000D02*
X135624900Y-123185000D01*
X133645100Y-125164800D02*
X135624900Y-123185000D01*
X147320000Y-117761800D02*
X154711700Y-110370100D01*
X147320000Y-135890000D02*
X147320000Y-117761800D01*
X154950000Y-109220000D02*
X154950000Y-110370100D01*
X154711700Y-110370100D02*
X154950000Y-110370100D01*
X144780000Y-117761800D02*
X154711700Y-107830100D01*
X144780000Y-135890000D02*
X144780000Y-134339900D01*
X154950000Y-106680000D02*
X154950000Y-107830100D01*
X154711700Y-107830100D02*
X154950000Y-107830100D01*
X144780000Y-134339900D02*
X144780000Y-117761800D01*
X141171800Y-77350200D02*
X149225200Y-69296800D01*
X137175000Y-80005000D02*
X137175000Y-79609700D01*
X139434500Y-77350200D02*
X141171800Y-77350200D01*
X165980700Y-68691800D02*
X171740100Y-74451200D01*
X149225200Y-69296800D02*
X161106400Y-69296800D01*
X161106400Y-69296800D02*
X161711400Y-68691800D01*
X137175000Y-79609700D02*
X139434500Y-77350200D01*
X161711400Y-68691800D02*
X165980700Y-68691800D01*
X170190000Y-97795000D02*
X171740100Y-97795000D01*
X171740100Y-74451200D02*
X171740100Y-97795000D01*
X168353800Y-91710000D02*
X168639900Y-91423900D01*
X170190000Y-90175000D02*
X168639900Y-90175000D01*
X168639900Y-91423900D02*
X168639900Y-90175000D01*
X160452000Y-88758100D02*
X160452000Y-82292300D01*
X160452000Y-82292300D02*
X160952000Y-81792300D01*
X170190000Y-82555000D02*
X168639900Y-82555000D01*
X161713700Y-78844100D02*
X164929000Y-78844100D01*
X160952000Y-81792300D02*
X160952000Y-79605800D01*
X164929000Y-78844100D02*
X168639900Y-82555000D01*
X160952000Y-79605800D02*
X161713700Y-78844100D01*
X157495000Y-90165000D02*
X159045100Y-90165000D01*
X159045100Y-90165000D02*
X160452000Y-88758100D01*
X171665100Y-119375000D02*
X172324000Y-118716100D01*
X171286300Y-107945000D02*
X160881600Y-107945000D01*
X159731400Y-106794800D02*
X156774900Y-106794800D01*
X149118300Y-110863400D02*
X149118300Y-112127700D01*
X172324000Y-108982700D02*
X171286300Y-107945000D01*
X160881600Y-107945000D02*
X159731400Y-106794800D01*
X172324000Y-118716100D02*
X172324000Y-108982700D01*
X155477100Y-105497000D02*
X154484700Y-105497000D01*
X154484700Y-105497000D02*
X149118300Y-110863400D01*
X170115000Y-119375000D02*
X171665100Y-119375000D01*
X156774900Y-106794800D02*
X155477100Y-105497000D01*
D20*
X154950000Y-120605100D02*
X154490600Y-120605100D01*
X152400000Y-80005000D02*
X155869900Y-80005000D01*
X160020000Y-143510000D02*
X160020000Y-142200000D01*
X152400000Y-105174900D02*
X152400000Y-80005000D01*
X157495000Y-80005000D02*
X155869900Y-80005000D01*
X130449900Y-70180100D02*
X130765000Y-69865000D01*
X154490600Y-120605100D02*
X153722700Y-121373000D01*
X152400000Y-80005000D02*
X152400000Y-72345100D01*
X165100000Y-142200000D02*
X160020000Y-142200000D01*
X154950000Y-119380000D02*
X154950000Y-120605100D01*
X147340000Y-111760000D02*
X147340000Y-110234900D01*
X152400000Y-71120000D02*
X152400000Y-72345100D01*
X153722700Y-121373000D02*
X153722700Y-130000000D01*
X130449900Y-74935000D02*
X130449900Y-70180100D01*
X158794800Y-135072100D02*
X158794800Y-140659700D01*
X147340000Y-110234900D02*
X152400000Y-105174900D01*
X153722700Y-130000000D02*
X158794800Y-135072100D01*
X158794800Y-140659700D02*
X160020000Y-141884900D01*
X132075000Y-74935000D02*
X130449900Y-74935000D01*
X160020000Y-142200000D02*
X160020000Y-141884900D01*
D21*
X130524900Y-97795000D02*
X130524900Y-84608000D01*
X134400000Y-82545000D02*
X137175000Y-82545000D01*
X133000200Y-83944800D02*
X134400000Y-82545000D01*
X132075000Y-97795000D02*
X130524900Y-97795000D01*
X130524900Y-84608000D02*
X131188100Y-83944800D01*
X131188100Y-83944800D02*
X133000200Y-83944800D01*
X139239800Y-90256800D02*
X138556600Y-90940000D01*
X137175000Y-92705000D02*
X138725100Y-92705000D01*
X140174300Y-90256800D02*
X139239800Y-90256800D01*
X144780000Y-141959900D02*
X143510000Y-140689900D01*
X143510000Y-93592500D02*
X140174300Y-90256800D01*
X138725100Y-92118900D02*
X138725100Y-92705000D01*
X143510000Y-140689900D02*
X143510000Y-93592500D01*
X138556600Y-90940000D02*
X138556600Y-91950400D01*
X138556600Y-91950400D02*
X138725100Y-92118900D01*
X144780000Y-143510000D02*
X144780000Y-141959900D01*
X148506300Y-124194000D02*
X154519700Y-118180600D01*
X156113400Y-119921900D02*
X155944900Y-120090400D01*
X155382500Y-118180600D02*
X156113400Y-118911500D01*
X157495000Y-120645000D02*
X155944900Y-120645000D01*
X147320000Y-143510000D02*
X147320000Y-141959900D01*
X148506300Y-140773600D02*
X148506300Y-124194000D01*
X155944900Y-120090400D02*
X155944900Y-120645000D01*
X147320000Y-141959900D02*
X148506300Y-140773600D01*
X154519700Y-118180600D02*
X155382500Y-118180600D01*
X156113400Y-118911500D02*
X156113400Y-119921900D01*
M02*
