%TF.GenerationSoftware,KiCad,Pcbnew,(6.0.9)*%
%TF.CreationDate,2023-08-18T17:20:24+02:00*%
%TF.ProjectId,Sombrero_MSX_Goa'uld,536f6d62-7265-4726-9f5f-4d53585f476f,rev?*%
%TF.SameCoordinates,Original*%
%TF.FileFunction,Drillmap*%
%TF.FilePolarity,Positive*%
%FSLAX45Y45*%
G04 Gerber Fmt 4.5, Leading zero omitted, Abs format (unit mm)*
G04 Created by KiCad (PCBNEW (6.0.9)) date 2023-08-18 17:20:24*
%MOMM*%
%LPD*%
G01*
G04 APERTURE LIST*
%ADD10C,0.050000*%
%ADD11C,0.200000*%
%ADD12C,0.040000*%
%ADD13C,0.080000*%
%ADD14C,0.110000*%
G04 APERTURE END LIST*
D10*
X12065000Y-6477000D02*
X17399000Y-6477000D01*
X17399000Y-6477000D02*
X17399000Y-14605000D01*
X17399000Y-14605000D02*
X12065000Y-14605000D01*
X12065000Y-14605000D02*
X12065000Y-6477000D01*
D11*
D12*
X13313670Y-7842520D02*
X13353670Y-7882520D01*
X13353670Y-7842520D02*
X13313670Y-7882520D01*
X14891830Y-11192770D02*
X14931830Y-11232770D01*
X14931830Y-11192770D02*
X14891830Y-11232770D01*
X14919550Y-11757110D02*
X14959550Y-11797110D01*
X14959550Y-11757110D02*
X14919550Y-11797110D01*
X14931680Y-13187630D02*
X14971680Y-13227630D01*
X14971680Y-13187630D02*
X14931680Y-13227630D01*
X14992040Y-10133000D02*
X15032040Y-10173000D01*
X15032040Y-10133000D02*
X14992040Y-10173000D01*
X15946970Y-8110660D02*
X15986970Y-8150660D01*
X15986970Y-8110660D02*
X15946970Y-8150660D01*
X16815380Y-9151000D02*
X16855380Y-9191000D01*
X16855380Y-9151000D02*
X16815380Y-9191000D01*
D13*
X12485500Y-7493500D02*
G75*
G03*
X12485500Y-7493500I-40000J0D01*
G01*
X12485500Y-7747500D02*
G75*
G03*
X12485500Y-7747500I-40000J0D01*
G01*
X12485500Y-8001500D02*
G75*
G03*
X12485500Y-8001500I-40000J0D01*
G01*
X12485500Y-8255500D02*
G75*
G03*
X12485500Y-8255500I-40000J0D01*
G01*
X12485500Y-8509500D02*
G75*
G03*
X12485500Y-8509500I-40000J0D01*
G01*
X12485500Y-8763500D02*
G75*
G03*
X12485500Y-8763500I-40000J0D01*
G01*
X12485500Y-9017500D02*
G75*
G03*
X12485500Y-9017500I-40000J0D01*
G01*
X12485500Y-9271500D02*
G75*
G03*
X12485500Y-9271500I-40000J0D01*
G01*
X12485500Y-9525500D02*
G75*
G03*
X12485500Y-9525500I-40000J0D01*
G01*
X12485500Y-9779500D02*
G75*
G03*
X12485500Y-9779500I-40000J0D01*
G01*
X12486000Y-13843000D02*
G75*
G03*
X12486000Y-13843000I-40000J0D01*
G01*
X12487500Y-10665500D02*
G75*
G03*
X12487500Y-10665500I-40000J0D01*
G01*
X12487500Y-10919500D02*
G75*
G03*
X12487500Y-10919500I-40000J0D01*
G01*
X12487500Y-11173500D02*
G75*
G03*
X12487500Y-11173500I-40000J0D01*
G01*
X12487500Y-11427500D02*
G75*
G03*
X12487500Y-11427500I-40000J0D01*
G01*
X12487500Y-11681500D02*
G75*
G03*
X12487500Y-11681500I-40000J0D01*
G01*
X12487500Y-11935500D02*
G75*
G03*
X12487500Y-11935500I-40000J0D01*
G01*
X12487500Y-12189500D02*
G75*
G03*
X12487500Y-12189500I-40000J0D01*
G01*
X12487500Y-12443500D02*
G75*
G03*
X12487500Y-12443500I-40000J0D01*
G01*
X12487500Y-12697500D02*
G75*
G03*
X12487500Y-12697500I-40000J0D01*
G01*
X12487500Y-12951500D02*
G75*
G03*
X12487500Y-12951500I-40000J0D01*
G01*
X12613000Y-13462000D02*
G75*
G03*
X12613000Y-13462000I-40000J0D01*
G01*
X12616500Y-6986500D02*
G75*
G03*
X12616500Y-6986500I-40000J0D01*
G01*
X13113000Y-13462000D02*
G75*
G03*
X13113000Y-13462000I-40000J0D01*
G01*
X13116500Y-6986500D02*
G75*
G03*
X13116500Y-6986500I-40000J0D01*
G01*
X13247500Y-7493500D02*
G75*
G03*
X13247500Y-7493500I-40000J0D01*
G01*
X13247500Y-7747500D02*
G75*
G03*
X13247500Y-7747500I-40000J0D01*
G01*
X13247500Y-8001500D02*
G75*
G03*
X13247500Y-8001500I-40000J0D01*
G01*
X13247500Y-8255500D02*
G75*
G03*
X13247500Y-8255500I-40000J0D01*
G01*
X13247500Y-8509500D02*
G75*
G03*
X13247500Y-8509500I-40000J0D01*
G01*
X13247500Y-8763500D02*
G75*
G03*
X13247500Y-8763500I-40000J0D01*
G01*
X13247500Y-9017500D02*
G75*
G03*
X13247500Y-9017500I-40000J0D01*
G01*
X13247500Y-9271500D02*
G75*
G03*
X13247500Y-9271500I-40000J0D01*
G01*
X13247500Y-9525500D02*
G75*
G03*
X13247500Y-9525500I-40000J0D01*
G01*
X13247500Y-9779500D02*
G75*
G03*
X13247500Y-9779500I-40000J0D01*
G01*
X13248000Y-13843000D02*
G75*
G03*
X13248000Y-13843000I-40000J0D01*
G01*
X13249500Y-10665500D02*
G75*
G03*
X13249500Y-10665500I-40000J0D01*
G01*
X13249500Y-10919500D02*
G75*
G03*
X13249500Y-10919500I-40000J0D01*
G01*
X13249500Y-11173500D02*
G75*
G03*
X13249500Y-11173500I-40000J0D01*
G01*
X13249500Y-11427500D02*
G75*
G03*
X13249500Y-11427500I-40000J0D01*
G01*
X13249500Y-11681500D02*
G75*
G03*
X13249500Y-11681500I-40000J0D01*
G01*
X13249500Y-11935500D02*
G75*
G03*
X13249500Y-11935500I-40000J0D01*
G01*
X13249500Y-12189500D02*
G75*
G03*
X13249500Y-12189500I-40000J0D01*
G01*
X13249500Y-12443500D02*
G75*
G03*
X13249500Y-12443500I-40000J0D01*
G01*
X13249500Y-12697500D02*
G75*
G03*
X13249500Y-12697500I-40000J0D01*
G01*
X13249500Y-12951500D02*
G75*
G03*
X13249500Y-12951500I-40000J0D01*
G01*
X13756000Y-13589000D02*
G75*
G03*
X13756000Y-13589000I-40000J0D01*
G01*
X13756000Y-14351000D02*
G75*
G03*
X13756000Y-14351000I-40000J0D01*
G01*
X13757500Y-8000500D02*
G75*
G03*
X13757500Y-8000500I-40000J0D01*
G01*
X13757500Y-8254500D02*
G75*
G03*
X13757500Y-8254500I-40000J0D01*
G01*
X13757500Y-8508500D02*
G75*
G03*
X13757500Y-8508500I-40000J0D01*
G01*
X13757500Y-8762500D02*
G75*
G03*
X13757500Y-8762500I-40000J0D01*
G01*
X13757500Y-9016500D02*
G75*
G03*
X13757500Y-9016500I-40000J0D01*
G01*
X13757500Y-9270500D02*
G75*
G03*
X13757500Y-9270500I-40000J0D01*
G01*
X13757500Y-9524500D02*
G75*
G03*
X13757500Y-9524500I-40000J0D01*
G01*
X13757500Y-9778500D02*
G75*
G03*
X13757500Y-9778500I-40000J0D01*
G01*
X13757500Y-10032500D02*
G75*
G03*
X13757500Y-10032500I-40000J0D01*
G01*
X13757500Y-10286500D02*
G75*
G03*
X13757500Y-10286500I-40000J0D01*
G01*
X13757500Y-10540500D02*
G75*
G03*
X13757500Y-10540500I-40000J0D01*
G01*
X13757500Y-10794500D02*
G75*
G03*
X13757500Y-10794500I-40000J0D01*
G01*
X13757500Y-11048500D02*
G75*
G03*
X13757500Y-11048500I-40000J0D01*
G01*
X13757500Y-11302500D02*
G75*
G03*
X13757500Y-11302500I-40000J0D01*
G01*
X13757500Y-11556500D02*
G75*
G03*
X13757500Y-11556500I-40000J0D01*
G01*
X13757500Y-11810500D02*
G75*
G03*
X13757500Y-11810500I-40000J0D01*
G01*
X13757500Y-12064500D02*
G75*
G03*
X13757500Y-12064500I-40000J0D01*
G01*
X13757500Y-12318500D02*
G75*
G03*
X13757500Y-12318500I-40000J0D01*
G01*
X13757500Y-12572500D02*
G75*
G03*
X13757500Y-12572500I-40000J0D01*
G01*
X13757500Y-12826500D02*
G75*
G03*
X13757500Y-12826500I-40000J0D01*
G01*
X14010000Y-13589000D02*
G75*
G03*
X14010000Y-13589000I-40000J0D01*
G01*
X14010000Y-14351000D02*
G75*
G03*
X14010000Y-14351000I-40000J0D01*
G01*
X14011000Y-7620000D02*
G75*
G03*
X14011000Y-7620000I-40000J0D01*
G01*
X14011000Y-7874000D02*
G75*
G03*
X14011000Y-7874000I-40000J0D01*
G01*
X14011000Y-8128000D02*
G75*
G03*
X14011000Y-8128000I-40000J0D01*
G01*
X14011000Y-8382000D02*
G75*
G03*
X14011000Y-8382000I-40000J0D01*
G01*
X14011000Y-8636000D02*
G75*
G03*
X14011000Y-8636000I-40000J0D01*
G01*
X14011000Y-8890000D02*
G75*
G03*
X14011000Y-8890000I-40000J0D01*
G01*
X14011000Y-9144000D02*
G75*
G03*
X14011000Y-9144000I-40000J0D01*
G01*
X14011000Y-9398000D02*
G75*
G03*
X14011000Y-9398000I-40000J0D01*
G01*
X14011000Y-9652000D02*
G75*
G03*
X14011000Y-9652000I-40000J0D01*
G01*
X14011000Y-9906000D02*
G75*
G03*
X14011000Y-9906000I-40000J0D01*
G01*
X14011000Y-10160000D02*
G75*
G03*
X14011000Y-10160000I-40000J0D01*
G01*
X14011000Y-10414000D02*
G75*
G03*
X14011000Y-10414000I-40000J0D01*
G01*
X14011000Y-10668000D02*
G75*
G03*
X14011000Y-10668000I-40000J0D01*
G01*
X14011000Y-10922000D02*
G75*
G03*
X14011000Y-10922000I-40000J0D01*
G01*
X14011000Y-11176000D02*
G75*
G03*
X14011000Y-11176000I-40000J0D01*
G01*
X14011000Y-11430000D02*
G75*
G03*
X14011000Y-11430000I-40000J0D01*
G01*
X14011000Y-11684000D02*
G75*
G03*
X14011000Y-11684000I-40000J0D01*
G01*
X14011000Y-11938000D02*
G75*
G03*
X14011000Y-11938000I-40000J0D01*
G01*
X14011000Y-12192000D02*
G75*
G03*
X14011000Y-12192000I-40000J0D01*
G01*
X14011000Y-12446000D02*
G75*
G03*
X14011000Y-12446000I-40000J0D01*
G01*
X14264000Y-13589000D02*
G75*
G03*
X14264000Y-13589000I-40000J0D01*
G01*
X14264000Y-14351000D02*
G75*
G03*
X14264000Y-14351000I-40000J0D01*
G01*
X14518000Y-13589000D02*
G75*
G03*
X14518000Y-13589000I-40000J0D01*
G01*
X14518000Y-14351000D02*
G75*
G03*
X14518000Y-14351000I-40000J0D01*
G01*
X14772000Y-13589000D02*
G75*
G03*
X14772000Y-13589000I-40000J0D01*
G01*
X14772000Y-14351000D02*
G75*
G03*
X14772000Y-14351000I-40000J0D01*
G01*
X15026000Y-13589000D02*
G75*
G03*
X15026000Y-13589000I-40000J0D01*
G01*
X15026000Y-14351000D02*
G75*
G03*
X15026000Y-14351000I-40000J0D01*
G01*
X15280000Y-6762000D02*
G75*
G03*
X15280000Y-6762000I-40000J0D01*
G01*
X15280000Y-7112000D02*
G75*
G03*
X15280000Y-7112000I-40000J0D01*
G01*
X15280000Y-13589000D02*
G75*
G03*
X15280000Y-13589000I-40000J0D01*
G01*
X15280000Y-14351000D02*
G75*
G03*
X15280000Y-14351000I-40000J0D01*
G01*
X15534000Y-13589000D02*
G75*
G03*
X15534000Y-13589000I-40000J0D01*
G01*
X15534000Y-14351000D02*
G75*
G03*
X15534000Y-14351000I-40000J0D01*
G01*
X15535000Y-7620000D02*
G75*
G03*
X15535000Y-7620000I-40000J0D01*
G01*
X15535000Y-7874000D02*
G75*
G03*
X15535000Y-7874000I-40000J0D01*
G01*
X15535000Y-8128000D02*
G75*
G03*
X15535000Y-8128000I-40000J0D01*
G01*
X15535000Y-8382000D02*
G75*
G03*
X15535000Y-8382000I-40000J0D01*
G01*
X15535000Y-8636000D02*
G75*
G03*
X15535000Y-8636000I-40000J0D01*
G01*
X15535000Y-8890000D02*
G75*
G03*
X15535000Y-8890000I-40000J0D01*
G01*
X15535000Y-9144000D02*
G75*
G03*
X15535000Y-9144000I-40000J0D01*
G01*
X15535000Y-9398000D02*
G75*
G03*
X15535000Y-9398000I-40000J0D01*
G01*
X15535000Y-9652000D02*
G75*
G03*
X15535000Y-9652000I-40000J0D01*
G01*
X15535000Y-9906000D02*
G75*
G03*
X15535000Y-9906000I-40000J0D01*
G01*
X15535000Y-10160000D02*
G75*
G03*
X15535000Y-10160000I-40000J0D01*
G01*
X15535000Y-10414000D02*
G75*
G03*
X15535000Y-10414000I-40000J0D01*
G01*
X15535000Y-10668000D02*
G75*
G03*
X15535000Y-10668000I-40000J0D01*
G01*
X15535000Y-10922000D02*
G75*
G03*
X15535000Y-10922000I-40000J0D01*
G01*
X15535000Y-11176000D02*
G75*
G03*
X15535000Y-11176000I-40000J0D01*
G01*
X15535000Y-11430000D02*
G75*
G03*
X15535000Y-11430000I-40000J0D01*
G01*
X15535000Y-11684000D02*
G75*
G03*
X15535000Y-11684000I-40000J0D01*
G01*
X15535000Y-11938000D02*
G75*
G03*
X15535000Y-11938000I-40000J0D01*
G01*
X15535000Y-12192000D02*
G75*
G03*
X15535000Y-12192000I-40000J0D01*
G01*
X15535000Y-12446000D02*
G75*
G03*
X15535000Y-12446000I-40000J0D01*
G01*
X15788000Y-13589000D02*
G75*
G03*
X15788000Y-13589000I-40000J0D01*
G01*
X15788000Y-14351000D02*
G75*
G03*
X15788000Y-14351000I-40000J0D01*
G01*
X15789500Y-8000500D02*
G75*
G03*
X15789500Y-8000500I-40000J0D01*
G01*
X15789500Y-8254500D02*
G75*
G03*
X15789500Y-8254500I-40000J0D01*
G01*
X15789500Y-8508500D02*
G75*
G03*
X15789500Y-8508500I-40000J0D01*
G01*
X15789500Y-8762500D02*
G75*
G03*
X15789500Y-8762500I-40000J0D01*
G01*
X15789500Y-9016500D02*
G75*
G03*
X15789500Y-9016500I-40000J0D01*
G01*
X15789500Y-9270500D02*
G75*
G03*
X15789500Y-9270500I-40000J0D01*
G01*
X15789500Y-9524500D02*
G75*
G03*
X15789500Y-9524500I-40000J0D01*
G01*
X15789500Y-9778500D02*
G75*
G03*
X15789500Y-9778500I-40000J0D01*
G01*
X15789500Y-10032500D02*
G75*
G03*
X15789500Y-10032500I-40000J0D01*
G01*
X15789500Y-10286500D02*
G75*
G03*
X15789500Y-10286500I-40000J0D01*
G01*
X15789500Y-10540500D02*
G75*
G03*
X15789500Y-10540500I-40000J0D01*
G01*
X15789500Y-10794500D02*
G75*
G03*
X15789500Y-10794500I-40000J0D01*
G01*
X15789500Y-11048500D02*
G75*
G03*
X15789500Y-11048500I-40000J0D01*
G01*
X15789500Y-11302500D02*
G75*
G03*
X15789500Y-11302500I-40000J0D01*
G01*
X15789500Y-11556500D02*
G75*
G03*
X15789500Y-11556500I-40000J0D01*
G01*
X15789500Y-11810500D02*
G75*
G03*
X15789500Y-11810500I-40000J0D01*
G01*
X15789500Y-12064500D02*
G75*
G03*
X15789500Y-12064500I-40000J0D01*
G01*
X15789500Y-12318500D02*
G75*
G03*
X15789500Y-12318500I-40000J0D01*
G01*
X15789500Y-12572500D02*
G75*
G03*
X15789500Y-12572500I-40000J0D01*
G01*
X15789500Y-12826500D02*
G75*
G03*
X15789500Y-12826500I-40000J0D01*
G01*
X15915000Y-7112000D02*
G75*
G03*
X15915000Y-7112000I-40000J0D01*
G01*
X15915000Y-7612000D02*
G75*
G03*
X15915000Y-7612000I-40000J0D01*
G01*
X16042000Y-13589000D02*
G75*
G03*
X16042000Y-13589000I-40000J0D01*
G01*
X16042000Y-14351000D02*
G75*
G03*
X16042000Y-14351000I-40000J0D01*
G01*
X16289500Y-10667500D02*
G75*
G03*
X16289500Y-10667500I-40000J0D01*
G01*
X16289500Y-10921500D02*
G75*
G03*
X16289500Y-10921500I-40000J0D01*
G01*
X16289500Y-11175500D02*
G75*
G03*
X16289500Y-11175500I-40000J0D01*
G01*
X16289500Y-11429500D02*
G75*
G03*
X16289500Y-11429500I-40000J0D01*
G01*
X16289500Y-11683500D02*
G75*
G03*
X16289500Y-11683500I-40000J0D01*
G01*
X16289500Y-11937500D02*
G75*
G03*
X16289500Y-11937500I-40000J0D01*
G01*
X16289500Y-12191500D02*
G75*
G03*
X16289500Y-12191500I-40000J0D01*
G01*
X16289500Y-12445500D02*
G75*
G03*
X16289500Y-12445500I-40000J0D01*
G01*
X16289500Y-12699500D02*
G75*
G03*
X16289500Y-12699500I-40000J0D01*
G01*
X16289500Y-12953500D02*
G75*
G03*
X16289500Y-12953500I-40000J0D01*
G01*
X16297000Y-7493500D02*
G75*
G03*
X16297000Y-7493500I-40000J0D01*
G01*
X16297000Y-7747500D02*
G75*
G03*
X16297000Y-7747500I-40000J0D01*
G01*
X16297000Y-8001500D02*
G75*
G03*
X16297000Y-8001500I-40000J0D01*
G01*
X16297000Y-8255500D02*
G75*
G03*
X16297000Y-8255500I-40000J0D01*
G01*
X16297000Y-8509500D02*
G75*
G03*
X16297000Y-8509500I-40000J0D01*
G01*
X16297000Y-8763500D02*
G75*
G03*
X16297000Y-8763500I-40000J0D01*
G01*
X16297000Y-9017500D02*
G75*
G03*
X16297000Y-9017500I-40000J0D01*
G01*
X16297000Y-9271500D02*
G75*
G03*
X16297000Y-9271500I-40000J0D01*
G01*
X16297000Y-9525500D02*
G75*
G03*
X16297000Y-9525500I-40000J0D01*
G01*
X16297000Y-9779500D02*
G75*
G03*
X16297000Y-9779500I-40000J0D01*
G01*
X16423000Y-13335000D02*
G75*
G03*
X16423000Y-13335000I-40000J0D01*
G01*
X16431000Y-6985500D02*
G75*
G03*
X16431000Y-6985500I-40000J0D01*
G01*
X16550000Y-13720000D02*
G75*
G03*
X16550000Y-13720000I-40000J0D01*
G01*
X16550000Y-14220000D02*
G75*
G03*
X16550000Y-14220000I-40000J0D01*
G01*
X16923000Y-13335000D02*
G75*
G03*
X16923000Y-13335000I-40000J0D01*
G01*
X16931000Y-6985500D02*
G75*
G03*
X16931000Y-6985500I-40000J0D01*
G01*
X17051500Y-10667500D02*
G75*
G03*
X17051500Y-10667500I-40000J0D01*
G01*
X17051500Y-10921500D02*
G75*
G03*
X17051500Y-10921500I-40000J0D01*
G01*
X17051500Y-11175500D02*
G75*
G03*
X17051500Y-11175500I-40000J0D01*
G01*
X17051500Y-11429500D02*
G75*
G03*
X17051500Y-11429500I-40000J0D01*
G01*
X17051500Y-11683500D02*
G75*
G03*
X17051500Y-11683500I-40000J0D01*
G01*
X17051500Y-11937500D02*
G75*
G03*
X17051500Y-11937500I-40000J0D01*
G01*
X17051500Y-12191500D02*
G75*
G03*
X17051500Y-12191500I-40000J0D01*
G01*
X17051500Y-12445500D02*
G75*
G03*
X17051500Y-12445500I-40000J0D01*
G01*
X17051500Y-12699500D02*
G75*
G03*
X17051500Y-12699500I-40000J0D01*
G01*
X17051500Y-12953500D02*
G75*
G03*
X17051500Y-12953500I-40000J0D01*
G01*
X17059000Y-7493500D02*
G75*
G03*
X17059000Y-7493500I-40000J0D01*
G01*
X17059000Y-7747500D02*
G75*
G03*
X17059000Y-7747500I-40000J0D01*
G01*
X17059000Y-8001500D02*
G75*
G03*
X17059000Y-8001500I-40000J0D01*
G01*
X17059000Y-8255500D02*
G75*
G03*
X17059000Y-8255500I-40000J0D01*
G01*
X17059000Y-8509500D02*
G75*
G03*
X17059000Y-8509500I-40000J0D01*
G01*
X17059000Y-8763500D02*
G75*
G03*
X17059000Y-8763500I-40000J0D01*
G01*
X17059000Y-9017500D02*
G75*
G03*
X17059000Y-9017500I-40000J0D01*
G01*
X17059000Y-9271500D02*
G75*
G03*
X17059000Y-9271500I-40000J0D01*
G01*
X17059000Y-9525500D02*
G75*
G03*
X17059000Y-9525500I-40000J0D01*
G01*
X17059000Y-9779500D02*
G75*
G03*
X17059000Y-9779500I-40000J0D01*
G01*
D14*
X14734000Y-10105000D02*
X14734000Y-10215000D01*
X14679000Y-10160000D02*
X14789000Y-10160000D01*
X14734000Y-11121000D02*
X14734000Y-11231000D01*
X14679000Y-11176000D02*
X14789000Y-11176000D01*
D11*
X12320119Y-14917976D02*
X12320119Y-14717976D01*
X12367738Y-14717976D01*
X12396309Y-14727500D01*
X12415357Y-14746548D01*
X12424881Y-14765595D01*
X12434405Y-14803690D01*
X12434405Y-14832262D01*
X12424881Y-14870357D01*
X12415357Y-14889405D01*
X12396309Y-14908452D01*
X12367738Y-14917976D01*
X12320119Y-14917976D01*
X12520119Y-14917976D02*
X12520119Y-14784643D01*
X12520119Y-14822738D02*
X12529643Y-14803690D01*
X12539167Y-14794167D01*
X12558214Y-14784643D01*
X12577262Y-14784643D01*
X12643928Y-14917976D02*
X12643928Y-14784643D01*
X12643928Y-14717976D02*
X12634405Y-14727500D01*
X12643928Y-14737024D01*
X12653452Y-14727500D01*
X12643928Y-14717976D01*
X12643928Y-14737024D01*
X12767738Y-14917976D02*
X12748690Y-14908452D01*
X12739167Y-14889405D01*
X12739167Y-14717976D01*
X12872500Y-14917976D02*
X12853452Y-14908452D01*
X12843928Y-14889405D01*
X12843928Y-14717976D01*
X13101071Y-14917976D02*
X13101071Y-14717976D01*
X13167738Y-14860833D01*
X13234405Y-14717976D01*
X13234405Y-14917976D01*
X13415357Y-14917976D02*
X13415357Y-14813214D01*
X13405833Y-14794167D01*
X13386786Y-14784643D01*
X13348690Y-14784643D01*
X13329643Y-14794167D01*
X13415357Y-14908452D02*
X13396309Y-14917976D01*
X13348690Y-14917976D01*
X13329643Y-14908452D01*
X13320119Y-14889405D01*
X13320119Y-14870357D01*
X13329643Y-14851309D01*
X13348690Y-14841786D01*
X13396309Y-14841786D01*
X13415357Y-14832262D01*
X13510595Y-14784643D02*
X13510595Y-14984643D01*
X13510595Y-14794167D02*
X13529643Y-14784643D01*
X13567738Y-14784643D01*
X13586786Y-14794167D01*
X13596309Y-14803690D01*
X13605833Y-14822738D01*
X13605833Y-14879881D01*
X13596309Y-14898928D01*
X13586786Y-14908452D01*
X13567738Y-14917976D01*
X13529643Y-14917976D01*
X13510595Y-14908452D01*
X13691548Y-14898928D02*
X13701071Y-14908452D01*
X13691548Y-14917976D01*
X13682024Y-14908452D01*
X13691548Y-14898928D01*
X13691548Y-14917976D01*
X13691548Y-14794167D02*
X13701071Y-14803690D01*
X13691548Y-14813214D01*
X13682024Y-14803690D01*
X13691548Y-14794167D01*
X13691548Y-14813214D01*
D12*
X12022500Y-15227500D02*
X12062500Y-15267500D01*
X12062500Y-15227500D02*
X12022500Y-15267500D01*
D11*
X12358214Y-15137976D02*
X12377262Y-15137976D01*
X12396309Y-15147500D01*
X12405833Y-15157024D01*
X12415357Y-15176071D01*
X12424881Y-15214167D01*
X12424881Y-15261786D01*
X12415357Y-15299881D01*
X12405833Y-15318928D01*
X12396309Y-15328452D01*
X12377262Y-15337976D01*
X12358214Y-15337976D01*
X12339167Y-15328452D01*
X12329643Y-15318928D01*
X12320119Y-15299881D01*
X12310595Y-15261786D01*
X12310595Y-15214167D01*
X12320119Y-15176071D01*
X12329643Y-15157024D01*
X12339167Y-15147500D01*
X12358214Y-15137976D01*
X12510595Y-15318928D02*
X12520119Y-15328452D01*
X12510595Y-15337976D01*
X12501071Y-15328452D01*
X12510595Y-15318928D01*
X12510595Y-15337976D01*
X12691548Y-15204643D02*
X12691548Y-15337976D01*
X12643928Y-15128452D02*
X12596309Y-15271309D01*
X12720119Y-15271309D01*
X12834405Y-15137976D02*
X12853452Y-15137976D01*
X12872500Y-15147500D01*
X12882024Y-15157024D01*
X12891548Y-15176071D01*
X12901071Y-15214167D01*
X12901071Y-15261786D01*
X12891548Y-15299881D01*
X12882024Y-15318928D01*
X12872500Y-15328452D01*
X12853452Y-15337976D01*
X12834405Y-15337976D01*
X12815357Y-15328452D01*
X12805833Y-15318928D01*
X12796309Y-15299881D01*
X12786786Y-15261786D01*
X12786786Y-15214167D01*
X12796309Y-15176071D01*
X12805833Y-15157024D01*
X12815357Y-15147500D01*
X12834405Y-15137976D01*
X13024881Y-15137976D02*
X13043928Y-15137976D01*
X13062976Y-15147500D01*
X13072500Y-15157024D01*
X13082024Y-15176071D01*
X13091548Y-15214167D01*
X13091548Y-15261786D01*
X13082024Y-15299881D01*
X13072500Y-15318928D01*
X13062976Y-15328452D01*
X13043928Y-15337976D01*
X13024881Y-15337976D01*
X13005833Y-15328452D01*
X12996309Y-15318928D01*
X12986786Y-15299881D01*
X12977262Y-15261786D01*
X12977262Y-15214167D01*
X12986786Y-15176071D01*
X12996309Y-15157024D01*
X13005833Y-15147500D01*
X13024881Y-15137976D01*
X13177262Y-15337976D02*
X13177262Y-15204643D01*
X13177262Y-15223690D02*
X13186786Y-15214167D01*
X13205833Y-15204643D01*
X13234405Y-15204643D01*
X13253452Y-15214167D01*
X13262976Y-15233214D01*
X13262976Y-15337976D01*
X13262976Y-15233214D02*
X13272500Y-15214167D01*
X13291548Y-15204643D01*
X13320119Y-15204643D01*
X13339167Y-15214167D01*
X13348690Y-15233214D01*
X13348690Y-15337976D01*
X13443928Y-15337976D02*
X13443928Y-15204643D01*
X13443928Y-15223690D02*
X13453452Y-15214167D01*
X13472500Y-15204643D01*
X13501071Y-15204643D01*
X13520119Y-15214167D01*
X13529643Y-15233214D01*
X13529643Y-15337976D01*
X13529643Y-15233214D02*
X13539167Y-15214167D01*
X13558214Y-15204643D01*
X13586786Y-15204643D01*
X13605833Y-15214167D01*
X13615357Y-15233214D01*
X13615357Y-15337976D01*
X14005833Y-15128452D02*
X13834405Y-15385595D01*
X14262976Y-15137976D02*
X14282024Y-15137976D01*
X14301071Y-15147500D01*
X14310595Y-15157024D01*
X14320119Y-15176071D01*
X14329643Y-15214167D01*
X14329643Y-15261786D01*
X14320119Y-15299881D01*
X14310595Y-15318928D01*
X14301071Y-15328452D01*
X14282024Y-15337976D01*
X14262976Y-15337976D01*
X14243928Y-15328452D01*
X14234405Y-15318928D01*
X14224881Y-15299881D01*
X14215357Y-15261786D01*
X14215357Y-15214167D01*
X14224881Y-15176071D01*
X14234405Y-15157024D01*
X14243928Y-15147500D01*
X14262976Y-15137976D01*
X14415357Y-15318928D02*
X14424881Y-15328452D01*
X14415357Y-15337976D01*
X14405833Y-15328452D01*
X14415357Y-15318928D01*
X14415357Y-15337976D01*
X14548690Y-15137976D02*
X14567738Y-15137976D01*
X14586786Y-15147500D01*
X14596309Y-15157024D01*
X14605833Y-15176071D01*
X14615357Y-15214167D01*
X14615357Y-15261786D01*
X14605833Y-15299881D01*
X14596309Y-15318928D01*
X14586786Y-15328452D01*
X14567738Y-15337976D01*
X14548690Y-15337976D01*
X14529643Y-15328452D01*
X14520119Y-15318928D01*
X14510595Y-15299881D01*
X14501071Y-15261786D01*
X14501071Y-15214167D01*
X14510595Y-15176071D01*
X14520119Y-15157024D01*
X14529643Y-15147500D01*
X14548690Y-15137976D01*
X14805833Y-15337976D02*
X14691548Y-15337976D01*
X14748690Y-15337976D02*
X14748690Y-15137976D01*
X14729643Y-15166548D01*
X14710595Y-15185595D01*
X14691548Y-15195119D01*
X14986786Y-15137976D02*
X14891548Y-15137976D01*
X14882024Y-15233214D01*
X14891548Y-15223690D01*
X14910595Y-15214167D01*
X14958214Y-15214167D01*
X14977262Y-15223690D01*
X14986786Y-15233214D01*
X14996309Y-15252262D01*
X14996309Y-15299881D01*
X14986786Y-15318928D01*
X14977262Y-15328452D01*
X14958214Y-15337976D01*
X14910595Y-15337976D01*
X14891548Y-15328452D01*
X14882024Y-15318928D01*
X15062976Y-15137976D02*
X15196309Y-15137976D01*
X15110595Y-15337976D01*
X15262976Y-15137976D02*
X15262976Y-15176071D01*
X15339167Y-15137976D02*
X15339167Y-15176071D01*
X15634405Y-15414167D02*
X15624881Y-15404643D01*
X15605833Y-15376071D01*
X15596309Y-15357024D01*
X15586786Y-15328452D01*
X15577262Y-15280833D01*
X15577262Y-15242738D01*
X15586786Y-15195119D01*
X15596309Y-15166548D01*
X15605833Y-15147500D01*
X15624881Y-15118928D01*
X15634405Y-15109405D01*
X15691548Y-15137976D02*
X15824881Y-15137976D01*
X15739167Y-15337976D01*
X16053452Y-15337976D02*
X16053452Y-15137976D01*
X16139167Y-15337976D02*
X16139167Y-15233214D01*
X16129643Y-15214167D01*
X16110595Y-15204643D01*
X16082024Y-15204643D01*
X16062976Y-15214167D01*
X16053452Y-15223690D01*
X16262976Y-15337976D02*
X16243928Y-15328452D01*
X16234405Y-15318928D01*
X16224881Y-15299881D01*
X16224881Y-15242738D01*
X16234405Y-15223690D01*
X16243928Y-15214167D01*
X16262976Y-15204643D01*
X16291548Y-15204643D01*
X16310595Y-15214167D01*
X16320119Y-15223690D01*
X16329643Y-15242738D01*
X16329643Y-15299881D01*
X16320119Y-15318928D01*
X16310595Y-15328452D01*
X16291548Y-15337976D01*
X16262976Y-15337976D01*
X16443928Y-15337976D02*
X16424881Y-15328452D01*
X16415357Y-15309405D01*
X16415357Y-15137976D01*
X16596309Y-15328452D02*
X16577262Y-15337976D01*
X16539167Y-15337976D01*
X16520119Y-15328452D01*
X16510595Y-15309405D01*
X16510595Y-15233214D01*
X16520119Y-15214167D01*
X16539167Y-15204643D01*
X16577262Y-15204643D01*
X16596309Y-15214167D01*
X16605833Y-15233214D01*
X16605833Y-15252262D01*
X16510595Y-15271309D01*
X16682024Y-15328452D02*
X16701071Y-15337976D01*
X16739167Y-15337976D01*
X16758214Y-15328452D01*
X16767738Y-15309405D01*
X16767738Y-15299881D01*
X16758214Y-15280833D01*
X16739167Y-15271309D01*
X16710595Y-15271309D01*
X16691548Y-15261786D01*
X16682024Y-15242738D01*
X16682024Y-15233214D01*
X16691548Y-15214167D01*
X16710595Y-15204643D01*
X16739167Y-15204643D01*
X16758214Y-15214167D01*
X16834405Y-15414167D02*
X16843929Y-15404643D01*
X16862976Y-15376071D01*
X16872500Y-15357024D01*
X16882024Y-15328452D01*
X16891548Y-15280833D01*
X16891548Y-15242738D01*
X16882024Y-15195119D01*
X16872500Y-15166548D01*
X16862976Y-15147500D01*
X16843929Y-15118928D01*
X16834405Y-15109405D01*
D13*
X12062500Y-15511500D02*
G75*
G03*
X12062500Y-15511500I-40000J0D01*
G01*
D11*
X12358214Y-15401976D02*
X12377262Y-15401976D01*
X12396309Y-15411500D01*
X12405833Y-15421024D01*
X12415357Y-15440071D01*
X12424881Y-15478167D01*
X12424881Y-15525786D01*
X12415357Y-15563881D01*
X12405833Y-15582928D01*
X12396309Y-15592452D01*
X12377262Y-15601976D01*
X12358214Y-15601976D01*
X12339167Y-15592452D01*
X12329643Y-15582928D01*
X12320119Y-15563881D01*
X12310595Y-15525786D01*
X12310595Y-15478167D01*
X12320119Y-15440071D01*
X12329643Y-15421024D01*
X12339167Y-15411500D01*
X12358214Y-15401976D01*
X12510595Y-15582928D02*
X12520119Y-15592452D01*
X12510595Y-15601976D01*
X12501071Y-15592452D01*
X12510595Y-15582928D01*
X12510595Y-15601976D01*
X12634405Y-15487690D02*
X12615357Y-15478167D01*
X12605833Y-15468643D01*
X12596309Y-15449595D01*
X12596309Y-15440071D01*
X12605833Y-15421024D01*
X12615357Y-15411500D01*
X12634405Y-15401976D01*
X12672500Y-15401976D01*
X12691548Y-15411500D01*
X12701071Y-15421024D01*
X12710595Y-15440071D01*
X12710595Y-15449595D01*
X12701071Y-15468643D01*
X12691548Y-15478167D01*
X12672500Y-15487690D01*
X12634405Y-15487690D01*
X12615357Y-15497214D01*
X12605833Y-15506738D01*
X12596309Y-15525786D01*
X12596309Y-15563881D01*
X12605833Y-15582928D01*
X12615357Y-15592452D01*
X12634405Y-15601976D01*
X12672500Y-15601976D01*
X12691548Y-15592452D01*
X12701071Y-15582928D01*
X12710595Y-15563881D01*
X12710595Y-15525786D01*
X12701071Y-15506738D01*
X12691548Y-15497214D01*
X12672500Y-15487690D01*
X12834405Y-15401976D02*
X12853452Y-15401976D01*
X12872500Y-15411500D01*
X12882024Y-15421024D01*
X12891548Y-15440071D01*
X12901071Y-15478167D01*
X12901071Y-15525786D01*
X12891548Y-15563881D01*
X12882024Y-15582928D01*
X12872500Y-15592452D01*
X12853452Y-15601976D01*
X12834405Y-15601976D01*
X12815357Y-15592452D01*
X12805833Y-15582928D01*
X12796309Y-15563881D01*
X12786786Y-15525786D01*
X12786786Y-15478167D01*
X12796309Y-15440071D01*
X12805833Y-15421024D01*
X12815357Y-15411500D01*
X12834405Y-15401976D01*
X13024881Y-15401976D02*
X13043928Y-15401976D01*
X13062976Y-15411500D01*
X13072500Y-15421024D01*
X13082024Y-15440071D01*
X13091548Y-15478167D01*
X13091548Y-15525786D01*
X13082024Y-15563881D01*
X13072500Y-15582928D01*
X13062976Y-15592452D01*
X13043928Y-15601976D01*
X13024881Y-15601976D01*
X13005833Y-15592452D01*
X12996309Y-15582928D01*
X12986786Y-15563881D01*
X12977262Y-15525786D01*
X12977262Y-15478167D01*
X12986786Y-15440071D01*
X12996309Y-15421024D01*
X13005833Y-15411500D01*
X13024881Y-15401976D01*
X13177262Y-15601976D02*
X13177262Y-15468643D01*
X13177262Y-15487690D02*
X13186786Y-15478167D01*
X13205833Y-15468643D01*
X13234405Y-15468643D01*
X13253452Y-15478167D01*
X13262976Y-15497214D01*
X13262976Y-15601976D01*
X13262976Y-15497214D02*
X13272500Y-15478167D01*
X13291548Y-15468643D01*
X13320119Y-15468643D01*
X13339167Y-15478167D01*
X13348690Y-15497214D01*
X13348690Y-15601976D01*
X13443928Y-15601976D02*
X13443928Y-15468643D01*
X13443928Y-15487690D02*
X13453452Y-15478167D01*
X13472500Y-15468643D01*
X13501071Y-15468643D01*
X13520119Y-15478167D01*
X13529643Y-15497214D01*
X13529643Y-15601976D01*
X13529643Y-15497214D02*
X13539167Y-15478167D01*
X13558214Y-15468643D01*
X13586786Y-15468643D01*
X13605833Y-15478167D01*
X13615357Y-15497214D01*
X13615357Y-15601976D01*
X14005833Y-15392452D02*
X13834405Y-15649595D01*
X14262976Y-15401976D02*
X14282024Y-15401976D01*
X14301071Y-15411500D01*
X14310595Y-15421024D01*
X14320119Y-15440071D01*
X14329643Y-15478167D01*
X14329643Y-15525786D01*
X14320119Y-15563881D01*
X14310595Y-15582928D01*
X14301071Y-15592452D01*
X14282024Y-15601976D01*
X14262976Y-15601976D01*
X14243928Y-15592452D01*
X14234405Y-15582928D01*
X14224881Y-15563881D01*
X14215357Y-15525786D01*
X14215357Y-15478167D01*
X14224881Y-15440071D01*
X14234405Y-15421024D01*
X14243928Y-15411500D01*
X14262976Y-15401976D01*
X14415357Y-15582928D02*
X14424881Y-15592452D01*
X14415357Y-15601976D01*
X14405833Y-15592452D01*
X14415357Y-15582928D01*
X14415357Y-15601976D01*
X14548690Y-15401976D02*
X14567738Y-15401976D01*
X14586786Y-15411500D01*
X14596309Y-15421024D01*
X14605833Y-15440071D01*
X14615357Y-15478167D01*
X14615357Y-15525786D01*
X14605833Y-15563881D01*
X14596309Y-15582928D01*
X14586786Y-15592452D01*
X14567738Y-15601976D01*
X14548690Y-15601976D01*
X14529643Y-15592452D01*
X14520119Y-15582928D01*
X14510595Y-15563881D01*
X14501071Y-15525786D01*
X14501071Y-15478167D01*
X14510595Y-15440071D01*
X14520119Y-15421024D01*
X14529643Y-15411500D01*
X14548690Y-15401976D01*
X14682024Y-15401976D02*
X14805833Y-15401976D01*
X14739167Y-15478167D01*
X14767738Y-15478167D01*
X14786786Y-15487690D01*
X14796309Y-15497214D01*
X14805833Y-15516262D01*
X14805833Y-15563881D01*
X14796309Y-15582928D01*
X14786786Y-15592452D01*
X14767738Y-15601976D01*
X14710595Y-15601976D01*
X14691548Y-15592452D01*
X14682024Y-15582928D01*
X14996309Y-15601976D02*
X14882024Y-15601976D01*
X14939167Y-15601976D02*
X14939167Y-15401976D01*
X14920119Y-15430548D01*
X14901071Y-15449595D01*
X14882024Y-15459119D01*
X15177262Y-15401976D02*
X15082024Y-15401976D01*
X15072500Y-15497214D01*
X15082024Y-15487690D01*
X15101071Y-15478167D01*
X15148690Y-15478167D01*
X15167738Y-15487690D01*
X15177262Y-15497214D01*
X15186786Y-15516262D01*
X15186786Y-15563881D01*
X15177262Y-15582928D01*
X15167738Y-15592452D01*
X15148690Y-15601976D01*
X15101071Y-15601976D01*
X15082024Y-15592452D01*
X15072500Y-15582928D01*
X15262976Y-15401976D02*
X15262976Y-15440071D01*
X15339167Y-15401976D02*
X15339167Y-15440071D01*
X15634405Y-15678167D02*
X15624881Y-15668643D01*
X15605833Y-15640071D01*
X15596309Y-15621024D01*
X15586786Y-15592452D01*
X15577262Y-15544833D01*
X15577262Y-15506738D01*
X15586786Y-15459119D01*
X15596309Y-15430548D01*
X15605833Y-15411500D01*
X15624881Y-15382928D01*
X15634405Y-15373405D01*
X15815357Y-15601976D02*
X15701071Y-15601976D01*
X15758214Y-15601976D02*
X15758214Y-15401976D01*
X15739167Y-15430548D01*
X15720119Y-15449595D01*
X15701071Y-15459119D01*
X15910595Y-15601976D02*
X15948690Y-15601976D01*
X15967738Y-15592452D01*
X15977262Y-15582928D01*
X15996309Y-15554357D01*
X16005833Y-15516262D01*
X16005833Y-15440071D01*
X15996309Y-15421024D01*
X15986786Y-15411500D01*
X15967738Y-15401976D01*
X15929643Y-15401976D01*
X15910595Y-15411500D01*
X15901071Y-15421024D01*
X15891548Y-15440071D01*
X15891548Y-15487690D01*
X15901071Y-15506738D01*
X15910595Y-15516262D01*
X15929643Y-15525786D01*
X15967738Y-15525786D01*
X15986786Y-15516262D01*
X15996309Y-15506738D01*
X16005833Y-15487690D01*
X16177262Y-15401976D02*
X16139167Y-15401976D01*
X16120119Y-15411500D01*
X16110595Y-15421024D01*
X16091548Y-15449595D01*
X16082024Y-15487690D01*
X16082024Y-15563881D01*
X16091548Y-15582928D01*
X16101071Y-15592452D01*
X16120119Y-15601976D01*
X16158214Y-15601976D01*
X16177262Y-15592452D01*
X16186786Y-15582928D01*
X16196309Y-15563881D01*
X16196309Y-15516262D01*
X16186786Y-15497214D01*
X16177262Y-15487690D01*
X16158214Y-15478167D01*
X16120119Y-15478167D01*
X16101071Y-15487690D01*
X16091548Y-15497214D01*
X16082024Y-15516262D01*
X16434405Y-15601976D02*
X16434405Y-15401976D01*
X16520119Y-15601976D02*
X16520119Y-15497214D01*
X16510595Y-15478167D01*
X16491548Y-15468643D01*
X16462976Y-15468643D01*
X16443928Y-15478167D01*
X16434405Y-15487690D01*
X16643928Y-15601976D02*
X16624881Y-15592452D01*
X16615357Y-15582928D01*
X16605833Y-15563881D01*
X16605833Y-15506738D01*
X16615357Y-15487690D01*
X16624881Y-15478167D01*
X16643928Y-15468643D01*
X16672500Y-15468643D01*
X16691548Y-15478167D01*
X16701071Y-15487690D01*
X16710595Y-15506738D01*
X16710595Y-15563881D01*
X16701071Y-15582928D01*
X16691548Y-15592452D01*
X16672500Y-15601976D01*
X16643928Y-15601976D01*
X16824881Y-15601976D02*
X16805833Y-15592452D01*
X16796310Y-15573405D01*
X16796310Y-15401976D01*
X16977262Y-15592452D02*
X16958214Y-15601976D01*
X16920119Y-15601976D01*
X16901071Y-15592452D01*
X16891548Y-15573405D01*
X16891548Y-15497214D01*
X16901071Y-15478167D01*
X16920119Y-15468643D01*
X16958214Y-15468643D01*
X16977262Y-15478167D01*
X16986786Y-15497214D01*
X16986786Y-15516262D01*
X16891548Y-15535309D01*
X17062976Y-15592452D02*
X17082024Y-15601976D01*
X17120119Y-15601976D01*
X17139167Y-15592452D01*
X17148690Y-15573405D01*
X17148690Y-15563881D01*
X17139167Y-15544833D01*
X17120119Y-15535309D01*
X17091548Y-15535309D01*
X17072500Y-15525786D01*
X17062976Y-15506738D01*
X17062976Y-15497214D01*
X17072500Y-15478167D01*
X17091548Y-15468643D01*
X17120119Y-15468643D01*
X17139167Y-15478167D01*
X17215357Y-15678167D02*
X17224881Y-15668643D01*
X17243929Y-15640071D01*
X17253452Y-15621024D01*
X17262976Y-15592452D01*
X17272500Y-15544833D01*
X17272500Y-15506738D01*
X17262976Y-15459119D01*
X17253452Y-15430548D01*
X17243929Y-15411500D01*
X17224881Y-15382928D01*
X17215357Y-15373405D01*
D14*
X12007500Y-15720500D02*
X12007500Y-15830500D01*
X11952500Y-15775500D02*
X12062500Y-15775500D01*
D11*
X12424881Y-15865976D02*
X12310595Y-15865976D01*
X12367738Y-15865976D02*
X12367738Y-15665976D01*
X12348690Y-15694548D01*
X12329643Y-15713595D01*
X12310595Y-15723119D01*
X12510595Y-15846928D02*
X12520119Y-15856452D01*
X12510595Y-15865976D01*
X12501071Y-15856452D01*
X12510595Y-15846928D01*
X12510595Y-15865976D01*
X12710595Y-15865976D02*
X12596309Y-15865976D01*
X12653452Y-15865976D02*
X12653452Y-15665976D01*
X12634405Y-15694548D01*
X12615357Y-15713595D01*
X12596309Y-15723119D01*
X12834405Y-15665976D02*
X12853452Y-15665976D01*
X12872500Y-15675500D01*
X12882024Y-15685024D01*
X12891548Y-15704071D01*
X12901071Y-15742167D01*
X12901071Y-15789786D01*
X12891548Y-15827881D01*
X12882024Y-15846928D01*
X12872500Y-15856452D01*
X12853452Y-15865976D01*
X12834405Y-15865976D01*
X12815357Y-15856452D01*
X12805833Y-15846928D01*
X12796309Y-15827881D01*
X12786786Y-15789786D01*
X12786786Y-15742167D01*
X12796309Y-15704071D01*
X12805833Y-15685024D01*
X12815357Y-15675500D01*
X12834405Y-15665976D01*
X13024881Y-15665976D02*
X13043928Y-15665976D01*
X13062976Y-15675500D01*
X13072500Y-15685024D01*
X13082024Y-15704071D01*
X13091548Y-15742167D01*
X13091548Y-15789786D01*
X13082024Y-15827881D01*
X13072500Y-15846928D01*
X13062976Y-15856452D01*
X13043928Y-15865976D01*
X13024881Y-15865976D01*
X13005833Y-15856452D01*
X12996309Y-15846928D01*
X12986786Y-15827881D01*
X12977262Y-15789786D01*
X12977262Y-15742167D01*
X12986786Y-15704071D01*
X12996309Y-15685024D01*
X13005833Y-15675500D01*
X13024881Y-15665976D01*
X13177262Y-15865976D02*
X13177262Y-15732643D01*
X13177262Y-15751690D02*
X13186786Y-15742167D01*
X13205833Y-15732643D01*
X13234405Y-15732643D01*
X13253452Y-15742167D01*
X13262976Y-15761214D01*
X13262976Y-15865976D01*
X13262976Y-15761214D02*
X13272500Y-15742167D01*
X13291548Y-15732643D01*
X13320119Y-15732643D01*
X13339167Y-15742167D01*
X13348690Y-15761214D01*
X13348690Y-15865976D01*
X13443928Y-15865976D02*
X13443928Y-15732643D01*
X13443928Y-15751690D02*
X13453452Y-15742167D01*
X13472500Y-15732643D01*
X13501071Y-15732643D01*
X13520119Y-15742167D01*
X13529643Y-15761214D01*
X13529643Y-15865976D01*
X13529643Y-15761214D02*
X13539167Y-15742167D01*
X13558214Y-15732643D01*
X13586786Y-15732643D01*
X13605833Y-15742167D01*
X13615357Y-15761214D01*
X13615357Y-15865976D01*
X14005833Y-15656452D02*
X13834405Y-15913595D01*
X14262976Y-15665976D02*
X14282024Y-15665976D01*
X14301071Y-15675500D01*
X14310595Y-15685024D01*
X14320119Y-15704071D01*
X14329643Y-15742167D01*
X14329643Y-15789786D01*
X14320119Y-15827881D01*
X14310595Y-15846928D01*
X14301071Y-15856452D01*
X14282024Y-15865976D01*
X14262976Y-15865976D01*
X14243928Y-15856452D01*
X14234405Y-15846928D01*
X14224881Y-15827881D01*
X14215357Y-15789786D01*
X14215357Y-15742167D01*
X14224881Y-15704071D01*
X14234405Y-15685024D01*
X14243928Y-15675500D01*
X14262976Y-15665976D01*
X14415357Y-15846928D02*
X14424881Y-15856452D01*
X14415357Y-15865976D01*
X14405833Y-15856452D01*
X14415357Y-15846928D01*
X14415357Y-15865976D01*
X14548690Y-15665976D02*
X14567738Y-15665976D01*
X14586786Y-15675500D01*
X14596309Y-15685024D01*
X14605833Y-15704071D01*
X14615357Y-15742167D01*
X14615357Y-15789786D01*
X14605833Y-15827881D01*
X14596309Y-15846928D01*
X14586786Y-15856452D01*
X14567738Y-15865976D01*
X14548690Y-15865976D01*
X14529643Y-15856452D01*
X14520119Y-15846928D01*
X14510595Y-15827881D01*
X14501071Y-15789786D01*
X14501071Y-15742167D01*
X14510595Y-15704071D01*
X14520119Y-15685024D01*
X14529643Y-15675500D01*
X14548690Y-15665976D01*
X14786786Y-15732643D02*
X14786786Y-15865976D01*
X14739167Y-15656452D02*
X14691548Y-15799309D01*
X14815357Y-15799309D01*
X14872500Y-15665976D02*
X14996309Y-15665976D01*
X14929643Y-15742167D01*
X14958214Y-15742167D01*
X14977262Y-15751690D01*
X14986786Y-15761214D01*
X14996309Y-15780262D01*
X14996309Y-15827881D01*
X14986786Y-15846928D01*
X14977262Y-15856452D01*
X14958214Y-15865976D01*
X14901071Y-15865976D01*
X14882024Y-15856452D01*
X14872500Y-15846928D01*
X15062976Y-15665976D02*
X15186786Y-15665976D01*
X15120119Y-15742167D01*
X15148690Y-15742167D01*
X15167738Y-15751690D01*
X15177262Y-15761214D01*
X15186786Y-15780262D01*
X15186786Y-15827881D01*
X15177262Y-15846928D01*
X15167738Y-15856452D01*
X15148690Y-15865976D01*
X15091548Y-15865976D01*
X15072500Y-15856452D01*
X15062976Y-15846928D01*
X15262976Y-15665976D02*
X15262976Y-15704071D01*
X15339167Y-15665976D02*
X15339167Y-15704071D01*
X15634405Y-15942167D02*
X15624881Y-15932643D01*
X15605833Y-15904071D01*
X15596309Y-15885024D01*
X15586786Y-15856452D01*
X15577262Y-15808833D01*
X15577262Y-15770738D01*
X15586786Y-15723119D01*
X15596309Y-15694548D01*
X15605833Y-15675500D01*
X15624881Y-15646928D01*
X15634405Y-15637405D01*
X15701071Y-15685024D02*
X15710595Y-15675500D01*
X15729643Y-15665976D01*
X15777262Y-15665976D01*
X15796309Y-15675500D01*
X15805833Y-15685024D01*
X15815357Y-15704071D01*
X15815357Y-15723119D01*
X15805833Y-15751690D01*
X15691548Y-15865976D01*
X15815357Y-15865976D01*
X16053452Y-15865976D02*
X16053452Y-15665976D01*
X16139167Y-15865976D02*
X16139167Y-15761214D01*
X16129643Y-15742167D01*
X16110595Y-15732643D01*
X16082024Y-15732643D01*
X16062976Y-15742167D01*
X16053452Y-15751690D01*
X16262976Y-15865976D02*
X16243928Y-15856452D01*
X16234405Y-15846928D01*
X16224881Y-15827881D01*
X16224881Y-15770738D01*
X16234405Y-15751690D01*
X16243928Y-15742167D01*
X16262976Y-15732643D01*
X16291548Y-15732643D01*
X16310595Y-15742167D01*
X16320119Y-15751690D01*
X16329643Y-15770738D01*
X16329643Y-15827881D01*
X16320119Y-15846928D01*
X16310595Y-15856452D01*
X16291548Y-15865976D01*
X16262976Y-15865976D01*
X16443928Y-15865976D02*
X16424881Y-15856452D01*
X16415357Y-15837405D01*
X16415357Y-15665976D01*
X16596309Y-15856452D02*
X16577262Y-15865976D01*
X16539167Y-15865976D01*
X16520119Y-15856452D01*
X16510595Y-15837405D01*
X16510595Y-15761214D01*
X16520119Y-15742167D01*
X16539167Y-15732643D01*
X16577262Y-15732643D01*
X16596309Y-15742167D01*
X16605833Y-15761214D01*
X16605833Y-15780262D01*
X16510595Y-15799309D01*
X16682024Y-15856452D02*
X16701071Y-15865976D01*
X16739167Y-15865976D01*
X16758214Y-15856452D01*
X16767738Y-15837405D01*
X16767738Y-15827881D01*
X16758214Y-15808833D01*
X16739167Y-15799309D01*
X16710595Y-15799309D01*
X16691548Y-15789786D01*
X16682024Y-15770738D01*
X16682024Y-15761214D01*
X16691548Y-15742167D01*
X16710595Y-15732643D01*
X16739167Y-15732643D01*
X16758214Y-15742167D01*
X16834405Y-15942167D02*
X16843929Y-15932643D01*
X16862976Y-15904071D01*
X16872500Y-15885024D01*
X16882024Y-15856452D01*
X16891548Y-15808833D01*
X16891548Y-15770738D01*
X16882024Y-15723119D01*
X16872500Y-15694548D01*
X16862976Y-15675500D01*
X16843929Y-15646928D01*
X16834405Y-15637405D01*
M02*
