%TF.GenerationSoftware,KiCad,Pcbnew,(6.0.9)*%
%TF.CreationDate,2023-08-18T17:20:24+02:00*%
%TF.ProjectId,Sombrero_MSX_Goa'uld,536f6d62-7265-4726-9f5f-4d53585f476f,rev?*%
%TF.SameCoordinates,Original*%
%TF.FileFunction,Drillmap*%
%TF.FilePolarity,Positive*%
%FSLAX45Y45*%
G04 Gerber Fmt 4.5, Leading zero omitted, Abs format (unit mm)*
G04 Created by KiCad (PCBNEW (6.0.9)) date 2023-08-18 17:20:24*
%MOMM*%
%LPD*%
G01*
G04 APERTURE LIST*
%ADD10C,0.050000*%
%ADD11C,0.200000*%
G04 APERTURE END LIST*
D10*
X12065000Y-6477000D02*
X17399000Y-6477000D01*
X17399000Y-6477000D02*
X17399000Y-14605000D01*
X17399000Y-14605000D02*
X12065000Y-14605000D01*
X12065000Y-14605000D02*
X12065000Y-6477000D01*
D11*
X12320119Y-14917976D02*
X12320119Y-14717976D01*
X12367738Y-14717976D01*
X12396309Y-14727500D01*
X12415357Y-14746548D01*
X12424881Y-14765595D01*
X12434405Y-14803690D01*
X12434405Y-14832262D01*
X12424881Y-14870357D01*
X12415357Y-14889405D01*
X12396309Y-14908452D01*
X12367738Y-14917976D01*
X12320119Y-14917976D01*
X12520119Y-14917976D02*
X12520119Y-14784643D01*
X12520119Y-14822738D02*
X12529643Y-14803690D01*
X12539167Y-14794167D01*
X12558214Y-14784643D01*
X12577262Y-14784643D01*
X12643928Y-14917976D02*
X12643928Y-14784643D01*
X12643928Y-14717976D02*
X12634405Y-14727500D01*
X12643928Y-14737024D01*
X12653452Y-14727500D01*
X12643928Y-14717976D01*
X12643928Y-14737024D01*
X12767738Y-14917976D02*
X12748690Y-14908452D01*
X12739167Y-14889405D01*
X12739167Y-14717976D01*
X12872500Y-14917976D02*
X12853452Y-14908452D01*
X12843928Y-14889405D01*
X12843928Y-14717976D01*
X13101071Y-14917976D02*
X13101071Y-14717976D01*
X13167738Y-14860833D01*
X13234405Y-14717976D01*
X13234405Y-14917976D01*
X13415357Y-14917976D02*
X13415357Y-14813214D01*
X13405833Y-14794167D01*
X13386786Y-14784643D01*
X13348690Y-14784643D01*
X13329643Y-14794167D01*
X13415357Y-14908452D02*
X13396309Y-14917976D01*
X13348690Y-14917976D01*
X13329643Y-14908452D01*
X13320119Y-14889405D01*
X13320119Y-14870357D01*
X13329643Y-14851309D01*
X13348690Y-14841786D01*
X13396309Y-14841786D01*
X13415357Y-14832262D01*
X13510595Y-14784643D02*
X13510595Y-14984643D01*
X13510595Y-14794167D02*
X13529643Y-14784643D01*
X13567738Y-14784643D01*
X13586786Y-14794167D01*
X13596309Y-14803690D01*
X13605833Y-14822738D01*
X13605833Y-14879881D01*
X13596309Y-14898928D01*
X13586786Y-14908452D01*
X13567738Y-14917976D01*
X13529643Y-14917976D01*
X13510595Y-14908452D01*
X13691548Y-14898928D02*
X13701071Y-14908452D01*
X13691548Y-14917976D01*
X13682024Y-14908452D01*
X13691548Y-14898928D01*
X13691548Y-14917976D01*
X13691548Y-14794167D02*
X13701071Y-14803690D01*
X13691548Y-14813214D01*
X13682024Y-14803690D01*
X13691548Y-14794167D01*
X13691548Y-14813214D01*
M02*
