G04 #@! TF.GenerationSoftware,KiCad,Pcbnew,(6.0.9)*
G04 #@! TF.CreationDate,2024-02-12T22:17:00+01:00*
G04 #@! TF.ProjectId,Sombrero_MSX_Goa'uld,536f6d62-7265-4726-9f5f-4d53585f476f,rev?*
G04 #@! TF.SameCoordinates,Original*
G04 #@! TF.FileFunction,Copper,L2,Bot*
G04 #@! TF.FilePolarity,Positive*
%FSLAX46Y46*%
G04 Gerber Fmt 4.6, Leading zero omitted, Abs format (unit mm)*
G04 Created by KiCad (PCBNEW (6.0.9)) date 2024-02-12 22:17:00*
%MOMM*%
%LPD*%
G01*
G04 APERTURE LIST*
G04 #@! TA.AperFunction,ComponentPad*
%ADD10R,2.400000X1.600000*%
G04 #@! TD*
G04 #@! TA.AperFunction,ComponentPad*
%ADD11O,2.400000X1.600000*%
G04 #@! TD*
G04 #@! TA.AperFunction,ComponentPad*
%ADD12R,1.600000X2.400000*%
G04 #@! TD*
G04 #@! TA.AperFunction,ComponentPad*
%ADD13O,1.600000X2.400000*%
G04 #@! TD*
G04 #@! TA.AperFunction,ComponentPad*
%ADD14C,1.600000*%
G04 #@! TD*
G04 #@! TA.AperFunction,ComponentPad*
%ADD15R,1.600000X1.600000*%
G04 #@! TD*
G04 #@! TA.AperFunction,ComponentPad*
%ADD16O,1.600000X1.600000*%
G04 #@! TD*
G04 #@! TA.AperFunction,ComponentPad*
%ADD17R,2.200000X2.200000*%
G04 #@! TD*
G04 #@! TA.AperFunction,ComponentPad*
%ADD18O,2.200000X2.200000*%
G04 #@! TD*
G04 #@! TA.AperFunction,ViaPad*
%ADD19C,0.800000*%
G04 #@! TD*
G04 #@! TA.AperFunction,Conductor*
%ADD20C,0.450000*%
G04 #@! TD*
G04 #@! TA.AperFunction,Conductor*
%ADD21C,0.300000*%
G04 #@! TD*
G04 APERTURE END LIST*
D10*
X162570000Y-74935000D03*
D11*
X162570000Y-77475000D03*
X162570000Y-80015000D03*
X162570000Y-82555000D03*
X162570000Y-85095000D03*
X162570000Y-87635000D03*
X162570000Y-90175000D03*
X162570000Y-92715000D03*
X162570000Y-95255000D03*
X162570000Y-97795000D03*
X170190000Y-97795000D03*
X170190000Y-95255000D03*
X170190000Y-92715000D03*
X170190000Y-90175000D03*
X170190000Y-87635000D03*
X170190000Y-85095000D03*
X170190000Y-82555000D03*
X170190000Y-80015000D03*
X170190000Y-77475000D03*
X170190000Y-74935000D03*
D10*
X137175000Y-80005000D03*
D11*
X137175000Y-82545000D03*
X137175000Y-85085000D03*
X137175000Y-87625000D03*
X137175000Y-90165000D03*
X137175000Y-92705000D03*
X137175000Y-95245000D03*
X137175000Y-97785000D03*
X137175000Y-100325000D03*
X137175000Y-102865000D03*
X137175000Y-105405000D03*
X137175000Y-107945000D03*
X137175000Y-110485000D03*
X137175000Y-113025000D03*
X137175000Y-115565000D03*
X137175000Y-118105000D03*
X137175000Y-120645000D03*
X137175000Y-123185000D03*
X137175000Y-125725000D03*
X137175000Y-128265000D03*
X157495000Y-128265000D03*
X157495000Y-125725000D03*
X157495000Y-123185000D03*
X157495000Y-120645000D03*
X157495000Y-118105000D03*
X157495000Y-115565000D03*
X157495000Y-113025000D03*
X157495000Y-110485000D03*
X157495000Y-107945000D03*
X157495000Y-105405000D03*
X157495000Y-102865000D03*
X157495000Y-100325000D03*
X157495000Y-97785000D03*
X157495000Y-95245000D03*
X157495000Y-92705000D03*
X157495000Y-90165000D03*
X157495000Y-87625000D03*
X157495000Y-85085000D03*
X157495000Y-82545000D03*
X157495000Y-80005000D03*
D12*
X160020000Y-135890000D03*
D13*
X157480000Y-135890000D03*
X154940000Y-135890000D03*
X152400000Y-135890000D03*
X149860000Y-135890000D03*
X147320000Y-135890000D03*
X144780000Y-135890000D03*
X142240000Y-135890000D03*
X139700000Y-135890000D03*
X137160000Y-135890000D03*
X137160000Y-143510000D03*
X139700000Y-143510000D03*
X142240000Y-143510000D03*
X144780000Y-143510000D03*
X147320000Y-143510000D03*
X149860000Y-143510000D03*
X152400000Y-143510000D03*
X154940000Y-143510000D03*
X157480000Y-143510000D03*
X160020000Y-143510000D03*
D10*
X132095000Y-129515000D03*
D11*
X132095000Y-126975000D03*
X132095000Y-124435000D03*
X132095000Y-121895000D03*
X132095000Y-119355000D03*
X132095000Y-116815000D03*
X132095000Y-114275000D03*
X132095000Y-111735000D03*
X132095000Y-109195000D03*
X132095000Y-106655000D03*
X124475000Y-106655000D03*
X124475000Y-109195000D03*
X124475000Y-111735000D03*
X124475000Y-114275000D03*
X124475000Y-116815000D03*
X124475000Y-119355000D03*
X124475000Y-121895000D03*
X124475000Y-124435000D03*
X124475000Y-126975000D03*
X124475000Y-129515000D03*
D14*
X163830000Y-133350000D03*
X168830000Y-133350000D03*
D10*
X170115000Y-129535000D03*
D11*
X170115000Y-126995000D03*
X170115000Y-124455000D03*
X170115000Y-121915000D03*
X170115000Y-119375000D03*
X170115000Y-116835000D03*
X170115000Y-114295000D03*
X170115000Y-111755000D03*
X170115000Y-109215000D03*
X170115000Y-106675000D03*
X162495000Y-106675000D03*
X162495000Y-109215000D03*
X162495000Y-111755000D03*
X162495000Y-114295000D03*
X162495000Y-116835000D03*
X162495000Y-119375000D03*
X162495000Y-121915000D03*
X162495000Y-124455000D03*
X162495000Y-126995000D03*
X162495000Y-129535000D03*
D14*
X158750000Y-71120000D03*
X158750000Y-76120000D03*
X165100000Y-142200000D03*
X165100000Y-137200000D03*
D15*
X152400000Y-71120000D03*
D14*
X152400000Y-67620000D03*
X125730000Y-134620000D03*
X130730000Y-134620000D03*
D15*
X139710000Y-76200000D03*
D16*
X139710000Y-78740000D03*
X139710000Y-81280000D03*
X139710000Y-83820000D03*
X139710000Y-86360000D03*
X139710000Y-88900000D03*
X139710000Y-91440000D03*
X139710000Y-93980000D03*
X139710000Y-96520000D03*
X139710000Y-99060000D03*
X139710000Y-101600000D03*
X139710000Y-104140000D03*
X139710000Y-106680000D03*
X139710000Y-109220000D03*
X139710000Y-111760000D03*
X139710000Y-114300000D03*
X139710000Y-116840000D03*
X139710000Y-119380000D03*
X139710000Y-121920000D03*
X139710000Y-124460000D03*
X154950000Y-124460000D03*
X154950000Y-121920000D03*
X154950000Y-119380000D03*
X154950000Y-116840000D03*
X154950000Y-114300000D03*
X154950000Y-111760000D03*
X154950000Y-109220000D03*
X154950000Y-106680000D03*
X154950000Y-104140000D03*
X154950000Y-101600000D03*
X154950000Y-99060000D03*
X154950000Y-96520000D03*
X154950000Y-93980000D03*
X154950000Y-91440000D03*
X154950000Y-88900000D03*
X154950000Y-86360000D03*
X154950000Y-83820000D03*
X154950000Y-81280000D03*
X154950000Y-78740000D03*
X154950000Y-76200000D03*
D14*
X168910000Y-69855000D03*
X163910000Y-69855000D03*
X130765000Y-69865000D03*
X125765000Y-69865000D03*
D17*
X147340000Y-111760000D03*
D18*
X147340000Y-101600000D03*
D10*
X124455000Y-74935000D03*
D11*
X124455000Y-77475000D03*
X124455000Y-80015000D03*
X124455000Y-82555000D03*
X124455000Y-85095000D03*
X124455000Y-87635000D03*
X124455000Y-90175000D03*
X124455000Y-92715000D03*
X124455000Y-95255000D03*
X124455000Y-97795000D03*
X132075000Y-97795000D03*
X132075000Y-95255000D03*
X132075000Y-92715000D03*
X132075000Y-90175000D03*
X132075000Y-87635000D03*
X132075000Y-85095000D03*
X132075000Y-82555000D03*
X132075000Y-80015000D03*
X132075000Y-77475000D03*
X132075000Y-74935000D03*
D14*
X124460000Y-138430000D03*
D16*
X132080000Y-138430000D03*
D19*
X144952800Y-100345200D03*
X142829800Y-113267900D03*
X159972500Y-93817200D03*
X149413000Y-108293700D03*
D20*
X159445800Y-145135800D02*
X163971900Y-145135800D01*
X170115000Y-129535000D02*
X162495000Y-129535000D01*
X137175000Y-125725000D02*
X135549900Y-125725000D01*
X155802900Y-139700000D02*
X158705200Y-142602300D01*
X166370800Y-140313000D02*
X163830000Y-137772200D01*
X129890100Y-125725000D02*
X135549900Y-125725000D01*
X126100100Y-129515000D02*
X129890100Y-125725000D01*
X125730000Y-129515000D02*
X126100100Y-129515000D01*
X163830000Y-137772200D02*
X163830000Y-133350000D01*
X166370800Y-142736900D02*
X166370800Y-140313000D01*
X163971900Y-145135800D02*
X166370800Y-142736900D01*
X158705200Y-142602300D02*
X158705200Y-144395200D01*
X124460000Y-138430000D02*
X125730000Y-137160000D01*
X128270000Y-139700000D02*
X155802900Y-139700000D01*
X125730000Y-137160000D02*
X128270000Y-139700000D01*
X125730000Y-137160000D02*
X125730000Y-134620000D01*
X124475000Y-129515000D02*
X125730000Y-129515000D01*
X125730000Y-134620000D02*
X125730000Y-129515000D01*
X158705200Y-144395200D02*
X159445800Y-145135800D01*
X123593700Y-110465000D02*
X122829900Y-109701200D01*
X154635000Y-69855000D02*
X163910000Y-69855000D01*
X162570000Y-74935000D02*
X160944900Y-74935000D01*
X137160000Y-134427400D02*
X135549900Y-132817300D01*
X169681400Y-106675000D02*
X169707900Y-106675000D01*
X168489900Y-106675000D02*
X163367500Y-101552600D01*
X157480000Y-143510000D02*
X157480000Y-145135100D01*
X159759900Y-76120000D02*
X158750000Y-76120000D01*
X169681400Y-106675000D02*
X168489900Y-106675000D01*
X122829900Y-109701200D02*
X122829900Y-97795000D01*
X139700000Y-143510000D02*
X139700000Y-145135100D01*
X160944900Y-74935000D02*
X159759900Y-76120000D01*
X128010000Y-67620000D02*
X125765000Y-69865000D01*
X170115000Y-106675000D02*
X169681400Y-106675000D01*
X158357500Y-104140000D02*
X160944900Y-101552600D01*
X125730200Y-110465000D02*
X123593700Y-110465000D01*
X122849900Y-126975000D02*
X122849900Y-111208800D01*
X122849900Y-111208800D02*
X123593700Y-110465000D01*
X124475000Y-126975000D02*
X122849900Y-126975000D01*
X170115000Y-116835000D02*
X171740100Y-116835000D01*
X132095000Y-106655000D02*
X129540200Y-106655000D01*
X162495000Y-126995000D02*
X170115000Y-126995000D01*
X135549900Y-132817300D02*
X135549900Y-128265000D01*
X137175000Y-128265000D02*
X135549900Y-128265000D01*
X171740100Y-108707200D02*
X171740100Y-116835000D01*
X137160000Y-145135100D02*
X139700000Y-145135100D01*
X130730000Y-134620000D02*
X130922600Y-134427400D01*
X137160000Y-135890000D02*
X137160000Y-134427400D01*
X152400000Y-67620000D02*
X154635000Y-69855000D01*
X152400000Y-67620000D02*
X128010000Y-67620000D01*
X154950000Y-104140000D02*
X158357500Y-104140000D01*
X129540200Y-106655000D02*
X125730200Y-110465000D01*
X168830000Y-133470000D02*
X168830000Y-133350000D01*
X169707900Y-106675000D02*
X171740100Y-108707200D01*
X137160000Y-143510000D02*
X137160000Y-145135100D01*
X160944900Y-101552600D02*
X160944900Y-97795000D01*
X124455000Y-97795000D02*
X122829900Y-97795000D01*
X163367500Y-101552600D02*
X160944900Y-101552600D01*
X165100000Y-137200000D02*
X168830000Y-133470000D01*
X162570000Y-97795000D02*
X160944900Y-97795000D01*
X130922600Y-134427400D02*
X137160000Y-134427400D01*
X157480000Y-145135100D02*
X139700000Y-145135100D01*
X147340000Y-101600000D02*
X139710000Y-101600000D01*
D21*
X127372400Y-76190200D02*
X127372400Y-78647700D01*
X155165300Y-73316700D02*
X142572800Y-73316700D01*
X157175100Y-75326500D02*
X155165300Y-73316700D01*
X162570000Y-80015000D02*
X160976100Y-80015000D01*
X160976100Y-80015000D02*
X157175100Y-76214000D01*
X130795300Y-72767300D02*
X127372400Y-76190200D01*
X142572800Y-73316700D02*
X142023400Y-72767300D01*
X157175100Y-76214000D02*
X157175100Y-75326500D01*
X124455000Y-80015000D02*
X126005100Y-80015000D01*
X127372400Y-78647700D02*
X126005100Y-80015000D01*
X142023400Y-72767300D02*
X130795300Y-72767300D01*
X148698200Y-72816600D02*
X164045300Y-72816600D01*
X124455000Y-82555000D02*
X122904900Y-82555000D01*
X126505300Y-76350100D02*
X130588200Y-72267200D01*
X170976300Y-76205000D02*
X171770200Y-76998900D01*
X126505300Y-77462600D02*
X126505300Y-76350100D01*
X167989400Y-78685700D02*
X164120100Y-82555000D01*
X130588200Y-72267200D02*
X148148800Y-72267200D01*
X171770200Y-77928900D02*
X171013400Y-78685700D01*
X162570000Y-82555000D02*
X164120100Y-82555000D01*
X148148800Y-72267200D02*
X148698200Y-72816600D01*
X123690500Y-78745000D02*
X125222900Y-78745000D01*
X171013400Y-78685700D02*
X167989400Y-78685700D01*
X122904900Y-82555000D02*
X122904900Y-79530600D01*
X122904900Y-79530600D02*
X123690500Y-78745000D01*
X171770200Y-76998900D02*
X171770200Y-77928900D01*
X167433700Y-76205000D02*
X170976300Y-76205000D01*
X164045300Y-72816600D02*
X167433700Y-76205000D01*
X125222900Y-78745000D02*
X126505300Y-77462600D01*
X121890700Y-89160800D02*
X121890700Y-77992300D01*
X149877600Y-72270200D02*
X169582200Y-72270200D01*
X172301600Y-74989600D02*
X172301600Y-87569300D01*
X122904900Y-90175000D02*
X121890700Y-89160800D01*
X123740200Y-76142800D02*
X125753700Y-76142800D01*
X172301600Y-87569300D02*
X171085700Y-88785200D01*
X169582200Y-72270200D02*
X172301600Y-74989600D01*
X171085700Y-88785200D02*
X169322300Y-88785200D01*
X149374500Y-71767100D02*
X149877600Y-72270200D01*
X121890700Y-77992300D02*
X123740200Y-76142800D01*
X167932500Y-90175000D02*
X162570000Y-90175000D01*
X124455000Y-90175000D02*
X122904900Y-90175000D01*
X130129400Y-71767100D02*
X149374500Y-71767100D01*
X125753700Y-76142800D02*
X130129400Y-71767100D01*
X169322300Y-88785200D02*
X167932500Y-90175000D01*
X138088400Y-96525000D02*
X139348400Y-97785000D01*
X126005100Y-92715000D02*
X129815100Y-96525000D01*
X124455000Y-92715000D02*
X126005100Y-92715000D01*
X139348400Y-97785000D02*
X157495000Y-97785000D01*
X129815100Y-96525000D02*
X138088400Y-96525000D01*
X157480000Y-135890000D02*
X157480000Y-134339900D01*
X139710000Y-121920000D02*
X145060100Y-121920000D01*
X145060100Y-121920000D02*
X157480000Y-134339900D01*
X139710000Y-124460000D02*
X145060100Y-124460000D01*
X145060100Y-124460000D02*
X154940000Y-134339900D01*
X154940000Y-135890000D02*
X154940000Y-134339900D01*
X154950000Y-111760000D02*
X159113400Y-111760000D01*
X159113400Y-111760000D02*
X160378400Y-113025000D01*
X160378400Y-113025000D02*
X167294900Y-113025000D01*
X167294900Y-113025000D02*
X168564900Y-114295000D01*
X170115000Y-114295000D02*
X168564900Y-114295000D01*
X160997500Y-110604800D02*
X159727500Y-109334800D01*
X170115000Y-111755000D02*
X168564900Y-111755000D01*
X151740300Y-105194700D02*
X151740300Y-103876500D01*
X167414700Y-110604800D02*
X160997500Y-110604800D01*
X156774900Y-109334800D02*
X155390100Y-107950000D01*
X154495600Y-107950000D02*
X151740300Y-105194700D01*
X159727500Y-109334800D02*
X156774900Y-109334800D01*
X151740300Y-103876500D02*
X147977500Y-100113700D01*
X145184300Y-100113700D02*
X144952800Y-100345200D01*
X168564900Y-111755000D02*
X167414700Y-110604800D01*
X147977500Y-100113700D02*
X145184300Y-100113700D01*
X155390100Y-107950000D02*
X154495600Y-107950000D01*
X138030100Y-116815000D02*
X132095000Y-116815000D01*
X142829800Y-113267900D02*
X140647500Y-115450200D01*
X140647500Y-115450200D02*
X139394900Y-115450200D01*
X139394900Y-115450200D02*
X138030100Y-116815000D01*
X136160100Y-106680000D02*
X133645100Y-109195000D01*
X132095000Y-109195000D02*
X133645100Y-109195000D01*
X139710000Y-106680000D02*
X136160100Y-106680000D01*
X154950000Y-93980000D02*
X159074600Y-93980000D01*
X160349600Y-95255000D02*
X161019900Y-95255000D01*
X159074600Y-93980000D02*
X160349600Y-95255000D01*
X162570000Y-95255000D02*
X161019900Y-95255000D01*
X171740100Y-92208700D02*
X171740100Y-95255000D01*
X171063400Y-91532000D02*
X171740100Y-92208700D01*
X160056400Y-93901100D02*
X166553700Y-93901100D01*
X168922800Y-91532000D02*
X171063400Y-91532000D01*
X170190000Y-95255000D02*
X171740100Y-95255000D01*
X159972500Y-93817200D02*
X160056400Y-93901100D01*
X166553700Y-93901100D02*
X168922800Y-91532000D01*
X168639900Y-87635000D02*
X167374900Y-88900000D01*
X167374900Y-88900000D02*
X154950000Y-88900000D01*
X170190000Y-87635000D02*
X168639900Y-87635000D01*
X170190000Y-85095000D02*
X168639900Y-85095000D01*
X167374900Y-86360000D02*
X168639900Y-85095000D01*
X154950000Y-86360000D02*
X167374900Y-86360000D01*
X160845300Y-81285000D02*
X164120200Y-81285000D01*
X167930200Y-77475000D02*
X170190000Y-77475000D01*
X158310300Y-83820000D02*
X160845300Y-81285000D01*
X154950000Y-83820000D02*
X158310300Y-83820000D01*
X164120200Y-81285000D02*
X167930200Y-77475000D01*
X140774200Y-73767600D02*
X141323500Y-74316900D01*
X128692000Y-76288200D02*
X131212600Y-73767600D01*
X156105500Y-75707000D02*
X156105500Y-76672700D01*
X154950000Y-78740000D02*
X154950000Y-77589900D01*
X126005100Y-85095000D02*
X128692000Y-82408100D01*
X156105500Y-76672700D02*
X155188300Y-77589900D01*
X155188300Y-77589900D02*
X154950000Y-77589900D01*
X131212600Y-73767600D02*
X140774200Y-73767600D01*
X124455000Y-85095000D02*
X126005100Y-85095000D01*
X154715400Y-74316900D02*
X156105500Y-75707000D01*
X141323500Y-74316900D02*
X154715400Y-74316900D01*
X128692000Y-82408100D02*
X128692000Y-76288200D01*
X139710000Y-85209900D02*
X139359100Y-85209900D01*
X133625100Y-81040600D02*
X133625100Y-77475000D01*
X137964200Y-83815000D02*
X136399500Y-83815000D01*
X139710000Y-86360000D02*
X139710000Y-85209900D01*
X136399500Y-83815000D02*
X133625100Y-81040600D01*
X132075000Y-77475000D02*
X133625100Y-77475000D01*
X139359100Y-85209900D02*
X137964200Y-83815000D01*
X124455000Y-87635000D02*
X126005100Y-87635000D01*
X154950000Y-76200000D02*
X153799900Y-76200000D01*
X129442100Y-84198000D02*
X129442100Y-78068600D01*
X134375500Y-77353800D02*
X152646100Y-77353800D01*
X133324300Y-76302600D02*
X134375500Y-77353800D01*
X131208100Y-76302600D02*
X133324300Y-76302600D01*
X152646100Y-77353800D02*
X153799900Y-76200000D01*
X129442100Y-78068600D02*
X131208100Y-76302600D01*
X126005100Y-87635000D02*
X129442100Y-84198000D01*
X122394000Y-82805100D02*
X123304000Y-83715100D01*
X124237400Y-77475000D02*
X122394000Y-79318400D01*
X128049100Y-76220700D02*
X131002400Y-73267400D01*
X156675000Y-75533600D02*
X156675000Y-76539600D01*
X154958200Y-73816800D02*
X156675000Y-75533600D01*
X156675000Y-76539600D02*
X159052000Y-78916600D01*
X125324500Y-83715100D02*
X128049100Y-80990500D01*
X131002400Y-73267400D02*
X141566100Y-73267400D01*
X158246600Y-81280000D02*
X154950000Y-81280000D01*
X122394000Y-79318400D02*
X122394000Y-82805100D01*
X124455000Y-77475000D02*
X124237400Y-77475000D01*
X142115500Y-73816800D02*
X154958200Y-73816800D01*
X123304000Y-83715100D02*
X125324500Y-83715100D01*
X159052000Y-80474600D02*
X158246600Y-81280000D01*
X128049100Y-80990500D02*
X128049100Y-76220700D01*
X159052000Y-78916600D02*
X159052000Y-80474600D01*
X141566100Y-73267400D02*
X142115500Y-73816800D01*
X160245100Y-96445000D02*
X164909900Y-96445000D01*
X139348400Y-95245000D02*
X157495000Y-95245000D01*
X170190000Y-92715000D02*
X168639900Y-92715000D01*
X138078400Y-93975000D02*
X139348400Y-95245000D01*
X164909900Y-96445000D02*
X168639900Y-92715000D01*
X132075000Y-92715000D02*
X133625100Y-92715000D01*
X159045100Y-95245000D02*
X160245100Y-96445000D01*
X133625100Y-92715000D02*
X134885100Y-93975000D01*
X134885100Y-93975000D02*
X138078400Y-93975000D01*
X157495000Y-95245000D02*
X159045100Y-95245000D01*
X167250100Y-91564800D02*
X168639900Y-90175000D01*
X138078400Y-91435000D02*
X139348400Y-92705000D01*
X159045100Y-92705000D02*
X160185300Y-91564800D01*
X160185300Y-91564800D02*
X167250100Y-91564800D01*
X157495000Y-92705000D02*
X159045100Y-92705000D01*
X132075000Y-90175000D02*
X133625100Y-90175000D01*
X134885100Y-91435000D02*
X138078400Y-91435000D01*
X133625100Y-90175000D02*
X134885100Y-91435000D01*
X170190000Y-90175000D02*
X168639900Y-90175000D01*
X139348400Y-92705000D02*
X157495000Y-92705000D01*
X132075000Y-82555000D02*
X132075000Y-82794500D01*
X134749800Y-85469300D02*
X134749800Y-87245300D01*
X132075000Y-82794500D02*
X134749800Y-85469300D01*
X139348400Y-90165000D02*
X157495000Y-90165000D01*
X138078400Y-88895000D02*
X139348400Y-90165000D01*
X136399500Y-88895000D02*
X138078400Y-88895000D01*
X134749800Y-87245300D02*
X136399500Y-88895000D01*
X167294900Y-118105000D02*
X168564900Y-119375000D01*
X160378400Y-118105000D02*
X167294900Y-118105000D01*
X159113400Y-116840000D02*
X160378400Y-118105000D01*
X170115000Y-119375000D02*
X168564900Y-119375000D01*
X154950000Y-116840000D02*
X159113400Y-116840000D01*
X140860100Y-114176900D02*
X140860100Y-114300000D01*
X139710000Y-114300000D02*
X140860100Y-114300000D01*
X149413000Y-108293700D02*
X146743300Y-108293700D01*
X146743300Y-108293700D02*
X140860100Y-114176900D01*
X164829900Y-83825000D02*
X168639900Y-80015000D01*
X170190000Y-80015000D02*
X168639900Y-80015000D01*
X135008500Y-85020600D02*
X136342900Y-86355000D01*
X157495000Y-85085000D02*
X159045100Y-85085000D01*
X149673800Y-87530700D02*
X152119500Y-85085000D01*
X136342900Y-86355000D02*
X138078400Y-86355000D01*
X135008500Y-83412700D02*
X135008500Y-85020600D01*
X139254100Y-87530700D02*
X149673800Y-87530700D01*
X160305100Y-83825000D02*
X164829900Y-83825000D01*
X159045100Y-85085000D02*
X160305100Y-83825000D01*
X132075000Y-80015000D02*
X132075000Y-80479200D01*
X132075000Y-80479200D02*
X135008500Y-83412700D01*
X138078400Y-86355000D02*
X139254100Y-87530700D01*
X152119500Y-85085000D02*
X157495000Y-85085000D01*
D20*
X147630000Y-113285100D02*
X147340000Y-113285100D01*
X167645000Y-71120000D02*
X168910000Y-69855000D01*
X163830000Y-140930000D02*
X161272100Y-140930000D01*
X154141100Y-119380000D02*
X153724900Y-119380000D01*
X153686800Y-126632100D02*
X161272100Y-134217400D01*
X160974900Y-140930000D02*
X160020000Y-141884900D01*
X141245100Y-119380000D02*
X140935100Y-119380000D01*
X147340000Y-111760000D02*
X147340000Y-113285100D01*
X160020000Y-143510000D02*
X160020000Y-141884900D01*
X139710000Y-119380000D02*
X140935100Y-119380000D01*
X149919900Y-69865000D02*
X151174900Y-71120000D01*
X130765000Y-69865000D02*
X149919900Y-69865000D01*
X161272100Y-134217400D02*
X161272100Y-140930000D01*
X158750000Y-71120000D02*
X167645000Y-71120000D01*
X154141100Y-119380000D02*
X153686800Y-119834300D01*
X153724900Y-119380000D02*
X147630000Y-113285100D01*
X154950000Y-119380000D02*
X154141100Y-119380000D01*
X152400000Y-71120000D02*
X151174900Y-71120000D01*
X153686800Y-119834300D02*
X153686800Y-126632100D01*
X165100000Y-142200000D02*
X163830000Y-140930000D01*
X147340000Y-113285100D02*
X141245100Y-119380000D01*
X161272100Y-140930000D02*
X160974900Y-140930000D01*
D21*
X162495000Y-116835000D02*
X160944900Y-116835000D01*
X150163100Y-107983000D02*
X145050100Y-102870000D01*
X145050100Y-102870000D02*
X139206600Y-102870000D01*
X150163100Y-108604600D02*
X150163100Y-107983000D01*
X160944900Y-116835000D02*
X158524700Y-114414800D01*
X137993000Y-101656400D02*
X136413700Y-101656400D01*
X137175000Y-97785000D02*
X135624900Y-97785000D01*
X139206600Y-102870000D02*
X137993000Y-101656400D01*
X136413700Y-101656400D02*
X135624900Y-100867600D01*
X155390100Y-113030000D02*
X154588500Y-113030000D01*
X156774900Y-114414800D02*
X155390100Y-113030000D01*
X154588500Y-113030000D02*
X150163100Y-108604600D01*
X158524700Y-114414800D02*
X156774900Y-114414800D01*
X135624900Y-100867600D02*
X135624900Y-97785000D01*
X142922100Y-99578200D02*
X142175300Y-100325000D01*
X162495000Y-106675000D02*
X156655100Y-106675000D01*
X148677800Y-99578200D02*
X142922100Y-99578200D01*
X142175300Y-100325000D02*
X137175000Y-100325000D01*
X154509600Y-105410000D02*
X148677800Y-99578200D01*
X155390100Y-105410000D02*
X154509600Y-105410000D01*
X156655100Y-106675000D02*
X155390100Y-105410000D01*
X157495000Y-107945000D02*
X159045100Y-107945000D01*
X162495000Y-109215000D02*
X160315100Y-109215000D01*
X160315100Y-109215000D02*
X159045100Y-107945000D01*
X157495000Y-110485000D02*
X159674900Y-110485000D01*
X162495000Y-111755000D02*
X160944900Y-111755000D01*
X159674900Y-110485000D02*
X160944900Y-111755000D01*
X124475000Y-106655000D02*
X126025100Y-106655000D01*
X129815100Y-102865000D02*
X135624900Y-102865000D01*
X126025100Y-106655000D02*
X129815100Y-102865000D01*
X137175000Y-102865000D02*
X135624900Y-102865000D01*
X124475000Y-109195000D02*
X126025100Y-109195000D01*
X129815100Y-105405000D02*
X137175000Y-105405000D01*
X126025100Y-109195000D02*
X129815100Y-105405000D01*
X132985100Y-110584800D02*
X135624900Y-107945000D01*
X127420800Y-111735000D02*
X128571000Y-110584800D01*
X128571000Y-110584800D02*
X132985100Y-110584800D01*
X124475000Y-111735000D02*
X127420800Y-111735000D01*
X137175000Y-107945000D02*
X135624900Y-107945000D01*
X137175000Y-110485000D02*
X135624900Y-110485000D01*
X127275100Y-113025000D02*
X133084900Y-113025000D01*
X126025100Y-114275000D02*
X127275100Y-113025000D01*
X124475000Y-114275000D02*
X126025100Y-114275000D01*
X133084900Y-113025000D02*
X135624900Y-110485000D01*
X137175000Y-115565000D02*
X129815100Y-115565000D01*
X124475000Y-119355000D02*
X126025100Y-119355000D01*
X129815100Y-115565000D02*
X126025100Y-119355000D01*
X124475000Y-121895000D02*
X126025100Y-121895000D01*
X129815100Y-118105000D02*
X126025100Y-121895000D01*
X137175000Y-118105000D02*
X129815100Y-118105000D01*
X126025100Y-124435000D02*
X129815100Y-120645000D01*
X124475000Y-124435000D02*
X126025100Y-124435000D01*
X129815100Y-120645000D02*
X137175000Y-120645000D01*
M02*
