M48
; DRILL file {KiCad (6.0.9)} date Sat Nov 23 18:31:44 2024
; FORMAT={-:-/ absolute / metric / decimal}
; #@! TF.CreationDate,2024-11-23T18:31:44+01:00
; #@! TF.GenerationSoftware,Kicad,Pcbnew,(6.0.9)
; #@! TF.FileFunction,Plated,1,4,PTH
FMAT,2
METRIC
; #@! TA.AperFunction,Plated,PTH,ViaDrill
T1C0.400
; #@! TA.AperFunction,Plated,PTH,ComponentDrill
T2C0.800
%
G90
G05
T1
X141.352Y-115.736
X142.163Y-95.845
X142.337Y-109.625
X142.991Y-97.197
X143.032Y-99.53
X143.07Y-108.155
X144.1Y-117.789
X144.479Y-98.095
X144.595Y-107.78
X144.778Y-82.617
X144.857Y-100.928
X144.858Y-104.671
X144.987Y-117.224
X145.571Y-113.072
X145.867Y-105.801
X146.584Y-113.344
X147.06Y-119.629
X147.159Y-108.768
X147.28Y-85.326
X147.395Y-100.128
X147.675Y-122.353
X147.961Y-88.63
X148.026Y-82.499
X148.696Y-89.985
X149.218Y-122.34
X149.224Y-100.087
X149.466Y-113.728
X149.788Y-114.78
X149.861Y-120.207
X150.078Y-89.245
X150.193Y-82.342
X150.243Y-122.881
X150.39Y-105.809
X150.885Y-83.191
X151.173Y-85.553
T2
X137.16Y-77.47
X137.16Y-80.01
X137.16Y-82.55
X137.16Y-85.09
X137.16Y-87.63
X137.16Y-90.17
X137.16Y-92.71
X137.16Y-95.25
X137.16Y-97.79
X137.16Y-100.33
X137.16Y-102.87
X137.16Y-105.41
X137.16Y-107.95
X137.16Y-110.49
X137.16Y-113.03
X137.16Y-115.57
X137.16Y-118.11
X137.16Y-120.65
X137.16Y-123.19
X137.16Y-125.73
X139.71Y-76.2
X139.71Y-78.74
X139.71Y-81.28
X139.71Y-83.82
X139.71Y-86.36
X139.71Y-88.9
X139.71Y-91.44
X139.71Y-93.98
X139.71Y-96.52
X139.71Y-99.06
X139.71Y-101.6
X139.71Y-104.14
X139.71Y-106.68
X139.71Y-109.22
X139.71Y-111.76
X139.71Y-114.3
X139.71Y-116.84
X139.71Y-119.38
X139.71Y-121.92
X139.71Y-124.46
X154.95Y-76.2
X154.95Y-78.74
X154.95Y-81.28
X154.95Y-83.82
X154.95Y-86.36
X154.95Y-88.9
X154.95Y-91.44
X154.95Y-93.98
X154.95Y-96.52
X154.95Y-99.06
X154.95Y-101.6
X154.95Y-104.14
X154.95Y-106.68
X154.95Y-109.22
X154.95Y-111.76
X154.95Y-114.3
X154.95Y-116.84
X154.95Y-119.38
X154.95Y-121.92
X154.95Y-124.46
X157.48Y-77.47
X157.48Y-80.01
X157.48Y-82.55
X157.48Y-85.09
X157.48Y-87.63
X157.48Y-90.17
X157.48Y-92.71
X157.48Y-95.25
X157.48Y-97.79
X157.48Y-100.33
X157.48Y-102.87
X157.48Y-105.41
X157.48Y-107.95
X157.48Y-110.49
X157.48Y-113.03
X157.48Y-115.57
X157.48Y-118.11
X157.48Y-120.65
X157.48Y-123.19
X157.48Y-125.73
T0
M30
