G04 #@! TF.GenerationSoftware,KiCad,Pcbnew,(6.0.9)*
G04 #@! TF.CreationDate,2024-11-23T18:31:41+01:00*
G04 #@! TF.ProjectId,Sombrero_MSX_Goa'uld,536f6d62-7265-4726-9f5f-4d53585f476f,rev?*
G04 #@! TF.SameCoordinates,Original*
G04 #@! TF.FileFunction,Soldermask,Bot*
G04 #@! TF.FilePolarity,Negative*
%FSLAX46Y46*%
G04 Gerber Fmt 4.6, Leading zero omitted, Abs format (unit mm)*
G04 Created by KiCad (PCBNEW (6.0.9)) date 2024-11-23 18:31:41*
%MOMM*%
%LPD*%
G01*
G04 APERTURE LIST*
G04 Aperture macros list*
%AMRoundRect*
0 Rectangle with rounded corners*
0 $1 Rounding radius*
0 $2 $3 $4 $5 $6 $7 $8 $9 X,Y pos of 4 corners*
0 Add a 4 corners polygon primitive as box body*
4,1,4,$2,$3,$4,$5,$6,$7,$8,$9,$2,$3,0*
0 Add four circle primitives for the rounded corners*
1,1,$1+$1,$2,$3*
1,1,$1+$1,$4,$5*
1,1,$1+$1,$6,$7*
1,1,$1+$1,$8,$9*
0 Add four rect primitives between the rounded corners*
20,1,$1+$1,$2,$3,$4,$5,0*
20,1,$1+$1,$4,$5,$6,$7,0*
20,1,$1+$1,$6,$7,$8,$9,0*
20,1,$1+$1,$8,$9,$2,$3,0*%
G04 Aperture macros list end*
%ADD10R,2.400000X1.600000*%
%ADD11O,2.400000X1.600000*%
%ADD12R,1.600000X1.600000*%
%ADD13O,1.600000X1.600000*%
%ADD14RoundRect,0.100000X-0.100000X0.637500X-0.100000X-0.637500X0.100000X-0.637500X0.100000X0.637500X0*%
%ADD15RoundRect,0.250000X-0.475000X0.250000X-0.475000X-0.250000X0.475000X-0.250000X0.475000X0.250000X0*%
%ADD16RoundRect,0.100000X0.100000X-0.637500X0.100000X0.637500X-0.100000X0.637500X-0.100000X-0.637500X0*%
G04 APERTURE END LIST*
D10*
X137160000Y-77470000D03*
D11*
X137160000Y-80010000D03*
X137160000Y-82550000D03*
X137160000Y-85090000D03*
X137160000Y-87630000D03*
X137160000Y-90170000D03*
X137160000Y-92710000D03*
X137160000Y-95250000D03*
X137160000Y-97790000D03*
X137160000Y-100330000D03*
X137160000Y-102870000D03*
X137160000Y-105410000D03*
X137160000Y-107950000D03*
X137160000Y-110490000D03*
X137160000Y-113030000D03*
X137160000Y-115570000D03*
X137160000Y-118110000D03*
X137160000Y-120650000D03*
X137160000Y-123190000D03*
X137160000Y-125730000D03*
X157480000Y-125730000D03*
X157480000Y-123190000D03*
X157480000Y-120650000D03*
X157480000Y-118110000D03*
X157480000Y-115570000D03*
X157480000Y-113030000D03*
X157480000Y-110490000D03*
X157480000Y-107950000D03*
X157480000Y-105410000D03*
X157480000Y-102870000D03*
X157480000Y-100330000D03*
X157480000Y-97790000D03*
X157480000Y-95250000D03*
X157480000Y-92710000D03*
X157480000Y-90170000D03*
X157480000Y-87630000D03*
X157480000Y-85090000D03*
X157480000Y-82550000D03*
X157480000Y-80010000D03*
X157480000Y-77470000D03*
D12*
X139710000Y-76200000D03*
D13*
X139710000Y-78740000D03*
X139710000Y-81280000D03*
X139710000Y-83820000D03*
X139710000Y-86360000D03*
X139710000Y-88900000D03*
X139710000Y-91440000D03*
X139710000Y-93980000D03*
X139710000Y-96520000D03*
X139710000Y-99060000D03*
X139710000Y-101600000D03*
X139710000Y-104140000D03*
X139710000Y-106680000D03*
X139710000Y-109220000D03*
X139710000Y-111760000D03*
X139710000Y-114300000D03*
X139710000Y-116840000D03*
X139710000Y-119380000D03*
X139710000Y-121920000D03*
X139710000Y-124460000D03*
X154950000Y-124460000D03*
X154950000Y-121920000D03*
X154950000Y-119380000D03*
X154950000Y-116840000D03*
X154950000Y-114300000D03*
X154950000Y-111760000D03*
X154950000Y-109220000D03*
X154950000Y-106680000D03*
X154950000Y-104140000D03*
X154950000Y-101600000D03*
X154950000Y-99060000D03*
X154950000Y-96520000D03*
X154950000Y-93980000D03*
X154950000Y-91440000D03*
X154950000Y-88900000D03*
X154950000Y-86360000D03*
X154950000Y-83820000D03*
X154950000Y-81280000D03*
X154950000Y-78740000D03*
X154950000Y-76200000D03*
D14*
X145665000Y-98737500D03*
X146315000Y-98737500D03*
X146965000Y-98737500D03*
X147615000Y-98737500D03*
X148265000Y-98737500D03*
X148915000Y-98737500D03*
X149565000Y-98737500D03*
X150215000Y-98737500D03*
X150865000Y-98737500D03*
X151515000Y-98737500D03*
X151515000Y-104462500D03*
X150865000Y-104462500D03*
X150215000Y-104462500D03*
X149565000Y-104462500D03*
X148915000Y-104462500D03*
X148265000Y-104462500D03*
X147615000Y-104462500D03*
X146965000Y-104462500D03*
X146315000Y-104462500D03*
X145665000Y-104462500D03*
D15*
X151130000Y-117160000D03*
X151130000Y-119060000D03*
D16*
X148975000Y-120972500D03*
X148325000Y-120972500D03*
X147675000Y-120972500D03*
X147025000Y-120972500D03*
X146375000Y-120972500D03*
X145725000Y-120972500D03*
X145075000Y-120972500D03*
X144425000Y-120972500D03*
X143775000Y-120972500D03*
X143125000Y-120972500D03*
X143125000Y-115247500D03*
X143775000Y-115247500D03*
X144425000Y-115247500D03*
X145075000Y-115247500D03*
X145725000Y-115247500D03*
X146375000Y-115247500D03*
X147025000Y-115247500D03*
X147675000Y-115247500D03*
X148325000Y-115247500D03*
X148975000Y-115247500D03*
D15*
X143510000Y-100650000D03*
X143510000Y-102550000D03*
X152400000Y-82870000D03*
X152400000Y-84770000D03*
D16*
X150245000Y-86682500D03*
X149595000Y-86682500D03*
X148945000Y-86682500D03*
X148295000Y-86682500D03*
X147645000Y-86682500D03*
X146995000Y-86682500D03*
X146345000Y-86682500D03*
X145695000Y-86682500D03*
X145045000Y-86682500D03*
X144395000Y-86682500D03*
X144395000Y-80957500D03*
X145045000Y-80957500D03*
X145695000Y-80957500D03*
X146345000Y-80957500D03*
X146995000Y-80957500D03*
X147645000Y-80957500D03*
X148295000Y-80957500D03*
X148945000Y-80957500D03*
X149595000Y-80957500D03*
X150245000Y-80957500D03*
M02*
