G04 #@! TF.GenerationSoftware,KiCad,Pcbnew,(6.0.9)*
G04 #@! TF.CreationDate,2024-11-23T18:31:41+01:00*
G04 #@! TF.ProjectId,Sombrero_MSX_Goa'uld,536f6d62-7265-4726-9f5f-4d53585f476f,rev?*
G04 #@! TF.SameCoordinates,Original*
G04 #@! TF.FileFunction,Copper,L2,Inr*
G04 #@! TF.FilePolarity,Positive*
%FSLAX46Y46*%
G04 Gerber Fmt 4.6, Leading zero omitted, Abs format (unit mm)*
G04 Created by KiCad (PCBNEW (6.0.9)) date 2024-11-23 18:31:41*
%MOMM*%
%LPD*%
G01*
G04 APERTURE LIST*
G04 #@! TA.AperFunction,ComponentPad*
%ADD10R,2.400000X1.600000*%
G04 #@! TD*
G04 #@! TA.AperFunction,ComponentPad*
%ADD11O,2.400000X1.600000*%
G04 #@! TD*
G04 #@! TA.AperFunction,ComponentPad*
%ADD12R,1.600000X1.600000*%
G04 #@! TD*
G04 #@! TA.AperFunction,ComponentPad*
%ADD13O,1.600000X1.600000*%
G04 #@! TD*
G04 #@! TA.AperFunction,ViaPad*
%ADD14C,0.800000*%
G04 #@! TD*
G04 #@! TA.AperFunction,Conductor*
%ADD15C,0.450000*%
G04 #@! TD*
G04 #@! TA.AperFunction,Conductor*
%ADD16C,0.300000*%
G04 #@! TD*
G04 APERTURE END LIST*
D10*
X137160000Y-77470000D03*
D11*
X137160000Y-80010000D03*
X137160000Y-82550000D03*
X137160000Y-85090000D03*
X137160000Y-87630000D03*
X137160000Y-90170000D03*
X137160000Y-92710000D03*
X137160000Y-95250000D03*
X137160000Y-97790000D03*
X137160000Y-100330000D03*
X137160000Y-102870000D03*
X137160000Y-105410000D03*
X137160000Y-107950000D03*
X137160000Y-110490000D03*
X137160000Y-113030000D03*
X137160000Y-115570000D03*
X137160000Y-118110000D03*
X137160000Y-120650000D03*
X137160000Y-123190000D03*
X137160000Y-125730000D03*
X157480000Y-125730000D03*
X157480000Y-123190000D03*
X157480000Y-120650000D03*
X157480000Y-118110000D03*
X157480000Y-115570000D03*
X157480000Y-113030000D03*
X157480000Y-110490000D03*
X157480000Y-107950000D03*
X157480000Y-105410000D03*
X157480000Y-102870000D03*
X157480000Y-100330000D03*
X157480000Y-97790000D03*
X157480000Y-95250000D03*
X157480000Y-92710000D03*
X157480000Y-90170000D03*
X157480000Y-87630000D03*
X157480000Y-85090000D03*
X157480000Y-82550000D03*
X157480000Y-80010000D03*
X157480000Y-77470000D03*
D12*
X139710000Y-76200000D03*
D13*
X139710000Y-78740000D03*
X139710000Y-81280000D03*
X139710000Y-83820000D03*
X139710000Y-86360000D03*
X139710000Y-88900000D03*
X139710000Y-91440000D03*
X139710000Y-93980000D03*
X139710000Y-96520000D03*
X139710000Y-99060000D03*
X139710000Y-101600000D03*
X139710000Y-104140000D03*
X139710000Y-106680000D03*
X139710000Y-109220000D03*
X139710000Y-111760000D03*
X139710000Y-114300000D03*
X139710000Y-116840000D03*
X139710000Y-119380000D03*
X139710000Y-121920000D03*
X139710000Y-124460000D03*
X154950000Y-124460000D03*
X154950000Y-121920000D03*
X154950000Y-119380000D03*
X154950000Y-116840000D03*
X154950000Y-114300000D03*
X154950000Y-111760000D03*
X154950000Y-109220000D03*
X154950000Y-106680000D03*
X154950000Y-104140000D03*
X154950000Y-101600000D03*
X154950000Y-99060000D03*
X154950000Y-96520000D03*
X154950000Y-93980000D03*
X154950000Y-91440000D03*
X154950000Y-88900000D03*
X154950000Y-86360000D03*
X154950000Y-83820000D03*
X154950000Y-81280000D03*
X154950000Y-78740000D03*
X154950000Y-76200000D03*
D14*
X149217800Y-122340100D03*
X144857200Y-100928000D03*
X144858100Y-104670800D03*
X151173300Y-85553300D03*
X145866500Y-105801500D03*
X147279900Y-85326300D03*
X148696500Y-89984600D03*
X147675000Y-122353500D03*
X147060400Y-119629200D03*
X150243300Y-122881100D03*
X144986500Y-117223500D03*
X144099700Y-117788800D03*
X143032200Y-99530400D03*
X144479300Y-98095300D03*
X147395000Y-100128300D03*
X142990900Y-97197400D03*
X149223900Y-100086700D03*
X142162900Y-95845100D03*
X148025900Y-82498900D03*
X150078300Y-89244700D03*
X147960900Y-88630200D03*
X150192900Y-82342400D03*
X144777500Y-82616900D03*
X150885300Y-83191000D03*
X141352200Y-115735800D03*
X145571200Y-113071900D03*
X149787600Y-114779900D03*
X149861300Y-120207500D03*
X146583800Y-113344200D03*
X149465900Y-113728300D03*
X150390200Y-105809400D03*
X147158800Y-108768100D03*
X142336700Y-109625400D03*
X143070500Y-108154600D03*
X144595100Y-107780100D03*
D15*
X146807300Y-107943000D02*
X144858100Y-105993800D01*
X154443800Y-115570000D02*
X147983900Y-109110100D01*
X144858100Y-104670800D02*
X144858100Y-100928900D01*
X144858100Y-100928900D02*
X144857200Y-100928000D01*
X157480000Y-115570000D02*
X154443800Y-115570000D01*
X147500600Y-107943000D02*
X146807300Y-107943000D01*
X147983900Y-109110100D02*
X147983900Y-108426300D01*
X147983900Y-108426300D02*
X147500600Y-107943000D01*
X144858100Y-105993800D02*
X144858100Y-104670800D01*
X151173300Y-101215700D02*
X151173300Y-85553300D01*
X146732500Y-106667500D02*
X145866500Y-105801500D01*
X153696600Y-106667500D02*
X153696600Y-112251200D01*
X154097600Y-104140000D02*
X153696600Y-104541000D01*
X153696600Y-112251200D02*
X154475400Y-113030000D01*
X153696600Y-106667500D02*
X146732500Y-106667500D01*
X154475400Y-113030000D02*
X157480000Y-113030000D01*
X154097600Y-104140000D02*
X151173300Y-101215700D01*
X153696600Y-104541000D02*
X153696600Y-106667500D01*
X154950000Y-104140000D02*
X154097600Y-104140000D01*
X153724900Y-119380000D02*
X153119100Y-118774200D01*
X139710000Y-119380000D02*
X140935100Y-119380000D01*
X141540900Y-118774200D02*
X140935100Y-119380000D01*
X154950000Y-119380000D02*
X153724900Y-119380000D01*
X153119100Y-118774200D02*
X141540900Y-118774200D01*
D16*
X139710000Y-121920000D02*
X140860100Y-121920000D01*
X140860100Y-121920000D02*
X147241500Y-121920000D01*
X147241500Y-121920000D02*
X147675000Y-122353500D01*
X153799900Y-124460000D02*
X152221000Y-122881100D01*
X152221000Y-122881100D02*
X150243300Y-122881100D01*
X154950000Y-124460000D02*
X153799900Y-124460000D01*
X140860100Y-103862900D02*
X140860100Y-104140000D01*
X144594700Y-100128300D02*
X140860100Y-103862900D01*
X147395000Y-100128300D02*
X144594700Y-100128300D01*
X139710000Y-104140000D02*
X140860100Y-104140000D01*
X142014000Y-97197400D02*
X142990900Y-97197400D01*
X139710000Y-93980000D02*
X139710000Y-95130100D01*
X139946700Y-95130100D02*
X142014000Y-97197400D01*
X139710000Y-95130100D02*
X139946700Y-95130100D01*
X149223900Y-99803800D02*
X140860100Y-91440000D01*
X139710000Y-91440000D02*
X140860100Y-91440000D01*
X149223900Y-100086700D02*
X149223900Y-99803800D01*
X154950000Y-83820000D02*
X153799900Y-83820000D01*
X153623900Y-83996000D02*
X149523000Y-83996000D01*
X149523000Y-83996000D02*
X148025900Y-82498900D01*
X153799900Y-83820000D02*
X153623900Y-83996000D01*
X146526400Y-85692800D02*
X150078300Y-89244700D01*
X150721600Y-78740000D02*
X146526400Y-82935200D01*
X153799900Y-78740000D02*
X150721600Y-78740000D01*
X154950000Y-78740000D02*
X153799900Y-78740000D01*
X146526400Y-82935200D02*
X146526400Y-85692800D01*
X153799900Y-76200000D02*
X152503100Y-76200000D01*
X145975500Y-86644800D02*
X147960900Y-88630200D01*
X152503100Y-76200000D02*
X145975500Y-82727600D01*
X145975500Y-82727600D02*
X145975500Y-86644800D01*
X154950000Y-76200000D02*
X153799900Y-76200000D01*
X135609900Y-113507200D02*
X135609900Y-95250000D01*
X137160000Y-95250000D02*
X135609900Y-95250000D01*
X137916600Y-114300000D02*
X136402700Y-114300000D01*
X139186600Y-115570000D02*
X137916600Y-114300000D01*
X136402700Y-114300000D02*
X135609900Y-113507200D01*
X141352200Y-115735800D02*
X141186400Y-115570000D01*
X141186400Y-115570000D02*
X139186600Y-115570000D01*
X146583800Y-113344200D02*
X151349600Y-118110000D01*
X151349600Y-118110000D02*
X157480000Y-118110000D01*
X137160000Y-102870000D02*
X140816100Y-102870000D01*
X147659300Y-99329700D02*
X148473800Y-100144200D01*
X148473800Y-103893000D02*
X150390200Y-105809400D01*
X140816100Y-102870000D02*
X144356400Y-99329700D01*
X144356400Y-99329700D02*
X147659300Y-99329700D01*
X148473800Y-100144200D02*
X148473800Y-103893000D01*
X146819000Y-108768100D02*
X145047500Y-106996600D01*
X142211600Y-106996600D02*
X141258200Y-107950000D01*
X145047500Y-106996600D02*
X142211600Y-106996600D01*
X147158800Y-108768100D02*
X146819000Y-108768100D01*
X141258200Y-107950000D02*
X137160000Y-107950000D01*
X142336700Y-109625400D02*
X142336700Y-110815300D01*
X142336700Y-110815300D02*
X140122000Y-113030000D01*
X140122000Y-113030000D02*
X137160000Y-113030000D01*
X140097800Y-118110000D02*
X144595100Y-113612700D01*
X144595100Y-113612700D02*
X144595100Y-107780100D01*
X137160000Y-118110000D02*
X140097800Y-118110000D01*
M02*
