G04 #@! TF.GenerationSoftware,KiCad,Pcbnew,(6.0.9)*
G04 #@! TF.CreationDate,2024-11-23T18:31:41+01:00*
G04 #@! TF.ProjectId,Sombrero_MSX_Goa'uld,536f6d62-7265-4726-9f5f-4d53585f476f,rev?*
G04 #@! TF.SameCoordinates,Original*
G04 #@! TF.FileFunction,Legend,Top*
G04 #@! TF.FilePolarity,Positive*
%FSLAX46Y46*%
G04 Gerber Fmt 4.6, Leading zero omitted, Abs format (unit mm)*
G04 Created by KiCad (PCBNEW (6.0.9)) date 2024-11-23 18:31:41*
%MOMM*%
%LPD*%
G01*
G04 APERTURE LIST*
G04 Aperture macros list*
%AMRoundRect*
0 Rectangle with rounded corners*
0 $1 Rounding radius*
0 $2 $3 $4 $5 $6 $7 $8 $9 X,Y pos of 4 corners*
0 Add a 4 corners polygon primitive as box body*
4,1,4,$2,$3,$4,$5,$6,$7,$8,$9,$2,$3,0*
0 Add four circle primitives for the rounded corners*
1,1,$1+$1,$2,$3*
1,1,$1+$1,$4,$5*
1,1,$1+$1,$6,$7*
1,1,$1+$1,$8,$9*
0 Add four rect primitives between the rounded corners*
20,1,$1+$1,$2,$3,$4,$5,0*
20,1,$1+$1,$4,$5,$6,$7,0*
20,1,$1+$1,$6,$7,$8,$9,0*
20,1,$1+$1,$8,$9,$2,$3,0*%
G04 Aperture macros list end*
%ADD10C,0.150000*%
%ADD11C,0.120000*%
%ADD12C,0.100000*%
%ADD13RoundRect,0.100000X0.100000X-0.637500X0.100000X0.637500X-0.100000X0.637500X-0.100000X-0.637500X0*%
%ADD14R,2.400000X1.600000*%
%ADD15O,2.400000X1.600000*%
%ADD16RoundRect,0.100000X-0.100000X0.637500X-0.100000X-0.637500X0.100000X-0.637500X0.100000X0.637500X0*%
%ADD17RoundRect,0.250000X-0.475000X0.250000X-0.475000X-0.250000X0.475000X-0.250000X0.475000X0.250000X0*%
%ADD18R,0.800000X0.500000*%
%ADD19R,0.800000X0.400000*%
%ADD20R,0.900000X1.200000*%
%ADD21RoundRect,0.250000X0.475000X-0.250000X0.475000X0.250000X-0.475000X0.250000X-0.475000X-0.250000X0*%
%ADD22R,1.600000X1.600000*%
%ADD23O,1.600000X1.600000*%
G04 APERTURE END LIST*
D10*
X142327142Y-124010000D02*
X142241428Y-123967142D01*
X142112857Y-123967142D01*
X141984285Y-124010000D01*
X141898571Y-124095714D01*
X141855714Y-124181428D01*
X141812857Y-124352857D01*
X141812857Y-124481428D01*
X141855714Y-124652857D01*
X141898571Y-124738571D01*
X141984285Y-124824285D01*
X142112857Y-124867142D01*
X142198571Y-124867142D01*
X142327142Y-124824285D01*
X142370000Y-124781428D01*
X142370000Y-124481428D01*
X142198571Y-124481428D01*
X142884285Y-124867142D02*
X142798571Y-124824285D01*
X142755714Y-124781428D01*
X142712857Y-124695714D01*
X142712857Y-124438571D01*
X142755714Y-124352857D01*
X142798571Y-124310000D01*
X142884285Y-124267142D01*
X143012857Y-124267142D01*
X143098571Y-124310000D01*
X143141428Y-124352857D01*
X143184285Y-124438571D01*
X143184285Y-124695714D01*
X143141428Y-124781428D01*
X143098571Y-124824285D01*
X143012857Y-124867142D01*
X142884285Y-124867142D01*
X143955714Y-124867142D02*
X143955714Y-124395714D01*
X143912857Y-124310000D01*
X143827142Y-124267142D01*
X143655714Y-124267142D01*
X143570000Y-124310000D01*
X143955714Y-124824285D02*
X143870000Y-124867142D01*
X143655714Y-124867142D01*
X143570000Y-124824285D01*
X143527142Y-124738571D01*
X143527142Y-124652857D01*
X143570000Y-124567142D01*
X143655714Y-124524285D01*
X143870000Y-124524285D01*
X143955714Y-124481428D01*
X144427142Y-123967142D02*
X144341428Y-124138571D01*
X145198571Y-124267142D02*
X145198571Y-124867142D01*
X144812857Y-124267142D02*
X144812857Y-124738571D01*
X144855714Y-124824285D01*
X144941428Y-124867142D01*
X145070000Y-124867142D01*
X145155714Y-124824285D01*
X145198571Y-124781428D01*
X145755714Y-124867142D02*
X145670000Y-124824285D01*
X145627142Y-124738571D01*
X145627142Y-123967142D01*
X146484285Y-124867142D02*
X146484285Y-123967142D01*
X146484285Y-124824285D02*
X146398571Y-124867142D01*
X146227142Y-124867142D01*
X146141428Y-124824285D01*
X146098571Y-124781428D01*
X146055714Y-124695714D01*
X146055714Y-124438571D01*
X146098571Y-124352857D01*
X146141428Y-124310000D01*
X146227142Y-124267142D01*
X146398571Y-124267142D01*
X146484285Y-124310000D01*
X148070000Y-124867142D02*
X147555714Y-124867142D01*
X147812857Y-124867142D02*
X147812857Y-123967142D01*
X147727142Y-124095714D01*
X147641428Y-124181428D01*
X147555714Y-124224285D01*
X148455714Y-124781428D02*
X148498571Y-124824285D01*
X148455714Y-124867142D01*
X148412857Y-124824285D01*
X148455714Y-124781428D01*
X148455714Y-124867142D01*
X149270000Y-124267142D02*
X149270000Y-124867142D01*
X149055714Y-123924285D02*
X148841428Y-124567142D01*
X149398571Y-124567142D01*
X150384285Y-124824285D02*
X150512857Y-124867142D01*
X150727142Y-124867142D01*
X150812857Y-124824285D01*
X150855714Y-124781428D01*
X150898571Y-124695714D01*
X150898571Y-124610000D01*
X150855714Y-124524285D01*
X150812857Y-124481428D01*
X150727142Y-124438571D01*
X150555714Y-124395714D01*
X150470000Y-124352857D01*
X150427142Y-124310000D01*
X150384285Y-124224285D01*
X150384285Y-124138571D01*
X150427142Y-124052857D01*
X150470000Y-124010000D01*
X150555714Y-123967142D01*
X150770000Y-123967142D01*
X150898571Y-124010000D01*
X151284285Y-124867142D02*
X151284285Y-123967142D01*
X151584285Y-124610000D01*
X151884285Y-123967142D01*
X151884285Y-124867142D01*
X152312857Y-124867142D02*
X152312857Y-123967142D01*
X152527142Y-123967142D01*
X152655714Y-124010000D01*
X152741428Y-124095714D01*
X152784285Y-124181428D01*
X152827142Y-124352857D01*
X152827142Y-124481428D01*
X152784285Y-124652857D01*
X152741428Y-124738571D01*
X152655714Y-124824285D01*
X152527142Y-124867142D01*
X152312857Y-124867142D01*
X145884285Y-126899142D02*
X145884285Y-125999142D01*
X145884285Y-126427714D02*
X146398571Y-126427714D01*
X146398571Y-126899142D02*
X146398571Y-125999142D01*
X146827142Y-126899142D02*
X146827142Y-125999142D01*
X147041428Y-125999142D01*
X147170000Y-126042000D01*
X147255714Y-126127714D01*
X147298571Y-126213428D01*
X147341428Y-126384857D01*
X147341428Y-126513428D01*
X147298571Y-126684857D01*
X147255714Y-126770571D01*
X147170000Y-126856285D01*
X147041428Y-126899142D01*
X146827142Y-126899142D01*
X147727142Y-126899142D02*
X147727142Y-125999142D01*
X148027142Y-126642000D01*
X148327142Y-125999142D01*
X148327142Y-126899142D01*
X148755714Y-126899142D02*
X148755714Y-125999142D01*
X151217380Y-84581904D02*
X152026904Y-84581904D01*
X152122142Y-84534285D01*
X152169761Y-84486666D01*
X152217380Y-84391428D01*
X152217380Y-84200952D01*
X152169761Y-84105714D01*
X152122142Y-84058095D01*
X152026904Y-84010476D01*
X151217380Y-84010476D01*
X152217380Y-83010476D02*
X152217380Y-83581904D01*
X152217380Y-83296190D02*
X151217380Y-83296190D01*
X151360238Y-83391428D01*
X151455476Y-83486666D01*
X151503095Y-83581904D01*
X136383095Y-74737980D02*
X136383095Y-75547504D01*
X136430714Y-75642742D01*
X136478333Y-75690361D01*
X136573571Y-75737980D01*
X136764047Y-75737980D01*
X136859285Y-75690361D01*
X136906904Y-75642742D01*
X136954523Y-75547504D01*
X136954523Y-74737980D01*
X137859285Y-74737980D02*
X137668809Y-74737980D01*
X137573571Y-74785600D01*
X137525952Y-74833219D01*
X137430714Y-74976076D01*
X137383095Y-75166552D01*
X137383095Y-75547504D01*
X137430714Y-75642742D01*
X137478333Y-75690361D01*
X137573571Y-75737980D01*
X137764047Y-75737980D01*
X137859285Y-75690361D01*
X137906904Y-75642742D01*
X137954523Y-75547504D01*
X137954523Y-75309409D01*
X137906904Y-75214171D01*
X137859285Y-75166552D01*
X137764047Y-75118933D01*
X137573571Y-75118933D01*
X137478333Y-75166552D01*
X137430714Y-75214171D01*
X137383095Y-75309409D01*
X141438380Y-118871904D02*
X142247904Y-118871904D01*
X142343142Y-118824285D01*
X142390761Y-118776666D01*
X142438380Y-118681428D01*
X142438380Y-118490952D01*
X142390761Y-118395714D01*
X142343142Y-118348095D01*
X142247904Y-118300476D01*
X141438380Y-118300476D01*
X141438380Y-117348095D02*
X141438380Y-117824285D01*
X141914571Y-117871904D01*
X141866952Y-117824285D01*
X141819333Y-117729047D01*
X141819333Y-117490952D01*
X141866952Y-117395714D01*
X141914571Y-117348095D01*
X142009809Y-117300476D01*
X142247904Y-117300476D01*
X142343142Y-117348095D01*
X142390761Y-117395714D01*
X142438380Y-117490952D01*
X142438380Y-117729047D01*
X142390761Y-117824285D01*
X142343142Y-117871904D01*
X152757142Y-78906666D02*
X152804761Y-78954285D01*
X152852380Y-79097142D01*
X152852380Y-79192380D01*
X152804761Y-79335238D01*
X152709523Y-79430476D01*
X152614285Y-79478095D01*
X152423809Y-79525714D01*
X152280952Y-79525714D01*
X152090476Y-79478095D01*
X151995238Y-79430476D01*
X151900000Y-79335238D01*
X151852380Y-79192380D01*
X151852380Y-79097142D01*
X151900000Y-78954285D01*
X151947619Y-78906666D01*
X151852380Y-78049523D02*
X151852380Y-78240000D01*
X151900000Y-78335238D01*
X151947619Y-78382857D01*
X152090476Y-78478095D01*
X152280952Y-78525714D01*
X152661904Y-78525714D01*
X152757142Y-78478095D01*
X152804761Y-78430476D01*
X152852380Y-78335238D01*
X152852380Y-78144761D01*
X152804761Y-78049523D01*
X152757142Y-78001904D01*
X152661904Y-77954285D01*
X152423809Y-77954285D01*
X152328571Y-78001904D01*
X152280952Y-78049523D01*
X152233333Y-78144761D01*
X152233333Y-78335238D01*
X152280952Y-78430476D01*
X152328571Y-78478095D01*
X152423809Y-78525714D01*
X144089523Y-113742380D02*
X143756190Y-113266190D01*
X143518095Y-113742380D02*
X143518095Y-112742380D01*
X143899047Y-112742380D01*
X143994285Y-112790000D01*
X144041904Y-112837619D01*
X144089523Y-112932857D01*
X144089523Y-113075714D01*
X144041904Y-113170952D01*
X143994285Y-113218571D01*
X143899047Y-113266190D01*
X143518095Y-113266190D01*
X144518095Y-113742380D02*
X144518095Y-112742380D01*
X145089523Y-113742380D01*
X145089523Y-112742380D01*
X146089523Y-113742380D02*
X145518095Y-113742380D01*
X145803809Y-113742380D02*
X145803809Y-112742380D01*
X145708571Y-112885238D01*
X145613333Y-112980476D01*
X145518095Y-113028095D01*
X144041904Y-104052380D02*
X144041904Y-103052380D01*
X144280000Y-103052380D01*
X144422857Y-103100000D01*
X144518095Y-103195238D01*
X144565714Y-103290476D01*
X144613333Y-103480952D01*
X144613333Y-103623809D01*
X144565714Y-103814285D01*
X144518095Y-103909523D01*
X144422857Y-104004761D01*
X144280000Y-104052380D01*
X144041904Y-104052380D01*
X145565714Y-104052380D02*
X144994285Y-104052380D01*
X145280000Y-104052380D02*
X145280000Y-103052380D01*
X145184761Y-103195238D01*
X145089523Y-103290476D01*
X144994285Y-103338095D01*
X144089523Y-95962380D02*
X143756190Y-95486190D01*
X143518095Y-95962380D02*
X143518095Y-94962380D01*
X143899047Y-94962380D01*
X143994285Y-95010000D01*
X144041904Y-95057619D01*
X144089523Y-95152857D01*
X144089523Y-95295714D01*
X144041904Y-95390952D01*
X143994285Y-95438571D01*
X143899047Y-95486190D01*
X143518095Y-95486190D01*
X144518095Y-95962380D02*
X144518095Y-94962380D01*
X145089523Y-95962380D01*
X145089523Y-94962380D01*
X145518095Y-95057619D02*
X145565714Y-95010000D01*
X145660952Y-94962380D01*
X145899047Y-94962380D01*
X145994285Y-95010000D01*
X146041904Y-95057619D01*
X146089523Y-95152857D01*
X146089523Y-95248095D01*
X146041904Y-95390952D01*
X145470476Y-95962380D01*
X146089523Y-95962380D01*
X151487142Y-120816666D02*
X151534761Y-120864285D01*
X151582380Y-121007142D01*
X151582380Y-121102380D01*
X151534761Y-121245238D01*
X151439523Y-121340476D01*
X151344285Y-121388095D01*
X151153809Y-121435714D01*
X151010952Y-121435714D01*
X150820476Y-121388095D01*
X150725238Y-121340476D01*
X150630000Y-121245238D01*
X150582380Y-121102380D01*
X150582380Y-121007142D01*
X150630000Y-120864285D01*
X150677619Y-120816666D01*
X150582380Y-119911904D02*
X150582380Y-120388095D01*
X151058571Y-120435714D01*
X151010952Y-120388095D01*
X150963333Y-120292857D01*
X150963333Y-120054761D01*
X151010952Y-119959523D01*
X151058571Y-119911904D01*
X151153809Y-119864285D01*
X151391904Y-119864285D01*
X151487142Y-119911904D01*
X151534761Y-119959523D01*
X151582380Y-120054761D01*
X151582380Y-120292857D01*
X151534761Y-120388095D01*
X151487142Y-120435714D01*
X141906666Y-74991980D02*
X141906666Y-75706266D01*
X141859047Y-75849123D01*
X141763809Y-75944361D01*
X141620952Y-75991980D01*
X141525714Y-75991980D01*
X142906666Y-75991980D02*
X142335238Y-75991980D01*
X142620952Y-75991980D02*
X142620952Y-74991980D01*
X142525714Y-75134838D01*
X142430476Y-75230076D01*
X142335238Y-75277695D01*
X142597142Y-81446666D02*
X142644761Y-81494285D01*
X142692380Y-81637142D01*
X142692380Y-81732380D01*
X142644761Y-81875238D01*
X142549523Y-81970476D01*
X142454285Y-82018095D01*
X142263809Y-82065714D01*
X142120952Y-82065714D01*
X141930476Y-82018095D01*
X141835238Y-81970476D01*
X141740000Y-81875238D01*
X141692380Y-81732380D01*
X141692380Y-81637142D01*
X141740000Y-81494285D01*
X141787619Y-81446666D01*
X142692380Y-80494285D02*
X142692380Y-81065714D01*
X142692380Y-80780000D02*
X141692380Y-80780000D01*
X141835238Y-80875238D01*
X141930476Y-80970476D01*
X141978095Y-81065714D01*
D11*
X150705000Y-83820000D02*
X150705000Y-81620000D01*
X150705000Y-83820000D02*
X150705000Y-86020000D01*
X143935000Y-83820000D02*
X143935000Y-87420000D01*
X143935000Y-83820000D02*
X143935000Y-81620000D01*
X154940000Y-130810000D02*
X154940000Y-128270000D01*
D12*
X135890000Y-127000000D02*
X158750000Y-127000000D01*
D11*
X138720000Y-76140000D02*
X138720000Y-127000000D01*
X144780000Y-76140000D02*
X144780000Y-74930000D01*
X139700000Y-130810000D02*
X154940000Y-130810000D01*
X144780000Y-74930000D02*
X149860000Y-74930000D01*
X155920000Y-76140000D02*
X150860000Y-76140000D01*
X139700000Y-128270000D02*
X139700000Y-130810000D01*
X135720000Y-128270000D02*
X158920000Y-128270000D01*
X149860000Y-74930000D02*
X149860000Y-76073000D01*
X153670000Y-76140000D02*
X138720000Y-76140000D01*
X135720000Y-76080000D02*
X135720000Y-128270000D01*
X158920000Y-76080000D02*
X135720000Y-76080000D01*
X155920000Y-127000000D02*
X155920000Y-76140000D01*
X158920000Y-128270000D02*
X158920000Y-76080000D01*
X142665000Y-118110000D02*
X142665000Y-120310000D01*
X142665000Y-118110000D02*
X142665000Y-115910000D01*
X149435000Y-118110000D02*
X149435000Y-120310000D01*
X149435000Y-118110000D02*
X149435000Y-114510000D01*
X153135000Y-75938748D02*
X153135000Y-76461252D01*
X151665000Y-75938748D02*
X151665000Y-76461252D01*
X144280000Y-112170000D02*
X145280000Y-112170000D01*
X144280000Y-108810000D02*
X145280000Y-108810000D01*
X147030000Y-102600000D02*
X143130000Y-102600000D01*
X147030000Y-102600000D02*
X147030000Y-100600000D01*
X147030000Y-100600000D02*
X143130000Y-100600000D01*
X144280000Y-94390000D02*
X145280000Y-94390000D01*
X144280000Y-91030000D02*
X145280000Y-91030000D01*
X151865000Y-118371252D02*
X151865000Y-117848748D01*
X150395000Y-118371252D02*
X150395000Y-117848748D01*
X140870000Y-125790000D02*
X153790000Y-125790000D01*
X153790000Y-74870000D02*
X148330000Y-74870000D01*
X138380000Y-125850000D02*
X156280000Y-125850000D01*
X138380000Y-74810000D02*
X138380000Y-125850000D01*
X156280000Y-74810000D02*
X138380000Y-74810000D01*
X156280000Y-125850000D02*
X156280000Y-74810000D01*
X153790000Y-125790000D02*
X153790000Y-74870000D01*
X140870000Y-74870000D02*
X140870000Y-125790000D01*
X146330000Y-74870000D02*
X140870000Y-74870000D01*
X146330000Y-74870000D02*
G75*
G03*
X148330000Y-74870000I1000000J0D01*
G01*
X141505000Y-83558748D02*
X141505000Y-84081252D01*
X142975000Y-83558748D02*
X142975000Y-84081252D01*
%LPC*%
D13*
X144395000Y-86682500D03*
X145045000Y-86682500D03*
X145695000Y-86682500D03*
X146345000Y-86682500D03*
X146995000Y-86682500D03*
X147645000Y-86682500D03*
X148295000Y-86682500D03*
X148945000Y-86682500D03*
X149595000Y-86682500D03*
X150245000Y-86682500D03*
X150245000Y-80957500D03*
X149595000Y-80957500D03*
X148945000Y-80957500D03*
X148295000Y-80957500D03*
X147645000Y-80957500D03*
X146995000Y-80957500D03*
X146345000Y-80957500D03*
X145695000Y-80957500D03*
X145045000Y-80957500D03*
X144395000Y-80957500D03*
D14*
X137160000Y-77470000D03*
D15*
X137160000Y-80010000D03*
X137160000Y-82550000D03*
X137160000Y-85090000D03*
X137160000Y-87630000D03*
X137160000Y-90170000D03*
X137160000Y-92710000D03*
X137160000Y-95250000D03*
X137160000Y-97790000D03*
X137160000Y-100330000D03*
X137160000Y-102870000D03*
X137160000Y-105410000D03*
X137160000Y-107950000D03*
X137160000Y-110490000D03*
X137160000Y-113030000D03*
X137160000Y-115570000D03*
X137160000Y-118110000D03*
X137160000Y-120650000D03*
X137160000Y-123190000D03*
X137160000Y-125730000D03*
X157480000Y-125730000D03*
X157480000Y-123190000D03*
X157480000Y-120650000D03*
X157480000Y-118110000D03*
X157480000Y-115570000D03*
X157480000Y-113030000D03*
X157480000Y-110490000D03*
X157480000Y-107950000D03*
X157480000Y-105410000D03*
X157480000Y-102870000D03*
X157480000Y-100330000D03*
X157480000Y-97790000D03*
X157480000Y-95250000D03*
X157480000Y-92710000D03*
X157480000Y-90170000D03*
X157480000Y-87630000D03*
X157480000Y-85090000D03*
X157480000Y-82550000D03*
X157480000Y-80010000D03*
X157480000Y-77470000D03*
D16*
X148975000Y-115247500D03*
X148325000Y-115247500D03*
X147675000Y-115247500D03*
X147025000Y-115247500D03*
X146375000Y-115247500D03*
X145725000Y-115247500D03*
X145075000Y-115247500D03*
X144425000Y-115247500D03*
X143775000Y-115247500D03*
X143125000Y-115247500D03*
X143125000Y-120972500D03*
X143775000Y-120972500D03*
X144425000Y-120972500D03*
X145075000Y-120972500D03*
X145725000Y-120972500D03*
X146375000Y-120972500D03*
X147025000Y-120972500D03*
X147675000Y-120972500D03*
X148325000Y-120972500D03*
X148975000Y-120972500D03*
D17*
X152400000Y-75250000D03*
X152400000Y-77150000D03*
D18*
X145680000Y-111690000D03*
D19*
X145680000Y-110890000D03*
X145680000Y-110090000D03*
D18*
X145680000Y-109290000D03*
X143880000Y-109290000D03*
D19*
X143880000Y-110090000D03*
X143880000Y-110890000D03*
D18*
X143880000Y-111690000D03*
D20*
X146430000Y-101600000D03*
X143130000Y-101600000D03*
D18*
X145680000Y-93910000D03*
D19*
X145680000Y-93110000D03*
X145680000Y-92310000D03*
D18*
X145680000Y-91510000D03*
X143880000Y-91510000D03*
D19*
X143880000Y-92310000D03*
X143880000Y-93110000D03*
D18*
X143880000Y-93910000D03*
D21*
X151130000Y-119060000D03*
X151130000Y-117160000D03*
D22*
X139710000Y-76200000D03*
D23*
X139710000Y-78740000D03*
X139710000Y-81280000D03*
X139710000Y-83820000D03*
X139710000Y-86360000D03*
X139710000Y-88900000D03*
X139710000Y-91440000D03*
X139710000Y-93980000D03*
X139710000Y-96520000D03*
X139710000Y-99060000D03*
X139710000Y-101600000D03*
X139710000Y-104140000D03*
X139710000Y-106680000D03*
X139710000Y-109220000D03*
X139710000Y-111760000D03*
X139710000Y-114300000D03*
X139710000Y-116840000D03*
X139710000Y-119380000D03*
X139710000Y-121920000D03*
X139710000Y-124460000D03*
X154950000Y-124460000D03*
X154950000Y-121920000D03*
X154950000Y-119380000D03*
X154950000Y-116840000D03*
X154950000Y-114300000D03*
X154950000Y-111760000D03*
X154950000Y-109220000D03*
X154950000Y-106680000D03*
X154950000Y-104140000D03*
X154950000Y-101600000D03*
X154950000Y-99060000D03*
X154950000Y-96520000D03*
X154950000Y-93980000D03*
X154950000Y-91440000D03*
X154950000Y-88900000D03*
X154950000Y-86360000D03*
X154950000Y-83820000D03*
X154950000Y-81280000D03*
X154950000Y-78740000D03*
X154950000Y-76200000D03*
D17*
X142240000Y-82870000D03*
X142240000Y-84770000D03*
M02*
