G04 #@! TF.GenerationSoftware,KiCad,Pcbnew,(6.0.9)*
G04 #@! TF.CreationDate,2024-11-23T18:31:41+01:00*
G04 #@! TF.ProjectId,Sombrero_MSX_Goa'uld,536f6d62-7265-4726-9f5f-4d53585f476f,rev?*
G04 #@! TF.SameCoordinates,Original*
G04 #@! TF.FileFunction,Paste,Top*
G04 #@! TF.FilePolarity,Positive*
%FSLAX46Y46*%
G04 Gerber Fmt 4.6, Leading zero omitted, Abs format (unit mm)*
G04 Created by KiCad (PCBNEW (6.0.9)) date 2024-11-23 18:31:41*
%MOMM*%
%LPD*%
G01*
G04 APERTURE LIST*
G04 Aperture macros list*
%AMRoundRect*
0 Rectangle with rounded corners*
0 $1 Rounding radius*
0 $2 $3 $4 $5 $6 $7 $8 $9 X,Y pos of 4 corners*
0 Add a 4 corners polygon primitive as box body*
4,1,4,$2,$3,$4,$5,$6,$7,$8,$9,$2,$3,0*
0 Add four circle primitives for the rounded corners*
1,1,$1+$1,$2,$3*
1,1,$1+$1,$4,$5*
1,1,$1+$1,$6,$7*
1,1,$1+$1,$8,$9*
0 Add four rect primitives between the rounded corners*
20,1,$1+$1,$2,$3,$4,$5,0*
20,1,$1+$1,$4,$5,$6,$7,0*
20,1,$1+$1,$6,$7,$8,$9,0*
20,1,$1+$1,$8,$9,$2,$3,0*%
G04 Aperture macros list end*
%ADD10RoundRect,0.100000X0.100000X-0.637500X0.100000X0.637500X-0.100000X0.637500X-0.100000X-0.637500X0*%
%ADD11RoundRect,0.100000X-0.100000X0.637500X-0.100000X-0.637500X0.100000X-0.637500X0.100000X0.637500X0*%
%ADD12RoundRect,0.250000X-0.475000X0.250000X-0.475000X-0.250000X0.475000X-0.250000X0.475000X0.250000X0*%
%ADD13R,0.800000X0.500000*%
%ADD14R,0.800000X0.400000*%
%ADD15R,0.900000X1.200000*%
%ADD16RoundRect,0.250000X0.475000X-0.250000X0.475000X0.250000X-0.475000X0.250000X-0.475000X-0.250000X0*%
G04 APERTURE END LIST*
D10*
X144395000Y-86682500D03*
X145045000Y-86682500D03*
X145695000Y-86682500D03*
X146345000Y-86682500D03*
X146995000Y-86682500D03*
X147645000Y-86682500D03*
X148295000Y-86682500D03*
X148945000Y-86682500D03*
X149595000Y-86682500D03*
X150245000Y-86682500D03*
X150245000Y-80957500D03*
X149595000Y-80957500D03*
X148945000Y-80957500D03*
X148295000Y-80957500D03*
X147645000Y-80957500D03*
X146995000Y-80957500D03*
X146345000Y-80957500D03*
X145695000Y-80957500D03*
X145045000Y-80957500D03*
X144395000Y-80957500D03*
D11*
X148975000Y-115247500D03*
X148325000Y-115247500D03*
X147675000Y-115247500D03*
X147025000Y-115247500D03*
X146375000Y-115247500D03*
X145725000Y-115247500D03*
X145075000Y-115247500D03*
X144425000Y-115247500D03*
X143775000Y-115247500D03*
X143125000Y-115247500D03*
X143125000Y-120972500D03*
X143775000Y-120972500D03*
X144425000Y-120972500D03*
X145075000Y-120972500D03*
X145725000Y-120972500D03*
X146375000Y-120972500D03*
X147025000Y-120972500D03*
X147675000Y-120972500D03*
X148325000Y-120972500D03*
X148975000Y-120972500D03*
D12*
X152400000Y-75250000D03*
X152400000Y-77150000D03*
D13*
X145680000Y-111690000D03*
D14*
X145680000Y-110890000D03*
X145680000Y-110090000D03*
D13*
X145680000Y-109290000D03*
X143880000Y-109290000D03*
D14*
X143880000Y-110090000D03*
X143880000Y-110890000D03*
D13*
X143880000Y-111690000D03*
D15*
X146430000Y-101600000D03*
X143130000Y-101600000D03*
D13*
X145680000Y-93910000D03*
D14*
X145680000Y-93110000D03*
X145680000Y-92310000D03*
D13*
X145680000Y-91510000D03*
X143880000Y-91510000D03*
D14*
X143880000Y-92310000D03*
X143880000Y-93110000D03*
D13*
X143880000Y-93910000D03*
D16*
X151130000Y-119060000D03*
X151130000Y-117160000D03*
D12*
X142240000Y-82870000D03*
X142240000Y-84770000D03*
M02*
