G04 #@! TF.GenerationSoftware,KiCad,Pcbnew,(6.0.9)*
G04 #@! TF.CreationDate,2024-11-23T18:31:41+01:00*
G04 #@! TF.ProjectId,Sombrero_MSX_Goa'uld,536f6d62-7265-4726-9f5f-4d53585f476f,rev?*
G04 #@! TF.SameCoordinates,Original*
G04 #@! TF.FileFunction,Copper,L4,Bot*
G04 #@! TF.FilePolarity,Positive*
%FSLAX46Y46*%
G04 Gerber Fmt 4.6, Leading zero omitted, Abs format (unit mm)*
G04 Created by KiCad (PCBNEW (6.0.9)) date 2024-11-23 18:31:41*
%MOMM*%
%LPD*%
G01*
G04 APERTURE LIST*
G04 Aperture macros list*
%AMRoundRect*
0 Rectangle with rounded corners*
0 $1 Rounding radius*
0 $2 $3 $4 $5 $6 $7 $8 $9 X,Y pos of 4 corners*
0 Add a 4 corners polygon primitive as box body*
4,1,4,$2,$3,$4,$5,$6,$7,$8,$9,$2,$3,0*
0 Add four circle primitives for the rounded corners*
1,1,$1+$1,$2,$3*
1,1,$1+$1,$4,$5*
1,1,$1+$1,$6,$7*
1,1,$1+$1,$8,$9*
0 Add four rect primitives between the rounded corners*
20,1,$1+$1,$2,$3,$4,$5,0*
20,1,$1+$1,$4,$5,$6,$7,0*
20,1,$1+$1,$6,$7,$8,$9,0*
20,1,$1+$1,$8,$9,$2,$3,0*%
G04 Aperture macros list end*
G04 #@! TA.AperFunction,ComponentPad*
%ADD10R,2.400000X1.600000*%
G04 #@! TD*
G04 #@! TA.AperFunction,ComponentPad*
%ADD11O,2.400000X1.600000*%
G04 #@! TD*
G04 #@! TA.AperFunction,ComponentPad*
%ADD12R,1.600000X1.600000*%
G04 #@! TD*
G04 #@! TA.AperFunction,ComponentPad*
%ADD13O,1.600000X1.600000*%
G04 #@! TD*
G04 #@! TA.AperFunction,SMDPad,CuDef*
%ADD14RoundRect,0.100000X-0.100000X0.637500X-0.100000X-0.637500X0.100000X-0.637500X0.100000X0.637500X0*%
G04 #@! TD*
G04 #@! TA.AperFunction,SMDPad,CuDef*
%ADD15RoundRect,0.250000X-0.475000X0.250000X-0.475000X-0.250000X0.475000X-0.250000X0.475000X0.250000X0*%
G04 #@! TD*
G04 #@! TA.AperFunction,SMDPad,CuDef*
%ADD16RoundRect,0.100000X0.100000X-0.637500X0.100000X0.637500X-0.100000X0.637500X-0.100000X-0.637500X0*%
G04 #@! TD*
G04 #@! TA.AperFunction,ViaPad*
%ADD17C,0.800000*%
G04 #@! TD*
G04 #@! TA.AperFunction,Conductor*
%ADD18C,0.450000*%
G04 #@! TD*
G04 #@! TA.AperFunction,Conductor*
%ADD19C,0.400600*%
G04 #@! TD*
G04 #@! TA.AperFunction,Conductor*
%ADD20C,0.300000*%
G04 #@! TD*
G04 APERTURE END LIST*
D10*
X137160000Y-77470000D03*
D11*
X137160000Y-80010000D03*
X137160000Y-82550000D03*
X137160000Y-85090000D03*
X137160000Y-87630000D03*
X137160000Y-90170000D03*
X137160000Y-92710000D03*
X137160000Y-95250000D03*
X137160000Y-97790000D03*
X137160000Y-100330000D03*
X137160000Y-102870000D03*
X137160000Y-105410000D03*
X137160000Y-107950000D03*
X137160000Y-110490000D03*
X137160000Y-113030000D03*
X137160000Y-115570000D03*
X137160000Y-118110000D03*
X137160000Y-120650000D03*
X137160000Y-123190000D03*
X137160000Y-125730000D03*
X157480000Y-125730000D03*
X157480000Y-123190000D03*
X157480000Y-120650000D03*
X157480000Y-118110000D03*
X157480000Y-115570000D03*
X157480000Y-113030000D03*
X157480000Y-110490000D03*
X157480000Y-107950000D03*
X157480000Y-105410000D03*
X157480000Y-102870000D03*
X157480000Y-100330000D03*
X157480000Y-97790000D03*
X157480000Y-95250000D03*
X157480000Y-92710000D03*
X157480000Y-90170000D03*
X157480000Y-87630000D03*
X157480000Y-85090000D03*
X157480000Y-82550000D03*
X157480000Y-80010000D03*
X157480000Y-77470000D03*
D12*
X139710000Y-76200000D03*
D13*
X139710000Y-78740000D03*
X139710000Y-81280000D03*
X139710000Y-83820000D03*
X139710000Y-86360000D03*
X139710000Y-88900000D03*
X139710000Y-91440000D03*
X139710000Y-93980000D03*
X139710000Y-96520000D03*
X139710000Y-99060000D03*
X139710000Y-101600000D03*
X139710000Y-104140000D03*
X139710000Y-106680000D03*
X139710000Y-109220000D03*
X139710000Y-111760000D03*
X139710000Y-114300000D03*
X139710000Y-116840000D03*
X139710000Y-119380000D03*
X139710000Y-121920000D03*
X139710000Y-124460000D03*
X154950000Y-124460000D03*
X154950000Y-121920000D03*
X154950000Y-119380000D03*
X154950000Y-116840000D03*
X154950000Y-114300000D03*
X154950000Y-111760000D03*
X154950000Y-109220000D03*
X154950000Y-106680000D03*
X154950000Y-104140000D03*
X154950000Y-101600000D03*
X154950000Y-99060000D03*
X154950000Y-96520000D03*
X154950000Y-93980000D03*
X154950000Y-91440000D03*
X154950000Y-88900000D03*
X154950000Y-86360000D03*
X154950000Y-83820000D03*
X154950000Y-81280000D03*
X154950000Y-78740000D03*
X154950000Y-76200000D03*
D14*
X145665000Y-98737500D03*
X146315000Y-98737500D03*
X146965000Y-98737500D03*
X147615000Y-98737500D03*
X148265000Y-98737500D03*
X148915000Y-98737500D03*
X149565000Y-98737500D03*
X150215000Y-98737500D03*
X150865000Y-98737500D03*
X151515000Y-98737500D03*
X151515000Y-104462500D03*
X150865000Y-104462500D03*
X150215000Y-104462500D03*
X149565000Y-104462500D03*
X148915000Y-104462500D03*
X148265000Y-104462500D03*
X147615000Y-104462500D03*
X146965000Y-104462500D03*
X146315000Y-104462500D03*
X145665000Y-104462500D03*
D15*
X151130000Y-117160000D03*
X151130000Y-119060000D03*
D16*
X148975000Y-120972500D03*
X148325000Y-120972500D03*
X147675000Y-120972500D03*
X147025000Y-120972500D03*
X146375000Y-120972500D03*
X145725000Y-120972500D03*
X145075000Y-120972500D03*
X144425000Y-120972500D03*
X143775000Y-120972500D03*
X143125000Y-120972500D03*
X143125000Y-115247500D03*
X143775000Y-115247500D03*
X144425000Y-115247500D03*
X145075000Y-115247500D03*
X145725000Y-115247500D03*
X146375000Y-115247500D03*
X147025000Y-115247500D03*
X147675000Y-115247500D03*
X148325000Y-115247500D03*
X148975000Y-115247500D03*
D15*
X143510000Y-100650000D03*
X143510000Y-102550000D03*
X152400000Y-82870000D03*
X152400000Y-84770000D03*
D16*
X150245000Y-86682500D03*
X149595000Y-86682500D03*
X148945000Y-86682500D03*
X148295000Y-86682500D03*
X147645000Y-86682500D03*
X146995000Y-86682500D03*
X146345000Y-86682500D03*
X145695000Y-86682500D03*
X145045000Y-86682500D03*
X144395000Y-86682500D03*
X144395000Y-80957500D03*
X145045000Y-80957500D03*
X145695000Y-80957500D03*
X146345000Y-80957500D03*
X146995000Y-80957500D03*
X147645000Y-80957500D03*
X148295000Y-80957500D03*
X148945000Y-80957500D03*
X149595000Y-80957500D03*
X150245000Y-80957500D03*
D17*
X149217800Y-122340100D03*
X144857200Y-100928000D03*
X144858100Y-104670800D03*
X151173300Y-85553300D03*
X145866500Y-105801500D03*
X147279900Y-85326300D03*
X148696500Y-89984600D03*
X147675000Y-122353500D03*
X147060400Y-119629200D03*
X150243300Y-122881100D03*
X144986500Y-117223500D03*
X144099700Y-117788800D03*
X143032200Y-99530400D03*
X144479300Y-98095300D03*
X147395000Y-100128300D03*
X142990900Y-97197400D03*
X149223900Y-100086700D03*
X142162900Y-95845100D03*
X148025900Y-82498900D03*
X150078300Y-89244700D03*
X147960900Y-88630200D03*
X150192900Y-82342400D03*
X144777500Y-82616900D03*
X150885300Y-83191000D03*
X141352200Y-115735800D03*
X145571200Y-113071900D03*
X149787600Y-114779900D03*
X149861300Y-120207500D03*
X146583800Y-113344200D03*
X149465900Y-113728300D03*
X150390200Y-105809400D03*
X147158800Y-108768100D03*
X142336700Y-109625400D03*
X143070500Y-108154600D03*
X144595100Y-107780100D03*
D18*
X144858100Y-104670800D02*
X145456700Y-104670800D01*
X157480000Y-115570000D02*
X152720000Y-115570000D01*
X145456700Y-104670800D02*
X145665000Y-104462500D01*
X148975200Y-120972500D02*
X149217800Y-121215100D01*
X143510000Y-100650000D02*
X143788000Y-100928000D01*
X143788000Y-100928000D02*
X144857200Y-100928000D01*
X148975000Y-120972500D02*
X148975200Y-120972500D01*
X151130000Y-117160000D02*
X150887500Y-117160000D01*
X150887500Y-117160000D02*
X148975000Y-115247500D01*
X152720000Y-115570000D02*
X151130000Y-117160000D01*
X149217800Y-121215100D02*
X149217800Y-122340100D01*
X151616700Y-85553300D02*
X151173300Y-85553300D01*
X140186400Y-125730000D02*
X137160000Y-125730000D01*
X149807700Y-112903200D02*
X149124200Y-112903200D01*
X143806800Y-102253200D02*
X149249400Y-102253200D01*
X148325000Y-120126000D02*
X148325000Y-120972500D01*
X143455600Y-122190700D02*
X143455600Y-122460800D01*
X143455600Y-122460800D02*
X140186400Y-125730000D01*
X151515000Y-98737500D02*
X151515000Y-99987600D01*
X147025000Y-120972500D02*
X147025000Y-121820000D01*
X151130000Y-119060000D02*
X149391000Y-119060000D01*
X151515000Y-99987600D02*
X154442300Y-102914900D01*
X151515000Y-97610500D02*
X151515000Y-98737500D01*
D19*
X146339400Y-104486900D02*
X146315000Y-104462500D01*
X148312800Y-115247500D02*
X148325000Y-115247500D01*
D18*
X148312800Y-113714600D02*
X148312800Y-115247500D01*
X143125000Y-121860100D02*
X143125000Y-120972500D01*
X149934500Y-113030000D02*
X149807700Y-112903200D01*
X147025000Y-120972500D02*
X147675000Y-120972500D01*
X146028400Y-122194000D02*
X145725000Y-121890600D01*
X147025000Y-121820000D02*
X146651000Y-122194000D01*
X145725000Y-121890600D02*
X145424900Y-122190700D01*
X143510000Y-102550000D02*
X143806800Y-102253200D01*
X148312800Y-115247500D02*
X148312800Y-116152900D01*
X146651000Y-122194000D02*
X146028400Y-122194000D01*
X151173300Y-85754200D02*
X150245000Y-86682500D01*
X152400000Y-84770000D02*
X151616700Y-85553300D01*
X149391000Y-119060000D02*
X148325000Y-120126000D01*
X149124200Y-112903200D02*
X148312800Y-113714600D01*
X157480000Y-113030000D02*
X149934500Y-113030000D01*
X154442300Y-102914900D02*
X154950000Y-102914900D01*
X144395000Y-86682500D02*
X144395000Y-90490500D01*
X148312800Y-116152900D02*
X145725000Y-118740700D01*
X151173300Y-85553300D02*
X151173300Y-85754200D01*
X143455600Y-122190700D02*
X143125000Y-121860100D01*
D19*
X146339400Y-104707300D02*
X146339400Y-104486900D01*
D18*
X145424900Y-122190700D02*
X143455600Y-122190700D01*
X154950000Y-104140000D02*
X154950000Y-102914900D01*
X144395000Y-90490500D02*
X151515000Y-97610500D01*
X147675000Y-120972500D02*
X148325000Y-120972500D01*
X149249400Y-102253200D02*
X151515000Y-99987600D01*
X145725000Y-121890600D02*
X145725000Y-120972500D01*
X145725000Y-118740700D02*
X145725000Y-120972500D01*
X146339400Y-105328600D02*
X145866500Y-105801500D01*
X146339400Y-104707300D02*
X146339400Y-105328600D01*
D20*
X150828400Y-89026600D02*
X150828400Y-88934000D01*
X150018600Y-88494600D02*
X148945000Y-87421000D01*
X150389000Y-88494600D02*
X150018600Y-88494600D01*
X150828400Y-88934000D02*
X150389000Y-88494600D01*
X159030100Y-94740300D02*
X158269800Y-93980000D01*
X154511800Y-92710000D02*
X150828400Y-89026600D01*
X155326700Y-92710000D02*
X154511800Y-92710000D01*
X148945000Y-87421000D02*
X148945000Y-86682500D01*
X157480000Y-102870000D02*
X159030100Y-102870000D01*
X158269800Y-93980000D02*
X156596700Y-93980000D01*
X159030100Y-102870000D02*
X159030100Y-94740300D01*
X156596700Y-93980000D02*
X155326700Y-92710000D01*
X148295000Y-85926000D02*
X147695300Y-85326300D01*
X147695300Y-85326300D02*
X147279900Y-85326300D01*
X148295000Y-86682500D02*
X148295000Y-85926000D01*
X148192600Y-89984600D02*
X148696500Y-89984600D01*
X146345000Y-86682500D02*
X146345000Y-88137000D01*
X146345000Y-88137000D02*
X148192600Y-89984600D01*
X152723800Y-95250000D02*
X157480000Y-95250000D01*
X145695000Y-88221200D02*
X152723800Y-95250000D01*
X145695000Y-86682500D02*
X145695000Y-88221200D01*
X145075000Y-117312000D02*
X144986500Y-117223500D01*
X145075000Y-120972500D02*
X145075000Y-117312000D01*
X144425000Y-120972500D02*
X144425000Y-118114100D01*
X144425000Y-118114100D02*
X144099700Y-117788800D01*
X146315000Y-99463000D02*
X145950600Y-99827400D01*
X146315000Y-98737500D02*
X146315000Y-99463000D01*
X144961200Y-99827400D02*
X144664200Y-99530400D01*
X145950600Y-99827400D02*
X144961200Y-99827400D01*
X144664200Y-99530400D02*
X143032200Y-99530400D01*
X146965000Y-98012300D02*
X146601100Y-97648400D01*
X146965000Y-98737500D02*
X146965000Y-98012300D01*
X144926200Y-97648400D02*
X144479300Y-98095300D01*
X146601100Y-97648400D02*
X144926200Y-97648400D01*
X147615000Y-99908300D02*
X147395000Y-100128300D01*
X147615000Y-98737500D02*
X147615000Y-99908300D01*
X143041100Y-97147200D02*
X142990900Y-97197400D01*
X147435500Y-97147200D02*
X143041100Y-97147200D01*
X148265000Y-97976700D02*
X147435500Y-97147200D01*
X148265000Y-98737500D02*
X148265000Y-97976700D01*
X148915000Y-99777800D02*
X149223900Y-100086700D01*
X148915000Y-98737500D02*
X148915000Y-99777800D01*
X149565000Y-98737500D02*
X149565000Y-97995300D01*
X148015100Y-96445400D02*
X142623400Y-96445400D01*
X140964600Y-96624500D02*
X140860100Y-96520000D01*
X142623400Y-96445400D02*
X142444300Y-96624500D01*
X149565000Y-97995300D02*
X148015100Y-96445400D01*
X142444300Y-96624500D02*
X140964600Y-96624500D01*
X139710000Y-96520000D02*
X140860100Y-96520000D01*
X140860100Y-99060000D02*
X140860100Y-99620800D01*
X142917400Y-101678100D02*
X148766100Y-101678100D01*
X140860100Y-99620800D02*
X142917400Y-101678100D01*
X139710000Y-99060000D02*
X140860100Y-99060000D01*
X150215000Y-100229200D02*
X150215000Y-98737500D01*
X148766100Y-101678100D02*
X150215000Y-100229200D01*
X150865000Y-97997100D02*
X148713000Y-95845100D01*
X150865000Y-98737500D02*
X150865000Y-97997100D01*
X148713000Y-95845100D02*
X142162900Y-95845100D01*
X148070800Y-87835900D02*
X148523900Y-87835900D01*
X149932700Y-89244700D02*
X150078300Y-89244700D01*
X148523900Y-87835900D02*
X149932700Y-89244700D01*
X147645000Y-87410100D02*
X148070800Y-87835900D01*
X147645000Y-86682500D02*
X147645000Y-87410100D01*
X149286500Y-82344600D02*
X147160000Y-84471100D01*
X149595000Y-80957500D02*
X149595000Y-81879600D01*
X147160000Y-84471100D02*
X142749000Y-84471100D01*
X149286500Y-82188100D02*
X149286500Y-82344600D01*
X142749000Y-84471100D02*
X140860100Y-86360000D01*
X149595000Y-81879600D02*
X149286500Y-82188100D01*
X139710000Y-86360000D02*
X140860100Y-86360000D01*
X142089200Y-87510900D02*
X139067500Y-87510900D01*
X145045000Y-85945600D02*
X144693700Y-85594300D01*
X135907700Y-76200000D02*
X139710000Y-76200000D01*
X144693700Y-85594300D02*
X144005800Y-85594300D01*
X144005800Y-85594300D02*
X142089200Y-87510900D01*
X136402700Y-86360000D02*
X135609800Y-85567100D01*
X137916600Y-86360000D02*
X136402700Y-86360000D01*
X145045000Y-86682500D02*
X145045000Y-85945600D01*
X135609800Y-85567100D02*
X135609800Y-76497900D01*
X135609800Y-76497900D02*
X135907700Y-76200000D01*
X139067500Y-87510900D02*
X137916600Y-86360000D01*
X146995000Y-87664300D02*
X146995000Y-86682500D01*
X147960900Y-88630200D02*
X146995000Y-87664300D01*
X145045000Y-80189900D02*
X143595100Y-78740000D01*
X143595100Y-78740000D02*
X139710000Y-78740000D01*
X145045000Y-80957500D02*
X145045000Y-80189900D01*
X151724600Y-83820000D02*
X153043200Y-83820000D01*
X154433100Y-82430100D02*
X154950000Y-82430100D01*
X154950000Y-81280000D02*
X154950000Y-82430100D01*
X149595000Y-86682500D02*
X149595000Y-85949600D01*
X149595000Y-85949600D02*
X151724600Y-83820000D01*
X153043200Y-83820000D02*
X154433100Y-82430100D01*
X140935500Y-83895400D02*
X145514700Y-83895400D01*
X147645000Y-81765100D02*
X147645000Y-80957500D01*
X145514700Y-83895400D02*
X147645000Y-81765100D01*
X139710000Y-83820000D02*
X140860100Y-83820000D01*
X140860100Y-83820000D02*
X140935500Y-83895400D01*
X146995000Y-81690600D02*
X145318600Y-83367000D01*
X145318600Y-83367000D02*
X142947100Y-83367000D01*
X139710000Y-81280000D02*
X140860100Y-81280000D01*
X142947100Y-83367000D02*
X140860100Y-81280000D01*
X146995000Y-80957500D02*
X146995000Y-81690600D01*
X135084300Y-120124400D02*
X135084300Y-97804300D01*
X137160000Y-120650000D02*
X135609900Y-120650000D01*
X142511500Y-97790000D02*
X143566900Y-98845400D01*
X135084300Y-97804300D02*
X136267900Y-96620700D01*
X138017300Y-96620700D02*
X139186600Y-97790000D01*
X136267900Y-96620700D02*
X138017300Y-96620700D01*
X139186600Y-97790000D02*
X142511500Y-97790000D01*
X143566900Y-98845400D02*
X145557100Y-98845400D01*
X135609900Y-120650000D02*
X135084300Y-120124400D01*
X145557100Y-98845400D02*
X145665000Y-98737500D01*
X145695000Y-80957500D02*
X145695000Y-81699400D01*
X145695000Y-81699400D02*
X144777500Y-82616900D01*
X146345000Y-80141300D02*
X152439400Y-74046900D01*
X160047300Y-89152800D02*
X159030100Y-90170000D01*
X157549400Y-74046900D02*
X160047300Y-76544800D01*
X157480000Y-90170000D02*
X159030100Y-90170000D01*
X146345000Y-80957500D02*
X146345000Y-80141300D01*
X160047300Y-76544800D02*
X160047300Y-89152800D01*
X152439400Y-74046900D02*
X157549400Y-74046900D01*
X148295000Y-80162800D02*
X148295000Y-80957500D01*
X159530300Y-87129800D02*
X159530300Y-76735200D01*
X157344300Y-74549200D02*
X153908600Y-74549200D01*
X157480000Y-87630000D02*
X159030100Y-87630000D01*
X153908600Y-74549200D02*
X148295000Y-80162800D01*
X159530300Y-76735200D02*
X157344300Y-74549200D01*
X159030100Y-87630000D02*
X159530300Y-87129800D01*
X147486800Y-118110000D02*
X152529900Y-118110000D01*
X146309900Y-119286900D02*
X147486800Y-118110000D01*
X154950000Y-116840000D02*
X153799900Y-116840000D01*
X146375000Y-120972500D02*
X146309900Y-120907400D01*
X146309900Y-120907400D02*
X146309900Y-119286900D01*
X152529900Y-118110000D02*
X153799900Y-116840000D01*
X143775000Y-119278400D02*
X139946700Y-115450100D01*
X139710000Y-114300000D02*
X139710000Y-115450100D01*
X143775000Y-120972500D02*
X143775000Y-119278400D01*
X139946700Y-115450100D02*
X139710000Y-115450100D01*
X157480000Y-82550000D02*
X159030100Y-82550000D01*
X159030100Y-76967900D02*
X157111600Y-75049400D01*
X154117500Y-75049400D02*
X148945000Y-80221900D01*
X148945000Y-80221900D02*
X148945000Y-80957500D01*
X159030100Y-82550000D02*
X159030100Y-76967900D01*
X157111600Y-75049400D02*
X154117500Y-75049400D01*
X143447500Y-80010000D02*
X137160000Y-80010000D01*
X144395000Y-80957500D02*
X143447500Y-80010000D01*
X145375600Y-116344500D02*
X141960900Y-116344500D01*
X145725000Y-115247500D02*
X145725000Y-115995100D01*
X141960900Y-116344500D02*
X141352200Y-115735800D01*
X145725000Y-115995100D02*
X145375600Y-116344500D01*
X135597800Y-110955100D02*
X135597800Y-99352200D01*
X143125000Y-115247500D02*
X140907500Y-113030000D01*
X139186600Y-113030000D02*
X137916600Y-111760000D01*
X136402700Y-111760000D02*
X135597800Y-110955100D01*
X140907500Y-113030000D02*
X139186600Y-113030000D01*
X135597800Y-99352200D02*
X137160000Y-97790000D01*
X137916600Y-111760000D02*
X136402700Y-111760000D01*
D18*
X151176500Y-80777900D02*
X154484400Y-77470000D01*
X152400000Y-82175200D02*
X151176500Y-80951700D01*
X152400000Y-82870000D02*
X152400000Y-82175200D01*
X150250800Y-80951700D02*
X150245000Y-80957500D01*
X151176500Y-80951700D02*
X150250800Y-80951700D01*
X154484400Y-77470000D02*
X157480000Y-77470000D01*
X151176500Y-80951700D02*
X151176500Y-80777900D01*
D20*
X152160600Y-105410000D02*
X157480000Y-105410000D01*
X143775000Y-113795600D02*
X152160600Y-105410000D01*
X143775000Y-115247500D02*
X143775000Y-113795600D01*
X153053000Y-107950000D02*
X157480000Y-107950000D01*
X144425000Y-114482400D02*
X144780500Y-114126900D01*
X146876100Y-114126900D02*
X153053000Y-107950000D01*
X144780500Y-114126900D02*
X146876100Y-114126900D01*
X144425000Y-115247500D02*
X144425000Y-114482400D01*
X142767500Y-103404900D02*
X142110800Y-102748200D01*
X142110800Y-102365000D02*
X140075800Y-100330000D01*
X140075800Y-100330000D02*
X137160000Y-100330000D01*
X151515000Y-104462500D02*
X151515000Y-103702500D01*
X145088000Y-102862800D02*
X144545900Y-103404900D01*
X150675300Y-102862800D02*
X145088000Y-102862800D01*
X142110800Y-102748200D02*
X142110800Y-102365000D01*
X144545900Y-103404900D02*
X142767500Y-103404900D01*
X151515000Y-103702500D02*
X150675300Y-102862800D01*
X150865000Y-104462500D02*
X150865000Y-105334600D01*
X150865000Y-105334600D02*
X150390200Y-105809400D01*
X142972800Y-105410000D02*
X137160000Y-105410000D01*
X149908700Y-103369400D02*
X145288900Y-103369400D01*
X145288900Y-103369400D02*
X144737600Y-103920700D01*
X150215000Y-104462500D02*
X150215000Y-103675700D01*
X144737600Y-103920700D02*
X144462100Y-103920700D01*
X144462100Y-103920700D02*
X142972800Y-105410000D01*
X150215000Y-103675700D02*
X149908700Y-103369400D01*
X149565000Y-104462500D02*
X149565000Y-106361900D01*
X149565000Y-106361900D02*
X147158800Y-108768100D01*
X148915000Y-104462500D02*
X148915000Y-105951300D01*
X144376300Y-110490000D02*
X138710100Y-110490000D01*
X137160000Y-110490000D02*
X138710100Y-110490000D01*
X148915000Y-105951300D02*
X144376300Y-110490000D01*
X144533700Y-109625400D02*
X142336700Y-109625400D01*
X148265000Y-104462500D02*
X148265000Y-105894100D01*
X148265000Y-105894100D02*
X144533700Y-109625400D01*
X147615000Y-105821200D02*
X144903200Y-108533000D01*
X143448900Y-108533000D02*
X143070500Y-108154600D01*
X144903200Y-108533000D02*
X143448900Y-108533000D01*
X147615000Y-104462500D02*
X147615000Y-105821200D01*
X146965000Y-104462500D02*
X146965000Y-105764000D01*
X144948900Y-107780100D02*
X144595100Y-107780100D01*
X146965000Y-105764000D02*
X144948900Y-107780100D01*
M02*
