%TF.GenerationSoftware,KiCad,Pcbnew,(6.0.9)*%
%TF.CreationDate,2024-11-23T18:31:45+01:00*%
%TF.ProjectId,Sombrero_MSX_Goa'uld,536f6d62-7265-4726-9f5f-4d53585f476f,rev?*%
%TF.SameCoordinates,Original*%
%TF.FileFunction,Drillmap*%
%TF.FilePolarity,Positive*%
%FSLAX45Y45*%
G04 Gerber Fmt 4.5, Leading zero omitted, Abs format (unit mm)*
G04 Created by KiCad (PCBNEW (6.0.9)) date 2024-11-23 18:31:45*
%MOMM*%
%LPD*%
G01*
G04 APERTURE LIST*
%ADD10C,0.050000*%
%ADD11C,0.200000*%
G04 APERTURE END LIST*
D10*
X13462000Y-7366000D02*
X16065500Y-7366000D01*
X16065500Y-7366000D02*
X16065500Y-12801600D01*
X16065500Y-12801600D02*
X13462000Y-12801600D01*
X13462000Y-12801600D02*
X13462000Y-7366000D01*
D11*
X13717119Y-13114576D02*
X13717119Y-12914576D01*
X13764738Y-12914576D01*
X13793309Y-12924100D01*
X13812357Y-12943148D01*
X13821881Y-12962195D01*
X13831405Y-13000290D01*
X13831405Y-13028862D01*
X13821881Y-13066957D01*
X13812357Y-13086005D01*
X13793309Y-13105052D01*
X13764738Y-13114576D01*
X13717119Y-13114576D01*
X13917119Y-13114576D02*
X13917119Y-12981243D01*
X13917119Y-13019338D02*
X13926643Y-13000290D01*
X13936167Y-12990767D01*
X13955214Y-12981243D01*
X13974262Y-12981243D01*
X14040928Y-13114576D02*
X14040928Y-12981243D01*
X14040928Y-12914576D02*
X14031405Y-12924100D01*
X14040928Y-12933624D01*
X14050452Y-12924100D01*
X14040928Y-12914576D01*
X14040928Y-12933624D01*
X14164738Y-13114576D02*
X14145690Y-13105052D01*
X14136167Y-13086005D01*
X14136167Y-12914576D01*
X14269500Y-13114576D02*
X14250452Y-13105052D01*
X14240928Y-13086005D01*
X14240928Y-12914576D01*
X14498071Y-13114576D02*
X14498071Y-12914576D01*
X14564738Y-13057433D01*
X14631405Y-12914576D01*
X14631405Y-13114576D01*
X14812357Y-13114576D02*
X14812357Y-13009814D01*
X14802833Y-12990767D01*
X14783786Y-12981243D01*
X14745690Y-12981243D01*
X14726643Y-12990767D01*
X14812357Y-13105052D02*
X14793309Y-13114576D01*
X14745690Y-13114576D01*
X14726643Y-13105052D01*
X14717119Y-13086005D01*
X14717119Y-13066957D01*
X14726643Y-13047909D01*
X14745690Y-13038386D01*
X14793309Y-13038386D01*
X14812357Y-13028862D01*
X14907595Y-12981243D02*
X14907595Y-13181243D01*
X14907595Y-12990767D02*
X14926643Y-12981243D01*
X14964738Y-12981243D01*
X14983786Y-12990767D01*
X14993309Y-13000290D01*
X15002833Y-13019338D01*
X15002833Y-13076481D01*
X14993309Y-13095528D01*
X14983786Y-13105052D01*
X14964738Y-13114576D01*
X14926643Y-13114576D01*
X14907595Y-13105052D01*
X15088548Y-13095528D02*
X15098071Y-13105052D01*
X15088548Y-13114576D01*
X15079024Y-13105052D01*
X15088548Y-13095528D01*
X15088548Y-13114576D01*
X15088548Y-12990767D02*
X15098071Y-13000290D01*
X15088548Y-13009814D01*
X15079024Y-13000290D01*
X15088548Y-12990767D01*
X15088548Y-13009814D01*
M02*
